<svg width="89" height="16" viewBox="0 0 89 16" fill="none" xmlns="http://www.w3.org/2000/svg">
<path d="M4.71773 4.62351V3.2463L5.00658 1.96745L6.25822 0.885356L7.50987 0.393494H9.33921L10.976 1.47559L11.5537 3.2463L10.976 5.31212L12.2276 4.91863H13.0942L14.3458 5.31212L15.6937 6.39421V8.16492L14.7309 10.2307L12.709 11.2145L10.976 10.9193V13.2803L10.0132 14.8542L8.56896 15.7396L5.8731 14.8542L4.71773 13.2803L5.00658 10.9193L3.56236 11.2145L1.82931 10.9193L0.673941 9.64051L0.288818 7.8698L0.673941 5.80398L2.21443 4.62351H3.56236H4.71773Z" fill="#F8BA00"/>
<ellipse cx="7.99125" cy="8.06657" rx="2.40702" ry="2.36094" fill="white"/>
<path d="M15.9924 7.7875C15.9712 7.40384 15.8981 6.98674 15.7267 6.52636C15.6227 6.24305 15.4802 5.97548 15.2915 5.75119C15.02 5.43836 14.6811 5.15505 14.3075 4.97011C13.8473 4.74779 13.3678 4.55694 12.975 4.55301L12.5976 4.56481C12.3338 4.58055 12.0911 4.64351 11.8254 4.79304C11.7599 4.83042 11.6983 4.86781 11.6367 4.90715L11.6656 4.83632C11.7099 4.71631 11.7503 4.59039 11.7619 4.46054C11.7753 4.31692 11.758 4.21067 11.7561 4.13984L11.7715 3.75423L11.7657 3.36074C11.7657 3.12661 11.7676 2.8433 11.7253 2.5777C11.6405 2.0819 11.4114 1.57036 10.982 1.18277C10.7586 0.982089 10.5179 0.736161 10.2233 0.564992C9.86898 0.356443 9.4415 0.12035 8.93506 0.0377175C8.61348 -0.0173711 8.29768 -0.00753388 7.92218 0.0377175C7.60061 0.0770664 7.31562 0.147893 7.05758 0.232493C6.83999 0.301354 6.61469 0.391855 6.40673 0.513837C6.01005 0.744028 5.65766 1.05489 5.31298 1.36575C4.94711 1.69234 4.6756 2.09173 4.5408 2.58163C4.46378 2.85904 4.46378 3.08923 4.4657 3.28794C4.46763 3.50436 4.49266 3.72865 4.53309 3.91556L4.62937 4.42513C4.62937 4.42513 4.63323 4.4389 4.63516 4.44677C4.62553 4.44087 4.6159 4.43496 4.60627 4.42906C4.43296 4.34052 4.22115 4.29528 3.95926 4.26183L3.54718 4.20871C3.25641 4.18313 3.04845 4.18707 2.827 4.22248C2.64792 4.25593 2.39374 4.31888 2.10875 4.44874C1.94507 4.52153 1.78139 4.61007 1.63697 4.69073C1.07662 5.00159 0.629879 5.38131 0.350664 5.88498C0.208169 6.14468 0.104186 6.42406 0.0502689 6.73098C0.00983095 6.97101 -0.00172462 7.16972 0.000200994 7.37433L0.00405599 8.18689C0.00790721 8.40724 0.0406403 8.61579 0.109962 8.8027C0.183136 9.00732 0.312151 9.25325 0.433464 9.48344C0.525894 9.66248 0.614478 9.82184 0.716536 9.96547L1.03618 10.4534C1.17675 10.6797 1.31733 10.8213 1.4733 10.9236C1.63698 11.0279 1.7968 11.1282 1.97396 11.203C2.06639 11.2423 2.16075 11.2718 2.25703 11.2915L2.40529 11.3112L2.4958 11.321C2.62482 11.3545 2.67488 11.3919 2.8039 11.4174L3.36617 11.5138C3.58762 11.5394 3.78211 11.506 3.94771 11.4529L4.33476 11.325L4.57932 11.2718L4.68137 11.2463L4.74106 11.2364L4.77765 11.2325C4.65826 11.5414 4.58123 11.8444 4.56968 12.1729L4.53888 13.1291C4.53888 13.4282 4.58317 13.7076 4.73337 13.981C4.85275 14.1994 4.97214 14.4375 5.14929 14.6618C5.28601 14.831 5.44392 14.9451 5.59989 15.0415C5.82712 15.1753 6.09862 15.3523 6.40287 15.5156C6.5627 15.6042 6.73023 15.6888 6.91509 15.7596C7.28673 15.9052 7.67378 15.9563 8.00691 15.9819C8.15518 15.9937 8.31885 16.0114 8.51719 15.9898C8.83877 15.9426 9.15843 15.8009 9.44727 15.6612C9.83432 15.4783 10.1405 15.2736 10.3504 14.9903C10.4929 14.8015 10.6065 14.585 10.7163 14.3607C10.903 13.9712 11.0571 13.6702 11.1765 13.3534C11.265 13.1272 11.2959 12.895 11.3074 12.6589C11.319 12.4051 11.3267 12.1474 11.2843 11.8896C11.2516 11.6988 11.2092 11.5552 11.163 11.4371L11.0937 11.2837L11.1245 11.2974L11.292 11.3702L11.4326 11.4155L11.7002 11.4942C11.8658 11.5394 12.0449 11.5689 12.2625 11.567H12.405L12.4743 11.563L12.5417 11.5591L12.6746 11.5532C12.8248 11.5512 12.9962 11.5296 13.1868 11.4725C13.4545 11.386 13.7664 11.2699 14.0341 11.0987C14.3807 10.8941 14.76 10.658 15.0701 10.3117L15.4513 9.85529C15.6227 9.62706 15.7633 9.34178 15.8653 8.99354C15.9867 8.56464 16.0136 8.13574 15.9944 7.79734L15.9924 7.7875ZM5.06264 2.72328C5.1647 2.33766 5.36112 2.04058 5.66151 1.7671C6.00042 1.46215 6.3297 1.17883 6.66861 0.980121C6.83421 0.883716 7.02677 0.805018 7.21356 0.745994C7.44848 0.673199 7.70074 0.614178 7.98381 0.582699C8.33234 0.54335 8.58652 0.537447 8.84455 0.582699C9.24123 0.653527 9.60517 0.85224 9.94022 1.05685C10.1482 1.18277 10.3696 1.40509 10.5988 1.61954C10.9127 1.90876 11.0821 2.29045 11.1476 2.68197C11.1803 2.87281 11.1861 3.13252 11.188 3.36468L11.2034 3.768L11.2188 4.13984L11.2304 4.41726L11.1688 4.65138L11.0648 4.91699L11.0398 4.98388L11.0012 5.06062L10.9415 5.17866L10.8279 5.35179L10.7605 5.43443L10.6893 5.54461L10.6238 5.65085L10.5352 5.78267L10.4794 5.84366L10.4004 5.92432C10.3677 5.96367 10.3138 6.0286 10.2714 6.10533L10.1732 6.26666L10.1617 6.28437C10.0866 6.1978 9.99993 6.11123 9.88824 6.04237L9.83046 6.00499L9.59747 5.89088L9.47037 5.8476L9.28552 5.78464C8.97742 5.67446 8.67703 5.65872 8.38048 5.65675L7.91063 5.65085C7.79317 5.64692 7.65837 5.64101 7.5178 5.66069L7.44463 5.66856L7.37916 5.67839L7.32332 5.6902L7.2694 5.702L7.2097 5.71774L7.15964 5.73348L7.12112 5.74725L7.08262 5.76103L7.03832 5.77873L7.01137 5.79054L6.97286 5.80824L6.9459 5.82202L6.91701 5.83579L6.88042 5.85546L6.84192 5.87908L6.78414 5.92039L6.76103 5.94007C6.74948 5.9499 6.74178 5.96367 6.73216 5.97548C6.70712 5.98532 6.68401 5.99515 6.65705 6.00696C6.48567 6.09746 6.32199 6.18993 6.17372 6.30994V6.30601L6.1044 6.186L5.98694 6.00302L5.77319 5.69413L5.67499 5.55444L5.61914 5.47181C5.50746 5.29868 5.45355 5.16292 5.38422 4.97798C5.3072 4.7832 5.22054 4.53137 5.1724 4.29527L5.06649 3.78768C5.03376 3.64405 5.01065 3.44731 5.0068 3.2722C5.00102 3.07939 4.99717 2.92987 5.05108 2.72525L5.06264 2.72328ZM9.99992 9.0388L9.99029 9.06044L9.91905 9.18439L9.86512 9.26702L9.7804 9.39097C9.72263 9.4795 9.65909 9.56017 9.57436 9.64477L9.49926 9.7156L9.40491 9.78643L9.26433 9.88283L9.1488 9.95759L8.97934 10.0619L8.80796 10.1425L8.71361 10.174C8.63658 10.1898 8.55571 10.1878 8.4498 10.1799L8.11282 10.1484C7.93759 10.1366 7.76043 10.113 7.60253 10.0697L7.02677 9.91038L6.93627 9.8789L6.79569 9.8002L6.71289 9.75298L6.64165 9.70379L6.54729 9.61526L6.46449 9.53066L6.31429 9.35555L6.20454 9.25325C6.13137 9.18636 6.09478 9.14701 6.05819 9.08208L5.98694 8.93649C5.91377 8.8086 5.8637 8.65711 5.83674 8.50168L5.82904 8.18296C5.82904 7.99802 5.84252 7.86029 5.90991 7.7206L6.05433 7.39007L6.07744 7.33892L6.16024 7.19529L6.4048 6.83328C6.51456 6.68769 6.67823 6.56965 6.91701 6.42209L6.92664 6.41618C6.9536 6.41618 6.97863 6.42012 7.00366 6.41422L7.06528 6.39848L7.10187 6.38471L7.13653 6.37094L7.15964 6.3611L7.18082 6.35323L7.21356 6.34142L7.23281 6.33356L7.25399 6.32568L7.28095 6.31585L7.2925 6.31191L7.3368 6.30011L7.36761 6.29223L7.40419 6.2824L7.44463 6.27256L7.49855 6.26272L7.56209 6.24895L7.60445 6.23715C7.69111 6.21944 7.79316 6.21747 7.90678 6.21354L8.37855 6.21748C8.65777 6.21748 8.88691 6.23518 9.11028 6.31388L9.33366 6.38274L9.42223 6.40831L9.58976 6.47914L9.63406 6.50078C9.71108 6.54013 9.80736 6.63064 9.88246 6.71524C9.95948 6.81361 10.025 6.89428 10.0981 7.08118L10.1655 7.26415L10.2002 7.36253C10.2194 7.42745 10.2214 7.53173 10.2233 7.66945V7.99211C10.2156 8.19476 10.1886 8.40724 10.1559 8.56661C10.1232 8.71416 10.0866 8.85582 9.99799 9.03683L9.99992 9.0388ZM4.67174 10.7367L4.58894 10.7505L4.46956 10.7721L4.2173 10.8134C4.06903 10.8449 3.94386 10.8961 3.80329 10.9374C3.68198 10.9728 3.57221 10.9866 3.42587 10.9649L2.89632 10.8685C2.87514 10.8646 2.79427 10.8252 2.62481 10.782L2.45921 10.7544L2.3456 10.7426L2.17422 10.6954C2.04135 10.6403 1.90849 10.5577 1.75059 10.4573C1.64468 10.3904 1.59076 10.3412 1.4733 10.1543L1.12669 9.64084C1.04582 9.53263 0.966859 9.39687 0.878281 9.22964C0.758893 9.00142 0.63566 8.75942 0.583668 8.61383C0.537453 8.48594 0.514347 8.33839 0.512421 8.16525V7.36253C0.516272 7.17759 0.527822 7.02413 0.56826 6.81164C0.612549 6.56768 0.693428 6.34929 0.812817 6.13484C1.02849 5.74135 1.38472 5.4305 1.89116 5.14718L2.31864 4.92682C2.56126 4.82058 2.77308 4.7714 2.92136 4.74779C3.09851 4.71631 3.24102 4.71238 3.50868 4.73402L3.90727 4.7773C4.14027 4.79894 4.3078 4.83435 4.40794 4.87764C4.5331 4.92879 4.61783 4.98388 4.78151 5.11373L4.85083 5.17079L4.87393 5.19047C4.87393 5.19047 4.87972 5.1944 4.88164 5.19637C4.95867 5.38131 5.04338 5.56625 5.18395 5.77283L5.2552 5.87711L5.36496 6.01876L5.61145 6.31388L5.71928 6.45357L5.79245 6.55587L5.86177 6.65818C5.804 6.73688 5.75009 6.81558 5.70387 6.88641L5.59411 7.06938L5.55368 7.15005L5.40155 7.4727C5.28601 7.72257 5.27831 7.97047 5.28023 8.18099C5.28023 8.32068 5.28024 8.44856 5.2995 8.57448C5.32838 8.7968 5.38807 9.01519 5.49783 9.22964L5.57293 9.36343C5.64803 9.49328 5.73853 9.59362 5.83481 9.68215L5.84829 9.69396L5.82133 9.70576L5.70965 9.78052L5.57871 9.88677C5.34764 10.1032 5.16471 10.3904 5.01258 10.6836H5.0068C4.99332 10.6836 4.97984 10.6855 4.96636 10.6895L4.924 10.7013L4.90282 10.7092H4.88549L4.84697 10.717L4.80268 10.721L4.74299 10.7269L4.66789 10.7347L4.67174 10.7367ZM10.697 12.6196C10.6893 12.8202 10.67 12.9757 10.618 13.1134C10.5102 13.3928 10.3581 13.6761 10.1655 14.0715C10.0654 14.2781 9.96718 14.4591 9.86512 14.5949C9.73225 14.77 9.52815 14.9116 9.18924 15.0671C8.91773 15.189 8.62695 15.2992 8.42284 15.3228C8.31308 15.3386 8.19176 15.3346 8.04734 15.3287C7.74502 15.313 7.41382 15.2717 7.1269 15.1654C6.97478 15.1084 6.83228 15.0395 6.69364 14.9628C6.41635 14.8054 6.16217 14.6283 5.91954 14.4729C5.79437 14.3962 5.71543 14.3391 5.63262 14.2348C5.50361 14.0794 5.39 13.8787 5.26098 13.6603C5.157 13.4793 5.13582 13.3652 5.13197 13.1173L5.14737 12.1828C5.15507 11.8778 5.22825 11.6083 5.37074 11.2718C5.52287 10.902 5.7289 10.5085 5.95613 10.2803L6.05048 10.1779L6.11596 10.1091L6.18335 10.052L6.29118 10.1465L6.43176 10.2468L6.53188 10.3019L6.70519 10.3983L6.86117 10.4613L7.47351 10.6305C7.67763 10.6777 7.88752 10.6954 8.08393 10.7013L8.43825 10.719C8.55186 10.719 8.6828 10.7131 8.81182 10.6757L8.9909 10.6226C9.10066 10.5754 9.17383 10.5242 9.22967 10.4849L9.41454 10.3452L9.51851 10.2606L9.65138 10.1504L9.67256 10.1347L9.69952 10.176L9.72456 10.2075L9.73996 10.2252L9.75152 10.2389L9.77462 10.2704L9.79196 10.294L9.81698 10.3334L9.94793 10.4967L10.0288 10.5832C10.0789 10.6462 10.1116 10.6974 10.1443 10.7623L10.2791 11.0062L10.3485 11.0948L10.3889 11.1617L10.4024 11.1892L10.4621 11.3506L10.5911 11.6496C10.6219 11.7362 10.6489 11.8286 10.6739 11.9919C10.7047 12.167 10.7047 12.3835 10.697 12.6235V12.6196ZM15.3127 8.82238C15.2318 9.11159 15.1259 9.32998 15.0027 9.49918L14.6541 9.92218C14.4173 10.1957 14.088 10.414 13.7664 10.6108C13.5508 10.7347 13.2715 10.8272 13.0174 10.8941C12.8864 10.9315 12.7651 10.9472 12.6727 10.9492L12.5398 10.9433L12.4724 10.9394L12.3896 10.9354H12.2664C12.0969 10.9315 11.9987 10.9098 11.8658 10.8705L11.6174 10.7879L11.4865 10.7465L11.3613 10.6915L11.3016 10.6698L11.24 10.6501L11.1861 10.6344L11.1399 10.6226L11.0975 10.6128L11.0513 10.601L11.0282 10.5951L11.0089 10.5911L10.9685 10.5793L10.9358 10.5695L10.9165 10.5636L10.8857 10.5557L10.8664 10.5518L10.8414 10.5459L10.7894 10.536L10.749 10.5321H10.7316C10.7316 10.5321 10.7143 10.5321 10.7047 10.5321L10.6874 10.5006C10.6431 10.4003 10.5853 10.296 10.5064 10.1917L10.3947 10.0579L10.3138 9.95366L10.2984 9.93202L10.2753 9.89857L10.2541 9.86906L10.2368 9.84348L10.2098 9.80413L10.1674 9.75101L10.1386 9.7215L10.1251 9.70773C10.1366 9.69396 10.1482 9.68215 10.1597 9.66838L10.2522 9.54443L10.3157 9.45196L10.3947 9.33195L10.437 9.26112C10.5506 9.03879 10.6007 8.84402 10.6373 8.68859C10.6874 8.49382 10.724 8.25772 10.7374 8.01179V7.67535C10.7355 7.54156 10.7471 7.38614 10.6931 7.20316L10.6412 7.06938L10.5641 6.89821C10.5372 6.83132 10.5083 6.77229 10.4775 6.7172C10.4775 6.7172 10.4813 6.71524 10.4813 6.71327L10.5179 6.67786L10.5545 6.63457L10.5815 6.59522L10.6026 6.55981L10.618 6.53226L10.7008 6.38274L10.7856 6.27847L10.8318 6.23124L10.9512 6.10336L11.0667 5.93219L11.1283 5.83579L11.1746 5.76693L11.24 5.68429L11.317 5.56231C11.3421 5.54461 11.369 5.5269 11.3998 5.50919C11.5693 5.40295 11.785 5.27507 12.0122 5.16489C12.2336 5.05668 12.3896 5.02914 12.6091 5.02914L12.9519 5.03897C13.1964 5.05864 13.6509 5.23768 14.0649 5.46197C14.3537 5.61543 14.6349 5.86334 14.8602 6.13681C14.993 6.29421 15.1086 6.50079 15.1952 6.73098C15.3454 7.13431 15.4032 7.48451 15.4225 7.82095C15.4379 8.09639 15.4148 8.47217 15.3146 8.82041L15.3127 8.82238Z" fill="black"/>
<path d="M40.8203 4.62351V3.2463L41.1154 1.96745L42.3943 0.885356L43.6731 0.393494H45.5422L47.2145 1.47559L47.8047 3.2463L47.2145 5.31212L48.4934 4.91863H49.3787L50.6575 5.31212L52.0348 6.39421V8.16492L51.051 10.2307L48.9852 11.2145L47.2145 10.9193V13.2803L46.2308 14.8542L44.7552 15.7396L42.0008 14.8542L40.8203 13.2803L41.1154 10.9193L39.6398 11.2145L37.8691 10.9193L36.6887 9.64051L36.2952 7.8698L36.6887 5.80398L38.2626 4.62351H39.6398H40.8203Z" fill="white"/>
<ellipse cx="44.1649" cy="8.06657" rx="2.45931" ry="2.36094" fill="#F8BA00"/>
<path d="M52.3399 7.7875C52.3182 7.40384 52.2435 6.98674 52.0684 6.52636C51.9621 6.24305 51.8165 5.97548 51.6237 5.75119C51.3463 5.43836 51 5.15505 50.6184 4.97011C50.1481 4.74779 49.6582 4.55694 49.2569 4.55301L48.8713 4.56481C48.6017 4.58055 48.3538 4.64351 48.0823 4.79304C48.0154 4.83042 47.9525 4.86781 47.8895 4.90715L47.919 4.83632C47.9643 4.71631 48.0056 4.59039 48.0174 4.46054C48.0312 4.31692 48.0134 4.21067 48.0115 4.13984L48.0272 3.75423L48.0213 3.36074C48.0213 3.12661 48.0233 2.8433 47.98 2.5777C47.8934 2.0819 47.6593 1.57036 47.2206 1.18277C46.9924 0.982089 46.7464 0.736161 46.4454 0.564992C46.0834 0.356443 45.6466 0.12035 45.1292 0.0377175C44.8006 -0.0173711 44.4779 -0.00753388 44.0943 0.0377175C43.7657 0.0770664 43.4746 0.147893 43.2109 0.232493C42.9886 0.301354 42.7584 0.391855 42.5459 0.513837C42.1406 0.744028 41.7806 1.05489 41.4284 1.36575C41.0546 1.69234 40.7772 2.09173 40.6395 2.58163C40.5608 2.85904 40.5608 3.08923 40.5627 3.28794C40.5647 3.50436 40.5903 3.72865 40.6316 3.91556L40.7299 4.42513C40.7299 4.42513 40.7339 4.4389 40.7359 4.44677C40.726 4.44087 40.7162 4.43496 40.7063 4.42906C40.5293 4.34052 40.3129 4.29528 40.0453 4.26183L39.6242 4.20871C39.3272 4.18313 39.1147 4.18707 38.8884 4.22248C38.7054 4.25593 38.4457 4.31888 38.1546 4.44874C37.9873 4.52153 37.8201 4.61007 37.6725 4.69073C37.1 5.00159 36.6436 5.38131 36.3583 5.88498C36.2127 6.14468 36.1064 6.42406 36.0514 6.73098C36.01 6.97101 35.9982 7.16972 36.0002 7.37433L36.0041 8.18689C36.0081 8.40724 36.0415 8.61579 36.1124 8.8027C36.1871 9.00732 36.3189 9.25325 36.4429 9.48344C36.5373 9.66248 36.6278 9.82184 36.7321 9.96547L37.0587 10.4534C37.2023 10.6797 37.3459 10.8213 37.5053 10.9236C37.6725 11.0279 37.8358 11.1282 38.0168 11.203C38.1113 11.2423 38.2077 11.2718 38.3061 11.2915L38.4575 11.3112L38.55 11.321C38.6818 11.3545 38.733 11.3919 38.8648 11.4174L39.4393 11.5138C39.6656 11.5394 39.8643 11.506 40.0335 11.4529L40.4289 11.325L40.6788 11.2718L40.7831 11.2463L40.8441 11.2364L40.8814 11.2325C40.7595 11.5414 40.6808 11.8444 40.669 12.1729L40.6375 13.1291C40.6375 13.4282 40.6827 13.7076 40.8362 13.981C40.9582 14.1994 41.0802 14.4375 41.2612 14.6618C41.4009 14.831 41.5622 14.9451 41.7216 15.0415C41.9537 15.1753 42.2311 15.3523 42.542 15.5156C42.7053 15.6042 42.8764 15.6888 43.0653 15.7596C43.445 15.9052 43.8405 15.9563 44.1809 15.9819C44.3324 15.9937 44.4996 16.0114 44.7022 15.9898C45.0308 15.9426 45.3574 15.8009 45.6525 15.6612C46.048 15.4783 46.3608 15.2736 46.5752 14.9903C46.7208 14.8015 46.8369 14.585 46.9491 14.3607C47.1399 13.9712 47.2973 13.6702 47.4193 13.3534C47.5098 13.1272 47.5413 12.895 47.5531 12.6589C47.5649 12.4051 47.5728 12.1474 47.5295 11.8896C47.496 11.6988 47.4527 11.5552 47.4055 11.4371L47.3347 11.2837L47.3662 11.2974L47.5373 11.3702L47.681 11.4155L47.9544 11.4942C48.1236 11.5394 48.3066 11.5689 48.5289 11.567H48.6745L48.7453 11.563L48.8142 11.5591L48.95 11.5532C49.1034 11.5512 49.2785 11.5296 49.4733 11.4725C49.7468 11.386 50.0655 11.2699 50.339 11.0987C50.6931 10.8941 51.0807 10.658 51.3975 10.3117L51.787 9.85529C51.9621 9.62706 52.1057 9.34178 52.21 8.99354C52.334 8.56464 52.3615 8.13574 52.3418 7.79734L52.3399 7.7875ZM41.1726 2.72328C41.2769 2.33766 41.4776 2.04058 41.7845 1.7671C42.1308 1.46215 42.4672 1.17883 42.8135 0.980121C42.9827 0.883716 43.1794 0.805018 43.3703 0.745994C43.6103 0.673199 43.868 0.614178 44.1573 0.582699C44.5134 0.54335 44.7731 0.537447 45.0367 0.582699C45.442 0.653527 45.8138 0.85224 46.1562 1.05685C46.3687 1.18277 46.5949 1.40509 46.829 1.61954C47.1497 1.90876 47.3229 2.29045 47.3898 2.68197C47.4232 2.87281 47.4291 3.13252 47.4311 3.36468L47.4468 3.768L47.4626 4.13984L47.4744 4.41726L47.4114 4.65138L47.3052 4.91699L47.2796 4.98388L47.2402 5.06062L47.1793 5.17866L47.0632 5.35179L46.9943 5.43443L46.9215 5.54461L46.8546 5.65085L46.7641 5.78267L46.7071 5.84366L46.6264 5.92432C46.593 5.96367 46.5379 6.0286 46.4946 6.10533L46.3942 6.26666L46.3824 6.28437C46.3057 6.1978 46.2172 6.11123 46.1031 6.04237L46.044 6.00499L45.806 5.89088L45.6761 5.8476L45.4873 5.78464C45.1725 5.67446 44.8655 5.65872 44.5625 5.65675L44.0825 5.65085C43.9625 5.64692 43.8247 5.64101 43.6811 5.66069L43.6064 5.66856L43.5395 5.67839L43.4824 5.6902L43.4273 5.702L43.3663 5.71774L43.3152 5.73348L43.2758 5.74725L43.2365 5.76103L43.1912 5.77873L43.1637 5.79054L43.1243 5.80824L43.0968 5.82202L43.0673 5.83579L43.0299 5.85546L42.9906 5.87908L42.9315 5.92039L42.9079 5.94007C42.8961 5.9499 42.8882 5.96367 42.8784 5.97548C42.8528 5.98532 42.8292 5.99515 42.8017 6.00696C42.6266 6.09746 42.4593 6.18993 42.3078 6.30994V6.30601L42.237 6.186L42.117 6.00302L41.8986 5.69413L41.7983 5.55444L41.7412 5.47181C41.6271 5.29868 41.572 5.16292 41.5012 4.97798C41.4225 4.7832 41.334 4.53137 41.2848 4.29527L41.1766 3.78768C41.1431 3.64405 41.1195 3.44731 41.1156 3.2722C41.1097 3.07939 41.1057 2.92987 41.1608 2.72525L41.1726 2.72328ZM46.2172 9.0388L46.2073 9.06044L46.1345 9.18439L46.0794 9.26702L45.9929 9.39097C45.9339 9.4795 45.8689 9.56017 45.7824 9.64477L45.7056 9.7156L45.6092 9.78643L45.4656 9.88283L45.3476 9.95759L45.1744 10.0619L44.9993 10.1425L44.9029 10.174C44.8242 10.1898 44.7416 10.1878 44.6334 10.1799L44.2891 10.1484C44.11 10.1366 43.929 10.113 43.7677 10.0697L43.1794 9.91038L43.087 9.8789L42.9433 9.8002L42.8587 9.75298L42.7859 9.70379L42.6895 9.61526L42.6049 9.53066L42.4515 9.35555L42.3393 9.25325C42.2646 9.18636 42.2272 9.14701 42.1898 9.08208L42.117 8.93649C42.0422 8.8086 41.9911 8.65711 41.9635 8.50168L41.9557 8.18296C41.9557 7.99802 41.9694 7.86029 42.0383 7.7206L42.1859 7.39007L42.2095 7.33892L42.2941 7.19529L42.5439 6.83328C42.6561 6.68769 42.8233 6.56965 43.0673 6.42209L43.0771 6.41618C43.1047 6.41618 43.1302 6.42012 43.1558 6.41422L43.2188 6.39848L43.2562 6.38471L43.2916 6.37094L43.3152 6.3611L43.3368 6.35323L43.3703 6.34142L43.3899 6.33356L43.4116 6.32568L43.4391 6.31585L43.4509 6.31191L43.4962 6.30011L43.5277 6.29223L43.5651 6.2824L43.6064 6.27256L43.6615 6.26272L43.7264 6.24895L43.7697 6.23715C43.8582 6.21944 43.9625 6.21747 44.0786 6.21354L44.5606 6.21748C44.8459 6.21748 45.08 6.23518 45.3082 6.31388L45.5364 6.38274L45.6269 6.40831L45.7981 6.47914L45.8434 6.50078C45.9221 6.54013 46.0204 6.63064 46.0972 6.71524C46.1759 6.81361 46.2427 6.89428 46.3175 7.08118L46.3864 7.26415L46.4218 7.36253C46.4415 7.42745 46.4434 7.53173 46.4454 7.66945V7.99211C46.4375 8.19476 46.41 8.40724 46.3765 8.56661C46.3431 8.71416 46.3057 8.85582 46.2152 9.03683L46.2172 9.0388ZM40.7732 10.7367L40.6886 10.7505L40.5667 10.7721L40.3089 10.8134C40.1574 10.8449 40.0295 10.8961 39.8859 10.9374C39.762 10.9728 39.6498 10.9866 39.5003 10.9649L38.9592 10.8685C38.9376 10.8646 38.855 10.8252 38.6818 10.782L38.5126 10.7544L38.3966 10.7426L38.2215 10.6954C38.0857 10.6403 37.95 10.5577 37.7886 10.4573C37.6804 10.3904 37.6253 10.3412 37.5053 10.1543L37.1512 9.64084C37.0685 9.53263 36.9879 9.39687 36.8974 9.22964C36.7754 9.00142 36.6495 8.75942 36.5963 8.61383C36.5491 8.48594 36.5255 8.33839 36.5236 8.16525V7.36253C36.5275 7.17759 36.5393 7.02413 36.5806 6.81164C36.6259 6.56768 36.7085 6.34929 36.8305 6.13484C37.0508 5.74135 37.4148 5.4305 37.9322 5.14718L38.369 4.92682C38.6169 4.82058 38.8333 4.7714 38.9848 4.74779C39.1658 4.71631 39.3114 4.71238 39.5849 4.73402L39.9922 4.7773C40.2302 4.79894 40.4014 4.83435 40.5037 4.87764C40.6316 4.92879 40.7182 4.98388 40.8854 5.11373L40.9562 5.17079L40.9798 5.19047C40.9798 5.19047 40.9857 5.1944 40.9877 5.19637C41.0664 5.38131 41.153 5.56625 41.2966 5.77283L41.3694 5.87711L41.4815 6.01876L41.7334 6.31388L41.8435 6.45357L41.9183 6.55587L41.9891 6.65818C41.9301 6.73688 41.875 6.81558 41.8278 6.88641L41.7156 7.06938L41.6743 7.15005L41.5189 7.4727C41.4009 7.72257 41.393 7.97047 41.3949 8.18099C41.3949 8.32068 41.395 8.44856 41.4146 8.57448C41.4441 8.7968 41.5051 9.01519 41.6173 9.22964L41.694 9.36343C41.7707 9.49328 41.8632 9.59362 41.9616 9.68215L41.9753 9.69396L41.9478 9.70576L41.8337 9.78052L41.6999 9.88677C41.4638 10.1032 41.2769 10.3904 41.1215 10.6836H41.1156C41.1018 10.6836 41.088 10.6855 41.0743 10.6895L41.031 10.7013L41.0093 10.7092H40.9916L40.9523 10.717L40.907 10.721L40.846 10.7269L40.7693 10.7347L40.7732 10.7367ZM46.9294 12.6196C46.9215 12.8202 46.9018 12.9757 46.8487 13.1134C46.7385 13.3928 46.5831 13.6761 46.3864 14.0715C46.2841 14.2781 46.1837 14.4591 46.0794 14.5949C45.9437 14.77 45.7352 14.9116 45.3889 15.0671C45.1115 15.189 44.8144 15.2992 44.6058 15.3228C44.4937 15.3386 44.3697 15.3346 44.2222 15.3287C43.9133 15.313 43.5749 15.2717 43.2817 15.1654C43.1263 15.1084 42.9807 15.0395 42.8391 14.9628C42.5557 14.8054 42.296 14.6283 42.0481 14.4729C41.9203 14.3962 41.8396 14.3391 41.755 14.2348C41.6232 14.0794 41.5071 13.8787 41.3753 13.6603C41.269 13.4793 41.2474 13.3652 41.2435 13.1173L41.2592 12.1828C41.2671 11.8778 41.3418 11.6083 41.4874 11.2718C41.6429 10.902 41.8534 10.5085 42.0855 10.2803L42.1819 10.1779L42.2488 10.1091L42.3177 10.052L42.4279 10.1465L42.5715 10.2468L42.6738 10.3019L42.8509 10.3983L43.0102 10.4613L43.6359 10.6305C43.8444 10.6777 44.0589 10.6954 44.2596 10.7013L44.6216 10.719C44.7376 10.719 44.8714 10.7131 45.0033 10.6757L45.1862 10.6226C45.2984 10.5754 45.3731 10.5242 45.4302 10.4849L45.6191 10.3452L45.7253 10.2606L45.8611 10.1504L45.8827 10.1347L45.9102 10.176L45.9358 10.2075L45.9516 10.2252L45.9634 10.2389L45.987 10.2704L46.0047 10.294L46.0303 10.3334L46.1641 10.4967L46.2467 10.5832C46.2978 10.6462 46.3313 10.6974 46.3647 10.7623L46.5025 11.0062L46.5733 11.0948L46.6146 11.1617L46.6284 11.1892L46.6894 11.3506L46.8212 11.6496C46.8527 11.7362 46.8802 11.8286 46.9058 11.9919C46.9373 12.167 46.9373 12.3835 46.9294 12.6235V12.6196ZM51.6454 8.82238C51.5627 9.11159 51.4545 9.32998 51.3286 9.49918L50.9725 9.92218C50.7305 10.1957 50.3941 10.414 50.0655 10.6108C49.8451 10.7347 49.5599 10.8272 49.3002 10.8941C49.1664 10.9315 49.0424 10.9472 48.948 10.9492L48.8122 10.9433L48.7434 10.9394L48.6588 10.9354H48.5329C48.3597 10.9315 48.2594 10.9098 48.1236 10.8705L47.8698 10.7879L47.736 10.7465L47.6082 10.6915L47.5472 10.6698L47.4842 10.6501L47.4291 10.6344L47.3819 10.6226L47.3386 10.6128L47.2914 10.601L47.2678 10.5951L47.2481 10.5911L47.2068 10.5793L47.1733 10.5695L47.1537 10.5636L47.1222 10.5557L47.1025 10.5518L47.0769 10.5459L47.0238 10.536L46.9825 10.5321H46.9648C46.9648 10.5321 46.9471 10.5321 46.9373 10.5321L46.9195 10.5006C46.8743 10.4003 46.8153 10.296 46.7346 10.1917L46.6205 10.0579L46.5379 9.95366L46.5221 9.93202L46.4985 9.89857L46.4769 9.86906L46.4592 9.84348L46.4316 9.80413L46.3883 9.75101L46.3588 9.7215L46.3451 9.70773C46.3569 9.69396 46.3687 9.68215 46.3805 9.66838L46.4749 9.54443L46.5398 9.45196L46.6205 9.33195L46.6638 9.26112C46.7799 9.03879 46.831 8.84402 46.8684 8.68859C46.9195 8.49382 46.9569 8.25772 46.9707 8.01179V7.67535C46.9687 7.54156 46.9805 7.38614 46.9255 7.20316L46.8723 7.06938L46.7936 6.89821C46.7661 6.83132 46.7366 6.77229 46.7051 6.7172C46.7051 6.7172 46.709 6.71524 46.709 6.71327L46.7464 6.67786L46.7838 6.63457L46.8113 6.59522L46.833 6.55981L46.8487 6.53226L46.9333 6.38274L47.0199 6.27847L47.0671 6.23124L47.1891 6.10336L47.3071 5.93219L47.3701 5.83579L47.4173 5.76693L47.4842 5.68429L47.5629 5.56231C47.5885 5.54461 47.616 5.5269 47.6475 5.50919C47.8206 5.40295 48.041 5.27507 48.2732 5.16489C48.4994 5.05668 48.6588 5.02914 48.8831 5.02914L49.2333 5.03897C49.4831 5.05864 49.9474 5.23768 50.3705 5.46197C50.6656 5.61543 50.9528 5.86334 51.183 6.13681C51.3188 6.29421 51.4368 6.50079 51.5254 6.73098C51.6788 7.13431 51.7378 7.48451 51.7575 7.82095C51.7733 8.09639 51.7496 8.47217 51.6473 8.82041L51.6454 8.82238Z" fill="black"/>
<path d="M77.168 4.62351V3.2463L77.4631 1.96745L78.7419 0.885356L80.0208 0.393494H81.8898L83.5622 1.47559L84.1524 3.2463L83.5622 5.31212L84.841 4.91863H85.7264L87.0052 5.31212L88.3824 6.39421V8.16492L87.3987 10.2307L85.3329 11.2145L83.5622 10.9193V13.2803L82.5784 14.8542L81.1029 15.7396L78.3484 14.8542L77.168 13.2803L77.4631 10.9193L75.9875 11.2145L74.2168 10.9193L73.0363 9.64051L72.6428 7.8698L73.0363 5.80398L74.6103 4.62351H75.9875H77.168Z" fill="white"/>
<ellipse cx="80.5125" cy="8.06657" rx="2.45931" ry="2.36094" fill="#F8BA00"/>
<path d="M88.6875 7.7875C88.6659 7.40384 88.5911 6.98674 88.416 6.52636C88.3098 6.24305 88.1642 5.97548 87.9714 5.75119C87.694 5.43836 87.3477 5.15505 86.966 4.97011C86.4958 4.74779 86.0059 4.55694 85.6045 4.55301L85.2189 4.56481C84.9494 4.58055 84.7015 4.64351 84.43 4.79304C84.3631 4.83042 84.3001 4.86781 84.2372 4.90715L84.2667 4.83632C84.3119 4.71631 84.3532 4.59039 84.365 4.46054C84.3788 4.31692 84.3611 4.21067 84.3591 4.13984L84.3749 3.75423L84.369 3.36074C84.369 3.12661 84.3709 2.8433 84.3277 2.5777C84.2411 2.0819 84.007 1.57036 83.5682 1.18277C83.34 0.982089 83.0941 0.736161 82.7931 0.564992C82.431 0.356443 81.9943 0.12035 81.4768 0.0377175C81.1483 -0.0173711 80.8256 -0.00753388 80.442 0.0377175C80.1134 0.0770664 79.8222 0.147893 79.5586 0.232493C79.3362 0.301354 79.1061 0.391855 78.8936 0.513837C78.4883 0.744028 78.1282 1.05489 77.7761 1.36575C77.4022 1.69234 77.1248 2.09173 76.9871 2.58163C76.9084 2.85904 76.9084 3.08923 76.9104 3.28794C76.9123 3.50436 76.9379 3.72865 76.9792 3.91556L77.0776 4.42513C77.0776 4.42513 77.0815 4.4389 77.0835 4.44677C77.0737 4.44087 77.0638 4.43496 77.054 4.42906C76.8769 4.34052 76.6605 4.29528 76.3929 4.26183L75.9719 4.20871C75.6748 4.18313 75.4623 4.18707 75.2361 4.22248C75.0531 4.25593 74.7934 4.31888 74.5022 4.44874C74.335 4.52153 74.1678 4.61007 74.0202 4.69073C73.4477 5.00159 72.9912 5.38131 72.7059 5.88498C72.5603 6.14468 72.4541 6.42406 72.399 6.73098C72.3577 6.97101 72.3459 7.16972 72.3479 7.37433L72.3518 8.18689C72.3557 8.40724 72.3892 8.61579 72.46 8.8027C72.5348 9.00732 72.6666 9.25325 72.7905 9.48344C72.885 9.66248 72.9755 9.82184 73.0798 9.96547L73.4064 10.4534C73.55 10.6797 73.6936 10.8213 73.853 10.9236C74.0202 11.0279 74.1835 11.1282 74.3645 11.203C74.4589 11.2423 74.5553 11.2718 74.6537 11.2915L74.8052 11.3112L74.8977 11.321C75.0295 11.3545 75.0806 11.3919 75.2125 11.4174L75.787 11.5138C76.0132 11.5394 76.2119 11.506 76.3811 11.4529L76.7766 11.325L77.0265 11.2718L77.1307 11.2463L77.1917 11.2364L77.2291 11.2325C77.1071 11.5414 77.0284 11.8444 77.0166 12.1729L76.9851 13.1291C76.9851 13.4282 77.0304 13.7076 77.1839 13.981C77.3058 14.1994 77.4278 14.4375 77.6088 14.6618C77.7485 14.831 77.9098 14.9451 78.0692 15.0415C78.3014 15.1753 78.5788 15.3523 78.8896 15.5156C79.0529 15.6042 79.2241 15.6888 79.413 15.7596C79.7927 15.9052 80.1882 15.9563 80.5285 15.9819C80.68 15.9937 80.8472 16.0114 81.0499 15.9898C81.3785 15.9426 81.7051 15.8009 82.0002 15.6612C82.3956 15.4783 82.7085 15.2736 82.9229 14.9903C83.0685 14.8015 83.1846 14.585 83.2967 14.3607C83.4876 13.9712 83.645 13.6702 83.7669 13.3534C83.8574 13.1272 83.8889 12.895 83.9007 12.6589C83.9125 12.4051 83.9204 12.1474 83.8771 11.8896C83.8437 11.6988 83.8004 11.5552 83.7532 11.4371L83.6823 11.2837L83.7138 11.2974L83.885 11.3702L84.0286 11.4155L84.3021 11.4942C84.4713 11.5394 84.6543 11.5689 84.8766 11.567H85.0222L85.093 11.563L85.1619 11.5591L85.2976 11.5532C85.4511 11.5512 85.6262 11.5296 85.821 11.4725C86.0944 11.386 86.4132 11.2699 86.6866 11.0987C87.0408 10.8941 87.4284 10.658 87.7451 10.3117L88.1347 9.85529C88.3098 9.62706 88.4534 9.34178 88.5577 8.99354C88.6816 8.56464 88.7092 8.13574 88.6895 7.79734L88.6875 7.7875ZM77.5203 2.72328C77.6246 2.33766 77.8252 2.04058 78.1322 1.7671C78.4784 1.46215 78.8149 1.17883 79.1611 0.980121C79.3303 0.883716 79.5271 0.805018 79.7179 0.745994C79.958 0.673199 80.2157 0.614178 80.5049 0.582699C80.861 0.54335 81.1207 0.537447 81.3844 0.582699C81.7896 0.653527 82.1615 0.85224 82.5038 1.05685C82.7163 1.18277 82.9426 1.40509 83.1767 1.61954C83.4974 1.90876 83.6705 2.29045 83.7374 2.68197C83.7709 2.87281 83.7768 3.13252 83.7787 3.36468L83.7945 3.768L83.8102 4.13984L83.822 4.41726L83.7591 4.65138L83.6528 4.91699L83.6273 4.98388L83.5879 5.06062L83.5269 5.17866L83.4108 5.35179L83.342 5.43443L83.2692 5.54461L83.2023 5.65085L83.1118 5.78267L83.0547 5.84366L82.9741 5.92432C82.9406 5.96367 82.8855 6.0286 82.8422 6.10533L82.7419 6.26666L82.7301 6.28437C82.6534 6.1978 82.5648 6.11123 82.4507 6.04237L82.3917 6.00499L82.1536 5.89088L82.0238 5.8476L81.8349 5.78464C81.5201 5.67446 81.2132 5.65872 80.9102 5.65675L80.4301 5.65085C80.3101 5.64692 80.1724 5.64101 80.0288 5.66069L79.954 5.66856L79.8871 5.67839L79.8301 5.6902L79.775 5.702L79.714 5.71774L79.6628 5.73348L79.6235 5.74725L79.5841 5.76103L79.5389 5.77873L79.5114 5.79054L79.472 5.80824L79.4445 5.82202L79.4149 5.83579L79.3776 5.85546L79.3382 5.87908L79.2792 5.92039L79.2556 5.94007C79.2438 5.9499 79.2359 5.96367 79.2261 5.97548C79.2005 5.98532 79.1769 5.99515 79.1493 6.00696C78.9742 6.09746 78.807 6.18993 78.6555 6.30994V6.30601L78.5847 6.186L78.4647 6.00302L78.2463 5.69413L78.1459 5.55444L78.0889 5.47181C77.9748 5.29868 77.9197 5.16292 77.8489 4.97798C77.7702 4.7832 77.6816 4.53137 77.6324 4.29527L77.5242 3.78768C77.4908 3.64405 77.4672 3.44731 77.4632 3.2722C77.4573 3.07939 77.4534 2.92987 77.5085 2.72525L77.5203 2.72328ZM82.5648 9.0388L82.555 9.06044L82.4822 9.18439L82.4271 9.26702L82.3405 9.39097C82.2815 9.4795 82.2166 9.56017 82.13 9.64477L82.0533 9.7156L81.9569 9.78643L81.8133 9.88283L81.6952 9.95759L81.5221 10.0619L81.347 10.1425L81.2506 10.174C81.1719 10.1898 81.0892 10.1878 80.981 10.1799L80.6367 10.1484C80.4577 10.1366 80.2767 10.113 80.1153 10.0697L79.5271 9.91038L79.4346 9.8789L79.291 9.8002L79.2064 9.75298L79.1336 9.70379L79.0372 9.61526L78.9526 9.53066L78.7991 9.35555L78.687 9.25325C78.6122 9.18636 78.5748 9.14701 78.5375 9.08208L78.4647 8.93649C78.3899 8.8086 78.3387 8.65711 78.3112 8.50168L78.3033 8.18296C78.3033 7.99802 78.3171 7.86029 78.386 7.7206L78.5335 7.39007L78.5571 7.33892L78.6417 7.19529L78.8916 6.83328C79.0037 6.68769 79.171 6.56965 79.4149 6.42209L79.4248 6.41618C79.4523 6.41618 79.4779 6.42012 79.5035 6.41422L79.5664 6.39848L79.6038 6.38471L79.6392 6.37094L79.6628 6.3611L79.6845 6.35323L79.7179 6.34142L79.7376 6.33356L79.7592 6.32568L79.7868 6.31585L79.7986 6.31191L79.8439 6.30011L79.8753 6.29223L79.9127 6.2824L79.954 6.27256L80.0091 6.26272L80.074 6.24895L80.1173 6.23715C80.2059 6.21944 80.3101 6.21747 80.4262 6.21354L80.9082 6.21748C81.1935 6.21748 81.4276 6.23518 81.6559 6.31388L81.8841 6.38274L81.9746 6.40831L82.1458 6.47914L82.191 6.50078C82.2697 6.54013 82.3681 6.63064 82.4448 6.71524C82.5235 6.81361 82.5904 6.89428 82.6652 7.08118L82.734 7.26415L82.7694 7.36253C82.7891 7.42745 82.7911 7.53173 82.7931 7.66945V7.99211C82.7852 8.19476 82.7576 8.40724 82.7242 8.56661C82.6907 8.71416 82.6534 8.85582 82.5629 9.03683L82.5648 9.0388ZM77.1209 10.7367L77.0363 10.7505L76.9143 10.7721L76.6566 10.8134C76.5051 10.8449 76.3772 10.8961 76.2336 10.9374C76.1096 10.9728 75.9975 10.9866 75.8479 10.9649L75.3069 10.8685C75.2853 10.8646 75.2026 10.8252 75.0295 10.782L74.8603 10.7544L74.7442 10.7426L74.5691 10.6954C74.4334 10.6403 74.2976 10.5577 74.1363 10.4573C74.0281 10.3904 73.973 10.3412 73.853 10.1543L73.4988 9.64084C73.4162 9.53263 73.3355 9.39687 73.245 9.22964C73.123 9.00142 72.9971 8.75942 72.944 8.61383C72.8968 8.48594 72.8732 8.33839 72.8712 8.16525V7.36253C72.8751 7.17759 72.8869 7.02413 72.9283 6.81164C72.9735 6.56768 73.0561 6.34929 73.1781 6.13484C73.3985 5.74135 73.7625 5.4305 74.2799 5.14718L74.7167 4.92682C74.9646 4.82058 75.181 4.7714 75.3325 4.74779C75.5135 4.71631 75.6591 4.71238 75.9326 4.73402L76.3398 4.7773C76.5779 4.79894 76.749 4.83435 76.8514 4.87764C76.9792 4.92879 77.0658 4.98388 77.233 5.11373L77.3039 5.17079L77.3275 5.19047C77.3275 5.19047 77.3334 5.1944 77.3354 5.19637C77.4141 5.38131 77.5006 5.56625 77.6442 5.77283L77.717 5.87711L77.8292 6.01876L78.081 6.31388L78.1912 6.45357L78.266 6.55587L78.3368 6.65818C78.2778 6.73688 78.2227 6.81558 78.1754 6.88641L78.0633 7.06938L78.022 7.15005L77.8666 7.4727C77.7485 7.72257 77.7406 7.97047 77.7426 8.18099C77.7426 8.32068 77.7426 8.44856 77.7623 8.57448C77.7918 8.7968 77.8528 9.01519 77.9649 9.22964L78.0417 9.36343C78.1184 9.49328 78.2109 9.59362 78.3092 9.68215L78.323 9.69396L78.2955 9.70576L78.1814 9.78052L78.0476 9.88677C77.8115 10.1032 77.6246 10.3904 77.4691 10.6836H77.4632C77.4495 10.6836 77.4357 10.6855 77.4219 10.6895L77.3786 10.7013L77.357 10.7092H77.3393L77.2999 10.717L77.2547 10.721L77.1937 10.7269L77.117 10.7347L77.1209 10.7367ZM83.277 12.6196C83.2692 12.8202 83.2495 12.9757 83.1964 13.1134C83.0862 13.3928 82.9308 13.6761 82.734 14.0715C82.6317 14.2781 82.5314 14.4591 82.4271 14.5949C82.2913 14.77 82.0828 14.9116 81.7365 15.0671C81.4591 15.189 81.162 15.2992 80.9535 15.3228C80.8413 15.3386 80.7174 15.3346 80.5698 15.3287C80.2609 15.313 79.9225 15.2717 79.6294 15.1654C79.474 15.1084 79.3284 15.0395 79.1867 14.9628C78.9034 14.8054 78.6437 14.6283 78.3958 14.4729C78.2679 14.3962 78.1873 14.3391 78.1027 14.2348C77.9708 14.0794 77.8548 13.8787 77.7229 13.6603C77.6167 13.4793 77.5951 13.3652 77.5911 13.1173L77.6068 12.1828C77.6147 11.8778 77.6895 11.6083 77.8351 11.2718C77.9905 10.902 78.201 10.5085 78.4332 10.2803L78.5296 10.1779L78.5965 10.1091L78.6653 10.052L78.7755 10.1465L78.9191 10.2468L79.0214 10.3019L79.1985 10.3983L79.3579 10.4613L79.9835 10.6305C80.1921 10.6777 80.4065 10.6954 80.6072 10.7013L80.9692 10.719C81.0853 10.719 81.2191 10.7131 81.3509 10.6757L81.5339 10.6226C81.646 10.5754 81.7208 10.5242 81.7778 10.4849L81.9667 10.3452L82.073 10.2606L82.2087 10.1504L82.2304 10.1347L82.2579 10.176L82.2835 10.2075L82.2992 10.2252L82.311 10.2389L82.3346 10.2704L82.3523 10.294L82.3779 10.3334L82.5117 10.4967L82.5943 10.5832C82.6455 10.6462 82.6789 10.6974 82.7124 10.7623L82.8501 11.0062L82.9209 11.0948L82.9623 11.1617L82.976 11.1892L83.037 11.3506L83.1688 11.6496C83.2003 11.7362 83.2279 11.8286 83.2534 11.9919C83.2849 12.167 83.2849 12.3835 83.277 12.6235V12.6196ZM87.993 8.82238C87.9104 9.11159 87.8022 9.32998 87.6763 9.49918L87.3202 9.92218C87.0782 10.1957 86.7417 10.414 86.4132 10.6108C86.1928 10.7347 85.9075 10.8272 85.6478 10.8941C85.514 10.9315 85.3901 10.9472 85.2956 10.9492L85.1599 10.9433L85.091 10.9394L85.0064 10.9354H84.8805C84.7074 10.9315 84.607 10.9098 84.4713 10.8705L84.2175 10.7879L84.0837 10.7465L83.9558 10.6915L83.8948 10.6698L83.8319 10.6501L83.7768 10.6344L83.7296 10.6226L83.6863 10.6128L83.6391 10.601L83.6154 10.5951L83.5958 10.5911L83.5545 10.5793L83.521 10.5695L83.5013 10.5636L83.4699 10.5557L83.4502 10.5518L83.4246 10.5459L83.3715 10.536L83.3302 10.5321H83.3125C83.3125 10.5321 83.2948 10.5321 83.2849 10.5321L83.2672 10.5006C83.222 10.4003 83.1629 10.296 83.0823 10.1917L82.9681 10.0579L82.8855 9.95366L82.8698 9.93202L82.8462 9.89857L82.8245 9.86906L82.8068 9.84348L82.7793 9.80413L82.736 9.75101L82.7065 9.7215L82.6927 9.70773C82.7045 9.69396 82.7163 9.68215 82.7281 9.66838L82.8226 9.54443L82.8875 9.45196L82.9681 9.33195L83.0114 9.26112C83.1275 9.03879 83.1787 8.84402 83.2161 8.68859C83.2672 8.49382 83.3046 8.25772 83.3184 8.01179V7.67535C83.3164 7.54156 83.3282 7.38614 83.2731 7.20316L83.22 7.06938L83.1413 6.89821C83.1137 6.83132 83.0842 6.77229 83.0528 6.7172C83.0528 6.7172 83.0567 6.71524 83.0567 6.71327L83.0941 6.67786L83.1315 6.63457L83.159 6.59522L83.1806 6.55981L83.1964 6.53226L83.281 6.38274L83.3675 6.27847L83.4148 6.23124L83.5367 6.10336L83.6548 5.93219L83.7177 5.83579L83.765 5.76693L83.8319 5.68429L83.9106 5.56231C83.9361 5.54461 83.9637 5.5269 83.9952 5.50919C84.1683 5.40295 84.3887 5.27507 84.6208 5.16489C84.8471 5.05668 85.0064 5.02914 85.2307 5.02914L85.5809 5.03897C85.8308 5.05864 86.2951 5.23768 86.7181 5.46197C87.0132 5.61543 87.3005 5.86334 87.5307 6.13681C87.6664 6.29421 87.7845 6.50079 87.873 6.73098C88.0265 7.13431 88.0855 7.48451 88.1052 7.82095C88.1209 8.09639 88.0973 8.47217 87.995 8.82041L87.993 8.82238Z" fill="black"/>
</svg>
