<svg width="49" height="60" viewBox="0 0 49 60" fill="none" xmlns="http://www.w3.org/2000/svg">
<path d="M47.6582 30.604C47.6582 46.732 38.318 59.1055 25.9317 59.1055C13.5454 59.1055 0.467285 48.1337 0.467285 32.0057C0.467285 15.8778 13.5454 0.467239 25.9317 0.467239C38.318 0.467239 47.6582 14.476 47.6582 30.604Z" fill="white"/>
<g style="mix-blend-mode:darken" opacity="0.42">
<path d="M47.3733 30.0267L47.2658 28.868L47.2145 28.3774L47.149 27.2887V26.4384C47.149 25.7702 47.0696 25.1862 46.8921 24.6722L46.7379 24.2657L46.551 23.7985L46.4248 23.3826L46.1585 22.3267L46.0604 21.9202L45.8361 21.2053L45.724 20.7427L45.6212 20.2054L45.4249 19.4438L45.2007 18.5934C45.0324 18.0047 44.7895 17.5562 44.6166 17.2291L44.4344 16.86L44.1961 16.276L44.0933 15.9816L43.7476 15.0518L43.2943 13.893C43.1215 13.4585 42.9532 13.0754 42.7617 12.7203L42.5327 12.3325L42.2477 11.7297L42.0375 11.2391L41.5842 10.3234L41.1544 9.61315L40.8927 9.19731L40.6872 8.87959L40.4722 8.57121L40.318 8.37497L40.1545 8.16004L40.0097 7.96848L39.8742 7.78158L39.5938 7.43115L39.2013 6.95924L38.9864 6.6789L38.7107 6.37053C38.636 6.29577 38.7388 6.38921 38.6407 6.30044L38.4164 6.10887L38.1968 5.94067L38.0099 5.81451L37.8744 5.68836L37.6595 5.45941L37.2202 5.09029L37.0754 4.99217L36.7437 4.78192L36.5614 4.66978L36.1456 4.39411L35.8419 4.16984L35.5849 4.01565L35.2999 3.86146L34.9121 3.67457L34.5617 3.53439C34.4168 3.47833 34.5243 3.52972 34.4636 3.50169L34.3421 3.43628L34.286 3.3989L34.043 3.25405L34.0103 3.16528L33.7907 2.77747C33.7627 2.73075 33.6038 2.46909 33.3375 2.23548C32.959 1.89907 32.5198 1.70283 32.0713 1.57667L31.0854 1.33838C30.7256 1.24493 30.3238 1.07673 29.7818 0.978609L29.2866 0.922539H28.6745C28.6745 0.922539 28.5904 0.899178 28.3568 0.917867L28.2399 0.833764L28.1792 0.791713L27.9923 0.679577L27.8802 0.614162L27.6886 0.506698C27.6886 0.506698 27.6559 0.488009 27.6419 0.483337C27.5064 0.301114 27.3802 0.0488067 26.5532 0.00208294C26.1794 -0.0212789 25.6047 0.151599 25.2636 0.534733C24.5862 1.29166 24.8151 2.11867 25.2076 2.61394C25.3758 2.8242 25.6094 2.97838 25.8617 3.08118L26.128 3.24938C26.2308 3.30078 26.1187 3.24004 26.1934 3.27741L26.2635 3.31947L26.4084 3.40824C26.4691 3.44562 26.4084 3.40824 26.4411 3.42693H26.4504L26.5486 3.50636L26.7495 3.66055L27.0905 3.89417L27.2868 4.01565L27.5017 4.14648L27.7727 4.29599L27.8054 4.31468L27.9736 4.39411L28.1091 4.4642L28.3988 4.60437L28.567 4.6838L28.7633 4.78659L28.9174 4.8707C28.9829 4.90807 29.0483 4.94078 29.1184 4.97816L29.2305 5.04824L29.408 5.16038L29.6183 5.28186L29.9173 5.44539C30.0668 5.52483 29.95 5.45941 29.9874 5.4781L30.0622 5.52482L30.235 5.63229L30.45 5.75377L30.6322 5.86591L30.7911 5.95469L30.8331 5.97804L30.8892 6.01542L30.9219 6.03879L31.0854 6.23503L31.3331 6.52471C31.3751 6.57143 31.548 6.75833 31.8096 6.92187L32.0806 7.06204L32.1928 7.11343L32.347 7.32369L32.4217 7.43115L32.688 7.71149L32.9684 7.9638L33.2207 8.1507C33.2721 8.18808 33.202 8.13668 33.2627 8.1834L33.3282 8.23013L33.5244 8.4217L33.5945 8.50113L33.6085 8.51514C33.6085 8.51514 33.5711 8.47776 33.6319 8.58055L33.7113 8.72073L33.8375 8.93098L33.9075 9.04779L34.1505 9.37953L34.3981 9.67389C34.5617 9.8421 34.4215 9.68791 34.5103 9.77668L34.9355 10.2346L35.2065 10.4962L35.5008 10.7439L35.6223 10.8467L35.7111 10.9308C35.7905 11.0055 35.7298 10.9308 35.7765 10.9868L35.8746 11.099C35.9727 11.2158 35.8466 11.0663 35.9026 11.1504L36.0241 11.3092C36.1222 11.4354 35.9961 11.2718 36.0381 11.3466L36.0849 11.4354L36.5287 12.1876C36.6269 12.3605 36.7764 12.7156 36.9072 13.0894C37.01 13.3884 37.1268 13.7061 37.2857 14.0332L37.5707 14.5518L37.7856 14.9116L37.9445 15.1265L38.1828 15.5564L38.5379 16.589L38.8275 17.3693L39.1359 18.1262L39.3041 18.5607L39.5237 19.327V19.3457L39.6078 19.6214L39.734 20.1026L39.8975 20.9109C40.0377 21.6866 40.1965 22.3547 40.2853 23.0042L40.318 23.3639L40.4021 24.3265L40.4442 24.8591L40.4862 25.6067L40.5096 26.0879L40.6077 27.2327L40.6451 27.8261L40.6685 28.2839L40.6778 28.7512L40.7432 29.952L40.7759 30.6809L40.7853 30.9939L40.7946 31.3163L40.804 32.5265V35.0729L40.7853 35.5308L40.6965 36.811L40.5844 37.881L40.4395 38.7688C40.3648 39.2033 40.29 39.5771 40.2526 39.9882L40.1592 41.0956L40.1218 41.432L40.0283 41.988L39.8648 42.6702L39.6032 43.3991L39.4209 43.8289C39.1733 44.4176 39.0285 44.9363 38.8743 45.3147L38.7154 45.6792L38.3696 46.4641L38.108 47.0388C37.9725 47.3005 37.7622 47.5528 37.4726 47.9546C37.1548 48.3938 36.9212 48.763 36.7063 49.0153L36.2437 49.5152L35.7157 50.0759L35.1083 50.688L34.6832 51.1132L34.1599 51.571L33.5104 52.1037L33.2254 52.3373C32.8002 52.6784 32.3843 52.9494 31.9592 53.1877L31.0667 53.6736L29.9827 54.3184L29.5903 54.5707H29.5856C28.7399 54.5707 28.1138 54.837 27.4597 55.1921L26.7308 55.6267L26.614 55.6734L26.2962 55.8089L26.128 55.893L25.7823 56.0659L25.2216 56.3556L25.0254 56.463L24.8058 56.5611L24.4553 56.748C24.4553 56.748 24.4787 56.7293 24.4693 56.734L24.189 56.8275C24.1142 56.8415 24.0301 56.8602 23.9273 56.8835C23.0816 57.0844 22.5583 57.9301 22.7593 58.7758C22.9088 59.4019 23.4134 59.8505 24.0068 59.9579C23.9787 59.9533 23.946 59.9439 23.9414 59.9439L24.0301 59.9626L24.1703 59.9766C24.1797 59.9766 24.1843 59.9766 24.1797 59.9766L24.432 60C24.8992 60 25.4319 59.9393 26.0206 59.8552C26.8663 59.7383 27.5952 59.6542 28.3334 59.3879L29.2585 59.0468L29.6604 58.93C30.1323 58.7758 30.4546 58.5889 30.7023 58.4768L31.819 58.047C32.1507 57.9021 32.4498 57.7105 32.7254 57.5003L33.2908 57.0237L33.5337 56.8181C33.7533 56.6406 34.029 56.4677 34.3374 56.2341C34.557 56.3602 34.8046 56.4397 35.0756 56.4443C35.4494 56.4537 35.5615 56.4116 35.6223 56.3789C35.6877 56.3602 35.7438 56.3369 35.7952 56.3135C36.2484 56.1593 36.3839 55.9864 36.4867 55.907L36.7997 55.6687L37.281 55.2903L37.5894 55.0473L37.809 54.8557L38.1033 54.6174L38.8416 54.1549C39.3976 53.8091 39.9209 53.3232 40.3414 52.7205L40.6685 52.1971C40.9628 52.0476 41.2011 51.8234 41.3086 51.6785L41.4721 51.4215L41.7992 50.8468L42.2384 49.9965L42.6308 49.2676C42.8271 48.8891 43.0187 48.534 43.1682 48.1602C43.2289 48.0107 43.3083 47.8331 43.3364 47.5014C43.3504 47.3472 43.327 47.1183 43.2523 46.8753L43.3364 46.6651L43.6821 45.8754L44.0092 45.2727C44.14 45.0297 44.2709 44.7587 44.3783 44.455L44.696 43.4925L44.8315 43.086L45.1399 42.2403L45.5277 41.2124L45.6586 40.7592L45.7053 40.7171C46.4295 40.0864 46.3454 39.7453 46.4809 39.3575L46.7986 38.2314L46.9528 37.4979L47.0042 37.2315L47.1397 36.1896L47.2098 35.3953L47.2658 34.4188L47.2986 33.6385L47.3219 32.8769L47.3313 32.3349L47.3546 31.6901V30.0034L47.3733 30.0267ZM24.0535 59.9813C24.0956 59.986 24.1423 59.986 24.1843 59.9907C24.175 59.9907 24.1703 59.9907 24.1703 59.9907C24.1423 59.9907 24.0862 59.9813 24.0535 59.9766V59.9813Z" fill="#F8BA00" fill-opacity="0.5"/>
</g>
<g style="mix-blend-mode:darken" opacity="0.42">
<path d="M23.9133 59.9533H23.9367C23.9367 59.9533 23.8946 59.9486 23.8993 59.9533H23.918H23.9133Z" fill="#F8BA00" fill-opacity="0.5"/>
</g>
<path d="M36.6034 44.0906C36.6034 43.9037 36.524 43.6841 36.51 43.6747C36.496 43.642 36.4773 43.6187 36.4632 43.5906L36.3277 43.1608L36.1922 42.9225C36.1922 42.9225 36.0988 42.773 35.968 42.6562L35.6689 42.4412C35.3792 42.273 35.0195 42.1095 34.5803 42.0815C34.4401 42.0768 34.2299 42.0628 33.9121 42.1375L33.5991 42.273L33.286 42.4506L33.0664 42.6048L32.8515 42.8244C32.5151 43.1795 32.5104 43.4832 32.5198 43.7215C32.4123 44.0625 32.4076 44.413 32.4871 44.7914L32.6786 45.2353L32.7394 45.3474L32.9543 45.6652C33.1412 45.8707 33.3888 46.0109 33.4075 46.0203L33.9542 46.3053L34.2859 46.4127L34.6597 46.4548L35.0241 46.4454C35.2578 46.4034 35.4213 46.3053 35.5521 46.2072C35.8044 46.1137 36.0427 45.9548 36.2109 45.7306L36.3605 45.4829L36.4773 45.24C36.5427 45.0671 36.5894 44.8662 36.6081 44.6045L36.5847 44.2541V44.0999L36.6034 44.0906Z" fill="black"/>
<path d="M17.5216 43.3991C17.4516 43.2122 17.3441 43.0767 17.2693 42.9926L16.9329 42.6749L16.4283 42.4085L16.1994 42.3384L15.8536 42.2684L15.5172 42.2543L15.2182 42.2777C15.1714 42.2777 15.0219 42.2824 14.849 42.3571C14.6341 42.4412 14.4239 42.5347 14.237 42.6749C14.0828 42.7917 13.9613 42.9365 13.9005 43.0206L13.7978 43.1795L13.7791 43.2028L13.6996 43.343L13.6482 43.4411C13.5454 43.6327 13.4754 43.8757 13.4707 44.0906L13.438 44.4831C13.4427 44.6186 13.4754 44.7447 13.5221 44.8615V44.983L13.5922 45.2073L13.7604 45.6044C13.8725 45.8007 13.966 45.8754 13.9613 45.8661C14.008 45.9221 14.1248 46.067 14.3865 46.2072C14.7322 46.352 14.9612 46.3333 15.2182 46.338H15.5078C15.5359 46.3333 15.648 46.352 15.919 46.3006C15.9424 46.2959 15.9611 46.2866 15.9844 46.2819C16.2741 46.2586 16.5545 46.1791 16.7927 45.9969C16.9983 45.8334 17.1806 45.6325 17.3161 45.4035C17.5403 45.0624 17.6057 44.7027 17.6338 44.3008C17.6431 44.1466 17.6618 43.9457 17.6104 43.7028C17.5777 43.5205 17.5216 43.4224 17.517 43.4084L17.5216 43.3991Z" fill="black"/>
<path d="M48.2983 27.0504C48.2562 26.2888 48.0367 25.5553 47.8357 24.8451L47.3311 22.85L47.1069 21.8127L46.9994 21.3408L46.9386 21.0464C46.9386 21.0464 46.9386 21.0605 46.9386 21.0558L46.9246 20.981L46.8686 20.7474L46.7564 20.3689L46.0743 18.3411L45.6304 16.7899C45.5323 16.3974 45.4341 15.9863 45.2846 15.6031L44.9389 14.949L44.6258 14.2528L44.4156 13.7809L44.224 13.3651L44.0932 13.0754L43.5699 11.8933L43.2942 11.3653L42.9251 10.7112L42.6541 10.2813L42.4999 10.0523L42.3784 9.87012L41.9299 9.37018L41.6355 9.02443L41.2243 8.49178L41.0094 8.25348L40.9393 8.15069L40.6123 7.73018L40.374 7.45451L40.0749 7.07604L39.8133 6.72562L39.5236 6.36117L39.2946 6.0855C39.0564 5.77246 38.8508 5.49211 38.5798 5.2071L38.3929 5.01086C38.2247 4.84265 38.0565 4.69781 37.8415 4.56231L37.2248 4.18852L37.0052 4.02032L36.4398 3.60915L36.2296 3.45029L36.0567 3.31946L35.8605 3.16994L35.6642 2.98305L35.4726 2.79615C35.2484 2.60459 34.9587 2.44105 34.6783 2.30556C34.155 2.05325 33.5243 1.80094 32.8514 1.60003L32.3842 1.45518C32.0992 1.37575 31.945 1.29632 31.6927 1.18419L31.2909 1.03L31.132 0.941222C30.4358 0.525381 29.5434 0.287091 28.6089 0.212334C27.7539 0.14692 26.9129 0.193643 26.0905 0.18897C25.7401 0.18897 25.3429 0.198316 24.9505 0.235695L24.1421 0.347831H24.1235C24.0534 0.277745 23.9412 0.245039 23.8431 0.291763C23.8011 0.310452 23.6515 0.277746 23.3338 0.217005C22.904 0.193643 22.5909 0.291762 22.3293 0.338486C21.9041 0.427261 21.4462 0.441279 20.9509 0.511365L20.18 0.698259L19.7501 0.847775C19.3623 0.992618 19.0306 1.18886 18.6848 1.3851L18.1101 1.71684L17.2504 2.24949L16.5729 2.74009L16.3113 2.941L15.8487 3.26806L15.0217 3.87547L14.6853 4.15114L14.4703 4.33336L14.1947 4.56698L13.8022 4.92675L13.6013 5.11365L13.0219 5.57621C12.4986 6.0014 12.0173 6.48266 11.6015 6.94989C11.2044 7.39844 10.6624 7.92642 10.2652 8.31422L9.62041 8.91229L9.08309 9.44494L8.88218 9.67856L8.62053 10.015L8.28878 10.5757C8.03647 11.0008 7.63465 11.5428 7.19545 12.1829L6.5273 13.1641C6.13015 13.7996 5.78906 14.4631 5.47134 15.0611C5.2751 15.4162 4.90132 15.9816 4.49482 16.5656C4.27055 16.8927 4.08833 17.2011 3.94816 17.5095C3.61642 18.2103 3.42018 18.6916 3.09778 19.1915L2.61185 19.9858C2.32684 20.5091 2.12125 21.0885 1.98108 21.7566C1.81755 22.5089 1.72878 23.1443 1.47647 23.663C1.23818 24.1629 1.05129 24.6115 0.957845 25.0834C0.831691 25.7328 0.560693 26.4056 0.387815 27.1719C0.28035 27.6578 0.116806 28.298 0.0840993 28.9427L0 30.3258V31.3957L0.03271 31.9658C0.0841061 32.732 -0.014012 33.5077 0.10747 34.3814C0.182228 34.8953 0.22427 35.4701 0.331734 36.0681L0.429864 36.6662L0.481254 36.9512C0.556012 37.3624 0.644784 37.9931 0.784955 38.5491C0.962505 39.2687 1.15408 39.9789 1.37836 40.7078C1.50451 41.1003 1.66337 41.4647 1.84092 41.7871L2.04182 42.1422C2.12593 42.2964 2.20069 42.4973 2.27078 42.7403C2.53243 43.6654 3.01835 44.5391 3.31271 45.3381C3.56035 46.0109 3.91078 46.5669 4.25654 47.0856L4.79386 47.8051L5.11625 48.2303L5.30782 48.4733L5.50405 48.6975L5.58815 48.819L6.10679 49.4077L6.41983 49.7395C6.67681 50.0058 7.05528 50.487 7.35431 50.8842L7.95705 51.6505L8.23739 51.9635L8.35888 52.1037L8.6579 52.4308L9.05506 52.7765L9.60173 53.155L9.95216 53.426L10.3259 53.7577L10.7044 54.1222L10.896 54.295L11.2931 54.6408L11.6622 54.9772C11.9846 55.2949 12.2883 55.5426 12.5547 55.7294L12.9425 55.9818L13.4518 56.2855C13.7882 56.449 14.0358 56.4864 14.1292 56.5238L14.8301 56.963L15.1525 57.1919L15.5683 57.4442L16.1898 57.7759L16.5262 57.9488L16.9327 58.1451L17.4186 58.4348C17.9699 58.7571 18.6474 59.0281 19.381 59.0422L20.2033 59.1029L21.6798 59.2197C21.9508 59.2431 22.418 59.3832 22.9741 59.4346L23.6188 59.4767L23.9833 59.5047L24.2823 59.5328L24.544 59.5515L24.8056 59.5608H25.6653L25.7541 59.5515C25.7915 59.5515 25.8289 59.5468 25.8616 59.5374L25.9924 59.5047C25.9924 59.5047 26.0298 59.486 26.0531 59.4814C26.1933 59.4673 26.3101 59.444 26.4129 59.4346H27.0811C27.7445 59.4393 28.3333 59.3646 28.9033 59.3599C29.2818 59.3599 29.6275 59.2898 29.9359 59.2057C30.5106 59.0375 31.0573 58.8599 31.5993 58.6216L33.2112 58.0189L33.9635 57.7339L34.4961 57.519L34.7858 57.3788C35.2484 57.1358 35.5474 56.9022 35.7016 56.8275L36.8697 56.164L37.3136 55.8977C37.5986 55.7341 37.7574 55.6453 37.935 55.5052L38.4022 55.0987L38.6592 54.8838L38.8648 54.7109L39.1451 54.4866L39.3274 54.3371L39.8834 53.8185L40.2291 53.454L40.4347 53.2531L40.7945 52.8887L41.1729 52.4868L41.4813 52.1504L41.7336 51.8841L41.9532 51.6084L42.7148 50.6039L43.112 50.0292C43.2708 49.7955 43.4671 49.5012 43.668 49.0994L44.2333 47.9359L44.6445 47.0388L45.0931 46.0296C45.35 45.4409 45.5229 44.8709 45.6864 44.3289L46.0275 43.1654L46.1864 42.6094L46.392 41.9927L46.7424 40.9461C46.8873 40.5302 47.0274 40.2546 47.0975 39.834C47.2377 38.937 47.2751 38.1894 47.3778 37.4231L47.6348 36.1522L47.7937 35.2318L47.8778 34.7832C47.9712 34.2693 47.9759 33.7459 47.9993 33.2553C48.0086 33.232 48.0273 33.2086 48.0367 33.1899C48.1067 33.0124 48.1301 32.8489 48.1581 32.6199C48.1768 31.6153 48.1581 30.7136 48.2329 29.7791L48.289 28.2512L48.303 27.4896V27.0411L48.2983 27.0504ZM46.962 31.7228L46.948 31.9097L46.92 32.2041L46.9059 32.4237L46.8545 32.7928C46.7891 33.4376 46.7938 34.087 46.6957 34.5589L46.6022 34.9981L46.406 35.942L46.1771 37.2362C46.0416 38.0726 45.9808 38.7968 45.8266 39.6331C45.7892 39.8574 45.6864 40.063 45.5229 40.5349L45.1678 41.5862L44.9389 42.2543L44.794 42.815L44.4296 43.9784C44.2707 44.5111 44.1212 45.0297 43.9063 45.5343L43.4998 46.5155L43.0512 47.408L42.5186 48.5387C42.3504 48.8704 42.2009 49.0947 42.042 49.333L41.6869 49.8469L40.9533 50.7954L40.7291 51.0477L40.5141 51.2767L40.2338 51.5851L39.832 52.0429L39.5283 52.37L39.29 52.613L38.9582 52.9587L38.505 53.3792L38.3975 53.468C38.3695 53.4867 38.4443 53.44 38.3789 53.482C38.3742 53.482 38.3695 53.4914 38.3648 53.4961C38.3602 53.4961 38.3508 53.5007 38.3462 53.5054L38.0518 53.739L37.8229 53.9259L37.5752 54.1408L37.1126 54.5193L36.6641 54.7903L36.1688 55.0847L35.0989 55.7248C34.7811 55.9023 34.5569 56.1079 34.2064 56.3042L33.9541 56.4256L33.4822 56.6499L32.8001 56.963L31.2021 57.6451C30.6881 57.8507 30.1882 58.0002 29.6182 58.1544C29.3705 58.2245 29.1276 58.2759 28.9033 58.2759C28.2492 58.2712 27.6604 58.3413 27.067 58.3273C26.7774 58.332 26.4737 58.332 26.1372 58.4254C26.0672 58.4534 26.0064 58.4768 25.955 58.5002C25.9504 58.5002 25.941 58.4955 25.9363 58.4955L25.8149 58.4768C25.7775 58.4721 25.7401 58.4675 25.7074 58.4721H25.6186L25.4971 58.4815H25.0346L24.8337 58.4721L24.5907 58.4581L24.3477 58.4488L24.0861 58.4348L23.7357 58.402L23.0815 58.3179C22.6844 58.2759 22.2545 58.1264 21.7919 58.075L20.3388 57.9395L19.4231 57.846C18.9838 57.8273 18.4839 57.6264 18.0727 57.3695L17.5494 57.0517L17.0962 56.8134L16.8018 56.6593L16.2038 56.3275L15.8814 56.1406L15.5543 55.9163C15.2506 55.7108 14.9703 55.4912 14.6105 55.3416L14.0171 55.1501L13.6153 54.9118L13.3116 54.7202C13.092 54.5567 12.8537 54.3558 12.5874 54.0801L12.1108 53.6456L11.779 53.3652L11.5875 53.183L11.1903 52.8232L10.7838 52.4775L10.354 52.1691L9.8073 51.7719L9.55501 51.5477L9.29335 51.286L9.14851 51.1318L8.90088 50.8655L8.34019 50.1647C8.02246 49.7441 7.63933 49.2489 7.29824 48.9031L7.03193 48.6274L6.56469 48.0995L6.41983 47.9079L6.26097 47.735L6.07408 47.4967L5.7657 47.0902L5.26576 46.4127C4.93402 45.9268 4.63966 45.4596 4.43875 44.9316C4.09767 44.0345 3.62577 43.1748 3.41084 42.4319C3.32674 42.1375 3.22861 41.8572 3.08377 41.5909L2.88286 41.2311C2.74269 40.9694 2.61185 40.6751 2.50906 40.3527C2.28479 39.6658 2.0979 38.979 1.92035 38.2781C1.80354 37.8062 1.71943 37.1941 1.64467 36.7549L1.59328 36.484L1.49049 35.8672C1.39237 35.3439 1.34565 34.7832 1.26155 34.2225C1.15408 33.531 1.22884 32.7788 1.15875 31.8957L1.12137 31.3817V30.3678L1.16342 29.0082C1.18211 28.4989 1.31761 27.9008 1.41573 27.4102C1.5559 26.7421 1.81755 26.0552 1.95305 25.2889C2.01379 24.9432 2.15397 24.5741 2.37357 24.1022C2.69129 23.4013 2.76137 22.6864 2.90154 21.9762C3.02769 21.3782 3.1959 20.8969 3.42952 20.453L3.8734 19.7288C4.25186 19.1495 4.47146 18.6168 4.78918 17.9393C4.91533 17.6823 5.06953 17.4254 5.27511 17.131C5.68628 16.5376 6.06942 15.9676 6.29836 15.5471C6.63944 14.9443 6.98052 14.2995 7.35898 13.7108L8.01311 12.767C8.44297 12.1409 8.84947 11.5942 9.13916 11.1083L9.45687 10.613L9.66246 10.3561L9.84001 10.1551L10.3119 9.70192L10.9847 9.08049C11.3912 8.68801 11.9379 8.15069 12.3771 7.65542C12.7556 7.22089 13.1994 6.77234 13.6667 6.38921L14.2788 5.88459L14.4984 5.66966L14.8535 5.35661L15.1151 5.13234L15.33 4.95479L15.6524 4.69781L16.4327 4.14647L16.9373 3.81006L17.1803 3.62784L17.8438 3.17462L18.6568 2.66066L19.2175 2.33359C19.5632 2.13268 19.8482 1.96447 20.1192 1.86168L20.5024 1.73085L21.1472 1.5533C21.3948 1.49724 21.6751 1.45518 21.9788 1.39911C21.9788 1.42715 21.9648 1.45518 21.9695 1.48789C21.9975 1.62339 22.1283 1.71216 22.2638 1.68413C22.7872 1.57666 23.1376 1.57199 23.4413 1.60937L23.8291 1.62339H24.0113L24.1889 1.6047L24.3898 1.57199L25.0533 1.45051L26.0765 1.40379C26.9362 1.40379 27.7492 1.35239 28.5108 1.40379C29.2958 1.45518 30.0387 1.66077 30.5293 1.94578L30.819 2.10464L31.2021 2.25416C31.4404 2.3663 31.6834 2.4831 32.0525 2.59057L32.501 2.72607C33.1178 2.91296 33.6971 3.14191 34.1504 3.36151L34.7017 3.71194L34.8419 3.83809L35.0615 4.039L35.3512 4.28197L35.5053 4.39878L35.7203 4.56231L36.2576 4.95479L36.5239 5.16972C36.7949 5.36596 37.0379 5.48744 37.2108 5.5949L37.5472 5.86123L37.706 6.01542C37.9256 6.25371 38.0892 6.48266 38.3275 6.80505L38.5798 7.10875L38.8461 7.45451L39.0797 7.7769L39.4161 8.25816L39.6217 8.50579L39.9301 8.88425L40.0422 9.04312L40.2572 9.30944L40.6403 9.80004L40.9674 10.2065L41.3225 10.6364L41.4159 10.7766L41.5888 11.0335L41.7944 11.3559L42.1121 11.968L42.3691 12.4867L42.8597 13.6174L42.9811 13.8837L43.1914 14.379L43.3643 14.7808L43.7287 15.5564L44.0184 16.1451C44.1165 16.3647 44.224 16.7432 44.3315 17.1263C44.4903 17.701 44.6539 18.2851 44.8221 18.757L45.4528 20.7801L45.5416 21.0885L45.593 21.3595L45.6444 21.6165L45.7612 22.1351L45.9902 23.121C46.1256 23.8265 46.2892 24.476 46.4667 25.1955C46.6349 25.9197 46.7891 26.5832 46.7938 27.1252V27.5177L46.8078 28.2793L46.8639 29.7604C46.8732 30.3631 46.92 30.9425 46.9713 31.5312L46.9573 31.7322L46.962 31.7228Z" fill="black"/>
<path d="M39.1406 54.4959L39.15 54.4866H39.1453V54.4959H39.1406Z" fill="black"/>
<path d="M26.8444 48.3998V48.0416L26.8014 47.8248L26.787 47.7447V47.7117H26.7823C26.7823 47.7117 26.7823 47.6834 26.7823 47.6693L26.7727 47.6174V47.5891L26.7536 47.5373L26.7441 47.4949V47.4666C26.7297 47.4336 26.7202 47.4053 26.7058 47.3723L26.6724 47.3063L26.6055 47.2121L26.5864 47.1885L26.5625 47.1649C26.4956 47.0989 26.4096 47.0518 26.3189 47.0235C26.0131 46.934 25.6882 47.1084 25.5927 47.41V47.4289L25.564 47.542V47.6221C25.564 47.6551 25.564 47.6881 25.5736 47.7211V47.74L25.5879 47.7918V47.8154L25.6022 47.8672V47.8908C25.6022 47.8908 25.6166 47.9143 25.6213 47.9285L25.6357 47.9945L25.6691 48.1265V48.7957L25.6548 48.9984L25.6452 49.1964V49.2859L25.5975 49.531L25.5401 49.6913L25.5162 49.7667L25.4589 49.8657L25.3538 49.9929L25.2726 50.0636L25.1579 50.1485L25.0958 50.1956L25.0003 50.2427L24.7232 50.3559L24.5942 50.3417L24.5369 50.3276L24.4365 50.2946L24.126 50.1532L24.0065 50.1061L23.9492 50.0872L23.8107 49.9788L23.7486 49.9175L23.7342 49.8892L23.6817 49.7997L23.5622 49.63L23.5097 49.5546L23.438 49.4179L23.3329 49.2482L23.2899 49.1728L23.2517 49.0927L23.2087 48.9796L23.1418 48.8005L23.1753 48.89L23.1657 48.8476L23.1466 48.6732V48.4328L23.1323 48.0746C23.1323 48.0463 23.18 47.8201 23.0988 47.5137C23.0702 47.3959 22.9746 47.1367 22.6545 47.0801C22.4873 47.0518 22.3201 47.1131 22.2054 47.2356C22.1051 47.3487 22.0764 47.4949 22.1003 47.6315L22.0908 47.6928L22.0095 48.1359V48.5601L22 48.7156L22.0191 48.9937L22.0334 49.1021C22.043 49.2859 22.0621 49.2577 22.0812 49.3189L22.1242 49.4698L22.2007 49.6677L22.2866 49.8374L22.3918 50.0306L22.4204 50.0825L22.516 50.2427L22.6163 50.4077L22.6736 50.5161L22.7501 50.634L22.8934 50.8036L23.0797 50.9733L23.2565 51.0911L23.5814 51.242L23.7247 51.2844L24.0161 51.3787L24.2645 51.4494L24.5369 51.4776L24.8235 51.4541L24.9525 51.4305L25.1388 51.374L25.5545 51.1807L25.6691 51.1194L25.8411 50.9922L25.9271 50.9168L26.1278 50.7565L26.3905 50.4596L26.5195 50.2522L26.6103 50.0825L26.6676 49.9411C26.7536 49.7384 26.7775 49.5593 26.7966 49.4603L26.8396 49.2624V48.7863L26.8301 48.3904L26.8444 48.3998ZM24.7518 50.3653C24.7518 50.3653 24.7662 50.3653 24.7566 50.3653H24.7518Z" fill="black"/>
</svg>
