<svg width="51" height="61" viewBox="0 0 51 61" fill="none" xmlns="http://www.w3.org/2000/svg">
<path d="M24.564 1.82053C24.5499 0.836495 25.0709 0.0216033 25.7277 0.000421124C26.3845 -0.0207611 26.9284 0.759787 26.9425 1.74382L26.9626 3.1403L27.0517 2.5C27.2764 1.57509 27.9344 1.16336 28.5518 1.5C29.1691 1.83664 28.2765 4.07509 28.0518 5L28.4292 7.52486C28.2045 8.44977 27.5219 8.92665 26.9045 8.59001C26.7069 8.48223 26.5399 8.30413 26.4115 8.08142C26.2449 8.22433 26.0526 8.30866 25.8471 8.31529C25.6787 8.32072 25.5177 8.27345 25.3712 8.18355C25.2616 8.68618 25.0044 9.11095 24.6471 9.30583C24.0297 9.64247 23.3471 9.16558 23.1224 8.24067L22.0517 7C21.827 6.07509 23.769 8.52019 24.3863 8.18355C25.0036 7.84691 24.4224 5.57509 24.6471 6.5L24.5935 3.87475L24.564 1.82053Z" fill="#FAFAFA"/>
<path d="M1.79297 37.2069C1.79297 50.3284 12.4301 60.9655 25.5516 60.9655C38.6731 60.9655 49.3102 50.3284 49.3102 37.2069V30.931H1.79297V37.2069Z" fill="#AA7E4D"/>
<g style="mix-blend-mode:multiply">
<path fill-rule="evenodd" clip-rule="evenodd" d="M19.3527 46.4703C19.3032 46.8082 19.1008 47.1254 18.7753 47.3681C18.398 47.6494 17.8863 47.8074 17.3527 47.8074C16.8191 47.8074 16.3074 47.6494 15.9301 47.3681C15.5528 47.0868 15.3408 46.7052 15.3408 46.3074H17.3527H19.3408H19.3646H21.3527H23.3408H23.3646H25.3527H27.3408H27.3646H29.3527H31.3408H31.3646H33.3527H35.3646C35.3646 46.7052 35.1526 47.0868 34.7753 47.3681C34.398 47.6494 33.8863 47.8074 33.3527 47.8074C32.8191 47.8074 32.3074 47.6494 31.9301 47.3681C31.6046 47.1254 31.4022 46.8082 31.3527 46.4703C31.3032 46.8082 31.1008 47.1254 30.7753 47.3681C30.398 47.6494 29.8863 47.8074 29.3527 47.8074C28.8191 47.8074 28.3074 47.6494 27.9301 47.3681C27.6047 47.1254 27.4022 46.8082 27.3527 46.4703C27.3032 46.8082 27.1008 47.1254 26.7753 47.3681C26.398 47.6494 25.8863 47.8074 25.3527 47.8074C24.8191 47.8074 24.3074 47.6494 23.9301 47.3681C23.6047 47.1254 23.4022 46.8082 23.3527 46.4703C23.3032 46.8082 23.1008 47.1254 22.7753 47.3681C22.398 47.6494 21.8863 47.8074 21.3527 47.8074C20.8191 47.8074 20.3074 47.6494 19.9301 47.3681C19.6047 47.1254 19.4022 46.8082 19.3527 46.4703Z" fill="#4B2807" fill-opacity="0.2"/>
</g>
<g style="mix-blend-mode:multiply">
<path fill-rule="evenodd" clip-rule="evenodd" d="M19.3527 49.4703C19.3032 49.8082 19.1008 50.1254 18.7753 50.3681C18.398 50.6494 17.8863 50.8074 17.3527 50.8074C16.8191 50.8074 16.3074 50.6494 15.9301 50.3681C15.5528 50.0868 15.3408 49.7052 15.3408 49.3074H17.3527H19.3408H19.3646H21.3527H23.3408H23.3646H25.3527H27.3408H27.3646H29.3527H31.3408H31.3646H33.3527H35.3646C35.3646 49.7052 35.1526 50.0868 34.7753 50.3681C34.398 50.6494 33.8863 50.8074 33.3527 50.8074C32.8191 50.8074 32.3074 50.6494 31.9301 50.3681C31.6046 50.1254 31.4022 49.8082 31.3527 49.4703C31.3032 49.8082 31.1008 50.1254 30.7753 50.3681C30.398 50.6494 29.8863 50.8074 29.3527 50.8074C28.8191 50.8074 28.3074 50.6494 27.9301 50.3681C27.6047 50.1254 27.4022 49.8082 27.3527 49.4703C27.3032 49.8082 27.1008 50.1254 26.7753 50.3681C26.398 50.6494 25.8863 50.8074 25.3527 50.8074C24.8191 50.8074 24.3074 50.6494 23.9301 50.3681C23.6047 50.1254 23.4022 49.8082 23.3527 49.4703C23.3032 49.8082 23.1008 50.1254 22.7753 50.3681C22.398 50.6494 21.8863 50.8074 21.3527 50.8074C20.8191 50.8074 20.3074 50.6494 19.9301 50.3681C19.6047 50.1254 19.4022 49.8082 19.3527 49.4703Z" fill="#4B2807" fill-opacity="0.2"/>
</g>
<g style="mix-blend-mode:multiply">
<path fill-rule="evenodd" clip-rule="evenodd" d="M19.3527 52.4703C19.3032 52.8082 19.1008 53.1254 18.7753 53.3681C18.398 53.6494 17.8863 53.8074 17.3527 53.8074C16.8191 53.8074 16.3074 53.6494 15.9301 53.3681C15.5528 53.0868 15.3408 52.7052 15.3408 52.3074H17.3527H19.3408H19.3646H21.3527H23.3408H23.3646H25.3527H27.3408H27.3646H29.3527H31.3408H31.3646H33.3527H35.3646C35.3646 52.7052 35.1526 53.0868 34.7753 53.3681C34.398 53.6494 33.8863 53.8074 33.3527 53.8074C32.8191 53.8074 32.3074 53.6494 31.9301 53.3681C31.6046 53.1254 31.4022 52.8082 31.3527 52.4703C31.3032 52.8082 31.1008 53.1254 30.7753 53.3681C30.398 53.6494 29.8863 53.8074 29.3527 53.8074C28.8191 53.8074 28.3074 53.6494 27.9301 53.3681C27.6047 53.1254 27.4022 52.8082 27.3527 52.4703C27.3032 52.8082 27.1008 53.1254 26.7753 53.3681C26.398 53.6494 25.8863 53.8074 25.3527 53.8074C24.8191 53.8074 24.3074 53.6494 23.9301 53.3681C23.6047 53.1254 23.4022 52.8082 23.3527 52.4703C23.3032 52.8082 23.1008 53.1254 22.7753 53.3681C22.398 53.6494 21.8863 53.8074 21.3527 53.8074C20.8191 53.8074 20.3074 53.6494 19.9301 53.3681C19.6047 53.1254 19.4022 52.8082 19.3527 52.4703Z" fill="#4B2807" fill-opacity="0.2"/>
</g>
<g style="mix-blend-mode:multiply">
<path fill-rule="evenodd" clip-rule="evenodd" d="M19.3527 55.4703C19.3032 55.8082 19.1008 56.1254 18.7753 56.3681C18.398 56.6494 17.8863 56.8074 17.3527 56.8074C16.8191 56.8074 16.3074 56.6494 15.9301 56.3681C15.5528 56.0868 15.3408 55.7052 15.3408 55.3074H17.3527H19.3408H19.3646H21.3527H23.3408H23.3646H25.3527H27.3408H27.3646H29.3527H31.3408H31.3646H33.3527H35.3646C35.3646 55.7052 35.1526 56.0868 34.7753 56.3681C34.398 56.6494 33.8863 56.8074 33.3527 56.8074C32.8191 56.8074 32.3074 56.6494 31.9301 56.3681C31.6046 56.1254 31.4022 55.8082 31.3527 55.4703C31.3032 55.8082 31.1008 56.1254 30.7753 56.3681C30.398 56.6494 29.8863 56.8074 29.3527 56.8074C28.8191 56.8074 28.3074 56.6494 27.9301 56.3681C27.6047 56.1254 27.4022 55.8082 27.3527 55.4703C27.3032 55.8082 27.1008 56.1254 26.7753 56.3681C26.398 56.6494 25.8863 56.8074 25.3527 56.8074C24.8191 56.8074 24.3074 56.6494 23.9301 56.3681C23.6047 56.1254 23.4022 55.8082 23.3527 55.4703C23.3032 55.8082 23.1008 56.1254 22.7753 56.3681C22.398 56.6494 21.8863 56.8074 21.3527 56.8074C20.8191 56.8074 20.3074 56.6494 19.9301 56.3681C19.6047 56.1254 19.4022 55.8082 19.3527 55.4703Z" fill="#4B2807" fill-opacity="0.2"/>
</g>
<g style="mix-blend-mode:multiply">
<path fill-rule="evenodd" clip-rule="evenodd" d="M19.3527 58.4703C19.3032 58.8082 19.1008 59.1254 18.7753 59.3681C18.398 59.6494 17.8863 59.8074 17.3527 59.8074C16.8191 59.8074 16.3074 59.6494 15.9301 59.3681C15.5528 59.0868 15.3408 58.7052 15.3408 58.3074H17.3527H19.3408H19.3646H21.3527H23.3408H23.3646H25.3527H27.3408H27.3646H29.3527H31.3408H31.3646H33.3527H35.3646C35.3646 58.7052 35.1526 59.0868 34.7753 59.3681C34.398 59.6494 33.8863 59.8074 33.3527 59.8074C32.8191 59.8074 32.3074 59.6494 31.9301 59.3681C31.6046 59.1254 31.4022 58.8082 31.3527 58.4703C31.3032 58.8082 31.1008 59.1254 30.7753 59.3681C30.398 59.6494 29.8863 59.8074 29.3527 59.8074C28.8191 59.8074 28.3074 59.6494 27.9301 59.3681C27.6047 59.1254 27.4022 58.8082 27.3527 58.4703C27.3032 58.8082 27.1008 59.1254 26.7753 59.3681C26.398 59.6494 25.8863 59.8074 25.3527 59.8074C24.8191 59.8074 24.3074 59.6494 23.9301 59.3681C23.6047 59.1254 23.4022 58.8082 23.3527 58.4703C23.3032 58.8082 23.1008 59.1254 22.7753 59.3681C22.398 59.6494 21.8863 59.8074 21.3527 59.8074C20.8191 59.8074 20.3074 59.6494 19.9301 59.3681C19.6047 59.1254 19.4022 58.8082 19.3527 58.4703Z" fill="#4B2807" fill-opacity="0.2"/>
</g>
<path fill-rule="evenodd" clip-rule="evenodd" d="M9.0334 30.931H1.79297V37.2068C1.79297 46.5823 7.22343 54.6893 15.1105 58.5542C17.4744 55.5255 18.9162 51.4943 18.9162 47.0689C18.9162 39.5737 14.7801 33.2091 9.0334 30.931ZM35.6825 58.7034C43.737 54.9008 49.3102 46.7047 49.3102 37.2068V30.931H41.6416C35.8949 33.2091 31.7588 39.5737 31.7588 47.0689C31.7588 51.5673 33.2487 55.6585 35.6825 58.7034Z" fill="#DA9E5B"/>
<path fill-rule="evenodd" clip-rule="evenodd" d="M25.3276 4.10715C11.3396 4.10715 0 15.4467 0 29.4347L0 34.419L0 34.5503L0 38.7809C0 42.5736 3.07458 45.6482 6.86727 45.6482C9.62495 45.6482 12.003 44.0228 13.0955 41.6777C14.188 44.0228 16.5661 45.6483 19.3238 45.6483C22.6484 45.6483 25.4212 43.2859 26.055 40.1481C26.6888 43.2859 29.4616 45.6483 32.7862 45.6483C35.0383 45.6483 37.0372 44.5643 38.2895 42.8895C39.5418 44.5643 41.5407 45.6483 43.7928 45.6483C47.5855 45.6483 50.6601 42.5738 50.6601 38.7811V34.4191C50.6601 34.3314 50.6584 34.2441 50.6552 34.1571V29.4347C50.6552 15.4467 39.3156 4.10715 25.3276 4.10715Z" fill="#FAFAFA"/>
<path d="M22.5622 33.8635C20.0089 31.7134 20.2235 27.7111 22.9783 25.8262C24.7766 24.5958 27.1698 24.6531 28.9007 25.9766C31.3736 27.8677 31.549 31.5362 29.282 33.6698C27.4163 35.4258 24.522 35.5138 22.5622 33.8635Z" fill="#FFD500"/>
<ellipse cx="23.0865" cy="30.1975" rx="0.672414" ry="0.611285" fill="#512E0C"/>
<ellipse cx="28.3497" cy="30.1974" rx="0.672414" ry="0.611285" fill="#512E0C"/>
<circle cx="13.8964" cy="23.3104" r="5.37931" fill="#FFD500"/>
<circle cx="13.8963" cy="23.3103" r="3.58621" fill="#323232"/>
<circle cx="15.2413" cy="22.2643" r="1.34483" fill="white"/>
<circle cx="12.9996" cy="24.8045" r="0.896552" fill="white"/>
<circle cx="37.2069" cy="23.3103" r="5.37931" fill="#FFD500"/>
<circle cx="37.2068" cy="23.3103" r="3.58621" fill="#323232"/>
<circle cx="38.5519" cy="22.2643" r="1.34483" fill="white"/>
<circle cx="36.3106" cy="24.8044" r="0.896552" fill="white"/>
<ellipse cx="10.3103" cy="31.3386" rx="2.68966" ry="1.7931" fill="#FFCEB9"/>
<ellipse cx="40.7932" cy="31.3387" rx="2.68966" ry="1.7931" fill="#FFCEB9"/>
</svg>
