<svg width="49" height="60" viewBox="0 0 49 60" fill="none" xmlns="http://www.w3.org/2000/svg">
<path d="M47.4245 30.454C47.4245 46.503 38.1301 58.8158 25.8045 58.8158C13.4789 58.8158 0.464844 47.8978 0.464844 31.8489C0.464844 15.7999 13.4789 0.464935 25.8045 0.464935C38.1301 0.464935 47.4245 14.4051 47.4245 30.454Z" fill="white"/>
<g style="mix-blend-mode:darken" opacity="0.42">
<path d="M47.22 27.2623C47.206 26.8345 47.1409 26.4719 47.1037 26.1511L46.8759 24.7981L46.6899 23.7705L46.4017 22.4687L46.225 21.7248L46.0576 20.8042L45.9553 20.3346L45.6392 19.307L45.2161 18.0889L45.0347 17.5821C44.8813 17.1729 44.7232 16.8428 44.5791 16.5778L44.0351 15.5968L43.8026 15.076C43.598 14.6436 43.3563 14.3228 43.1982 14.1136L42.989 13.8439L42.7658 13.3325L42.6217 12.9745C42.4078 12.4537 42.1893 12.0213 41.994 11.6215L41.5569 10.7288L41.2919 10.2452C41.2919 10.2452 41.2919 10.2452 41.2919 10.2406L41.2082 9.96161L41.0176 9.44552C40.9199 9.227 40.8084 9.06891 40.734 8.96197L40.5526 8.7481L40.4643 8.53887L40.3713 8.35289L40.1946 8.05533C40.1946 8.05533 40.2179 8.00883 39.9482 7.69266C39.832 7.55318 39.6367 7.20447 38.8788 7.13473C38.8323 7.13473 38.7905 7.13473 38.744 7.13473C38.7022 7.06964 38.6556 6.9999 38.6045 6.93015L38.1256 6.36292C37.8373 6.01421 37.5165 5.66084 37.112 5.29819L36.4053 4.65192C36.0706 4.3311 35.7032 3.99633 35.2708 3.69877L34.9454 3.46629L34.7455 3.32681L34.4525 3.13153L34.2619 3.01065C34.2247 2.98276 34.2247 2.9874 34.2294 2.99205L34.1038 2.88511L33.862 2.71773L33.6063 2.53176L33.1088 2.22953L32.2859 1.77855L32.0348 1.65766L31.9744 1.62976L31.8628 1.56931L31.6303 1.43448L31.3885 1.27174L31.0026 1.02068C30.7237 0.834702 30.4261 0.616178 30.0402 0.411601L29.7519 0.262814C29.5566 0.183773 29.3335 0.127977 29.1521 0.10008L28.6825 0.0814782H28.478C28.4501 0.0814782 28.7523 -0.155635 27.8596 0.179127C27.655 0.258168 27.0552 0.416245 26.8785 1.35079C26.8181 1.6623 26.8506 1.82503 26.8599 1.92732L26.9483 2.30393C27.0134 2.48525 27.0785 2.82932 27.6829 3.15479C27.9758 3.31287 28.3896 3.34541 28.7476 3.28497L29.2684 3.62437L29.6775 3.8894L29.9472 4.07073L30.3796 4.32179L30.5005 4.38689L30.719 4.49384L30.8724 4.56358L31.5466 4.93089L31.8674 5.1215L32.0209 5.23774L32.1975 5.35863C32.1975 5.35863 32.1975 5.35863 32.2068 5.36793L32.4393 5.54461L32.7834 5.76779L33.0019 5.91657L33.146 6.01421L33.504 6.26992C33.7179 6.41871 33.9736 6.64189 34.2526 6.90691L35.0198 7.61363C35.3034 7.874 35.4894 8.07857 35.7218 8.35289L36.0984 8.7946L36.3263 9.19445C36.7029 9.87792 37.0934 10.5149 37.4561 11.0868L38.0466 11.9702L38.5766 12.8303L38.7951 13.2441L39.1903 13.909L39.6134 14.7692C39.9296 15.4805 40.2783 16.0152 40.5247 16.4476C40.6968 16.7545 40.8223 17.0567 40.9804 17.4519L41.2919 18.2749L41.5941 19.1443L41.8173 19.7394L41.9196 20.0324C42.0684 20.4973 42.166 21.0041 42.245 21.5946L42.3287 22.199L42.4496 23.3056L42.5147 24.1007L42.5473 24.533L42.5891 25.0863L42.696 26.2255L42.7472 27.0298L42.7658 27.3878V28.4805L42.5938 29.3964L42.5054 30.1078L42.4357 30.847L42.4031 31.5212L42.3659 31.9211L42.3008 32.4139L42.2311 32.8975L42.1149 33.4089L41.9568 33.8971L41.715 34.7107L41.6081 35.2129L41.5151 35.6313L41.3384 36.4217L41.0734 37.1006L40.8921 37.4911L40.7293 37.8445L40.4178 38.5977L40.0365 39.5415L39.4321 40.9317L39.2508 41.4013L39.009 41.9174L38.6789 42.5823L38.1628 43.6749L37.9675 44.0562L37.8141 44.2654L37.2887 44.8001C37.0004 45.0977 36.7447 45.4278 36.4983 45.7718L35.9264 46.5483L35.4336 47.2178L34.6571 48.25L34.0713 49.0823L33.7458 49.4031C33.4343 49.7192 33.2297 49.9982 33.0251 50.226L32.351 50.9421L31.7977 51.5093L31.4815 51.8255L31.2025 52.1695L31.0119 52.4159L30.8771 52.6019L30.8352 52.6531L30.7702 52.7507L30.719 52.8018L30.5702 52.9506L29.9565 53.569L29.3428 54.2385L29.2126 54.3594L29.101 54.4431L28.8778 54.6151L28.8034 54.6756L28.6732 54.7825C28.292 55.1033 28.0828 55.4009 27.9293 55.5776L27.6643 55.8844L27.5481 56.0332L27.4225 56.1541C27.3667 56.2053 27.4086 56.1727 27.3853 56.1913C27.2923 56.261 27.3993 56.182 27.3388 56.2192L27.2552 56.2796C27.2552 56.2796 27.2459 56.2796 27.1901 56.3122C27.1575 56.3308 27.1575 56.3308 27.1668 56.3308L26.9343 56.4424L26.6228 56.6283L26.4322 56.7585C26.4322 56.7585 26.2927 56.7725 26.0463 56.9027C25.9626 56.9399 25.7999 57.0189 25.6046 57.2142C25.5302 57.2886 25.6232 57.0747 25.3256 57.5443C25.1908 57.7628 24.9816 58.1115 25.0931 58.7206C25.2698 59.697 25.8417 59.8039 26.0277 59.883L26.3253 59.976L26.5019 59.9992H26.8785C27.7805 60.0178 28.2408 59.7017 28.7569 59.4785L29.5613 59.1158L30.0495 58.8973C30.2587 58.809 30.5842 58.716 31.0212 58.516C31.6721 58.2138 32.1464 57.7721 32.5509 57.3165L33.0112 56.7585L33.1786 56.5958C33.2855 56.4982 33.3925 56.447 33.6714 56.3447L34.2805 56.0983C34.5641 55.9681 34.9221 55.7822 35.2941 55.4985L35.7497 55.1173L36.1077 54.8104L36.5216 54.485L37.1818 53.9828L37.3213 53.8573C37.3213 53.8573 37.3538 53.8619 37.3724 53.8666C37.4235 53.8759 37.4747 53.8852 37.5258 53.8945C37.5723 53.8991 37.6188 53.9038 37.67 53.9038C37.7211 53.9038 37.7723 53.9038 37.8234 53.9038C37.8327 53.9038 37.842 53.9038 37.8466 53.9038C37.8559 53.9038 37.8653 53.9038 37.8745 53.9038C37.8885 53.9038 37.8978 53.9038 37.9117 53.9038C37.9303 53.9038 37.9443 53.8945 37.9582 53.8945C37.9908 53.8898 38.028 53.8852 38.0559 53.8805C38.4976 53.7968 38.7068 53.6109 38.8323 53.4528C38.9532 53.3458 39.0416 53.2482 39.102 53.1552C39.1531 53.1087 39.2229 53.0436 39.3298 52.932L39.7204 52.4903L40.4689 51.5325L40.7247 51.1652C41.0269 50.8677 41.3198 50.5004 41.5988 50.0494L42.0684 49.2171L42.2404 48.8591L42.6635 48.2082L43.0262 47.7153C43.1749 47.5061 43.3423 47.255 43.4725 46.911C43.6166 46.5251 43.6538 46.2275 43.6864 46.0415L43.8119 45.5766L43.97 44.9163L44.1141 44.2747L44.1932 43.8934L44.3838 43.1309L44.5698 42.6056L45.0626 41.3176L45.4857 40.0623L45.8716 38.5745L46.0483 37.7329L46.1367 37.2866L46.2343 36.8123L46.2761 36.5287L46.4714 35.7801L46.7132 34.6828L46.8248 33.911L46.8713 33.5298L47.0201 31.9815L47.1549 30.8191L47.1828 30.3495L47.2153 29.1081V28.7269L47.2386 27.5599V27.2855L47.22 27.2623ZM27.125 0.918392C27.1064 0.950938 27.0831 0.98348 27.0645 1.01603C27.0831 0.98348 27.1017 0.950933 27.111 0.927685L27.125 0.913738V0.918392Z" fill="#F8BA00" fill-opacity="0.5"/>
</g>
<g style="mix-blend-mode:darken" opacity="0.42">
<path d="M17.6539 44.2608C17.3098 44.019 16.7891 43.8005 16.1335 43.9493C15.8871 44.0051 15.6732 44.1213 15.4919 44.2747C15.3803 44.2747 15.2501 44.2887 15.0874 44.3259C15.0828 44.3259 14.8875 44.3631 14.6689 44.47C14.5016 44.5537 14.3249 44.6606 14.1389 44.8466C13.7995 45.186 13.7716 45.4278 13.767 45.4371C13.7298 45.5394 13.6833 45.4975 13.6135 45.9485C13.567 46.2647 13.567 46.7668 13.9064 47.2411C14.3202 47.8176 14.5713 47.7804 14.6783 47.8176L14.8131 47.8595L15.0456 47.9199L15.2269 47.9478L15.5616 47.9897L15.8592 48.0129H16.1893C16.2916 48.0129 16.5752 48.0129 16.9239 47.8874L17.2215 47.7618C17.3238 47.7107 17.1471 47.8037 17.3424 47.7107L17.4586 47.6502C17.626 47.5619 17.9003 47.3341 18.0305 47.1481C18.0724 47.0923 18.2211 47.0458 18.3839 46.4879C18.4443 46.2786 18.4629 46.1159 18.4722 45.9764C18.4722 45.9439 18.5373 45.7858 18.4257 45.3441C18.2723 44.7583 17.984 44.4839 17.6493 44.2515L17.6539 44.2608Z" fill="#F8BA00" fill-opacity="0.5"/>
</g>
<g style="mix-blend-mode:darken" opacity="0.42">
<path d="M30.9281 45.0093C30.8863 45.0791 30.8119 45.2046 30.7514 45.4092C30.6863 45.6277 30.6724 45.8044 30.6677 45.8648V45.9299C30.6491 46.0601 30.6212 46.3902 30.8072 46.8133C31.0397 47.3294 31.9184 47.8036 32.2393 47.8501C32.1928 47.8455 32.1323 47.8362 32.2021 47.8501C32.2114 47.8501 32.3415 47.9199 32.7507 47.9106H33.1226C33.476 47.9106 33.6759 47.8315 33.6945 47.8269L33.7736 47.813L34.0432 47.7479C34.1874 47.7107 34.3455 47.6595 34.5454 47.5526C34.5872 47.5293 34.908 47.4038 35.1917 47.0086C35.201 46.9946 35.4334 46.7668 35.5311 46.2507C35.6241 45.7439 35.3451 44.9024 34.8894 44.5537C34.5779 44.3166 34.2153 44.1957 33.8433 44.1724H33.5783L33.5643 44.1631C33.5132 44.1399 33.4528 44.1259 33.397 44.112C33.3551 44.098 33.3133 44.0841 33.2668 44.0748C33.211 44.0655 33.1552 44.0608 33.0994 44.0562C33.0529 44.0562 33.0064 44.0422 32.9599 44.0422H32.9088L32.6252 44.0283H32.481C32.402 44.0376 32.5601 44.0283 32.4159 44.0283C32.2346 44.0376 31.8301 44.098 31.4674 44.377C31.1931 44.5909 30.9932 44.9163 30.9374 45.014C30.942 45.0047 30.9467 45 30.9374 45.014L30.9281 45.0093Z" fill="#F8BA00" fill-opacity="0.5"/>
</g>
<path d="M27.3527 46.3298V46.3112L27.3388 46.2182L27.3248 46.1299V46.1066L27.3109 46.0694C27.2969 46.0043 27.2737 45.9439 27.2458 45.8881L27.2225 45.8462C27.19 45.7904 27.1528 45.744 27.1063 45.7021L27.0505 45.6556C26.8227 45.4743 26.5019 45.4789 26.274 45.6556L26.2182 45.7021C26.1717 45.744 26.1346 45.7951 26.102 45.8462L26.0788 45.8881C26.0462 45.9439 26.0276 46.0043 26.0137 46.0694V46.0927L25.9904 46.181L25.9811 46.274V46.2833L25.9625 46.3903L25.9532 46.4553V46.5297L25.916 46.9854C25.9067 47.1713 25.837 47.4271 25.7486 47.7293L25.665 47.9804L25.572 48.1384L25.5534 48.1803L25.465 48.264L25.3162 48.3756L25.2279 48.4313L24.9536 48.3849L24.7909 48.3291L24.7211 48.2826C24.7211 48.2826 24.7165 48.2826 24.7211 48.2872L24.6281 48.1849L24.5723 48.1152L24.4654 47.9617L24.3352 47.7665L24.2515 47.6456L24.2143 47.5851L24.1771 47.455L24.126 47.2829L24.019 46.7436L23.9772 46.5669L23.9307 46.3252L23.847 45.9718L23.8005 45.7579C23.754 45.5673 23.6238 45.4139 23.4425 45.3395C23.131 45.2093 22.773 45.3581 22.6428 45.6649C22.5731 45.8277 22.5684 45.9253 22.5498 46.102L22.5638 46.553L22.5731 46.7669L22.6009 46.9854L22.68 47.6177L22.7776 47.9804L22.8148 48.064L22.9404 48.3709L23.1263 48.6685L23.2007 48.7708L23.4007 49.0404L23.582 49.2357L23.7633 49.3799L24.1725 49.6123C24.4003 49.7053 24.6188 49.7286 24.8094 49.7425C24.9815 49.7425 25.2326 49.7564 25.4743 49.6774C25.7765 49.6077 25.9346 49.4589 26.0555 49.3706L26.3205 49.1474L26.3996 49.059L26.5762 48.8684L26.7855 48.5941L27.0365 48.1338C27.1481 47.8595 27.2923 47.5154 27.3527 47.0412V46.4228L27.3341 46.3112L27.3527 46.3298ZM24.7444 48.3012C24.7444 48.3012 24.7583 48.3151 24.7537 48.3105L24.7444 48.3012Z" fill="black"/>
<path d="M35.3174 45.0698C35.2941 45.0047 35.2569 44.9442 35.2151 44.8884L35.1314 44.8001L35.0338 44.7211L34.9315 44.6606L34.8803 44.6374L34.8292 44.6141L34.7827 44.5955L34.6757 44.5537L34.5642 44.4932L34.42 44.4142L34.3549 44.3677C34.2154 44.2561 34.0667 44.1259 33.8016 44.0143L33.5831 43.9353L33.4483 43.8934L33.2623 43.7865L33.1321 43.7307L33.2809 43.5959L33.4669 43.3913L33.5552 43.303L33.7458 43.0937L33.8156 42.9961L34.1364 42.6567L34.4061 42.3219L34.4851 42.2289C34.5409 42.1731 34.5874 42.1081 34.6246 42.0383C34.6571 41.9686 34.7083 41.857 34.7129 41.7082C34.7129 41.6059 34.699 41.5083 34.6571 41.4153C34.5084 41.0852 34.1225 40.941 33.7923 41.0898C33.7412 41.1131 33.8202 41.0759 33.7737 41.0945C33.6994 41.1224 33.6296 41.1642 33.5692 41.2153L33.3971 41.3874L33.0019 41.8523L32.802 42.1406L32.6718 42.3266L32.5788 42.4521L32.5416 42.4986L32.2766 42.8101L32.1418 42.9914L32.0627 43.0844L31.9233 43.2425H31.9326L31.8163 43.3588L31.714 43.475L31.7791 43.4052C31.542 43.6284 31.4723 44.0422 31.6815 44.4235C31.8489 44.6513 32.0767 44.7489 32.2208 44.7954L32.3557 44.828L32.6579 45L32.7834 45.0651L33.1833 45.2464L33.332 45.2976L33.5413 45.4324L33.7366 45.5626L34.1411 45.7253L34.2015 45.7346L34.3363 45.7765L34.3642 45.7858L34.3921 45.7951L34.4758 45.8276L34.5642 45.8509L34.6478 45.8695H34.6757C34.7455 45.8834 34.8199 45.8834 34.8896 45.8695L34.9315 45.8602H34.9454C35.2569 45.7718 35.4383 45.4557 35.3546 45.1441L35.3313 45.0698H35.3174Z" fill="black"/>
<path d="M17.9005 42.4475L17.7471 42.1964C17.5518 41.9174 17.2914 41.7733 16.9427 41.6431C16.766 41.592 16.6033 41.5734 16.3522 41.5687L16.143 41.5966C16.0128 41.6245 15.8176 41.6757 15.6502 41.8198C15.4316 41.9872 15.2643 42.1639 15.1201 42.3545C15.0643 42.4428 14.9481 42.6242 14.9063 42.9217C14.9063 42.9403 14.9063 42.9589 14.9063 42.9775C14.9016 43.0101 14.8923 43.0426 14.8877 43.0751L14.8737 43.5308C14.8737 43.568 14.8644 43.6842 14.9156 43.8609C15.0132 44.2189 15.2782 44.4095 15.2922 44.4235L15.506 44.6188L15.7711 44.7629C15.9896 44.8466 16.1802 44.842 16.157 44.8373C16.5289 44.8977 16.9195 44.9024 17.2961 44.6792L17.6494 44.377L17.761 44.2282L17.8959 44.0004C18.0307 43.7447 18.0493 43.5076 18.0586 43.3355C18.0725 43.2472 18.119 43.0565 18.0586 42.7822C18.0028 42.5126 17.8726 42.4149 17.8959 42.4475H17.9005Z" fill="black"/>
<path d="M48.0616 27.16C48.0197 26.4022 47.8012 25.6722 47.6013 24.9655L47.0992 22.9801L46.876 21.9479L46.769 21.4784L46.7086 21.1854C46.7086 21.1854 46.7086 21.1994 46.7086 21.1947L46.6946 21.1203L46.6388 20.8879L46.5273 20.5113L45.8484 18.4934L45.4067 16.9498C45.3091 16.5592 45.2115 16.1501 45.0627 15.7688L44.7186 15.1179L44.4071 14.4251L44.1979 13.9555L44.0072 13.5417L43.8771 13.2534L43.3563 12.0771L43.082 11.5517L42.7147 10.9008L42.445 10.4731L42.2916 10.2452L42.1707 10.0639L41.7244 9.56642L41.4314 9.22235L41.0223 8.69232L40.8084 8.45519L40.7387 8.3529L40.4132 7.93445L40.1761 7.66013L39.8785 7.28353L39.6182 6.93482L39.3299 6.57216L39.1021 6.29783C38.8649 5.98631 38.6604 5.70736 38.3907 5.42374L38.2047 5.22845C38.0373 5.06107 37.87 4.91694 37.6561 4.78211L37.0423 4.41014L36.8238 4.24277L36.2612 3.83361L36.052 3.67553L35.88 3.54535L35.6847 3.39656L35.4894 3.21058L35.2988 3.02461C35.0756 2.83398 34.7873 2.67124 34.5084 2.53641C33.9876 2.28533 33.36 2.03427 32.6904 1.83434L32.2255 1.69021C31.9419 1.61117 31.7884 1.53212 31.5374 1.42053L31.1375 1.26711L30.9794 1.17877C30.2867 0.764964 29.3986 0.527843 28.4687 0.453451C27.6179 0.388358 26.781 0.434845 25.9627 0.430195C25.6139 0.430195 25.2187 0.439497 24.8282 0.476693L24.0238 0.588275H24.0052C23.9355 0.518533 23.8239 0.485989 23.7263 0.532484C23.6844 0.551082 23.5356 0.518534 23.2195 0.458091C22.7917 0.434843 22.4802 0.532487 22.2198 0.578982C21.7967 0.667322 21.3411 0.681268 20.8482 0.75101L20.0811 0.936986L19.6533 1.08577C19.2674 1.22991 18.9373 1.42518 18.5932 1.62046L18.0214 1.95058L17.1659 2.48061L16.4917 2.96882L16.2313 3.16874L15.771 3.4942L14.9481 4.09863L14.6133 4.37295L14.3994 4.55427L14.1251 4.78675L13.7345 5.14477L13.5346 5.33074L12.9581 5.79104C12.4373 6.21414 11.9584 6.69303 11.5446 7.15798C11.1494 7.60433 10.6101 8.12973 10.2149 8.51563L9.57327 9.11077L9.03857 9.6408L8.83865 9.87327L8.57828 10.208L8.24817 10.766C7.99709 11.1891 7.59724 11.7284 7.16019 12.3654L6.49531 13.3418C6.10011 13.9741 5.7607 14.6343 5.44453 15.2295C5.24926 15.5828 4.8773 16.1454 4.4728 16.7266C4.24962 17.0521 4.06829 17.3589 3.92881 17.6658C3.5987 18.3632 3.40342 18.8421 3.0826 19.3396L2.59906 20.13C2.31544 20.6507 2.11086 21.2273 1.97138 21.8922C1.80865 22.6407 1.72031 23.2731 1.46923 23.7892C1.23211 24.2866 1.04613 24.733 0.953143 25.2026C0.827607 25.8489 0.557937 26.5184 0.385907 27.2809C0.278969 27.7644 0.11624 28.4014 0.0836942 29.043L0 30.4193V31.484L0.0325497 32.0513C0.0836939 32.8138 -0.0139433 33.5856 0.106943 34.455C0.181334 34.9665 0.223178 35.5384 0.330116 36.1335L0.427758 36.7286L0.478902 37.0122C0.548644 37.4214 0.641631 38.0491 0.781115 38.6024C0.957795 39.3184 1.14843 40.0251 1.3716 40.7504C1.49714 41.141 1.65521 41.5036 1.83189 41.8244L2.03182 42.1778C2.11551 42.3312 2.1899 42.5312 2.25964 42.7729C2.52001 43.6935 3.00356 44.563 3.29648 45.358C3.5429 46.0276 3.89161 46.5808 4.23567 47.0969L4.77036 47.813L5.09118 48.2361L5.2818 48.4778L5.47708 48.701L5.56077 48.8219L6.07686 49.4077L6.38838 49.7378C6.6441 50.0029 7.0207 50.4818 7.31827 50.877L7.91806 51.6395L8.19702 51.951L8.31791 52.0905L8.61548 52.4159L9.01068 52.76L9.55466 53.1366L9.90338 53.4063L10.2753 53.7364L10.6519 54.099L10.8426 54.2711L11.2378 54.6152L11.6051 54.9499C11.9259 55.2661 12.2281 55.5125 12.4931 55.6985L12.879 55.9496L13.3858 56.2518C13.7206 56.4145 13.967 56.4517 14.06 56.4889L14.7574 56.9259L15.0782 57.1538L15.492 57.4048L16.1104 57.7349L16.4452 57.907L16.8497 58.1023L17.3332 58.3905C17.8819 58.7113 18.556 58.981 19.286 58.995L20.1043 59.0554L21.5736 59.1716C21.8432 59.1949 22.3082 59.3343 22.8615 59.3855L23.5031 59.4273L23.8657 59.4552L24.1633 59.4831L24.4237 59.5017L24.684 59.511H25.5395L25.6279 59.5017C25.6651 59.5017 25.7023 59.4971 25.7348 59.4878L25.865 59.4552C25.865 59.4552 25.9022 59.4367 25.9255 59.432C26.0649 59.4181 26.1812 59.3948 26.2835 59.3855H26.9483C27.6086 59.3901 28.1944 59.3158 28.7616 59.3111C29.1382 59.3111 29.4823 59.2414 29.7892 59.1577C30.361 58.9903 30.905 58.8136 31.4444 58.5765L33.0484 57.9767L33.797 57.6931L34.327 57.4792L34.6153 57.3397C35.0756 57.098 35.3732 56.8655 35.5266 56.7911L36.689 56.1309L37.1307 55.8658C37.4143 55.7031 37.5724 55.6148 37.7491 55.4753L38.214 55.0708L38.4697 54.8569L38.6743 54.6849L38.9533 54.4664H38.9579L39.1392 54.3176L39.6925 53.8015L40.0366 53.4388L40.2412 53.2389L40.5992 52.8762L40.9758 52.4764L41.2827 52.1416L41.5337 51.8766L41.7523 51.6023L42.5101 50.6027L42.9053 50.0308C43.0634 49.7983 43.2587 49.5054 43.4586 49.1055L44.0212 47.9478L44.4303 47.0551L44.8767 46.0508C45.1324 45.465 45.3045 44.8977 45.4672 44.3584L45.8066 43.2007L45.9647 42.6474L46.1693 42.0337L46.518 40.9922C46.6621 40.5784 46.8016 40.3041 46.8713 39.8856C47.0108 38.9929 47.048 38.249 47.1503 37.4865L47.406 36.2172L47.5594 35.3012L47.6431 34.8549C47.7361 34.3434 47.7408 33.8227 47.764 33.3299C47.7733 33.3066 47.7919 33.2834 47.7966 33.2648C47.8663 33.0881 47.8896 32.9254 47.9174 32.6975C47.936 31.6979 47.9175 30.8005 47.9918 29.8707L48.0476 28.3503L48.0616 27.5924V27.1461V27.16ZM46.7179 32.0001L46.69 32.293L46.676 32.5116L46.6249 32.8789C46.5598 33.5205 46.5645 34.1668 46.4668 34.6364L46.3738 35.0734L46.1786 36.0126L45.9507 37.3005C45.8159 38.1328 45.7555 38.8534 45.602 39.6857C45.5648 39.9089 45.4625 40.1134 45.2998 40.583L44.9464 41.6292L44.7186 42.294L44.5745 42.852L44.2118 44.0097C44.0537 44.5397 43.905 45.0558 43.6911 45.558L43.2866 46.5344L42.8402 47.4224L42.3102 48.5476C42.1428 48.8777 41.994 49.1009 41.8359 49.338L41.4826 49.8494L40.7526 50.7933L40.5294 51.0443L40.3156 51.2722L40.0366 51.579L39.6367 52.0347L39.3345 52.3601L39.0974 52.6019L38.7673 52.946L38.3163 53.3644L38.2094 53.4528C38.1815 53.4714 38.2559 53.4249 38.1908 53.4667C38.1861 53.4667 38.1815 53.476 38.1768 53.4807C38.1722 53.4807 38.1629 53.4853 38.1582 53.49L37.8653 53.7224L37.6375 53.9084L37.3911 54.1223L36.9307 54.4989L36.4844 54.7686L35.9916 55.0615L34.9268 55.6985C34.6107 55.8751 34.3875 56.0797 34.0388 56.275L33.7877 56.3959L33.3181 56.6191L32.6393 56.9306L31.0492 57.6094C30.5377 57.814 30.0402 57.9628 29.473 58.1162C29.2266 58.1859 28.9848 58.2371 28.7616 58.2371C28.1107 58.2324 27.5249 58.3022 26.9344 58.2882C26.6461 58.2929 26.3439 58.2929 26.0091 58.3859C25.9394 58.4138 25.879 58.437 25.8278 58.4603C25.8232 58.4603 25.8139 58.4556 25.8092 58.4556L25.6883 58.437C25.6511 58.4324 25.6139 58.4277 25.5814 58.4324H25.4931L25.3722 58.4417H24.9119L24.7119 58.4324L24.4702 58.4184L24.2284 58.4091L23.968 58.3952L23.6193 58.3626L22.9684 58.2789C22.5732 58.2371 22.1454 58.0883 21.6851 58.0372L20.2392 57.9023L19.3279 57.8093C18.8908 57.7907 18.3933 57.5908 17.9842 57.3351L17.4634 57.0189L17.0124 56.7818L16.7195 56.6284L16.1244 56.2983L15.8036 56.1123L15.4781 55.8891C15.1759 55.6845 14.8969 55.466 14.5389 55.3172L13.9484 55.1266L13.5486 54.8895L13.2463 54.6988C13.0278 54.5361 12.7907 54.3362 12.5257 54.0619L12.0514 53.6294L11.7213 53.3505L11.5307 53.1692L11.1355 52.8112L10.731 52.4671L10.3032 52.1602L9.75924 51.765L9.50817 51.5418L9.24781 51.2815L9.10367 51.1281L8.85724 50.863L8.29931 50.1656C7.98314 49.7472 7.60189 49.2543 7.26248 48.9102L6.99746 48.6359L6.53251 48.1105L6.38838 47.9199L6.2303 47.7479L6.04431 47.5107L5.73745 47.1063L5.23996 46.4321C4.90984 45.9485 4.61693 45.4836 4.417 44.9582C4.07759 44.0655 3.60799 43.21 3.39412 42.4707C3.31043 42.1778 3.21279 41.8988 3.06865 41.6338L2.86873 41.2758C2.72925 41.0154 2.59906 40.7225 2.49677 40.4017C2.2736 39.7182 2.08761 39.0348 1.91093 38.3373C1.7947 37.8677 1.71101 37.2587 1.63662 36.8216L1.58547 36.5519L1.48318 35.9382C1.38554 35.4175 1.33905 34.8595 1.25536 34.3016C1.14843 33.6135 1.22282 32.8649 1.15307 31.9862L1.11588 31.4747V30.4658L1.15772 29.1128C1.17632 28.606 1.31116 28.0109 1.4088 27.5227C1.54828 26.8578 1.80865 26.1743 1.94348 25.4118C2.00393 25.0677 2.14341 24.7004 2.36193 24.2308C2.6781 23.5334 2.74784 22.8221 2.88732 22.1153C3.01286 21.5202 3.18024 21.0413 3.41272 20.5996L3.85442 19.8789C4.23102 19.3024 4.44954 18.7724 4.76571 18.0982C4.89124 17.8425 5.04468 17.5868 5.24926 17.2938C5.65841 16.7034 6.03967 16.1361 6.26749 15.7177C6.6069 15.1179 6.94631 14.4763 7.32292 13.8904L7.97385 12.9512C8.4016 12.3282 8.8061 11.7842 9.09437 11.3007L9.41053 10.8078L9.61511 10.5521L9.79179 10.3522L10.2614 9.90117L10.9309 9.28279C11.3354 8.89224 11.8794 8.35755 12.3165 7.86471C12.6931 7.43231 13.1348 6.98595 13.5997 6.60469L14.2088 6.10256L14.4273 5.88868L14.7807 5.57716L15.041 5.35398L15.2549 5.17732L15.5757 4.92159L16.3522 4.37295L16.8543 4.03819L17.0961 3.85685L17.7563 3.40587L18.5653 2.89442L19.1233 2.56895C19.4673 2.36903 19.751 2.20164 20.0206 2.09935L20.4019 1.96917L21.0435 1.7925C21.1737 1.7646 21.3178 1.7367 21.462 1.71345C21.3411 1.82504 21.2248 1.94593 21.1133 2.06216C20.8761 2.31789 20.6483 2.51316 20.3786 2.74098C20.1183 2.96416 19.7789 3.26173 19.4673 3.58719C19.1698 3.8987 18.9652 4.19162 18.7746 4.4334C18.5932 4.66587 18.2259 4.99598 17.8307 5.31214C17.5006 5.58181 17.2635 5.78174 17.0915 5.96772C16.9938 6.07001 16.8915 6.18624 16.7985 6.37222C16.752 6.47451 16.6544 6.69768 16.7474 6.9534C16.8218 7.19518 16.952 7.26957 16.9892 7.30211L17.2867 7.59503C17.4634 7.76241 17.7842 8.05068 18.1655 8.325C18.5467 8.59932 18.9327 8.81785 19.3 8.99918L19.7835 9.22235C20.1415 9.40368 20.4019 9.6501 20.732 9.84538C20.9319 9.97091 21.0761 10.0639 21.2434 10.2266L21.6572 10.6032C22.0664 10.9101 22.5034 10.9891 22.815 11.0682L23.1544 11.1751C23.4101 11.2588 23.7123 11.3704 23.982 11.5192C24.3493 11.7284 24.6515 11.9469 25.0607 12.105L25.9208 12.3607C26.1068 12.4072 26.2044 12.4584 26.3346 12.5374L26.688 12.7095L26.8739 12.7792L27.1343 12.8489L27.4737 13.0582C27.2459 13.3418 26.8786 13.6672 26.5392 14.0578L25.8743 14.8157L25.5628 15.183L25.3164 15.4108L24.9537 15.7223L24.5353 16.1408L24.1587 16.629L23.703 17.2334L23.1776 17.875L22.6336 18.512L22.4337 18.7073L22.1733 18.9397L21.9362 19.2094L21.634 19.5907L21.4434 19.8417L21.2713 20.1114C21.2155 20.2137 21.1179 20.3392 21.1504 20.6275C21.1876 20.9483 21.4852 21.1529 21.5829 21.1854C22.1129 21.4272 22.6336 21.3761 23.0939 21.5295C23.3125 21.5992 23.5403 21.7155 23.7309 21.8317L24.0796 22.0967L24.3353 22.2967L24.4655 22.385L24.6701 22.5198L25.0002 22.743L25.1769 22.8593C25.5024 23.0359 25.7627 23.0452 25.7348 23.0313L25.865 23.1196L25.9441 23.1754C25.9394 23.3056 25.8976 23.4358 25.8418 23.6822L25.7999 23.9054L25.7395 24.2308L25.4652 25.0538L25.0793 25.9418L24.5213 26.9833L24.2563 27.6622L24.0889 28.0295L23.7588 28.5688L23.3218 29.3174L23.2055 29.5824L23.1404 29.7358L23.08 30.0566C23.08 30.3867 23.3264 30.7448 23.4891 30.8656L23.5356 30.9075L23.7077 31.0377C24.1261 31.2887 24.6097 31.4887 25.0188 31.7118C25.1722 31.7909 25.335 31.935 25.3954 32.0327V32.0652L25.3303 32.1907L25.2187 32.4651C25.1211 32.7673 25.0793 33.0695 25.0235 33.302L24.9537 33.5344L24.7445 34.2226C24.6654 34.4597 24.5818 34.7386 24.526 35.0548L24.4981 35.557V35.8685L24.4562 36.0405C24.4097 36.2125 24.3167 36.4311 24.2563 36.7147L24.1866 37.2401L24.1959 37.4725L24.1866 37.5609L24.1587 37.6585L24.1261 37.9421L24.1075 38.0398L24.0936 38.1328C24.0889 38.1746 24.0889 38.2211 24.0936 38.2629L24.1122 38.3931C24.1122 38.4257 24.1215 38.4582 24.1354 38.4861L24.1819 38.6163L24.1912 38.6954V38.7604C24.1819 38.8069 24.1912 38.8534 24.2005 38.8999V38.9092C24.2144 38.9743 24.2423 39.0394 24.2842 39.0952C24.4283 39.2765 24.6887 39.3044 24.8654 39.1649L24.9258 39.1138C24.9584 39.0813 24.9909 39.0441 25.0095 38.9976L25.0607 38.8767V38.8674L25.0979 38.7604L25.1118 38.6954L25.1769 38.4629C25.1862 38.4303 25.1908 38.3978 25.1955 38.3699L25.2048 38.2629C25.2094 38.2211 25.2048 38.1746 25.2048 38.1328V38.0723L25.1908 38.1095L25.2141 37.9328L25.2745 37.6725V37.5144L25.2978 37.2912L25.3443 36.9518L25.5489 36.3427L25.6093 36.1149L25.6604 35.7569V35.5895L25.7023 35.2175L25.8557 34.5759L26.1114 33.8413L26.1951 33.5716L26.3718 32.8091L26.3951 32.7254L26.4694 32.5766C26.5717 32.4093 26.5903 32.2419 26.5996 32.1954C26.6322 31.9397 26.6089 31.6979 26.4741 31.4282C26.2742 31.047 25.958 30.782 25.6093 30.5867L24.3121 29.9683H24.2981L24.3586 29.8614L24.777 29.15L25.1211 28.5642L25.3396 28.0434L25.5628 27.4529L26.0603 26.4161L26.5159 25.449C26.6415 25.1189 26.7531 24.7795 26.8182 24.4773L26.8925 24.0681L26.9158 23.8868C26.9623 23.6264 27.0506 23.3056 26.9809 22.915C26.9344 22.571 26.6647 22.3943 26.6461 22.3804L26.4787 22.2316L26.2695 22.0967C26.037 21.948 25.9208 21.9293 25.8278 21.8596L25.7627 21.7992L25.4187 21.5202L25.2373 21.3668L25.135 21.2691L24.9026 21.0553L24.4144 20.7391C24.1494 20.581 23.8425 20.4276 23.4938 20.3206C23.2474 20.2462 23.0056 20.1951 22.7917 20.1626L22.9126 20.0138L23.0939 19.8092L23.3357 19.5767L23.5728 19.2978L24.1308 18.5724L24.605 17.9122L25.07 17.252L25.3722 16.8289L25.6883 16.4755L26.0045 16.2059L26.3579 15.8664L26.688 15.434L27.2831 14.6994C27.6458 14.2763 28.1665 13.8811 28.4548 13.3464C28.5338 13.2255 28.6082 13.0675 28.585 12.8722C28.5664 12.6676 28.4687 12.5514 28.4036 12.463C28.2734 12.3142 28.1572 12.2538 28.0968 12.212C27.9898 12.1283 27.8271 11.9748 27.59 11.8679L27.2692 11.7284L27.1715 11.6773L26.9716 11.5657C26.7996 11.4494 26.5671 11.3146 26.2463 11.217L25.4605 11.0031C25.228 10.9287 24.9444 10.7567 24.526 10.5428C24.1587 10.3568 23.7913 10.2313 23.4798 10.1476L23.08 10.05C22.7359 9.97556 22.4709 9.92906 22.2617 9.78493L21.9409 9.51992C21.6991 9.29675 21.4759 9.14796 21.2574 9.02242C21.0435 8.88759 20.7366 8.59932 20.2577 8.34825L19.7417 8.10648C19.4069 7.95305 19.0628 7.77171 18.7374 7.54853C18.4026 7.31606 18.105 7.05569 17.9377 6.91156L17.747 6.73024L17.8075 6.6605L18.4863 6.10721C18.9048 5.77245 19.3139 5.42373 19.6022 5.05643C19.8021 4.79605 19.9788 4.54033 20.2206 4.27996L21.0482 3.48025C21.3178 3.23383 21.5689 2.99206 21.8293 2.68985C22.0199 2.46667 22.2477 2.23419 22.4337 2.08541L22.6941 1.84829C22.9498 1.82505 23.1637 1.82505 23.3543 1.84829L23.7402 1.86224H23.9215L24.0982 1.84364L24.2981 1.81109L24.9584 1.69021L25.9766 1.64371C26.8321 1.64371 27.6411 1.59257 28.399 1.64371C29.1801 1.69486 29.9194 1.89944 30.4075 2.18306L30.6958 2.34114L31.0771 2.48992C31.3142 2.60151 31.556 2.71775 31.9233 2.82468L32.3696 2.95951C32.9834 3.14549 33.5599 3.37332 34.0109 3.59184L34.5595 3.94055L34.699 4.06609L34.9175 4.26601L35.2058 4.50779L35.3592 4.62403L35.5731 4.78675L36.1078 5.17732L36.3728 5.39119C36.6425 5.58647 36.8843 5.70735 37.0563 5.81429L37.3911 6.07931L37.5491 6.23274C37.7677 6.46986 37.9304 6.69769 38.1675 7.0185L38.4186 7.32072L38.6836 7.66477L38.9161 7.98559L39.2508 8.46448L39.4554 8.7109L39.7623 9.08751L39.8739 9.2456L40.0877 9.51061L40.469 9.99882L40.7945 10.4033L41.1478 10.8311L41.2408 10.9706L41.4128 11.2263L41.6174 11.5471L41.9336 12.1562L42.1893 12.6723L42.6775 13.7974L42.7984 14.0624L43.0076 14.5553L43.1796 14.9552L43.5423 15.727L43.8306 16.3128C43.9282 16.5313 44.0351 16.9079 44.1421 17.2892C44.3002 17.8611 44.4629 18.4422 44.6303 18.9118L45.258 20.9251L45.3463 21.2319L45.3974 21.5016L45.4486 21.7573L45.5648 22.2734L45.7927 23.2544C45.9275 23.9565 46.0902 24.6028 46.2669 25.3188C46.4343 26.0395 46.5877 26.6997 46.5924 27.239V27.6296L46.6063 28.3875L46.6621 29.8614C46.6714 30.4611 46.7179 31.0377 46.769 31.6235L46.7551 31.8234L46.7411 32.0094L46.7179 32.0001Z" fill="black"/>
</svg>
