<svg width="89" height="16" viewBox="0 0 89 16" fill="none" xmlns="http://www.w3.org/2000/svg">
<path d="M4.8203 4.62351V3.2463L5.11542 1.96745L6.39426 0.885356L7.6731 0.393494H9.54218L11.2145 1.47559L11.8047 3.2463L11.2145 5.31212L12.4934 4.91863H13.3787L14.6575 5.31212L16.0348 6.39421V8.16492L15.051 10.2307L12.9852 11.2145L11.2145 10.9193V13.2803L10.2308 14.8542L8.7552 15.7396L6.00077 14.8542L4.8203 13.2803L5.11542 10.9193L3.63983 11.2145L1.86913 10.9193L0.688656 9.64051L0.295166 7.8698L0.688656 5.80398L2.26262 4.62351H3.63983H4.8203Z" fill="white"/>
<ellipse cx="8.16488" cy="8.06657" rx="2.45931" ry="2.36094" fill="#F8BA00"/>
<path d="M16.3399 7.7875C16.3182 7.40384 16.2435 6.98674 16.0684 6.52636C15.9621 6.24305 15.8165 5.97548 15.6237 5.75119C15.3463 5.43836 15 5.15505 14.6184 4.97011C14.1481 4.74779 13.6582 4.55694 13.2569 4.55301L12.8713 4.56481C12.6017 4.58055 12.3538 4.64351 12.0823 4.79304C12.0154 4.83042 11.9525 4.86781 11.8895 4.90715L11.919 4.83632C11.9643 4.71631 12.0056 4.59039 12.0174 4.46054C12.0312 4.31692 12.0134 4.21067 12.0115 4.13984L12.0272 3.75423L12.0213 3.36074C12.0213 3.12661 12.0233 2.8433 11.98 2.5777C11.8934 2.0819 11.6593 1.57036 11.2206 1.18277C10.9924 0.982089 10.7464 0.736161 10.4454 0.564992C10.0834 0.356443 9.64662 0.12035 9.12918 0.0377175C8.80061 -0.0173711 8.47795 -0.00753388 8.0943 0.0377175C7.76573 0.0770664 7.47455 0.147893 7.21091 0.232493C6.98859 0.301354 6.7584 0.391855 6.54591 0.513837C6.14062 0.744028 5.78058 1.05489 5.4284 1.36575C5.05459 1.69234 4.77718 2.09173 4.63945 2.58163C4.56076 2.85904 4.56075 3.08923 4.56272 3.28794C4.56469 3.50436 4.59026 3.72865 4.63158 3.91556L4.72995 4.42513C4.72995 4.42513 4.73389 4.4389 4.73586 4.44677C4.72602 4.44087 4.71618 4.43496 4.70634 4.42906C4.52927 4.34052 4.31285 4.29528 4.04528 4.26183L3.62424 4.20871C3.32716 4.18313 3.11468 4.18707 2.88842 4.22248C2.70545 4.25593 2.44575 4.31888 2.15456 4.44874C1.98733 4.52153 1.8201 4.61007 1.67254 4.69073C1.10001 5.00159 0.643563 5.38131 0.358283 5.88498C0.212691 6.14468 0.10645 6.42406 0.051361 6.73098C0.0100445 6.97101 -0.00176209 7.16972 0.000205361 7.37433L0.0041441 8.18689C0.008079 8.40724 0.0415232 8.61579 0.112351 8.8027C0.187114 9.00732 0.318932 9.25325 0.442881 9.48344C0.537319 9.66248 0.627828 9.82184 0.732103 9.96547L1.05869 10.4534C1.20232 10.6797 1.34595 10.8213 1.50531 10.9236C1.67254 11.0279 1.83584 11.1282 2.01684 11.203C2.11128 11.2423 2.20769 11.2718 2.30606 11.2915L2.45755 11.3112L2.55002 11.321C2.68184 11.3545 2.73299 11.3919 2.86481 11.4174L3.4393 11.5138C3.66556 11.5394 3.86428 11.506 4.03348 11.4529L4.42894 11.325L4.67881 11.2718L4.78307 11.2463L4.84406 11.2364L4.88145 11.2325C4.75946 11.5414 4.68076 11.8444 4.66896 12.1729L4.63749 13.1291C4.63749 13.4282 4.68274 13.7076 4.8362 13.981C4.95818 14.1994 5.08016 14.4375 5.26116 14.6618C5.40085 14.831 5.56219 14.9451 5.72155 15.0415C5.95371 15.1753 6.23112 15.3523 6.54197 15.5156C6.70527 15.6042 6.87645 15.6888 7.06532 15.7596C7.44504 15.9052 7.84049 15.9563 8.18086 15.9819C8.33236 15.9937 8.49958 16.0114 8.70223 15.9898C9.03079 15.9426 9.35739 15.8009 9.65251 15.6612C10.048 15.4783 10.3608 15.2736 10.5752 14.9903C10.7208 14.8015 10.8369 14.585 10.9491 14.3607C11.1399 13.9712 11.2973 13.6702 11.4193 13.3534C11.5098 13.1272 11.5413 12.895 11.5531 12.6589C11.5649 12.4051 11.5728 12.1474 11.5295 11.8896C11.496 11.6988 11.4527 11.5552 11.4055 11.4371L11.3347 11.2837L11.3662 11.2974L11.5373 11.3702L11.681 11.4155L11.9544 11.4942C12.1236 11.5394 12.3066 11.5689 12.5289 11.567H12.6745L12.7453 11.563L12.8142 11.5591L12.95 11.5532C13.1034 11.5512 13.2785 11.5296 13.4733 11.4725C13.7468 11.386 14.0655 11.2699 14.339 11.0987C14.6931 10.8941 15.0807 10.658 15.3975 10.3117L15.787 9.85529C15.9621 9.62706 16.1057 9.34178 16.21 8.99354C16.334 8.56464 16.3615 8.13574 16.3418 7.79734L16.3399 7.7875ZM5.17263 2.72328C5.2769 2.33766 5.47759 2.04058 5.78451 1.7671C6.13078 1.46215 6.46721 1.17883 6.81348 0.980121C6.98268 0.883716 7.17943 0.805018 7.37028 0.745994C7.6103 0.673199 7.86804 0.614178 8.15726 0.582699C8.51336 0.54335 8.77306 0.537447 9.0367 0.582699C9.44199 0.653527 9.81384 0.85224 10.1562 1.05685C10.3687 1.18277 10.5949 1.40509 10.829 1.61954C11.1497 1.90876 11.3229 2.29045 11.3898 2.68197C11.4232 2.87281 11.4291 3.13252 11.4311 3.36468L11.4468 3.768L11.4626 4.13984L11.4744 4.41726L11.4114 4.65138L11.3052 4.91699L11.2796 4.98388L11.2402 5.06062L11.1793 5.17866L11.0632 5.35179L10.9943 5.43443L10.9215 5.54461L10.8546 5.65085L10.7641 5.78267L10.7071 5.84366L10.6264 5.92432C10.593 5.96367 10.5379 6.0286 10.4946 6.10533L10.3942 6.26666L10.3824 6.28437C10.3057 6.1978 10.2172 6.11123 10.1031 6.04237L10.044 6.00499L9.80598 5.89088L9.67612 5.8476L9.48725 5.78464C9.17246 5.67446 8.86554 5.65872 8.56255 5.65675L8.08249 5.65085C7.96248 5.64692 7.82475 5.64101 7.68112 5.66069L7.60637 5.66856L7.53947 5.67839L7.48242 5.6902L7.42733 5.702L7.36634 5.71774L7.31518 5.73348L7.27583 5.74725L7.23649 5.76103L7.19123 5.77873L7.1637 5.79054L7.12434 5.80824L7.0968 5.82202L7.06728 5.83579L7.0299 5.85546L6.99056 5.87908L6.93153 5.92039L6.90792 5.94007C6.89611 5.9499 6.88825 5.96367 6.87841 5.97548C6.85284 5.98532 6.82922 5.99515 6.80168 6.00696C6.62658 6.09746 6.45934 6.18993 6.30785 6.30994V6.30601L6.23702 6.186L6.11701 6.00302L5.89861 5.69413L5.79828 5.55444L5.74122 5.47181C5.62711 5.29868 5.57203 5.16292 5.5012 4.97798C5.4225 4.7832 5.33396 4.53137 5.28477 4.29527L5.17656 3.78768C5.14312 3.64405 5.11951 3.44731 5.11557 3.2722C5.10967 3.07939 5.10573 2.92987 5.16082 2.72525L5.17263 2.72328ZM10.2172 9.0388L10.2073 9.06044L10.1345 9.18439L10.0794 9.26702L9.99288 9.39097C9.93385 9.4795 9.86894 9.56017 9.78237 9.64477L9.70564 9.7156L9.60923 9.78643L9.4656 9.88283L9.34756 9.95759L9.17442 10.0619L8.99932 10.1425L8.90291 10.174C8.82422 10.1898 8.74158 10.1878 8.63337 10.1799L8.28907 10.1484C8.11003 10.1366 7.92902 10.113 7.76769 10.0697L7.17943 9.91038L7.08696 9.8789L6.94333 9.8002L6.85873 9.75298L6.78594 9.70379L6.68953 9.61526L6.60493 9.53066L6.45147 9.35555L6.33933 9.25325C6.26457 9.18636 6.22719 9.14701 6.18981 9.08208L6.11701 8.93649C6.04225 8.8086 5.99109 8.65711 5.96354 8.50168L5.95568 8.18296C5.95568 7.99802 5.96945 7.86029 6.03831 7.7206L6.18587 7.39007L6.20948 7.33892L6.29407 7.19529L6.54394 6.83328C6.65609 6.68769 6.82332 6.56965 7.06728 6.42209L7.07713 6.41618C7.10467 6.41618 7.13024 6.42012 7.15582 6.41422L7.21878 6.39848L7.25616 6.38471L7.29157 6.37094L7.31518 6.3611L7.33682 6.35323L7.37028 6.34142L7.38995 6.33356L7.41158 6.32568L7.43913 6.31585L7.45094 6.31191L7.49619 6.30011L7.52767 6.29223L7.56505 6.2824L7.60637 6.27256L7.66145 6.26272L7.72638 6.24895L7.76966 6.23715C7.8582 6.21944 7.96247 6.21747 8.07855 6.21354L8.56058 6.21748C8.84586 6.21748 9.07998 6.23518 9.30821 6.31388L9.53644 6.38274L9.62693 6.40831L9.7981 6.47914L9.84336 6.50078C9.92206 6.54013 10.0204 6.63064 10.0972 6.71524C10.1759 6.81361 10.2427 6.89428 10.3175 7.08118L10.3864 7.26415L10.4218 7.36253C10.4415 7.42745 10.4434 7.53173 10.4454 7.66945V7.99211C10.4375 8.19476 10.41 8.40724 10.3765 8.56661C10.3431 8.71416 10.3057 8.85582 10.2152 9.03683L10.2172 9.0388ZM4.77324 10.7367L4.68864 10.7505L4.56666 10.7721L4.30892 10.8134C4.15743 10.8449 4.02954 10.8961 3.88592 10.9374C3.76197 10.9728 3.64982 10.9866 3.50029 10.9649L2.95924 10.8685C2.9376 10.8646 2.85498 10.8252 2.68184 10.782L2.51264 10.7544L2.39656 10.7426L2.22145 10.6954C2.0857 10.6403 1.94995 10.5577 1.78862 10.4573C1.68041 10.3904 1.62532 10.3412 1.50531 10.1543L1.15117 9.64084C1.06854 9.53263 0.987864 9.39687 0.897362 9.22964C0.77538 9.00142 0.649469 8.75942 0.596348 8.61383C0.549129 8.48594 0.525521 8.33839 0.523554 8.16525V7.36253C0.527489 7.17759 0.539289 7.02413 0.580605 6.81164C0.625857 6.56768 0.708493 6.34929 0.830475 6.13484C1.05083 5.74135 1.4148 5.4305 1.93224 5.14718L2.36901 4.92682C2.61691 4.82058 2.83333 4.7714 2.98482 4.74779C3.16583 4.71631 3.31143 4.71238 3.5849 4.73402L3.99216 4.7773C4.23022 4.79894 4.40139 4.83435 4.5037 4.87764C4.63158 4.92879 4.71815 4.98388 4.88539 5.11373L4.95621 5.17079L4.97982 5.19047C4.97982 5.19047 4.98573 5.1944 4.9877 5.19637C5.06639 5.38131 5.15295 5.56625 5.29658 5.77283L5.36937 5.87711L5.48152 6.01876L5.73336 6.31388L5.84353 6.45357L5.9183 6.55587L5.98912 6.65818C5.9301 6.73688 5.87501 6.81558 5.82779 6.88641L5.71564 7.06938L5.67433 7.15005L5.5189 7.4727C5.40085 7.72257 5.39298 7.97047 5.39495 8.18099C5.39495 8.32068 5.39496 8.44856 5.41463 8.57448C5.44414 8.7968 5.50513 9.01519 5.61727 9.22964L5.694 9.36343C5.77073 9.49328 5.8632 9.59362 5.96157 9.68215L5.97535 9.69396L5.9478 9.70576L5.8337 9.78052L5.69991 9.88677C5.46382 10.1032 5.27691 10.3904 5.12148 10.6836H5.11557C5.1018 10.6836 5.08803 10.6855 5.07425 10.6895L5.03097 10.7013L5.00934 10.7092H4.99162L4.95227 10.717L4.90702 10.721L4.84603 10.7269L4.7693 10.7347L4.77324 10.7367ZM10.9294 12.6196C10.9215 12.8202 10.9018 12.9757 10.8487 13.1134C10.7385 13.3928 10.5831 13.6761 10.3864 14.0715C10.2841 14.2781 10.1837 14.4591 10.0794 14.5949C9.94369 14.77 9.73515 14.9116 9.38888 15.0671C9.11147 15.189 8.81438 15.2992 8.60583 15.3228C8.49368 15.3386 8.36973 15.3346 8.22217 15.3287C7.91328 15.313 7.57489 15.2717 7.28174 15.1654C7.12631 15.1084 6.98072 15.0395 6.83906 14.9628C6.55575 14.8054 6.29604 14.6283 6.04814 14.4729C5.92026 14.3962 5.83959 14.3391 5.75499 14.2348C5.62318 14.0794 5.5071 13.8787 5.37528 13.6603C5.26904 13.4793 5.2474 13.3652 5.24346 13.1173L5.25919 12.1828C5.26706 11.8778 5.34183 11.6083 5.48742 11.2718C5.64285 10.902 5.85337 10.5085 6.08552 10.2803L6.18193 10.1779L6.24883 10.1091L6.31768 10.052L6.42786 10.1465L6.57149 10.2468L6.67379 10.3019L6.85087 10.3983L7.01023 10.4613L7.63588 10.6305C7.84443 10.6777 8.05887 10.6954 8.25955 10.7013L8.62157 10.719C8.73765 10.719 8.87144 10.7131 9.00326 10.6757L9.18623 10.6226C9.29837 10.5754 9.37313 10.5242 9.43019 10.4849L9.61907 10.3452L9.72531 10.2606L9.86106 10.1504L9.8827 10.1347L9.91025 10.176L9.93582 10.2075L9.95157 10.2252L9.96337 10.2389L9.98698 10.2704L10.0047 10.294L10.0303 10.3334L10.1641 10.4967L10.2467 10.5832C10.2978 10.6462 10.3313 10.6974 10.3647 10.7623L10.5025 11.0062L10.5733 11.0948L10.6146 11.1617L10.6284 11.1892L10.6894 11.3506L10.8212 11.6496C10.8527 11.7362 10.8802 11.8286 10.9058 11.9919C10.9373 12.167 10.9373 12.3835 10.9294 12.6235V12.6196ZM15.6454 8.82238C15.5627 9.11159 15.4545 9.32998 15.3286 9.49918L14.9725 9.92218C14.7305 10.1957 14.3941 10.414 14.0655 10.6108C13.8451 10.7347 13.5599 10.8272 13.3002 10.8941C13.1664 10.9315 13.0424 10.9472 12.948 10.9492L12.8122 10.9433L12.7434 10.9394L12.6588 10.9354H12.5329C12.3597 10.9315 12.2594 10.9098 12.1236 10.8705L11.8698 10.7879L11.736 10.7465L11.6082 10.6915L11.5472 10.6698L11.4842 10.6501L11.4291 10.6344L11.3819 10.6226L11.3386 10.6128L11.2914 10.601L11.2678 10.5951L11.2481 10.5911L11.2068 10.5793L11.1733 10.5695L11.1537 10.5636L11.1222 10.5557L11.1025 10.5518L11.0769 10.5459L11.0238 10.536L10.9825 10.5321H10.9648C10.9648 10.5321 10.9471 10.5321 10.9373 10.5321L10.9195 10.5006C10.8743 10.4003 10.8153 10.296 10.7346 10.1917L10.6205 10.0579L10.5379 9.95366L10.5221 9.93202L10.4985 9.89857L10.4769 9.86906L10.4592 9.84348L10.4316 9.80413L10.3883 9.75101L10.3588 9.7215L10.3451 9.70773C10.3569 9.69396 10.3687 9.68215 10.3805 9.66838L10.4749 9.54443L10.5398 9.45196L10.6205 9.33195L10.6638 9.26112C10.7799 9.03879 10.831 8.84402 10.8684 8.68859C10.9195 8.49382 10.9569 8.25772 10.9707 8.01179V7.67535C10.9687 7.54156 10.9805 7.38614 10.9255 7.20316L10.8723 7.06938L10.7936 6.89821C10.7661 6.83132 10.7366 6.77229 10.7051 6.7172C10.7051 6.7172 10.709 6.71524 10.709 6.71327L10.7464 6.67786L10.7838 6.63457L10.8113 6.59522L10.833 6.55981L10.8487 6.53226L10.9333 6.38274L11.0199 6.27847L11.0671 6.23124L11.1891 6.10336L11.3071 5.93219L11.3701 5.83579L11.4173 5.76693L11.4842 5.68429L11.5629 5.56231C11.5885 5.54461 11.616 5.5269 11.6475 5.50919C11.8206 5.40295 12.041 5.27507 12.2732 5.16489C12.4994 5.05668 12.6588 5.02914 12.8831 5.02914L13.2333 5.03897C13.4831 5.05864 13.9474 5.23768 14.3705 5.46197C14.6656 5.61543 14.9528 5.86334 15.183 6.13681C15.3188 6.29421 15.4368 6.50079 15.5254 6.73098C15.6788 7.13431 15.7378 7.48451 15.7575 7.82095C15.7733 8.09639 15.7496 8.47217 15.6473 8.82041L15.6454 8.82238Z" fill="black"/>
<path d="M41.168 4.62351V3.2463L41.4631 1.96745L42.7419 0.885356L44.0208 0.393494H45.8898L47.5622 1.47559L48.1524 3.2463L47.5622 5.31212L48.841 4.91863H49.7264L51.0052 5.31212L52.3824 6.39421V8.16492L51.3987 10.2307L49.3329 11.2145L47.5622 10.9193V13.2803L46.5784 14.8542L45.1029 15.7396L42.3484 14.8542L41.168 13.2803L41.4631 10.9193L39.9875 11.2145L38.2168 10.9193L37.0363 9.64051L36.6428 7.8698L37.0363 5.80398L38.6103 4.62351H39.9875H41.168Z" fill="white"/>
<ellipse cx="44.5125" cy="8.06657" rx="2.45931" ry="2.36094" fill="#F8BA00"/>
<path d="M52.6875 7.7875C52.6659 7.40384 52.5911 6.98674 52.416 6.52636C52.3098 6.24305 52.1642 5.97548 51.9714 5.75119C51.694 5.43836 51.3477 5.15505 50.966 4.97011C50.4958 4.74779 50.0059 4.55694 49.6045 4.55301L49.2189 4.56481C48.9494 4.58055 48.7015 4.64351 48.43 4.79304C48.3631 4.83042 48.3001 4.86781 48.2372 4.90715L48.2667 4.83632C48.3119 4.71631 48.3532 4.59039 48.365 4.46054C48.3788 4.31692 48.3611 4.21067 48.3591 4.13984L48.3749 3.75423L48.369 3.36074C48.369 3.12661 48.3709 2.8433 48.3277 2.5777C48.2411 2.0819 48.007 1.57036 47.5682 1.18277C47.34 0.982089 47.0941 0.736161 46.7931 0.564992C46.431 0.356443 45.9943 0.12035 45.4768 0.0377175C45.1483 -0.0173711 44.8256 -0.00753388 44.442 0.0377175C44.1134 0.0770664 43.8222 0.147893 43.5586 0.232493C43.3362 0.301354 43.1061 0.391855 42.8936 0.513837C42.4883 0.744028 42.1282 1.05489 41.7761 1.36575C41.4022 1.69234 41.1248 2.09173 40.9871 2.58163C40.9084 2.85904 40.9084 3.08923 40.9104 3.28794C40.9123 3.50436 40.9379 3.72865 40.9792 3.91556L41.0776 4.42513C41.0776 4.42513 41.0815 4.4389 41.0835 4.44677C41.0737 4.44087 41.0638 4.43496 41.054 4.42906C40.8769 4.34052 40.6605 4.29528 40.3929 4.26183L39.9719 4.20871C39.6748 4.18313 39.4623 4.18707 39.2361 4.22248C39.0531 4.25593 38.7934 4.31888 38.5022 4.44874C38.335 4.52153 38.1678 4.61007 38.0202 4.69073C37.4477 5.00159 36.9912 5.38131 36.7059 5.88498C36.5603 6.14468 36.4541 6.42406 36.399 6.73098C36.3577 6.97101 36.3459 7.16972 36.3479 7.37433L36.3518 8.18689C36.3557 8.40724 36.3892 8.61579 36.46 8.8027C36.5348 9.00732 36.6666 9.25325 36.7905 9.48344C36.885 9.66248 36.9755 9.82184 37.0798 9.96547L37.4064 10.4534C37.55 10.6797 37.6936 10.8213 37.853 10.9236C38.0202 11.0279 38.1835 11.1282 38.3645 11.203C38.4589 11.2423 38.5553 11.2718 38.6537 11.2915L38.8052 11.3112L38.8977 11.321C39.0295 11.3545 39.0806 11.3919 39.2125 11.4174L39.787 11.5138C40.0132 11.5394 40.2119 11.506 40.3811 11.4529L40.7766 11.325L41.0265 11.2718L41.1307 11.2463L41.1917 11.2364L41.2291 11.2325C41.1071 11.5414 41.0284 11.8444 41.0166 12.1729L40.9851 13.1291C40.9851 13.4282 41.0304 13.7076 41.1839 13.981C41.3058 14.1994 41.4278 14.4375 41.6088 14.6618C41.7485 14.831 41.9098 14.9451 42.0692 15.0415C42.3014 15.1753 42.5788 15.3523 42.8896 15.5156C43.0529 15.6042 43.2241 15.6888 43.413 15.7596C43.7927 15.9052 44.1882 15.9563 44.5285 15.9819C44.68 15.9937 44.8472 16.0114 45.0499 15.9898C45.3785 15.9426 45.7051 15.8009 46.0002 15.6612C46.3956 15.4783 46.7085 15.2736 46.9229 14.9903C47.0685 14.8015 47.1846 14.585 47.2967 14.3607C47.4876 13.9712 47.645 13.6702 47.7669 13.3534C47.8574 13.1272 47.8889 12.895 47.9007 12.6589C47.9125 12.4051 47.9204 12.1474 47.8771 11.8896C47.8437 11.6988 47.8004 11.5552 47.7532 11.4371L47.6823 11.2837L47.7138 11.2974L47.885 11.3702L48.0286 11.4155L48.3021 11.4942C48.4713 11.5394 48.6543 11.5689 48.8766 11.567H49.0222L49.093 11.563L49.1619 11.5591L49.2976 11.5532C49.4511 11.5512 49.6262 11.5296 49.821 11.4725C50.0944 11.386 50.4132 11.2699 50.6866 11.0987C51.0408 10.8941 51.4284 10.658 51.7451 10.3117L52.1347 9.85529C52.3098 9.62706 52.4534 9.34178 52.5577 8.99354C52.6816 8.56464 52.7092 8.13574 52.6895 7.79734L52.6875 7.7875ZM41.5203 2.72328C41.6246 2.33766 41.8252 2.04058 42.1322 1.7671C42.4784 1.46215 42.8149 1.17883 43.1611 0.980121C43.3303 0.883716 43.5271 0.805018 43.7179 0.745994C43.958 0.673199 44.2157 0.614178 44.5049 0.582699C44.861 0.54335 45.1207 0.537447 45.3844 0.582699C45.7896 0.653527 46.1615 0.85224 46.5038 1.05685C46.7163 1.18277 46.9426 1.40509 47.1767 1.61954C47.4974 1.90876 47.6705 2.29045 47.7374 2.68197C47.7709 2.87281 47.7768 3.13252 47.7787 3.36468L47.7945 3.768L47.8102 4.13984L47.822 4.41726L47.7591 4.65138L47.6528 4.91699L47.6273 4.98388L47.5879 5.06062L47.5269 5.17866L47.4108 5.35179L47.342 5.43443L47.2692 5.54461L47.2023 5.65085L47.1118 5.78267L47.0547 5.84366L46.9741 5.92432C46.9406 5.96367 46.8855 6.0286 46.8422 6.10533L46.7419 6.26666L46.7301 6.28437C46.6534 6.1978 46.5648 6.11123 46.4507 6.04237L46.3917 6.00499L46.1536 5.89088L46.0238 5.8476L45.8349 5.78464C45.5201 5.67446 45.2132 5.65872 44.9102 5.65675L44.4301 5.65085C44.3101 5.64692 44.1724 5.64101 44.0288 5.66069L43.954 5.66856L43.8871 5.67839L43.8301 5.6902L43.775 5.702L43.714 5.71774L43.6628 5.73348L43.6235 5.74725L43.5841 5.76103L43.5389 5.77873L43.5114 5.79054L43.472 5.80824L43.4445 5.82202L43.4149 5.83579L43.3776 5.85546L43.3382 5.87908L43.2792 5.92039L43.2556 5.94007C43.2438 5.9499 43.2359 5.96367 43.2261 5.97548C43.2005 5.98532 43.1769 5.99515 43.1493 6.00696C42.9742 6.09746 42.807 6.18993 42.6555 6.30994V6.30601L42.5847 6.186L42.4647 6.00302L42.2463 5.69413L42.1459 5.55444L42.0889 5.47181C41.9748 5.29868 41.9197 5.16292 41.8489 4.97798C41.7702 4.7832 41.6816 4.53137 41.6324 4.29527L41.5242 3.78768C41.4908 3.64405 41.4672 3.44731 41.4632 3.2722C41.4573 3.07939 41.4534 2.92987 41.5085 2.72525L41.5203 2.72328ZM46.5648 9.0388L46.555 9.06044L46.4822 9.18439L46.4271 9.26702L46.3405 9.39097C46.2815 9.4795 46.2166 9.56017 46.13 9.64477L46.0533 9.7156L45.9569 9.78643L45.8133 9.88283L45.6952 9.95759L45.5221 10.0619L45.347 10.1425L45.2506 10.174C45.1719 10.1898 45.0892 10.1878 44.981 10.1799L44.6367 10.1484C44.4577 10.1366 44.2767 10.113 44.1153 10.0697L43.5271 9.91038L43.4346 9.8789L43.291 9.8002L43.2064 9.75298L43.1336 9.70379L43.0372 9.61526L42.9526 9.53066L42.7991 9.35555L42.687 9.25325C42.6122 9.18636 42.5748 9.14701 42.5375 9.08208L42.4647 8.93649C42.3899 8.8086 42.3387 8.65711 42.3112 8.50168L42.3033 8.18296C42.3033 7.99802 42.3171 7.86029 42.386 7.7206L42.5335 7.39007L42.5571 7.33892L42.6417 7.19529L42.8916 6.83328C43.0037 6.68769 43.171 6.56965 43.4149 6.42209L43.4248 6.41618C43.4523 6.41618 43.4779 6.42012 43.5035 6.41422L43.5664 6.39848L43.6038 6.38471L43.6392 6.37094L43.6628 6.3611L43.6845 6.35323L43.7179 6.34142L43.7376 6.33356L43.7592 6.32568L43.7868 6.31585L43.7986 6.31191L43.8439 6.30011L43.8753 6.29223L43.9127 6.2824L43.954 6.27256L44.0091 6.26272L44.074 6.24895L44.1173 6.23715C44.2059 6.21944 44.3101 6.21747 44.4262 6.21354L44.9082 6.21748C45.1935 6.21748 45.4276 6.23518 45.6559 6.31388L45.8841 6.38274L45.9746 6.40831L46.1458 6.47914L46.191 6.50078C46.2697 6.54013 46.3681 6.63064 46.4448 6.71524C46.5235 6.81361 46.5904 6.89428 46.6652 7.08118L46.734 7.26415L46.7694 7.36253C46.7891 7.42745 46.7911 7.53173 46.7931 7.66945V7.99211C46.7852 8.19476 46.7576 8.40724 46.7242 8.56661C46.6907 8.71416 46.6534 8.85582 46.5629 9.03683L46.5648 9.0388ZM41.1209 10.7367L41.0363 10.7505L40.9143 10.7721L40.6566 10.8134C40.5051 10.8449 40.3772 10.8961 40.2336 10.9374C40.1096 10.9728 39.9975 10.9866 39.8479 10.9649L39.3069 10.8685C39.2853 10.8646 39.2026 10.8252 39.0295 10.782L38.8603 10.7544L38.7442 10.7426L38.5691 10.6954C38.4334 10.6403 38.2976 10.5577 38.1363 10.4573C38.0281 10.3904 37.973 10.3412 37.853 10.1543L37.4988 9.64084C37.4162 9.53263 37.3355 9.39687 37.245 9.22964C37.123 9.00142 36.9971 8.75942 36.944 8.61383C36.8968 8.48594 36.8732 8.33839 36.8712 8.16525V7.36253C36.8751 7.17759 36.8869 7.02413 36.9283 6.81164C36.9735 6.56768 37.0561 6.34929 37.1781 6.13484C37.3985 5.74135 37.7625 5.4305 38.2799 5.14718L38.7167 4.92682C38.9646 4.82058 39.181 4.7714 39.3325 4.74779C39.5135 4.71631 39.6591 4.71238 39.9326 4.73402L40.3398 4.7773C40.5779 4.79894 40.749 4.83435 40.8514 4.87764C40.9792 4.92879 41.0658 4.98388 41.233 5.11373L41.3039 5.17079L41.3275 5.19047C41.3275 5.19047 41.3334 5.1944 41.3354 5.19637C41.4141 5.38131 41.5006 5.56625 41.6442 5.77283L41.717 5.87711L41.8292 6.01876L42.081 6.31388L42.1912 6.45357L42.266 6.55587L42.3368 6.65818C42.2778 6.73688 42.2227 6.81558 42.1754 6.88641L42.0633 7.06938L42.022 7.15005L41.8666 7.4727C41.7485 7.72257 41.7406 7.97047 41.7426 8.18099C41.7426 8.32068 41.7426 8.44856 41.7623 8.57448C41.7918 8.7968 41.8528 9.01519 41.9649 9.22964L42.0417 9.36343C42.1184 9.49328 42.2109 9.59362 42.3092 9.68215L42.323 9.69396L42.2955 9.70576L42.1814 9.78052L42.0476 9.88677C41.8115 10.1032 41.6246 10.3904 41.4691 10.6836H41.4632C41.4495 10.6836 41.4357 10.6855 41.4219 10.6895L41.3786 10.7013L41.357 10.7092H41.3393L41.2999 10.717L41.2547 10.721L41.1937 10.7269L41.117 10.7347L41.1209 10.7367ZM47.277 12.6196C47.2692 12.8202 47.2495 12.9757 47.1964 13.1134C47.0862 13.3928 46.9308 13.6761 46.734 14.0715C46.6317 14.2781 46.5314 14.4591 46.4271 14.5949C46.2913 14.77 46.0828 14.9116 45.7365 15.0671C45.4591 15.189 45.162 15.2992 44.9535 15.3228C44.8413 15.3386 44.7174 15.3346 44.5698 15.3287C44.2609 15.313 43.9225 15.2717 43.6294 15.1654C43.474 15.1084 43.3284 15.0395 43.1867 14.9628C42.9034 14.8054 42.6437 14.6283 42.3958 14.4729C42.2679 14.3962 42.1873 14.3391 42.1027 14.2348C41.9708 14.0794 41.8548 13.8787 41.7229 13.6603C41.6167 13.4793 41.5951 13.3652 41.5911 13.1173L41.6068 12.1828C41.6147 11.8778 41.6895 11.6083 41.8351 11.2718C41.9905 10.902 42.201 10.5085 42.4332 10.2803L42.5296 10.1779L42.5965 10.1091L42.6653 10.052L42.7755 10.1465L42.9191 10.2468L43.0214 10.3019L43.1985 10.3983L43.3579 10.4613L43.9835 10.6305C44.1921 10.6777 44.4065 10.6954 44.6072 10.7013L44.9692 10.719C45.0853 10.719 45.2191 10.7131 45.3509 10.6757L45.5339 10.6226C45.646 10.5754 45.7208 10.5242 45.7778 10.4849L45.9667 10.3452L46.073 10.2606L46.2087 10.1504L46.2304 10.1347L46.2579 10.176L46.2835 10.2075L46.2992 10.2252L46.311 10.2389L46.3346 10.2704L46.3523 10.294L46.3779 10.3334L46.5117 10.4967L46.5943 10.5832C46.6455 10.6462 46.6789 10.6974 46.7124 10.7623L46.8501 11.0062L46.9209 11.0948L46.9623 11.1617L46.976 11.1892L47.037 11.3506L47.1688 11.6496C47.2003 11.7362 47.2279 11.8286 47.2534 11.9919C47.2849 12.167 47.2849 12.3835 47.277 12.6235V12.6196ZM51.993 8.82238C51.9104 9.11159 51.8022 9.32998 51.6763 9.49918L51.3202 9.92218C51.0782 10.1957 50.7417 10.414 50.4132 10.6108C50.1928 10.7347 49.9075 10.8272 49.6478 10.8941C49.514 10.9315 49.3901 10.9472 49.2956 10.9492L49.1599 10.9433L49.091 10.9394L49.0064 10.9354H48.8805C48.7074 10.9315 48.607 10.9098 48.4713 10.8705L48.2175 10.7879L48.0837 10.7465L47.9558 10.6915L47.8948 10.6698L47.8319 10.6501L47.7768 10.6344L47.7296 10.6226L47.6863 10.6128L47.6391 10.601L47.6154 10.5951L47.5958 10.5911L47.5545 10.5793L47.521 10.5695L47.5013 10.5636L47.4699 10.5557L47.4502 10.5518L47.4246 10.5459L47.3715 10.536L47.3302 10.5321H47.3125C47.3125 10.5321 47.2948 10.5321 47.2849 10.5321L47.2672 10.5006C47.222 10.4003 47.1629 10.296 47.0823 10.1917L46.9681 10.0579L46.8855 9.95366L46.8698 9.93202L46.8462 9.89857L46.8245 9.86906L46.8068 9.84348L46.7793 9.80413L46.736 9.75101L46.7065 9.7215L46.6927 9.70773C46.7045 9.69396 46.7163 9.68215 46.7281 9.66838L46.8226 9.54443L46.8875 9.45196L46.9681 9.33195L47.0114 9.26112C47.1275 9.03879 47.1787 8.84402 47.2161 8.68859C47.2672 8.49382 47.3046 8.25772 47.3184 8.01179V7.67535C47.3164 7.54156 47.3282 7.38614 47.2731 7.20316L47.22 7.06938L47.1413 6.89821C47.1137 6.83132 47.0842 6.77229 47.0528 6.7172C47.0528 6.7172 47.0567 6.71524 47.0567 6.71327L47.0941 6.67786L47.1315 6.63457L47.159 6.59522L47.1806 6.55981L47.1964 6.53226L47.281 6.38274L47.3675 6.27847L47.4148 6.23124L47.5367 6.10336L47.6548 5.93219L47.7177 5.83579L47.765 5.76693L47.8319 5.68429L47.9106 5.56231C47.9361 5.54461 47.9637 5.5269 47.9952 5.50919C48.1683 5.40295 48.3887 5.27507 48.6208 5.16489C48.8471 5.05668 49.0064 5.02914 49.2307 5.02914L49.5809 5.03897C49.8308 5.05864 50.2951 5.23768 50.7181 5.46197C51.0132 5.61543 51.3005 5.86334 51.5307 6.13681C51.6664 6.29421 51.7845 6.50079 51.873 6.73098C52.0265 7.13431 52.0855 7.48451 52.1052 7.82095C52.1209 8.09639 52.0973 8.47217 51.995 8.82041L51.993 8.82238Z" fill="black"/>
<path d="M77.413 4.62351V3.2463L77.7019 1.96745L78.9535 0.885356L80.2052 0.393494H82.0345L83.6713 1.47559L84.249 3.2463L83.6713 5.31212L84.9229 4.91863H85.7895L87.0411 5.31212L88.3891 6.39421V8.16492L87.4262 10.2307L85.4043 11.2145L83.6713 10.9193V13.2803L82.7085 14.8542L81.2643 15.7396L78.5684 14.8542L77.413 13.2803L77.7019 10.9193L76.2577 11.2145L74.5246 10.9193L73.3693 9.64051L72.9841 7.8698L73.3693 5.80398L74.9097 4.62351H76.2577H77.413Z" fill="#F8BA00"/>
<ellipse cx="80.6866" cy="8.06657" rx="2.40702" ry="2.36094" fill="white"/>
<path d="M88.6877 7.7875C88.6666 7.40384 88.5934 6.98674 88.422 6.52636C88.318 6.24305 88.1755 5.97548 87.9868 5.75119C87.7153 5.43836 87.3764 5.15505 87.0028 4.97011C86.5426 4.74779 86.0631 4.55694 85.6703 4.55301L85.2929 4.56481C85.0291 4.58055 84.7865 4.64351 84.5207 4.79304C84.4553 4.83042 84.3936 4.86781 84.332 4.90715L84.3609 4.83632C84.4052 4.71631 84.4456 4.59039 84.4572 4.46054C84.4707 4.31692 84.4533 4.21067 84.4514 4.13984L84.4668 3.75423L84.461 3.36074C84.461 3.12661 84.4629 2.8433 84.4206 2.5777C84.3359 2.0819 84.1067 1.57036 83.6773 1.18277C83.4539 0.982089 83.2132 0.736161 82.9186 0.564992C82.5643 0.356443 82.1368 0.12035 81.6304 0.0377175C81.3088 -0.0173711 80.993 -0.00753388 80.6175 0.0377175C80.2959 0.0770664 80.0109 0.147893 79.7529 0.232493C79.5353 0.301354 79.31 0.391855 79.102 0.513837C78.7054 0.744028 78.353 1.05489 78.0083 1.36575C77.6424 1.69234 77.3709 2.09173 77.2361 2.58163C77.1591 2.85904 77.1591 3.08923 77.161 3.28794C77.1629 3.50436 77.188 3.72865 77.2284 3.91556L77.3247 4.42513C77.3247 4.42513 77.3285 4.4389 77.3305 4.44677C77.3208 4.44087 77.3112 4.43496 77.3016 4.42906C77.1283 4.34052 76.9165 4.29528 76.6546 4.26183L76.2425 4.20871C75.9517 4.18313 75.7438 4.18707 75.5223 4.22248C75.3432 4.25593 75.0891 4.31888 74.8041 4.44874C74.6404 4.52153 74.4767 4.61007 74.3323 4.69073C73.7719 5.00159 73.3252 5.38131 73.046 5.88498C72.9035 6.14468 72.7995 6.42406 72.7456 6.73098C72.7051 6.97101 72.6936 7.16972 72.6955 7.37433L72.6994 8.18689C72.7032 8.40724 72.736 8.61579 72.8053 8.8027C72.8784 9.00732 73.0075 9.25325 73.1288 9.48344C73.2212 9.66248 73.3098 9.82184 73.4118 9.96547L73.7315 10.4534C73.8721 10.6797 74.0126 10.8213 74.1686 10.9236C74.3323 11.0279 74.4921 11.1282 74.6693 11.203C74.7617 11.2423 74.8561 11.2718 74.9523 11.2915L75.1006 11.3112L75.1911 11.321C75.3201 11.3545 75.3702 11.3919 75.4992 11.4174L76.0615 11.5138C76.2829 11.5394 76.4774 11.506 76.643 11.4529L77.0301 11.325L77.2746 11.2718L77.3767 11.2463L77.4364 11.2364L77.473 11.2325C77.3536 11.5414 77.2765 11.8444 77.265 12.1729L77.2342 13.1291C77.2342 13.4282 77.2785 13.7076 77.4287 13.981C77.5481 14.1994 77.6674 14.4375 77.8446 14.6618C77.9813 14.831 78.1392 14.9451 78.2952 15.0415C78.5224 15.1753 78.7939 15.3523 79.0982 15.5156C79.258 15.6042 79.4255 15.6888 79.6104 15.7596C79.982 15.9052 80.3691 15.9563 80.7022 15.9819C80.8505 15.9937 81.0142 16.0114 81.2125 15.9898C81.5341 15.9426 81.8537 15.8009 82.1426 15.6612C82.5296 15.4783 82.8358 15.2736 83.0457 14.9903C83.1882 14.8015 83.3018 14.585 83.4116 14.3607C83.5984 13.9712 83.7524 13.6702 83.8718 13.3534C83.9604 13.1272 83.9912 12.895 84.0027 12.6589C84.0143 12.4051 84.022 12.1474 83.9796 11.8896C83.9469 11.6988 83.9045 11.5552 83.8583 11.4371L83.789 11.2837L83.8198 11.2974L83.9873 11.3702L84.1279 11.4155L84.3956 11.4942C84.5612 11.5394 84.7402 11.5689 84.9578 11.567H85.1003L85.1697 11.563L85.237 11.5591L85.3699 11.5532C85.5201 11.5512 85.6915 11.5296 85.8821 11.4725C86.1498 11.386 86.4617 11.2699 86.7294 11.0987C87.076 10.8941 87.4554 10.658 87.7654 10.3117L88.1466 9.85529C88.318 9.62706 88.4586 9.34178 88.5607 8.99354C88.682 8.56464 88.7089 8.13574 88.6897 7.79734L88.6877 7.7875ZM77.758 2.72328C77.86 2.33766 78.0564 2.04058 78.3568 1.7671C78.6957 1.46215 79.025 1.17883 79.3639 0.980121C79.5295 0.883716 79.7221 0.805018 79.9089 0.745994C80.1438 0.673199 80.3961 0.614178 80.6791 0.582699C81.0277 0.54335 81.2818 0.537447 81.5399 0.582699C81.9365 0.653527 82.3005 0.85224 82.6355 1.05685C82.8435 1.18277 83.0649 1.40509 83.2941 1.61954C83.608 1.90876 83.7774 2.29045 83.8429 2.68197C83.8756 2.87281 83.8814 3.13252 83.8833 3.36468L83.8987 3.768L83.9141 4.13984L83.9257 4.41726L83.8641 4.65138L83.7601 4.91699L83.7351 4.98388L83.6966 5.06062L83.6369 5.17866L83.5232 5.35179L83.4559 5.43443L83.3846 5.54461L83.3191 5.65085L83.2306 5.78267L83.1747 5.84366L83.0958 5.92432C83.063 5.96367 83.0091 6.0286 82.9667 6.10533L82.8685 6.26666L82.857 6.28437C82.7819 6.1978 82.6952 6.11123 82.5836 6.04237L82.5258 6.00499L82.2928 5.89088L82.1657 5.8476L81.9808 5.78464C81.6727 5.67446 81.3723 5.65872 81.0758 5.65675L80.6059 5.65085C80.4885 5.64692 80.3537 5.64101 80.2131 5.66069L80.1399 5.66856L80.0745 5.67839L80.0186 5.6902L79.9647 5.702L79.905 5.71774L79.8549 5.73348L79.8164 5.74725L79.7779 5.76103L79.7336 5.77873L79.7067 5.79054L79.6682 5.80824L79.6412 5.82202L79.6123 5.83579L79.5757 5.85546L79.5372 5.87908L79.4795 5.92039L79.4563 5.94007C79.4448 5.9499 79.4371 5.96367 79.4275 5.97548C79.4024 5.98532 79.3793 5.99515 79.3524 6.00696C79.181 6.09746 79.0173 6.18993 78.869 6.30994V6.30601L78.7997 6.186L78.6823 6.00302L78.4685 5.69413L78.3703 5.55444L78.3145 5.47181C78.2028 5.29868 78.1489 5.16292 78.0795 4.97798C78.0025 4.7832 77.9159 4.53137 77.8677 4.29527L77.7618 3.78768C77.7291 3.64405 77.706 3.44731 77.7021 3.2722C77.6963 3.07939 77.6925 2.92987 77.7464 2.72525L77.758 2.72328ZM82.6952 9.0388L82.6856 9.06044L82.6144 9.18439L82.5604 9.26702L82.4757 9.39097C82.4179 9.4795 82.3544 9.56017 82.2697 9.64477L82.1946 9.7156L82.1002 9.78643L81.9596 9.88283L81.8441 9.95759L81.6747 10.0619L81.5033 10.1425L81.4089 10.174C81.3319 10.1898 81.251 10.1878 81.1451 10.1799L80.8081 10.1484C80.6329 10.1366 80.4557 10.113 80.2978 10.0697L79.7221 9.91038L79.6316 9.8789L79.491 9.8002L79.4082 9.75298L79.337 9.70379L79.2426 9.61526L79.1598 9.53066L79.0096 9.35555L78.8999 9.25325C78.8267 9.18636 78.7901 9.14701 78.7535 9.08208L78.6823 8.93649C78.6091 8.8086 78.559 8.65711 78.5321 8.50168L78.5244 8.18296C78.5244 7.99802 78.5378 7.86029 78.6052 7.7206L78.7496 7.39007L78.7728 7.33892L78.8556 7.19529L79.1001 6.83328C79.2099 6.68769 79.3735 6.56965 79.6123 6.42209L79.622 6.41618C79.6489 6.41618 79.6739 6.42012 79.699 6.41422L79.7606 6.39848L79.7972 6.38471L79.8318 6.37094L79.8549 6.3611L79.8761 6.35323L79.9089 6.34142L79.9281 6.33356L79.9493 6.32568L79.9763 6.31585L79.9878 6.31191L80.0321 6.30011L80.0629 6.29223L80.0995 6.2824L80.1399 6.27256L80.1939 6.26272L80.2574 6.24895L80.2998 6.23715C80.3864 6.21944 80.4885 6.21747 80.6021 6.21354L81.0739 6.21748C81.3531 6.21748 81.5822 6.23518 81.8056 6.31388L82.029 6.38274L82.1175 6.40831L82.2851 6.47914L82.3294 6.50078C82.4064 6.54013 82.5027 6.63064 82.5778 6.71524C82.6548 6.81361 82.7203 6.89428 82.7934 7.08118L82.8608 7.26415L82.8955 7.36253C82.9148 7.42745 82.9167 7.53173 82.9186 7.66945V7.99211C82.9109 8.19476 82.8839 8.40724 82.8512 8.56661C82.8185 8.71416 82.7819 8.85582 82.6933 9.03683L82.6952 9.0388ZM77.3671 10.7367L77.2843 10.7505L77.1649 10.7721L76.9126 10.8134C76.7643 10.8449 76.6392 10.8961 76.4986 10.9374C76.3773 10.9728 76.2675 10.9866 76.1212 10.9649L75.5916 10.8685C75.5705 10.8646 75.4896 10.8252 75.3201 10.782L75.1545 10.7544L75.0409 10.7426L74.8695 10.6954C74.7367 10.6403 74.6038 10.5577 74.4459 10.4573C74.34 10.3904 74.2861 10.3412 74.1686 10.1543L73.822 9.64084C73.7411 9.53263 73.6622 9.39687 73.5736 9.22964C73.4542 9.00142 73.331 8.75942 73.279 8.61383C73.2328 8.48594 73.2097 8.33839 73.2077 8.16525V7.36253C73.2116 7.17759 73.2231 7.02413 73.2636 6.81164C73.3079 6.56768 73.3887 6.34929 73.5081 6.13484C73.7238 5.74135 74.08 5.4305 74.5865 5.14718L75.0139 4.92682C75.2566 4.82058 75.4684 4.7714 75.6167 4.74779C75.7938 4.71631 75.9363 4.71238 76.204 4.73402L76.6026 4.7773C76.8356 4.79894 77.0031 4.83435 77.1032 4.87764C77.2284 4.92879 77.3131 4.98388 77.4768 5.11373L77.5461 5.17079L77.5692 5.19047C77.5692 5.19047 77.575 5.1944 77.577 5.19637C77.654 5.38131 77.7387 5.56625 77.8793 5.77283L77.9505 5.87711L78.0603 6.01876L78.3068 6.31388L78.4146 6.45357L78.4878 6.55587L78.5571 6.65818C78.4993 6.73688 78.4454 6.81558 78.3992 6.88641L78.2894 7.06938L78.249 7.15005L78.0969 7.4727C77.9813 7.72257 77.9736 7.97047 77.9755 8.18099C77.9755 8.32068 77.9756 8.44856 77.9948 8.57448C78.0237 8.7968 78.0834 9.01519 78.1931 9.22964L78.2682 9.36343C78.3433 9.49328 78.4338 9.59362 78.5301 9.68215L78.5436 9.69396L78.5166 9.70576L78.405 9.78052L78.274 9.88677C78.043 10.1032 77.86 10.3904 77.7079 10.6836H77.7021C77.6886 10.6836 77.6751 10.6855 77.6617 10.6895L77.6193 10.7013L77.5981 10.7092H77.5808L77.5423 10.717L77.498 10.721L77.4383 10.7269L77.3632 10.7347L77.3671 10.7367ZM83.3923 12.6196C83.3846 12.8202 83.3653 12.9757 83.3134 13.1134C83.2055 13.3928 83.0534 13.6761 82.8608 14.0715C82.7607 14.2781 82.6625 14.4591 82.5604 14.5949C82.4276 14.77 82.2235 14.9116 81.8846 15.0671C81.613 15.189 81.3223 15.2992 81.1182 15.3228C81.0084 15.3386 80.8871 15.3346 80.7427 15.3287C80.4403 15.313 80.1091 15.2717 79.8222 15.1654C79.6701 15.1084 79.5276 15.0395 79.389 14.9628C79.1117 14.8054 78.8575 14.6283 78.6149 14.4729C78.4897 14.3962 78.4107 14.3391 78.3279 14.2348C78.1989 14.0794 78.0853 13.8787 77.9563 13.6603C77.8523 13.4793 77.8311 13.3652 77.8273 13.1173L77.8427 12.1828C77.8504 11.8778 77.9236 11.6083 78.0661 11.2718C78.2182 10.902 78.4242 10.5085 78.6514 10.2803L78.7458 10.1779L78.8113 10.1091L78.8787 10.052L78.9865 10.1465L79.1271 10.2468L79.2272 10.3019L79.4005 10.3983L79.5565 10.4613L80.1688 10.6305C80.3729 10.6777 80.5828 10.6954 80.7792 10.7013L81.1336 10.719C81.2472 10.719 81.3781 10.7131 81.5071 10.6757L81.6862 10.6226C81.796 10.5754 81.8691 10.5242 81.925 10.4849L82.1098 10.3452L82.2138 10.2606L82.3467 10.1504L82.3679 10.1347L82.3948 10.176L82.4199 10.2075L82.4353 10.2252L82.4468 10.2389L82.4699 10.2704L82.4873 10.294L82.5123 10.3334L82.6432 10.4967L82.7241 10.5832C82.7742 10.6462 82.8069 10.6974 82.8397 10.7623L82.9744 11.0062L83.0438 11.0948L83.0842 11.1617L83.0977 11.1892L83.1574 11.3506L83.2864 11.6496C83.3172 11.7362 83.3442 11.8286 83.3692 11.9919C83.4 12.167 83.4 12.3835 83.3923 12.6235V12.6196ZM88.008 8.82238C87.9271 9.11159 87.8212 9.32998 87.698 9.49918L87.3495 9.92218C87.1126 10.1957 86.7833 10.414 86.4617 10.6108C86.2461 10.7347 85.9669 10.8272 85.7127 10.8941C85.5817 10.9315 85.4604 10.9472 85.368 10.9492L85.2351 10.9433L85.1677 10.9394L85.0849 10.9354H84.9617C84.7922 10.9315 84.694 10.9098 84.5612 10.8705L84.3128 10.7879L84.1818 10.7465L84.0566 10.6915L83.9969 10.6698L83.9353 10.6501L83.8814 10.6344L83.8352 10.6226L83.7928 10.6128L83.7466 10.601L83.7235 10.5951L83.7043 10.5911L83.6638 10.5793L83.6311 10.5695L83.6118 10.5636L83.581 10.5557L83.5618 10.5518L83.5367 10.5459L83.4847 10.536L83.4443 10.5321H83.427C83.427 10.5321 83.4096 10.5321 83.4 10.5321L83.3827 10.5006C83.3384 10.4003 83.2806 10.296 83.2017 10.1917L83.09 10.0579L83.0091 9.95366L82.9937 9.93202L82.9706 9.89857L82.9494 9.86906L82.9321 9.84348L82.9051 9.80413L82.8628 9.75101L82.8339 9.7215L82.8204 9.70773C82.832 9.69396 82.8435 9.68215 82.8551 9.66838L82.9475 9.54443L83.011 9.45196L83.09 9.33195L83.1323 9.26112C83.246 9.03879 83.296 8.84402 83.3326 8.68859C83.3827 8.49382 83.4193 8.25772 83.4327 8.01179V7.67535C83.4308 7.54156 83.4424 7.38614 83.3885 7.20316L83.3365 7.06938L83.2594 6.89821C83.2325 6.83132 83.2036 6.77229 83.1728 6.7172C83.1728 6.7172 83.1766 6.71524 83.1766 6.71327L83.2132 6.67786L83.2498 6.63457L83.2768 6.59522L83.2979 6.55981L83.3134 6.53226L83.3962 6.38274L83.4809 6.27847L83.5271 6.23124L83.6465 6.10336L83.762 5.93219L83.8236 5.83579L83.8699 5.76693L83.9353 5.68429L84.0124 5.56231C84.0374 5.54461 84.0643 5.5269 84.0952 5.50919C84.2646 5.40295 84.4803 5.27507 84.7075 5.16489C84.9289 5.05668 85.0849 5.02914 85.3044 5.02914L85.6472 5.03897C85.8918 5.05864 86.3462 5.23768 86.7602 5.46197C87.049 5.61543 87.3302 5.86334 87.5555 6.13681C87.6883 6.29421 87.8039 6.50079 87.8905 6.73098C88.0407 7.13431 88.0985 7.48451 88.1178 7.82095C88.1332 8.09639 88.1101 8.47217 88.0099 8.82041L88.008 8.82238Z" fill="black"/>
</svg>
