<svg width="393" height="176" viewBox="0 0 393 176" fill="none" xmlns="http://www.w3.org/2000/svg">
<g clip-path="url(#clip0_1_1331)">
<rect width="533" height="175.965" transform="translate(-70)" fill="#FAD32E"/>
<g clip-path="url(#clip1_1_1331)">
<rect x="33.5" y="23.5" width="107.724" height="109.946" stroke="white"/>
<rect x="34" y="24" width="34.982" height="34.982" rx="4.37275" fill="#EF3349"/>
<rect x="34" y="24" width="34.982" height="34.982" rx="1.7491" fill="#121212"/>
<rect x="69.8711" y="24" width="34.982" height="34.982" rx="1.7491" fill="#121212"/>
<path d="M84.2778 33.0576H87.9378V46.2576H85.5978V35.2976H84.2778V33.0576Z" fill="white"/>
<rect x="105.742" y="24" width="34.982" height="34.982" rx="1.7491" fill="#121212"/>
<rect x="34" y="60.9821" width="34.982" height="34.982" rx="1.7491" fill="#121212"/>
<rect x="69.8711" y="60.9821" width="34.982" height="34.982" rx="1.7491" fill="#121212"/>
<rect x="105.742" y="60.9821" width="34.982" height="34.982" rx="1.7491" fill="#121212"/>
<rect x="34" y="97.9641" width="34.982" height="34.982" rx="1.7491" fill="#121212"/>
<rect x="69.8711" y="97.9641" width="34.982" height="34.982" rx="1.7491" fill="#121212"/>
<rect x="105.742" y="97.9641" width="34.982" height="34.982" rx="1.7491" fill="#121212"/>
<rect x="142.892" y="23.5" width="107.724" height="109.946" stroke="white"/>
<rect x="143.392" y="24" width="34.982" height="34.982" rx="1.7491" fill="#121212"/>
<rect x="179.263" y="24" width="34.982" height="34.982" rx="1.7491" fill="#121212"/>
<rect x="215.134" y="24" width="34.982" height="34.982" rx="1.7491" fill="#121212"/>
<rect x="143.392" y="60.9821" width="34.982" height="34.982" rx="1.7491" fill="#121212"/>
<rect x="179.263" y="60.9821" width="34.982" height="34.982" rx="1.7491" fill="#121212"/>
<rect x="215.134" y="60.9821" width="34.982" height="34.982" rx="1.7491" fill="#121212"/>
<rect x="143.392" y="97.9641" width="34.982" height="34.982" rx="1.7491" fill="#121212"/>
<rect x="179.263" y="97.9641" width="34.982" height="34.982" rx="1.7491" fill="#121212"/>
<rect x="215.134" y="97.9641" width="34.982" height="34.982" rx="1.7491" fill="#121212"/>
<rect x="252.284" y="23.5" width="107.724" height="109.946" stroke="white"/>
<rect x="252.784" y="24" width="34.982" height="34.982" rx="1.7491" fill="#121212"/>
<rect x="288.655" y="24" width="34.982" height="34.982" rx="1.7491" fill="#121212"/>
<rect x="324.526" y="24" width="34.982" height="34.982" rx="1.7491" fill="#121212"/>
<path d="M345.231 33.0576L340.091 46.2576H337.491L341.971 34.9976L342.751 35.2976H336.491V33.0576H345.231Z" fill="white"/>
<rect x="252.784" y="60.9821" width="34.982" height="34.982" rx="1.7491" fill="#121212"/>
<rect x="288.655" y="60.9821" width="34.982" height="34.982" rx="1.7491" fill="#121212"/>
<rect x="324.526" y="60.9821" width="34.982" height="34.982" rx="1.7491" fill="#121212"/>
<rect x="252.784" y="97.9641" width="34.982" height="34.982" rx="1.7491" fill="#121212"/>
<path d="M273.146 107.022L269.826 112.722L268.506 112.062C268.666 111.982 268.839 111.922 269.026 111.882C269.213 111.842 269.393 111.822 269.566 111.822C270.059 111.808 270.539 111.868 271.006 112.002C271.473 112.122 271.893 112.335 272.266 112.642C272.639 112.948 272.939 113.362 273.166 113.882C273.393 114.402 273.506 115.048 273.506 115.822C273.506 116.768 273.286 117.582 272.846 118.262C272.419 118.942 271.846 119.468 271.126 119.842C270.419 120.202 269.646 120.382 268.806 120.382C268.166 120.382 267.506 120.248 266.826 119.982C266.159 119.715 265.619 119.362 265.206 118.922L266.386 117.002C266.613 117.282 266.939 117.542 267.366 117.782C267.806 118.022 268.266 118.142 268.746 118.142C269.159 118.142 269.539 118.048 269.886 117.862C270.246 117.662 270.539 117.382 270.766 117.022C270.993 116.648 271.106 116.202 271.106 115.682C271.106 115.002 270.906 114.462 270.506 114.062C270.106 113.648 269.553 113.442 268.846 113.442C268.459 113.442 268.146 113.468 267.906 113.522C267.666 113.562 267.439 113.615 267.226 113.682L267.166 113.622L269.966 108.962L270.666 109.262H266.106V107.022H273.146Z" fill="white"/>
<rect x="288.655" y="97.9641" width="34.982" height="34.982" rx="1.7491" fill="#121212"/>
<rect x="324.526" y="97.9641" width="34.982" height="34.982" rx="1.7491" fill="#121212"/>
<rect x="33.5" y="134.446" width="107.724" height="109.946" stroke="white"/>
<rect x="34" y="134.946" width="34.982" height="34.982" rx="1.7491" fill="#121212"/>
<path d="M54.7051 144.004L49.5651 157.204H46.9651L51.4451 145.944L52.2251 146.244H45.9651V144.004H54.7051Z" fill="white"/>
<rect x="69.8711" y="134.946" width="34.982" height="34.982" rx="1.7491" fill="#121212"/>
<rect x="105.742" y="134.946" width="34.982" height="34.982" rx="1.7491" fill="#121212"/>
<rect x="34" y="171.928" width="34.982" height="34.982" rx="1.7491" fill="#121212"/>
<rect x="69.8711" y="171.928" width="34.982" height="34.982" rx="1.7491" fill="#121212"/>
<rect x="105.742" y="171.928" width="34.982" height="34.982" rx="1.7491" fill="#121212"/>
<rect x="142.892" y="134.446" width="107.724" height="109.946" stroke="white"/>
<rect x="143.392" y="134.946" width="34.982" height="34.982" rx="1.7491" fill="#121212"/>
<rect x="179.263" y="134.946" width="34.982" height="34.982" rx="1.7491" fill="#121212"/>
<rect x="215.134" y="134.946" width="34.982" height="34.982" rx="1.7491" fill="#121212"/>
<rect x="143.392" y="171.928" width="34.982" height="34.982" rx="1.7491" fill="#121212"/>
<rect x="179.263" y="171.928" width="34.982" height="34.982" rx="1.7491" fill="#121212"/>
<rect x="215.134" y="171.928" width="34.982" height="34.982" rx="1.7491" fill="#121212"/>
<rect x="252.284" y="134.446" width="107.724" height="109.946" stroke="white"/>
<rect x="252.784" y="134.946" width="34.982" height="34.982" rx="1.7491" fill="#121212"/>
<rect x="288.655" y="134.946" width="34.982" height="34.982" rx="1.7491" fill="#121212"/>
<rect x="324.526" y="134.946" width="34.982" height="34.982" rx="1.7491" fill="#121212"/>
<rect x="252.784" y="171.928" width="34.982" height="34.982" rx="1.7491" fill="#121212"/>
<rect x="288.655" y="171.928" width="34.982" height="34.982" rx="1.7491" fill="#121212"/>
<rect x="324.526" y="171.928" width="34.982" height="34.982" rx="1.7491" fill="#121212"/>
</g>
<g clip-path="url(#clip2_1_1331)">
<rect x="33.5" y="23.5" width="107.724" height="109.946" stroke="black"/>
<rect x="34" y="24" width="34.982" height="34.982" rx="4.37275" fill="#EF3349"/>
<rect x="34" y="24" width="34.982" height="34.982" rx="1.7491" fill="white"/>
<rect x="69.8711" y="24" width="34.982" height="34.982" rx="1.7491" fill="white"/>
<path d="M84.2778 33.0576H87.9378V46.2576H85.5978V35.2976H84.2778V33.0576Z" fill="black"/>
<rect x="105.742" y="24" width="34.982" height="34.982" rx="1.7491" fill="white"/>
<rect x="34" y="60.9821" width="34.982" height="34.982" rx="1.7491" fill="white"/>
<rect x="69.8711" y="60.9821" width="34.982" height="34.982" rx="1.7491" fill="white"/>
<rect x="105.742" y="60.9821" width="34.982" height="34.982" rx="1.7491" fill="white"/>
<rect x="34" y="97.9641" width="34.982" height="34.982" rx="1.7491" fill="white"/>
<rect x="69.8711" y="97.9641" width="34.982" height="34.982" rx="1.7491" fill="white"/>
<rect x="105.742" y="97.9641" width="34.982" height="34.982" rx="1.7491" fill="white"/>
<rect x="142.892" y="23.5" width="107.724" height="109.946" stroke="black"/>
<rect x="143.392" y="24" width="34.982" height="34.982" rx="1.7491" fill="white"/>
<rect x="179.263" y="24" width="34.982" height="34.982" rx="1.7491" fill="white"/>
<rect x="143.392" y="60.9821" width="34.982" height="34.982" rx="1.7491" fill="white"/>
<rect x="179.263" y="60.9821" width="34.982" height="34.982" rx="1.7491" fill="white"/>
<rect x="143.392" y="97.9641" width="34.982" height="34.982" rx="1.7491" fill="white"/>
<rect x="179.263" y="97.9641" width="34.982" height="34.982" rx="1.7491" fill="white"/>
<rect x="33.5" y="134.446" width="107.724" height="109.946" stroke="black"/>
<rect x="34" y="134.946" width="34.982" height="34.982" rx="1.7491" fill="white"/>
<path d="M54.7051 144.004L49.5651 157.204H46.9651L51.4451 145.944L52.2251 146.244H45.9651V144.004H54.7051Z" fill="black"/>
<rect x="69.8711" y="134.946" width="34.982" height="34.982" rx="1.7491" fill="white"/>
<rect x="105.742" y="134.946" width="34.982" height="34.982" rx="1.7491" fill="white"/>
<rect x="34" y="171.928" width="34.982" height="34.982" rx="1.7491" fill="white"/>
<rect x="69.8711" y="171.928" width="34.982" height="34.982" rx="1.7491" fill="white"/>
<rect x="105.742" y="171.928" width="34.982" height="34.982" rx="1.7491" fill="white"/>
<rect x="142.892" y="134.446" width="107.724" height="109.946" stroke="black"/>
<rect x="143.392" y="134.946" width="34.982" height="34.982" rx="1.7491" fill="white"/>
<rect x="179.263" y="134.946" width="34.982" height="34.982" rx="1.7491" fill="white"/>
<rect x="143.392" y="171.928" width="34.982" height="34.982" rx="1.7491" fill="white"/>
<rect x="179.263" y="171.928" width="34.982" height="34.982" rx="1.7491" fill="white"/>
</g>
<path d="M33.1921 67.5C33.3001 67.4965 33.4574 67.5565 33.614 67.7812C33.7495 67.9757 33.8553 68.2607 33.8835 68.6016L33.8914 68.751L33.9109 70.1475L34.8972 70.2588L35.2126 68.958C35.3041 68.5816 35.4768 68.3502 35.6287 68.2441C35.7291 68.1741 35.8225 68.1527 35.9167 68.1758L36.0125 68.2139C36.1696 68.2997 36.3403 68.5082 36.4451 68.8447C36.5346 69.1323 36.5612 69.4708 36.5056 69.8008L36.4763 69.9414L35.3914 74.4072C35.2999 74.7834 35.1281 75.0151 34.9763 75.1211C34.8756 75.1914 34.7817 75.2117 34.6873 75.1885L34.5925 75.1514C34.4938 75.0975 34.3866 74.995 34.2927 74.832L33.9919 74.3096L33.5349 74.7021C33.4632 74.7636 33.3963 74.7955 33.3367 74.8086L33.2791 74.8154C33.2186 74.8173 33.153 74.8021 33.0808 74.7578L32.4812 74.3896L32.3308 75.0771C32.2504 75.4458 32.0883 75.6969 31.9255 75.8213L31.8562 75.8672C31.7285 75.9368 31.6065 75.9304 31.4724 75.8369C31.3395 75.7441 31.1908 75.5548 31.0945 75.2568L31.0564 75.123L29.9714 70.6572C29.8809 70.2844 29.9004 69.889 30.0027 69.5605C30.0944 69.2659 30.2372 69.0698 30.3767 68.9678L30.4363 68.9297C30.5641 68.86 30.6859 68.8662 30.8201 68.96C30.9529 69.0528 31.1017 69.2413 31.198 69.5391L31.2361 69.6738L31.5564 70.9932L32.5417 70.8672L32.5125 68.8135C32.5066 68.4067 32.612 68.0552 32.7634 67.8184C32.8792 67.6373 33.0003 67.5511 33.1003 67.5176L33.1921 67.5Z" fill="#FAFAFA" stroke="black"/>
<path d="M33.0002 128.466C46.3978 128.465 57.259 117.604 57.259 104.207V97.4313H8.74146V104.207C8.74146 117.604 19.6026 128.466 33.0002 128.466Z" fill="#A97337" stroke="black"/>
<g style="mix-blend-mode:multiply">
<mask id="path-159-outside-1_1_1331" maskUnits="userSpaceOnUse" x="24.2539" y="118.056" width="17" height="4" fill="black">
<rect fill="white" x="24.2539" y="118.056" width="17" height="4"/>
<path fill-rule="evenodd" clip-rule="evenodd" d="M30.1132 119.056C30.1132 119.294 30.0504 119.53 29.9283 119.75C29.8062 119.969 29.6272 120.169 29.4016 120.337C29.176 120.506 28.9081 120.639 28.6134 120.73C28.3186 120.821 28.0026 120.868 27.6836 120.868C27.3645 120.868 27.0486 120.821 26.7538 120.73C26.459 120.639 26.1912 120.506 25.9655 120.337C25.7399 120.169 25.561 119.969 25.4389 119.75C25.3168 119.53 25.2539 119.294 25.2539 119.056L27.6836 119.056H30.1132ZM34.9726 119.056C34.9726 119.294 34.9097 119.53 34.7876 119.75C34.6655 119.969 34.4866 120.169 34.2609 120.337C34.0353 120.506 33.7675 120.639 33.4727 120.73C33.1779 120.821 32.862 120.868 32.5429 120.868C32.2238 120.868 31.9079 120.821 31.6131 120.73C31.3183 120.639 31.0505 120.506 30.8249 120.337C30.5993 120.169 30.4203 119.969 30.2982 119.75C30.1761 119.53 30.1132 119.294 30.1132 119.056L32.5429 119.056H34.9726ZM39.647 119.75C39.7691 119.53 39.8319 119.294 39.8319 119.056H37.4023L34.9726 119.056C34.9726 119.294 35.0354 119.53 35.1575 119.75C35.2796 119.969 35.4586 120.169 35.6842 120.337C35.9098 120.506 36.1777 120.639 36.4725 120.73C36.7672 120.821 37.0832 120.868 37.4023 120.868C37.7213 120.868 38.0373 120.821 38.332 120.73C38.6268 120.639 38.8947 120.506 39.1203 120.337C39.3459 120.169 39.5249 119.969 39.647 119.75Z"/>
</mask>
<path fill-rule="evenodd" clip-rule="evenodd" d="M30.1132 119.056C30.1132 119.294 30.0504 119.53 29.9283 119.75C29.8062 119.969 29.6272 120.169 29.4016 120.337C29.176 120.506 28.9081 120.639 28.6134 120.73C28.3186 120.821 28.0026 120.868 27.6836 120.868C27.3645 120.868 27.0486 120.821 26.7538 120.73C26.459 120.639 26.1912 120.506 25.9655 120.337C25.7399 120.169 25.561 119.969 25.4389 119.75C25.3168 119.53 25.2539 119.294 25.2539 119.056L27.6836 119.056H30.1132ZM34.9726 119.056C34.9726 119.294 34.9097 119.53 34.7876 119.75C34.6655 119.969 34.4866 120.169 34.2609 120.337C34.0353 120.506 33.7675 120.639 33.4727 120.73C33.1779 120.821 32.862 120.868 32.5429 120.868C32.2238 120.868 31.9079 120.821 31.6131 120.73C31.3183 120.639 31.0505 120.506 30.8249 120.337C30.5993 120.169 30.4203 119.969 30.2982 119.75C30.1761 119.53 30.1132 119.294 30.1132 119.056L32.5429 119.056H34.9726ZM39.647 119.75C39.7691 119.53 39.8319 119.294 39.8319 119.056H37.4023L34.9726 119.056C34.9726 119.294 35.0354 119.53 35.1575 119.75C35.2796 119.969 35.4586 120.169 35.6842 120.337C35.9098 120.506 36.1777 120.639 36.4725 120.73C36.7672 120.821 37.0832 120.868 37.4023 120.868C37.7213 120.868 38.0373 120.821 38.332 120.73C38.6268 120.639 38.8947 120.506 39.1203 120.337C39.3459 120.169 39.5249 119.969 39.647 119.75Z" fill="#4B2807" fill-opacity="0.5"/>
<path d="M29.9283 119.75L30.8024 120.235V120.235L29.9283 119.75ZM30.1132 119.056H31.1132V118.056H30.1132V119.056ZM29.4016 120.337L28.8039 119.536L28.8039 119.536L29.4016 120.337ZM28.6134 120.73L28.9084 121.685L28.9084 121.685L28.6134 120.73ZM26.7538 120.73L26.4587 121.685H26.4587L26.7538 120.73ZM25.9655 120.337L25.3678 121.139L25.3678 121.139L25.9655 120.337ZM25.4389 119.75L26.313 119.264L26.313 119.264L25.4389 119.75ZM25.2539 119.056L25.2539 118.056L24.2539 118.056L24.2539 119.056L25.2539 119.056ZM27.6836 119.056V120.056V119.056ZM34.7876 119.75L35.6618 120.235V120.235L34.7876 119.75ZM34.9726 119.056H35.9726V118.056H34.9726V119.056ZM34.2609 120.337L33.6632 119.536L33.6632 119.536L34.2609 120.337ZM33.4727 120.73L33.1776 119.775L33.1776 119.775L33.4727 120.73ZM30.8249 120.337L30.2272 121.139L30.2272 121.139L30.8249 120.337ZM30.2982 119.75L31.1723 119.264L31.1723 119.264L30.2982 119.75ZM30.1132 119.056V118.056L29.1132 118.056V119.056H30.1132ZM32.5429 119.056L32.5429 120.056H32.5429V119.056ZM39.8319 119.056H40.8319V118.056H39.8319V119.056ZM39.647 119.75L40.5211 120.235V120.235L39.647 119.75ZM37.4023 119.056V120.056V119.056ZM34.9726 119.056V118.056L33.9726 118.056V119.056H34.9726ZM35.1575 119.75L36.0317 119.264V119.264L35.1575 119.75ZM35.6842 120.337L35.0865 121.139V121.139L35.6842 120.337ZM38.332 120.73L38.037 119.775L38.037 119.775L38.332 120.73ZM39.1203 120.337L38.5226 119.536L38.5226 119.536L39.1203 120.337ZM30.8024 120.235C31.0022 119.876 31.1132 119.474 31.1132 119.056H29.1132C29.1132 119.115 29.0986 119.184 29.0541 119.264L30.8024 120.235ZM29.9993 121.139C30.3248 120.896 30.6038 120.593 30.8024 120.235L29.0541 119.264C29.0085 119.346 28.9296 119.442 28.8039 119.536L29.9993 121.139ZM28.9084 121.685C29.3017 121.564 29.6739 121.382 29.9993 121.139L28.8039 119.536C28.678 119.629 28.5146 119.714 28.3183 119.775L28.9084 121.685ZM27.6836 121.868C28.0992 121.868 28.5148 121.807 28.9084 121.685L28.3183 119.775C28.1223 119.835 27.9061 119.868 27.6836 119.868V121.868ZM26.4587 121.685C26.8523 121.807 27.2679 121.868 27.6836 121.868V119.868C27.4611 119.868 27.2448 119.835 27.0488 119.775L26.4587 121.685ZM25.3678 121.139C25.6932 121.382 26.0655 121.564 26.4587 121.685L27.0488 119.775C26.8525 119.714 26.6891 119.629 26.5633 119.536L25.3678 121.139ZM24.5647 120.235C24.7633 120.593 25.0423 120.896 25.3678 121.139L26.5633 119.536C26.4375 119.442 26.3586 119.346 26.313 119.264L24.5647 120.235ZM24.2539 119.056C24.2539 119.474 24.3649 119.876 24.5647 120.235L26.313 119.264C26.2686 119.184 26.2539 119.115 26.2539 119.056L24.2539 119.056ZM27.6836 118.056L25.2539 118.056L25.2539 120.056L27.6836 120.056V118.056ZM30.1132 118.056H27.6836V120.056H30.1132V118.056ZM35.6618 120.235C35.8616 119.876 35.9726 119.474 35.9726 119.056H33.9726C33.9726 119.115 33.9579 119.184 33.9135 119.264L35.6618 120.235ZM34.8587 121.139C35.1842 120.896 35.4632 120.593 35.6618 120.235L33.9135 119.264C33.8679 119.346 33.7889 119.442 33.6632 119.536L34.8587 121.139ZM33.7678 121.685C34.161 121.564 34.5333 121.382 34.8587 121.139L33.6632 119.536C33.5374 119.629 33.374 119.714 33.1776 119.775L33.7678 121.685ZM32.5429 121.868C32.9586 121.868 33.3742 121.807 33.7678 121.685L33.1776 119.775C32.9817 119.835 32.7654 119.868 32.5429 119.868V121.868ZM31.318 121.685C31.7116 121.807 32.1273 121.868 32.5429 121.868V119.868C32.3204 119.868 32.1042 119.835 31.9082 119.775L31.318 121.685ZM30.2272 121.139C30.5525 121.382 30.9248 121.564 31.318 121.685L31.9082 119.775C31.7119 119.714 31.5485 119.629 31.4226 119.536L30.2272 121.139ZM29.424 120.235C29.6227 120.593 29.9017 120.896 30.2272 121.139L31.4226 119.536C31.2969 119.442 31.2179 119.346 31.1723 119.264L29.424 120.235ZM29.1132 119.056C29.1132 119.474 29.2243 119.876 29.424 120.235L31.1723 119.264C31.1279 119.184 31.1132 119.115 31.1132 119.056H29.1132ZM32.5429 118.056L30.1132 118.056L30.1132 120.056L32.5429 120.056L32.5429 118.056ZM34.9726 118.056H32.5429V120.056H34.9726V118.056ZM38.8319 119.056C38.8319 119.115 38.8172 119.184 38.7728 119.264L40.5211 120.235C40.7209 119.876 40.8319 119.474 40.8319 119.056H38.8319ZM37.4023 120.056H39.8319V118.056H37.4023V120.056ZM34.9726 120.056L37.4023 120.056V118.056L34.9726 118.056V120.056ZM36.0317 119.264C35.9873 119.184 35.9726 119.115 35.9726 119.056H33.9726C33.9726 119.474 34.0836 119.876 34.2834 120.235L36.0317 119.264ZM36.2819 119.536C36.1562 119.442 36.0773 119.346 36.0317 119.264L34.2834 120.235C34.482 120.593 34.761 120.896 35.0865 121.139L36.2819 119.536ZM36.7675 119.775C36.5712 119.714 36.4078 119.629 36.2819 119.536L35.0865 121.139C35.4119 121.382 35.7842 121.564 36.1774 121.685L36.7675 119.775ZM37.4023 119.868C37.1798 119.868 36.9635 119.835 36.7675 119.775L36.1774 121.685C36.571 121.807 36.9866 121.868 37.4023 121.868V119.868ZM38.037 119.775C37.841 119.835 37.6247 119.868 37.4023 119.868V121.868C37.8179 121.868 38.2335 121.807 38.6271 121.685L38.037 119.775ZM38.5226 119.536C38.3967 119.629 38.2333 119.714 38.037 119.775L38.6271 121.685C39.0203 121.564 39.3926 121.382 39.718 121.139L38.5226 119.536ZM38.7728 119.264C38.7272 119.346 38.6483 119.442 38.5226 119.536L39.718 121.139C40.0435 120.896 40.3225 120.593 40.5211 120.235L38.7728 119.264Z" fill="black" mask="url(#path-159-outside-1_1_1331)"/>
</g>
<g style="mix-blend-mode:multiply">
<mask id="path-161-outside-2_1_1331" maskUnits="userSpaceOnUse" x="24.2539" y="114.071" width="17" height="4" fill="black">
<rect fill="white" x="24.2539" y="114.071" width="17" height="4"/>
<path fill-rule="evenodd" clip-rule="evenodd" d="M30.1132 115.071C30.1132 115.301 30.0504 115.529 29.9283 115.741C29.8062 115.954 29.6272 116.147 29.4016 116.309C29.176 116.472 28.9081 116.601 28.6134 116.689C28.3186 116.777 28.0026 116.822 27.6836 116.822C27.3645 116.822 27.0486 116.777 26.7538 116.689C26.459 116.601 26.1912 116.472 25.9655 116.309C25.7399 116.147 25.561 115.954 25.4389 115.741C25.3168 115.529 25.2539 115.301 25.2539 115.071L27.6836 115.071H30.1132ZM34.9726 115.071C34.9726 115.301 34.9097 115.529 34.7876 115.741C34.6655 115.954 34.4866 116.147 34.2609 116.309C34.0353 116.472 33.7675 116.601 33.4727 116.689C33.1779 116.777 32.862 116.822 32.5429 116.822C32.2238 116.822 31.9079 116.777 31.6131 116.689C31.3183 116.601 31.0505 116.472 30.8249 116.309C30.5993 116.147 30.4203 115.954 30.2982 115.741C30.1761 115.529 30.1132 115.301 30.1132 115.071L32.5429 115.071H34.9726ZM39.647 115.741C39.7691 115.529 39.8319 115.301 39.8319 115.071H37.4023L34.9726 115.071C34.9726 115.301 35.0354 115.529 35.1575 115.741C35.2796 115.954 35.4586 116.147 35.6842 116.309C35.9098 116.472 36.1777 116.601 36.4725 116.689C36.7672 116.777 37.0832 116.822 37.4023 116.822C37.7213 116.822 38.0373 116.777 38.332 116.689C38.6268 116.601 38.8947 116.472 39.1203 116.309C39.3459 116.147 39.5249 115.954 39.647 115.741Z"/>
</mask>
<path fill-rule="evenodd" clip-rule="evenodd" d="M30.1132 115.071C30.1132 115.301 30.0504 115.529 29.9283 115.741C29.8062 115.954 29.6272 116.147 29.4016 116.309C29.176 116.472 28.9081 116.601 28.6134 116.689C28.3186 116.777 28.0026 116.822 27.6836 116.822C27.3645 116.822 27.0486 116.777 26.7538 116.689C26.459 116.601 26.1912 116.472 25.9655 116.309C25.7399 116.147 25.561 115.954 25.4389 115.741C25.3168 115.529 25.2539 115.301 25.2539 115.071L27.6836 115.071H30.1132ZM34.9726 115.071C34.9726 115.301 34.9097 115.529 34.7876 115.741C34.6655 115.954 34.4866 116.147 34.2609 116.309C34.0353 116.472 33.7675 116.601 33.4727 116.689C33.1779 116.777 32.862 116.822 32.5429 116.822C32.2238 116.822 31.9079 116.777 31.6131 116.689C31.3183 116.601 31.0505 116.472 30.8249 116.309C30.5993 116.147 30.4203 115.954 30.2982 115.741C30.1761 115.529 30.1132 115.301 30.1132 115.071L32.5429 115.071H34.9726ZM39.647 115.741C39.7691 115.529 39.8319 115.301 39.8319 115.071H37.4023L34.9726 115.071C34.9726 115.301 35.0354 115.529 35.1575 115.741C35.2796 115.954 35.4586 116.147 35.6842 116.309C35.9098 116.472 36.1777 116.601 36.4725 116.689C36.7672 116.777 37.0832 116.822 37.4023 116.822C37.7213 116.822 38.0373 116.777 38.332 116.689C38.6268 116.601 38.8947 116.472 39.1203 116.309C39.3459 116.147 39.5249 115.954 39.647 115.741Z" fill="#4B2807" fill-opacity="0.5"/>
<path d="M29.9283 115.741L30.7953 116.24V116.24L29.9283 115.741ZM30.1132 115.071H31.1132V114.071H30.1132V115.071ZM29.4016 116.309L28.8169 115.498L28.8169 115.498L29.4016 116.309ZM28.6134 116.689L28.3273 115.731L28.3273 115.731L28.6134 116.689ZM26.7538 116.689L26.4677 117.647L26.4677 117.647L26.7538 116.689ZM25.9655 116.309L26.5502 115.498L26.5502 115.498L25.9655 116.309ZM25.4389 115.741L26.3059 115.243V115.243L25.4389 115.741ZM25.2539 115.071L25.2539 114.071L24.2539 114.071L24.2539 115.071L25.2539 115.071ZM27.6836 115.071V116.071V115.071ZM34.7876 115.741L35.6546 116.24V116.24L34.7876 115.741ZM34.9726 115.071H35.9726V114.071H34.9726V115.071ZM34.2609 116.309L33.6763 115.498L33.6763 115.498L34.2609 116.309ZM33.4727 116.689L33.1866 115.731L33.1866 115.731L33.4727 116.689ZM31.6131 116.689L31.3271 117.647H31.3271L31.6131 116.689ZM30.8249 116.309L30.2402 117.121L30.2402 117.121L30.8249 116.309ZM30.2982 115.741L31.1652 115.243L31.1652 115.243L30.2982 115.741ZM30.1132 115.071V114.071L29.1132 114.071V115.071H30.1132ZM32.5429 115.071L32.5429 116.071H32.5429V115.071ZM39.8319 115.071H40.8319V114.071H39.8319V115.071ZM39.647 115.741L40.514 116.24V116.24L39.647 115.741ZM37.4023 115.071V116.071V115.071ZM34.9726 115.071V114.071L33.9726 114.071V115.071H34.9726ZM35.1575 115.741L36.0245 115.243V115.243L35.1575 115.741ZM35.6842 116.309L36.2689 115.498V115.498L35.6842 116.309ZM36.4725 116.689L36.1864 117.647H36.1864L36.4725 116.689ZM38.332 116.689L38.046 115.731L38.046 115.731L38.332 116.689ZM39.1203 116.309L38.5356 115.498L38.5356 115.498L39.1203 116.309ZM30.7953 116.24C30.9986 115.886 31.1132 115.488 31.1132 115.071H29.1132C29.1132 115.115 29.1022 115.172 29.0613 115.243L30.7953 116.24ZM29.9863 117.121C30.3116 116.886 30.5934 116.591 30.7953 116.24L29.0613 115.243C29.0189 115.317 28.9428 115.407 28.8169 115.498L29.9863 117.121ZM28.8994 117.647C29.2899 117.531 29.6609 117.355 29.9863 117.121L28.8169 115.498C28.691 115.589 28.5263 115.671 28.3273 115.731L28.8994 117.647ZM27.6836 117.822C28.0959 117.822 28.5084 117.764 28.8994 117.647L28.3273 115.731C28.1288 115.79 27.9094 115.822 27.6836 115.822V117.822ZM26.4677 117.647C26.8587 117.764 27.2712 117.822 27.6836 117.822V115.822C27.4577 115.822 27.2384 115.79 27.0398 115.731L26.4677 117.647ZM25.3809 117.121C25.7062 117.355 26.0772 117.531 26.4677 117.647L27.0398 115.731C26.8408 115.671 26.6761 115.589 26.5502 115.498L25.3809 117.121ZM24.5718 116.24C24.7737 116.591 25.0555 116.886 25.3809 117.121L26.5502 115.498C26.4243 115.407 26.3482 115.317 26.3059 115.243L24.5718 116.24ZM24.2539 115.071C24.2539 115.488 24.3685 115.886 24.5718 116.24L26.3059 115.243C26.265 115.172 26.2539 115.115 26.2539 115.071L24.2539 115.071ZM27.6836 114.071L25.2539 114.071L25.2539 116.071L27.6836 116.071V114.071ZM30.1132 114.071H27.6836V116.071H30.1132V114.071ZM35.6546 116.24C35.8579 115.886 35.9726 115.488 35.9726 115.071H33.9726C33.9726 115.115 33.9615 115.172 33.9206 115.243L35.6546 116.24ZM34.8456 117.121C35.171 116.886 35.4528 116.591 35.6546 116.24L33.9206 115.243C33.8783 115.317 33.8021 115.407 33.6763 115.498L34.8456 117.121ZM33.7588 117.647C34.1493 117.531 34.5203 117.355 34.8456 117.121L33.6763 115.498C33.5504 115.589 33.3857 115.671 33.1866 115.731L33.7588 117.647ZM32.5429 117.822C32.9552 117.822 33.3677 117.764 33.7588 117.647L33.1866 115.731C32.9881 115.79 32.7687 115.822 32.5429 115.822V117.822ZM31.3271 117.647C31.7181 117.764 32.1306 117.822 32.5429 117.822V115.822C32.3171 115.822 32.0977 115.79 31.8992 115.731L31.3271 117.647ZM30.2402 117.121C30.5655 117.355 30.9365 117.531 31.3271 117.647L31.8992 115.731C31.7001 115.671 31.5354 115.589 31.4096 115.498L30.2402 117.121ZM29.4312 116.24C29.6331 116.591 29.9149 116.886 30.2402 117.121L31.4096 115.498C31.2837 115.407 31.2075 115.317 31.1652 115.243L29.4312 116.24ZM29.1132 115.071C29.1132 115.488 29.2279 115.886 29.4312 116.24L31.1652 115.243C31.1243 115.172 31.1132 115.115 31.1132 115.071H29.1132ZM32.5429 114.071L30.1132 114.071L30.1132 116.071L32.5429 116.071L32.5429 114.071ZM34.9726 114.071H32.5429V116.071H34.9726V114.071ZM38.8319 115.071C38.8319 115.115 38.8208 115.172 38.78 115.243L40.514 116.24C40.7173 115.886 40.8319 115.488 40.8319 115.071H38.8319ZM37.4023 116.071H39.8319V114.071H37.4023V116.071ZM34.9726 116.071L37.4023 116.071V114.071L34.9726 114.071V116.071ZM36.0245 115.243C35.9837 115.172 35.9726 115.115 35.9726 115.071H33.9726C33.9726 115.488 34.0872 115.886 34.2905 116.24L36.0245 115.243ZM36.2689 115.498C36.143 115.407 36.0669 115.317 36.0245 115.243L34.2905 116.24C34.4924 116.591 34.7742 116.886 35.0995 117.121L36.2689 115.498ZM36.7585 115.731C36.5595 115.671 36.3948 115.589 36.2689 115.498L35.0995 117.121C35.4249 117.355 35.7959 117.531 36.1864 117.647L36.7585 115.731ZM37.4023 115.822C37.1764 115.822 36.9571 115.79 36.7585 115.731L36.1864 117.647C36.5774 117.764 36.9899 117.822 37.4023 117.822V115.822ZM38.046 115.731C37.8474 115.79 37.6281 115.822 37.4023 115.822V117.822C37.8146 117.822 38.2271 117.764 38.6181 117.647L38.046 115.731ZM38.5356 115.498C38.4097 115.589 38.245 115.671 38.046 115.731L38.6181 117.647C39.0086 117.531 39.3796 117.355 39.705 117.121L38.5356 115.498ZM38.78 115.243C38.7376 115.317 38.6615 115.407 38.5356 115.498L39.705 117.121C40.0303 116.886 40.3121 116.591 40.514 116.24L38.78 115.243Z" fill="black" mask="url(#path-161-outside-2_1_1331)"/>
</g>
<g style="mix-blend-mode:multiply">
<mask id="path-163-outside-3_1_1331" maskUnits="userSpaceOnUse" x="22.7961" y="122.042" width="20" height="5" fill="black">
<rect fill="white" x="22.7961" y="122.042" width="20" height="5"/>
<path fill-rule="evenodd" clip-rule="evenodd" d="M26.7927 123.042H29.7893H32.7859H35.7824C35.7824 123.634 35.4667 124.202 34.9048 124.621C34.3428 125.04 33.5806 125.276 32.7859 125.276C31.9911 125.276 31.2289 125.04 30.667 124.621C30.1069 124.204 29.7914 123.638 29.7893 123.048C29.7882 123.339 29.7108 123.627 29.5612 123.897C29.4106 124.168 29.1899 124.414 28.9116 124.621C28.6334 124.829 28.303 124.993 27.9395 125.106C27.5759 125.218 27.1862 125.276 26.7927 125.276C26.3992 125.276 26.0095 125.218 25.646 125.106C25.2824 124.993 24.9521 124.829 24.6738 124.621C24.3956 124.414 24.1748 124.168 24.0242 123.897C23.8737 123.626 23.7961 123.335 23.7961 123.042L26.7927 123.042ZM41.5476 123.897C41.6982 123.626 41.7757 123.335 41.7757 123.042H38.7791L35.7825 123.042C35.7825 123.335 35.86 123.626 36.0106 123.897C36.1612 124.168 36.3819 124.414 36.6602 124.621C36.9385 124.829 37.2688 124.993 37.6324 125.106C37.9959 125.218 38.3856 125.276 38.7791 125.276C39.1726 125.276 39.5623 125.218 39.9258 125.106C40.2894 124.993 40.6198 124.829 40.898 124.621C41.1763 124.414 41.397 124.168 41.5476 123.897Z"/>
</mask>
<path fill-rule="evenodd" clip-rule="evenodd" d="M26.7927 123.042H29.7893H32.7859H35.7824C35.7824 123.634 35.4667 124.202 34.9048 124.621C34.3428 125.04 33.5806 125.276 32.7859 125.276C31.9911 125.276 31.2289 125.04 30.667 124.621C30.1069 124.204 29.7914 123.638 29.7893 123.048C29.7882 123.339 29.7108 123.627 29.5612 123.897C29.4106 124.168 29.1899 124.414 28.9116 124.621C28.6334 124.829 28.303 124.993 27.9395 125.106C27.5759 125.218 27.1862 125.276 26.7927 125.276C26.3992 125.276 26.0095 125.218 25.646 125.106C25.2824 124.993 24.9521 124.829 24.6738 124.621C24.3956 124.414 24.1748 124.168 24.0242 123.897C23.8737 123.626 23.7961 123.335 23.7961 123.042L26.7927 123.042ZM41.5476 123.897C41.6982 123.626 41.7757 123.335 41.7757 123.042H38.7791L35.7825 123.042C35.7825 123.335 35.86 123.626 36.0106 123.897C36.1612 124.168 36.3819 124.414 36.6602 124.621C36.9385 124.829 37.2688 124.993 37.6324 125.106C37.9959 125.218 38.3856 125.276 38.7791 125.276C39.1726 125.276 39.5623 125.218 39.9258 125.106C40.2894 124.993 40.6198 124.829 40.898 124.621C41.1763 124.414 41.397 124.168 41.5476 123.897Z" fill="#4B2807" fill-opacity="0.5"/>
<path d="M26.7927 123.042L26.7927 124.042H26.7927V123.042ZM35.7824 123.042H36.7824V122.042H35.7824V123.042ZM30.667 124.621L31.2647 123.82V123.82L30.667 124.621ZM29.7893 123.048L30.7893 123.044L28.7893 123.044L29.7893 123.048ZM29.5612 123.897L30.4354 124.382V124.382L29.5612 123.897ZM28.9116 124.621L29.5093 125.423V125.423L28.9116 124.621ZM27.9395 125.106L27.6444 124.15L27.6444 124.15L27.9395 125.106ZM25.646 125.106L25.9411 124.15L25.9411 124.15L25.646 125.106ZM24.6738 124.621L24.0761 125.423L24.0761 125.423L24.6738 124.621ZM24.0242 123.897L23.1501 124.382L23.1501 124.382L24.0242 123.897ZM23.7961 123.042L23.7961 122.042L22.7961 122.042L22.7961 123.042L23.7961 123.042ZM41.7757 123.042H42.7757V122.042H41.7757V123.042ZM38.7791 123.042V124.042V123.042ZM35.7825 123.042V122.042L34.7825 122.042V123.042H35.7825ZM36.0106 123.897L35.1365 124.382L35.1365 124.382L36.0106 123.897ZM36.6602 124.621L36.0625 125.423L36.6602 124.621ZM37.6324 125.106L37.9274 124.15L37.9274 124.15L37.6324 125.106ZM39.9258 125.106L39.6308 124.15L39.6308 124.15L39.9258 125.106ZM40.898 124.621L41.4957 125.423L41.4957 125.423L40.898 124.621ZM29.7893 122.042H26.7927V124.042H29.7893V122.042ZM32.7859 122.042H29.7893V124.042H32.7859V122.042ZM35.7824 122.042H32.7859V124.042H35.7824V122.042ZM35.5025 125.423C36.2652 124.854 36.7824 124.01 36.7824 123.042H34.7824C34.7824 123.258 34.6682 123.55 34.307 123.82L35.5025 125.423ZM32.7859 126.276C33.7659 126.276 34.7451 125.988 35.5025 125.423L34.307 123.82C33.9404 124.093 33.3953 124.276 32.7859 124.276V126.276ZM30.0692 125.423C30.8266 125.988 31.8059 126.276 32.7859 126.276V124.276C32.1764 124.276 31.6313 124.093 31.2647 123.82L30.0692 125.423ZM28.7893 123.051C28.7928 124.016 29.3091 124.856 30.0692 125.423L31.2647 123.82C30.9047 123.551 30.7901 123.26 30.7893 123.044L28.7893 123.051ZM30.4354 124.382C30.662 123.974 30.7876 123.521 30.7893 123.051L28.7893 123.044C28.7889 123.157 28.7595 123.281 28.6871 123.411L30.4354 124.382ZM29.5093 125.423C29.8875 125.141 30.2082 124.791 30.4354 124.382L28.6871 123.411C28.613 123.544 28.4923 123.687 28.3139 123.82L29.5093 125.423ZM28.2345 126.061C28.6965 125.918 29.1313 125.705 29.5093 125.423L28.3139 123.82C28.1354 123.953 27.9095 124.068 27.6444 124.15L28.2345 126.061ZM26.7927 126.276C27.2828 126.276 27.7722 126.204 28.2345 126.061L27.6444 124.15C27.3796 124.232 27.0897 124.276 26.7927 124.276V126.276ZM25.3509 126.061C25.8133 126.204 26.3026 126.276 26.7927 126.276V124.276C26.4958 124.276 26.2058 124.232 25.9411 124.15L25.3509 126.061ZM24.0761 125.423C24.4541 125.705 24.8889 125.918 25.3509 126.061L25.9411 124.15C25.6759 124.068 25.45 123.953 25.2715 123.82L24.0761 125.423ZM23.1501 124.382C23.3772 124.791 23.698 125.141 24.0761 125.423L25.2715 123.82C25.0932 123.687 24.9725 123.544 24.8984 123.411L23.1501 124.382ZM22.7961 123.042C22.7961 123.515 22.9218 123.971 23.1501 124.382L24.8984 123.411C24.8255 123.28 24.7961 123.155 24.7961 123.042L22.7961 123.042ZM26.7927 122.042L23.7961 122.042L23.7961 124.042L26.7927 124.042L26.7927 122.042ZM40.7757 123.042C40.7757 123.155 40.7464 123.28 40.6734 123.411L42.4217 124.382C42.65 123.971 42.7757 123.515 42.7757 123.042H40.7757ZM38.7791 124.042H41.7757V122.042H38.7791V124.042ZM35.7825 124.042L38.7791 124.042V122.042L35.7825 122.042V124.042ZM36.8848 123.411C36.8119 123.28 36.7825 123.155 36.7825 123.042H34.7825C34.7825 123.515 34.9082 123.971 35.1365 124.382L36.8848 123.411ZM37.2579 123.82C37.0796 123.687 36.9589 123.544 36.8848 123.411L35.1365 124.382C35.3636 124.791 35.6843 125.141 36.0625 125.423L37.2579 123.82ZM37.9274 124.15C37.6623 124.068 37.4364 123.953 37.2579 123.82L36.0625 125.423C36.4405 125.705 36.8753 125.918 37.3373 126.061L37.9274 124.15ZM38.7791 124.276C38.4822 124.276 38.1922 124.232 37.9274 124.15L37.3373 126.061C37.7997 126.204 38.289 126.276 38.7791 126.276V124.276ZM39.6308 124.15C39.366 124.232 39.076 124.276 38.7791 124.276V126.276C39.2692 126.276 39.7585 126.204 40.2209 126.061L39.6308 124.15ZM40.3003 123.82C40.1218 123.953 39.8959 124.068 39.6308 124.15L40.2209 126.061C40.6829 125.918 41.1177 125.705 41.4957 125.423L40.3003 123.82ZM40.6734 123.411C40.5994 123.544 40.4787 123.687 40.3003 123.82L41.4957 125.423C41.8739 125.141 42.1946 124.791 42.4217 124.382L40.6734 123.411Z" fill="black" mask="url(#path-163-outside-3_1_1331)"/>
</g>
<mask id="path-165-outside-4_1_1331" maskUnits="userSpaceOnUse" x="8.24146" y="96.931" width="50" height="31" fill="black">
<rect fill="white" x="8.24146" y="96.931" width="50" height="31"/>
<path fill-rule="evenodd" clip-rule="evenodd" d="M16.4819 97.931H9.24146V104.207C9.24146 113.582 14.6719 121.689 22.559 125.554C24.9229 122.525 26.3647 118.494 26.3647 114.069C26.3647 106.574 22.2286 100.209 16.4819 97.931ZM43.131 125.703C51.1855 121.901 56.7587 113.705 56.7587 104.207V97.931H49.0901C43.3434 100.209 39.2073 106.574 39.2073 114.069C39.2073 118.567 40.6972 122.659 43.131 125.703Z"/>
</mask>
<path fill-rule="evenodd" clip-rule="evenodd" d="M16.4819 97.931H9.24146V104.207C9.24146 113.582 14.6719 121.689 22.559 125.554C24.9229 122.525 26.3647 118.494 26.3647 114.069C26.3647 106.574 22.2286 100.209 16.4819 97.931ZM43.131 125.703C51.1855 121.901 56.7587 113.705 56.7587 104.207V97.931H49.0901C43.3434 100.209 39.2073 106.574 39.2073 114.069C39.2073 118.567 40.6972 122.659 43.131 125.703Z" fill="#62401A"/>
<path d="M16.4819 97.931L16.8504 97.0013L16.6729 96.931H16.4819V97.931ZM9.24146 97.931V96.931H8.24146V97.931H9.24146ZM22.559 125.554L22.1189 126.452L22.8479 126.809L23.3473 126.169L22.559 125.554ZM43.131 125.703L42.3498 126.328L42.8433 126.945L43.5579 126.608L43.131 125.703ZM56.7587 97.931H57.7587V96.931H56.7587V97.931ZM49.0901 97.931V96.931H48.8991L48.7215 97.0014L49.0901 97.931ZM16.4819 96.931H9.24146V98.931H16.4819V96.931ZM8.24146 97.931V104.207H10.2415V97.931H8.24146ZM8.24146 104.207C8.24146 113.978 13.9023 122.426 22.1189 126.452L22.999 124.656C15.4415 120.953 10.2415 113.186 10.2415 104.207H8.24146ZM23.3473 126.169C25.8529 122.959 27.3647 118.71 27.3647 114.069H25.3647C25.3647 118.279 23.9929 122.092 21.7707 124.939L23.3473 126.169ZM27.3647 114.069C27.3647 106.229 23.0358 99.4533 16.8504 97.0013L16.1134 98.8606C21.4214 100.965 25.3647 106.918 25.3647 114.069H27.3647ZM43.5579 126.608C51.9491 122.646 57.7587 114.106 57.7587 104.207H55.7587C55.7587 113.303 50.4219 121.155 42.7041 124.799L43.5579 126.608ZM57.7587 104.207V97.931H55.7587V104.207H57.7587ZM56.7587 96.931H49.0901V98.931H56.7587V96.931ZM48.7215 97.0014C42.5362 99.4534 38.2073 106.229 38.2073 114.069H40.2073C40.2073 106.918 44.1506 100.965 49.4586 98.8606L48.7215 97.0014ZM38.2073 114.069C38.2073 118.786 39.7695 123.099 42.3498 126.328L43.9121 125.079C41.625 122.218 40.2073 118.348 40.2073 114.069H38.2073Z" fill="black" mask="url(#path-165-outside-4_1_1331)"/>
<path d="M32.7754 72.7498C46.7565 72.7498 58.1887 83.2095 58.5918 96.3181L58.6035 96.659V107.942C58.6034 110.925 56.0373 113.291 52.9395 113.291C50.6956 113.291 48.7321 112.049 47.8193 110.231C46.9764 112.043 45.057 113.291 42.8574 113.291C40.6578 113.291 38.7384 112.043 37.8955 110.231C36.9827 112.049 35.0192 113.291 32.7754 113.291C30.5316 113.291 28.568 112.049 27.6553 110.231C26.8123 112.043 24.8938 113.291 22.6943 113.291C20.4946 113.291 18.5743 112.043 17.7314 110.231C16.8186 112.049 14.856 113.291 12.6123 113.291C9.51442 113.291 6.94838 110.925 6.94824 107.942V96.659C6.94824 96.5447 6.95247 96.4307 6.95996 96.3181C7.3631 83.2096 18.7945 72.75 32.7754 72.7498Z" fill="#DBDBDB" stroke="black"/>
<mask id="path-168-outside-5_1_1331" maskUnits="userSpaceOnUse" x="6.44824" y="70.1071" width="53" height="42" fill="black">
<rect fill="white" x="6.44824" y="70.1071" width="53" height="42"/>
<path fill-rule="evenodd" clip-rule="evenodd" d="M32.7758 71.1071C18.7878 71.1071 7.44824 82.4467 7.44824 96.4347V101.55L7.44825 105.484C7.44825 108.336 9.7602 110.648 12.6121 110.648C15.4641 110.648 17.776 108.336 17.776 105.484V101.55H17.7761V105.73C17.7761 108.447 19.978 110.648 22.6941 110.648C25.4102 110.648 27.6121 108.447 27.6121 105.73V101.55H27.6121V105.485C27.6121 108.336 29.9241 110.648 32.776 110.648C35.6163 110.648 37.9211 108.355 37.9398 105.519V105.73C37.9398 108.447 40.1416 110.648 42.8577 110.648C45.5739 110.648 47.7757 108.447 47.7757 105.73V101.55H47.7758V105.485C47.7758 108.336 50.0877 110.648 52.9396 110.648C55.7916 110.648 58.1035 108.336 58.1035 105.485V97.7158C58.1035 97.7052 58.1035 97.6946 58.1034 97.684V96.4347C58.1034 82.4467 46.7639 71.1071 32.7758 71.1071Z"/>
</mask>
<path fill-rule="evenodd" clip-rule="evenodd" d="M32.7758 71.1071C18.7878 71.1071 7.44824 82.4467 7.44824 96.4347V101.55L7.44825 105.484C7.44825 108.336 9.7602 110.648 12.6121 110.648C15.4641 110.648 17.776 108.336 17.776 105.484V101.55H17.7761V105.73C17.7761 108.447 19.978 110.648 22.6941 110.648C25.4102 110.648 27.6121 108.447 27.6121 105.73V101.55H27.6121V105.485C27.6121 108.336 29.9241 110.648 32.776 110.648C35.6163 110.648 37.9211 108.355 37.9398 105.519V105.73C37.9398 108.447 40.1416 110.648 42.8577 110.648C45.5739 110.648 47.7757 108.447 47.7757 105.73V101.55H47.7758V105.485C47.7758 108.336 50.0877 110.648 52.9396 110.648C55.7916 110.648 58.1035 108.336 58.1035 105.485V97.7158C58.1035 97.7052 58.1035 97.6946 58.1034 97.684V96.4347C58.1034 82.4467 46.7639 71.1071 32.7758 71.1071Z" fill="#FAFAFA"/>
<path d="M7.44824 101.55H6.44824V101.55L7.44824 101.55ZM7.44825 105.484H8.44825V105.484L7.44825 105.484ZM17.776 101.55V100.55H16.776V101.55H17.776ZM17.7761 101.55H18.7761V100.55H17.7761V101.55ZM27.6121 101.55V100.55H26.6121V101.55H27.6121ZM27.6121 101.55H28.6121V100.55H27.6121V101.55ZM37.9398 105.519H38.9398L36.9398 105.513L37.9398 105.519ZM47.7757 101.55V100.55H46.7757V101.55H47.7757ZM47.7758 101.55H48.7758V100.55H47.7758V101.55ZM58.1034 97.684H57.1034L57.1034 97.6902L58.1034 97.684ZM8.44824 96.4347C8.44824 82.999 19.3401 72.1071 32.7758 72.1071V70.1071C18.2355 70.1071 6.44824 81.8944 6.44824 96.4347H8.44824ZM8.44824 101.55V96.4347H6.44824V101.55H8.44824ZM8.44825 105.484L8.44824 101.55L6.44824 101.55L6.44825 105.484L8.44825 105.484ZM12.6121 109.648C10.3125 109.648 8.44825 107.784 8.44825 105.484H6.44825C6.44825 108.889 9.20791 111.648 12.6121 111.648V109.648ZM16.776 105.484C16.776 107.784 14.9118 109.648 12.6121 109.648V111.648C16.0163 111.648 18.776 108.889 18.776 105.484H16.776ZM16.776 101.55V105.484H18.776V101.55H16.776ZM17.7761 100.55H17.776V102.55H17.7761V100.55ZM16.7761 101.55V105.73H18.7761V101.55H16.7761ZM16.7761 105.73C16.7761 108.999 19.4257 111.648 22.6941 111.648V109.648C20.5302 109.648 18.7761 107.894 18.7761 105.73H16.7761ZM22.6941 111.648C25.9625 111.648 28.6121 108.999 28.6121 105.73H26.6121C26.6121 107.894 24.8579 109.648 22.6941 109.648V111.648ZM28.6121 105.73V101.55H26.6121V105.73H28.6121ZM27.6121 100.55H27.6121V102.55H27.6121V100.55ZM28.6121 105.485V101.55H26.6121V105.485H28.6121ZM32.776 109.648C30.4763 109.648 28.6121 107.784 28.6121 105.485H26.6121C26.6121 108.889 29.3718 111.648 32.776 111.648V109.648ZM36.9398 105.513C36.9247 107.799 35.0663 109.648 32.776 109.648V111.648C36.1664 111.648 38.9174 108.911 38.9397 105.526L36.9398 105.513ZM38.9398 105.73V105.519H36.9398V105.73H38.9398ZM42.8577 109.648C40.6939 109.648 38.9398 107.894 38.9398 105.73H36.9398C36.9398 108.999 39.5893 111.648 42.8577 111.648V109.648ZM46.7757 105.73C46.7757 107.894 45.0216 109.648 42.8577 109.648V111.648C46.1261 111.648 48.7757 108.999 48.7757 105.73H46.7757ZM46.7757 101.55V105.73H48.7757V101.55H46.7757ZM47.7758 100.55H47.7757V102.55H47.7758V100.55ZM46.7758 101.55V105.485H48.7758V101.55H46.7758ZM46.7758 105.485C46.7758 108.889 49.5354 111.648 52.9396 111.648V109.648C50.64 109.648 48.7758 107.784 48.7758 105.485H46.7758ZM52.9396 111.648C56.3439 111.648 59.1035 108.889 59.1035 105.485H57.1035C57.1035 107.784 55.2393 109.648 52.9396 109.648V111.648ZM59.1035 105.485V97.7158H57.1035V105.485H59.1035ZM59.1035 97.7158C59.1035 97.7033 59.1035 97.6906 59.1034 97.6779L57.1034 97.6902C57.1035 97.6986 57.1035 97.7071 57.1035 97.7158H59.1035ZM57.1034 96.4347V97.684H59.1034V96.4347H57.1034ZM32.7758 72.1071C46.2116 72.1071 57.1034 82.999 57.1034 96.4347H59.1034C59.1034 81.8944 47.3162 70.1071 32.7758 70.1071V72.1071Z" fill="black" mask="url(#path-168-outside-5_1_1331)"/>
<path d="M33.9154 110.021C33.7221 110.106 33.5028 110.151 33.2795 110.151H32.6999C32.4767 110.151 32.2574 110.106 32.0641 110.021L27.3126 107.933C26.4223 107.542 25.3201 108.075 25.3851 108.857C25.5624 110.987 25.5589 112.667 25.3821 114.798C25.3174 115.579 26.4184 116.111 27.3078 115.72L32.2498 113.548C32.4431 113.463 32.6624 113.418 32.8856 113.418H33.0939C33.3171 113.418 33.5364 113.463 33.7297 113.548L38.6958 115.731C39.5805 116.12 40.6766 115.595 40.6186 114.818C40.458 112.672 40.4506 110.986 40.6124 108.841C40.6712 108.063 39.5725 107.535 38.6859 107.924L33.9154 110.021Z" fill="#FFCEB9"/>
<path d="M30.0104 100.863C27.4572 98.7134 27.6717 94.7111 30.4266 92.8262C32.2248 91.5958 34.6181 91.6531 36.3489 92.9766C38.8218 94.8677 38.9972 98.5362 36.7303 100.67C34.8645 102.426 31.9702 102.514 30.0104 100.863Z" fill="#FFD500"/>
<ellipse cx="30.5347" cy="97.1975" rx="0.672414" ry="0.611285" fill="#512E0C"/>
<ellipse cx="35.7981" cy="97.1974" rx="0.672414" ry="0.611285" fill="#512E0C"/>
<circle cx="21.3449" cy="90.3104" r="5.37931" fill="#FFD500"/>
<circle cx="21.3448" cy="90.3103" r="3.58621" fill="#323232"/>
<circle cx="22.6898" cy="89.2643" r="1.34483" fill="white"/>
<circle cx="20.4483" cy="91.8045" r="0.896552" fill="white"/>
<circle cx="44.6552" cy="90.3103" r="5.37931" fill="#FFD500"/>
<circle cx="44.6553" cy="90.3103" r="3.58621" fill="#323232"/>
<circle cx="46.0001" cy="89.2643" r="1.34483" fill="white"/>
<circle cx="43.7586" cy="91.8045" r="0.896552" fill="white"/>
<ellipse cx="17.7585" cy="98.3386" rx="2.68966" ry="1.7931" fill="#FFCEB9"/>
<ellipse cx="48.2412" cy="98.3387" rx="2.68966" ry="1.7931" fill="#FFCEB9"/>
<path d="M18.1426 82.5596C23.2192 82.5596 27.1745 86.4743 27.1748 91.1104C27.1748 95.7466 23.2194 99.6621 18.1426 99.6621C13.0659 99.662 9.11133 95.7465 9.11133 91.1104C9.11158 86.4744 13.0661 82.5597 18.1426 82.5596Z" stroke="#323232" stroke-width="4.22202"/>
<path d="M47.8569 82.5596C52.9335 82.5596 56.8889 86.4744 56.8892 91.1104C56.8892 95.7466 52.9337 99.6621 47.8569 99.6621C42.7803 99.662 38.8257 95.7465 38.8257 91.1104C38.8259 86.4745 42.7805 82.5597 47.8569 82.5596Z" stroke="#323232" stroke-width="4.22202"/>
<path d="M28.7905 90.3275C31.9616 89.7874 33.8225 89.7972 37.2096 90.3275V92.2955C33.9752 91.8034 32.1309 91.7964 28.7905 92.2955V90.3275Z" fill="#242424"/>
<path d="M358.192 67.5C358.3 67.4965 358.457 67.5565 358.614 67.7812C358.75 67.9757 358.855 68.2607 358.884 68.6016L358.891 68.751L358.911 70.1475L359.897 70.2588L360.213 68.958C360.304 68.5816 360.477 68.3502 360.629 68.2441C360.729 68.1741 360.822 68.1527 360.917 68.1758L361.012 68.2139C361.17 68.2997 361.34 68.5082 361.445 68.8447C361.535 69.1323 361.561 69.4708 361.506 69.8008L361.476 69.9414L360.391 74.4072C360.3 74.7834 360.128 75.0151 359.976 75.1211C359.876 75.1914 359.782 75.2117 359.687 75.1885L359.593 75.1514C359.494 75.0975 359.387 74.995 359.293 74.832L358.992 74.3096L358.535 74.7021C358.463 74.7636 358.396 74.7955 358.337 74.8086L358.279 74.8154C358.219 74.8173 358.153 74.8021 358.081 74.7578L357.481 74.3896L357.331 75.0771C357.25 75.4458 357.088 75.6969 356.926 75.8213L356.856 75.8672C356.729 75.9368 356.606 75.9304 356.472 75.8369C356.34 75.7441 356.191 75.5548 356.094 75.2568L356.056 75.123L354.971 70.6572C354.881 70.2844 354.9 69.889 355.003 69.5605C355.094 69.2659 355.237 69.0698 355.377 68.9678L355.436 68.9297C355.564 68.86 355.686 68.8662 355.82 68.96C355.953 69.0528 356.102 69.2413 356.198 69.5391L356.236 69.6738L356.556 70.9932L357.542 70.8672L357.512 68.8135C357.507 68.4067 357.612 68.0552 357.763 67.8184C357.879 67.6373 358 67.5511 358.1 67.5176L358.192 67.5Z" fill="#FAFAFA" stroke="white"/>
<path d="M358 128.466C371.398 128.465 382.259 117.604 382.259 104.207V97.4313H333.741V104.207C333.741 117.604 344.603 128.466 358 128.466Z" fill="#A97337" stroke="white"/>
<g style="mix-blend-mode:multiply">
<mask id="path-189-outside-6_1_1331" maskUnits="userSpaceOnUse" x="349.254" y="118.056" width="17" height="4" fill="black">
<rect fill="white" x="349.254" y="118.056" width="17" height="4"/>
<path fill-rule="evenodd" clip-rule="evenodd" d="M355.113 119.056C355.113 119.294 355.05 119.53 354.928 119.75C354.806 119.969 354.627 120.169 354.402 120.337C354.176 120.506 353.908 120.639 353.613 120.73C353.319 120.821 353.003 120.868 352.684 120.868C352.364 120.868 352.049 120.821 351.754 120.73C351.459 120.639 351.191 120.506 350.966 120.337C350.74 120.169 350.561 119.969 350.439 119.75C350.317 119.53 350.254 119.294 350.254 119.056L352.684 119.056H355.113ZM359.973 119.056C359.973 119.294 359.91 119.53 359.788 119.75C359.666 119.969 359.487 120.169 359.261 120.337C359.035 120.506 358.767 120.639 358.473 120.73C358.178 120.821 357.862 120.868 357.543 120.868C357.224 120.868 356.908 120.821 356.613 120.73C356.318 120.639 356.05 120.506 355.825 120.337C355.599 120.169 355.42 119.969 355.298 119.75C355.176 119.53 355.113 119.294 355.113 119.056L357.543 119.056H359.973ZM364.647 119.75C364.769 119.53 364.832 119.294 364.832 119.056H362.402L359.973 119.056C359.973 119.294 360.035 119.53 360.158 119.75C360.28 119.969 360.459 120.169 360.684 120.337C360.91 120.506 361.178 120.639 361.472 120.73C361.767 120.821 362.083 120.868 362.402 120.868C362.721 120.868 363.037 120.821 363.332 120.73C363.627 120.639 363.895 120.506 364.12 120.337C364.346 120.169 364.525 119.969 364.647 119.75Z"/>
</mask>
<path fill-rule="evenodd" clip-rule="evenodd" d="M355.113 119.056C355.113 119.294 355.05 119.53 354.928 119.75C354.806 119.969 354.627 120.169 354.402 120.337C354.176 120.506 353.908 120.639 353.613 120.73C353.319 120.821 353.003 120.868 352.684 120.868C352.364 120.868 352.049 120.821 351.754 120.73C351.459 120.639 351.191 120.506 350.966 120.337C350.74 120.169 350.561 119.969 350.439 119.75C350.317 119.53 350.254 119.294 350.254 119.056L352.684 119.056H355.113ZM359.973 119.056C359.973 119.294 359.91 119.53 359.788 119.75C359.666 119.969 359.487 120.169 359.261 120.337C359.035 120.506 358.767 120.639 358.473 120.73C358.178 120.821 357.862 120.868 357.543 120.868C357.224 120.868 356.908 120.821 356.613 120.73C356.318 120.639 356.05 120.506 355.825 120.337C355.599 120.169 355.42 119.969 355.298 119.75C355.176 119.53 355.113 119.294 355.113 119.056L357.543 119.056H359.973ZM364.647 119.75C364.769 119.53 364.832 119.294 364.832 119.056H362.402L359.973 119.056C359.973 119.294 360.035 119.53 360.158 119.75C360.28 119.969 360.459 120.169 360.684 120.337C360.91 120.506 361.178 120.639 361.472 120.73C361.767 120.821 362.083 120.868 362.402 120.868C362.721 120.868 363.037 120.821 363.332 120.73C363.627 120.639 363.895 120.506 364.12 120.337C364.346 120.169 364.525 119.969 364.647 119.75Z" fill="#4B2807" fill-opacity="0.5"/>
<path d="M354.928 119.75L355.802 120.235V120.235L354.928 119.75ZM355.113 119.056H356.113V118.056H355.113V119.056ZM354.402 120.337L353.804 119.536L353.804 119.536L354.402 120.337ZM353.613 120.73L353.908 121.685L353.908 121.685L353.613 120.73ZM351.754 120.73L351.459 121.685H351.459L351.754 120.73ZM350.966 120.337L350.368 121.139L350.368 121.139L350.966 120.337ZM350.439 119.75L351.313 119.264L351.313 119.264L350.439 119.75ZM350.254 119.056L350.254 118.056L349.254 118.056L349.254 119.056L350.254 119.056ZM352.684 119.056V120.056V119.056ZM359.788 119.75L360.662 120.235V120.235L359.788 119.75ZM359.973 119.056H360.973V118.056H359.973V119.056ZM359.261 120.337L358.663 119.536L358.663 119.536L359.261 120.337ZM358.473 120.73L358.178 119.775L358.178 119.775L358.473 120.73ZM355.825 120.337L355.227 121.139L355.227 121.139L355.825 120.337ZM355.298 119.75L356.172 119.264L356.172 119.264L355.298 119.75ZM355.113 119.056V118.056L354.113 118.056V119.056H355.113ZM357.543 119.056L357.543 120.056H357.543V119.056ZM364.832 119.056H365.832V118.056H364.832V119.056ZM364.647 119.75L365.521 120.235V120.235L364.647 119.75ZM362.402 119.056V120.056V119.056ZM359.973 119.056V118.056L358.973 118.056V119.056H359.973ZM360.158 119.75L361.032 119.264V119.264L360.158 119.75ZM360.684 120.337L360.086 121.139V121.139L360.684 120.337ZM363.332 120.73L363.037 119.775L363.037 119.775L363.332 120.73ZM364.12 120.337L363.523 119.536L363.523 119.536L364.12 120.337ZM355.802 120.235C356.002 119.876 356.113 119.474 356.113 119.056H354.113C354.113 119.115 354.099 119.184 354.054 119.264L355.802 120.235ZM354.999 121.139C355.325 120.896 355.604 120.593 355.802 120.235L354.054 119.264C354.009 119.346 353.93 119.442 353.804 119.536L354.999 121.139ZM353.908 121.685C354.302 121.564 354.674 121.382 354.999 121.139L353.804 119.536C353.678 119.629 353.515 119.714 353.318 119.775L353.908 121.685ZM352.684 121.868C353.099 121.868 353.515 121.807 353.908 121.685L353.318 119.775C353.122 119.835 352.906 119.868 352.684 119.868V121.868ZM351.459 121.685C351.852 121.807 352.268 121.868 352.684 121.868V119.868C352.461 119.868 352.245 119.835 352.049 119.775L351.459 121.685ZM350.368 121.139C350.693 121.382 351.065 121.564 351.459 121.685L352.049 119.775C351.853 119.714 351.689 119.629 351.563 119.536L350.368 121.139ZM349.565 120.235C349.763 120.593 350.042 120.896 350.368 121.139L351.563 119.536C351.438 119.442 351.359 119.346 351.313 119.264L349.565 120.235ZM349.254 119.056C349.254 119.474 349.365 119.876 349.565 120.235L351.313 119.264C351.269 119.184 351.254 119.115 351.254 119.056L349.254 119.056ZM352.684 118.056L350.254 118.056L350.254 120.056L352.684 120.056V118.056ZM355.113 118.056H352.684V120.056H355.113V118.056ZM360.662 120.235C360.862 119.876 360.973 119.474 360.973 119.056H358.973C358.973 119.115 358.958 119.184 358.913 119.264L360.662 120.235ZM359.859 121.139C360.184 120.896 360.463 120.593 360.662 120.235L358.913 119.264C358.868 119.346 358.789 119.442 358.663 119.536L359.859 121.139ZM358.768 121.685C359.161 121.564 359.533 121.382 359.859 121.139L358.663 119.536C358.537 119.629 358.374 119.714 358.178 119.775L358.768 121.685ZM357.543 121.868C357.959 121.868 358.374 121.807 358.768 121.685L358.178 119.775C357.982 119.835 357.765 119.868 357.543 119.868V121.868ZM356.318 121.685C356.712 121.807 357.127 121.868 357.543 121.868V119.868C357.32 119.868 357.104 119.835 356.908 119.775L356.318 121.685ZM355.227 121.139C355.553 121.382 355.925 121.564 356.318 121.685L356.908 119.775C356.712 119.714 356.548 119.629 356.423 119.536L355.227 121.139ZM354.424 120.235C354.623 120.593 354.902 120.896 355.227 121.139L356.423 119.536C356.297 119.442 356.218 119.346 356.172 119.264L354.424 120.235ZM354.113 119.056C354.113 119.474 354.224 119.876 354.424 120.235L356.172 119.264C356.128 119.184 356.113 119.115 356.113 119.056H354.113ZM357.543 118.056L355.113 118.056L355.113 120.056L357.543 120.056L357.543 118.056ZM359.973 118.056H357.543V120.056H359.973V118.056ZM363.832 119.056C363.832 119.115 363.817 119.184 363.773 119.264L365.521 120.235C365.721 119.876 365.832 119.474 365.832 119.056H363.832ZM362.402 120.056H364.832V118.056H362.402V120.056ZM359.973 120.056L362.402 120.056V118.056L359.973 118.056V120.056ZM361.032 119.264C360.987 119.184 360.973 119.115 360.973 119.056H358.973C358.973 119.474 359.084 119.876 359.283 120.235L361.032 119.264ZM361.282 119.536C361.156 119.442 361.077 119.346 361.032 119.264L359.283 120.235C359.482 120.593 359.761 120.896 360.086 121.139L361.282 119.536ZM361.768 119.775C361.571 119.714 361.408 119.629 361.282 119.536L360.086 121.139C360.412 121.382 360.784 121.564 361.177 121.685L361.768 119.775ZM362.402 119.868C362.18 119.868 361.963 119.835 361.768 119.775L361.177 121.685C361.571 121.807 361.987 121.868 362.402 121.868V119.868ZM363.037 119.775C362.841 119.835 362.625 119.868 362.402 119.868V121.868C362.818 121.868 363.234 121.807 363.627 121.685L363.037 119.775ZM363.523 119.536C363.397 119.629 363.233 119.714 363.037 119.775L363.627 121.685C364.02 121.564 364.393 121.382 364.718 121.139L363.523 119.536ZM363.773 119.264C363.727 119.346 363.648 119.442 363.523 119.536L364.718 121.139C365.043 120.896 365.322 120.593 365.521 120.235L363.773 119.264Z" fill="white" mask="url(#path-189-outside-6_1_1331)"/>
</g>
<g style="mix-blend-mode:multiply">
<mask id="path-191-outside-7_1_1331" maskUnits="userSpaceOnUse" x="349.254" y="114.071" width="17" height="4" fill="black">
<rect fill="white" x="349.254" y="114.071" width="17" height="4"/>
<path fill-rule="evenodd" clip-rule="evenodd" d="M355.113 115.071C355.113 115.301 355.05 115.529 354.928 115.741C354.806 115.954 354.627 116.147 354.402 116.309C354.176 116.472 353.908 116.601 353.613 116.689C353.319 116.777 353.003 116.822 352.684 116.822C352.364 116.822 352.049 116.777 351.754 116.689C351.459 116.601 351.191 116.472 350.966 116.309C350.74 116.147 350.561 115.954 350.439 115.741C350.317 115.529 350.254 115.301 350.254 115.071L352.684 115.071H355.113ZM359.973 115.071C359.973 115.301 359.91 115.529 359.788 115.741C359.666 115.954 359.487 116.147 359.261 116.309C359.035 116.472 358.767 116.601 358.473 116.689C358.178 116.777 357.862 116.822 357.543 116.822C357.224 116.822 356.908 116.777 356.613 116.689C356.318 116.601 356.05 116.472 355.825 116.309C355.599 116.147 355.42 115.954 355.298 115.741C355.176 115.529 355.113 115.301 355.113 115.071L357.543 115.071H359.973ZM364.647 115.741C364.769 115.529 364.832 115.301 364.832 115.071H362.402L359.973 115.071C359.973 115.301 360.035 115.529 360.158 115.741C360.28 115.954 360.459 116.147 360.684 116.309C360.91 116.472 361.178 116.601 361.472 116.689C361.767 116.777 362.083 116.822 362.402 116.822C362.721 116.822 363.037 116.777 363.332 116.689C363.627 116.601 363.895 116.472 364.12 116.309C364.346 116.147 364.525 115.954 364.647 115.741Z"/>
</mask>
<path fill-rule="evenodd" clip-rule="evenodd" d="M355.113 115.071C355.113 115.301 355.05 115.529 354.928 115.741C354.806 115.954 354.627 116.147 354.402 116.309C354.176 116.472 353.908 116.601 353.613 116.689C353.319 116.777 353.003 116.822 352.684 116.822C352.364 116.822 352.049 116.777 351.754 116.689C351.459 116.601 351.191 116.472 350.966 116.309C350.74 116.147 350.561 115.954 350.439 115.741C350.317 115.529 350.254 115.301 350.254 115.071L352.684 115.071H355.113ZM359.973 115.071C359.973 115.301 359.91 115.529 359.788 115.741C359.666 115.954 359.487 116.147 359.261 116.309C359.035 116.472 358.767 116.601 358.473 116.689C358.178 116.777 357.862 116.822 357.543 116.822C357.224 116.822 356.908 116.777 356.613 116.689C356.318 116.601 356.05 116.472 355.825 116.309C355.599 116.147 355.42 115.954 355.298 115.741C355.176 115.529 355.113 115.301 355.113 115.071L357.543 115.071H359.973ZM364.647 115.741C364.769 115.529 364.832 115.301 364.832 115.071H362.402L359.973 115.071C359.973 115.301 360.035 115.529 360.158 115.741C360.28 115.954 360.459 116.147 360.684 116.309C360.91 116.472 361.178 116.601 361.472 116.689C361.767 116.777 362.083 116.822 362.402 116.822C362.721 116.822 363.037 116.777 363.332 116.689C363.627 116.601 363.895 116.472 364.12 116.309C364.346 116.147 364.525 115.954 364.647 115.741Z" fill="#4B2807" fill-opacity="0.5"/>
<path d="M354.928 115.741L355.795 116.24V116.24L354.928 115.741ZM355.113 115.071H356.113V114.071H355.113V115.071ZM354.402 116.309L353.817 115.498L353.817 115.498L354.402 116.309ZM353.613 116.689L353.327 115.731L353.327 115.731L353.613 116.689ZM351.754 116.689L351.468 117.647L351.468 117.647L351.754 116.689ZM350.966 116.309L351.55 115.498L351.55 115.498L350.966 116.309ZM350.439 115.741L351.306 115.243V115.243L350.439 115.741ZM350.254 115.071L350.254 114.071L349.254 114.071L349.254 115.071L350.254 115.071ZM352.684 115.071V116.071V115.071ZM359.788 115.741L360.655 116.24V116.24L359.788 115.741ZM359.973 115.071H360.973V114.071H359.973V115.071ZM359.261 116.309L358.676 115.498L358.676 115.498L359.261 116.309ZM358.473 116.689L358.187 115.731L358.187 115.731L358.473 116.689ZM356.613 116.689L356.327 117.647H356.327L356.613 116.689ZM355.825 116.309L355.24 117.121L355.24 117.121L355.825 116.309ZM355.298 115.741L356.165 115.243L356.165 115.243L355.298 115.741ZM355.113 115.071V114.071L354.113 114.071V115.071H355.113ZM357.543 115.071L357.543 116.071H357.543V115.071ZM364.832 115.071H365.832V114.071H364.832V115.071ZM364.647 115.741L365.514 116.24V116.24L364.647 115.741ZM362.402 115.071V116.071V115.071ZM359.973 115.071V114.071L358.973 114.071V115.071H359.973ZM360.158 115.741L361.025 115.243V115.243L360.158 115.741ZM360.684 116.309L361.269 115.498V115.498L360.684 116.309ZM361.472 116.689L361.186 117.647H361.186L361.472 116.689ZM363.332 116.689L363.046 115.731L363.046 115.731L363.332 116.689ZM364.12 116.309L363.536 115.498L363.536 115.498L364.12 116.309ZM355.795 116.24C355.999 115.886 356.113 115.488 356.113 115.071H354.113C354.113 115.115 354.102 115.172 354.061 115.243L355.795 116.24ZM354.986 117.121C355.312 116.886 355.593 116.591 355.795 116.24L354.061 115.243C354.019 115.317 353.943 115.407 353.817 115.498L354.986 117.121ZM353.899 117.647C354.29 117.531 354.661 117.355 354.986 117.121L353.817 115.498C353.691 115.589 353.526 115.671 353.327 115.731L353.899 117.647ZM352.684 117.822C353.096 117.822 353.508 117.764 353.899 117.647L353.327 115.731C353.129 115.79 352.909 115.822 352.684 115.822V117.822ZM351.468 117.647C351.859 117.764 352.271 117.822 352.684 117.822V115.822C352.458 115.822 352.238 115.79 352.04 115.731L351.468 117.647ZM350.381 117.121C350.706 117.355 351.077 117.531 351.468 117.647L352.04 115.731C351.841 115.671 351.676 115.589 351.55 115.498L350.381 117.121ZM349.572 116.24C349.774 116.591 350.056 116.886 350.381 117.121L351.55 115.498C351.424 115.407 351.348 115.317 351.306 115.243L349.572 116.24ZM349.254 115.071C349.254 115.488 349.369 115.886 349.572 116.24L351.306 115.243C351.265 115.172 351.254 115.115 351.254 115.071L349.254 115.071ZM352.684 114.071L350.254 114.071L350.254 116.071L352.684 116.071V114.071ZM355.113 114.071H352.684V116.071H355.113V114.071ZM360.655 116.24C360.858 115.886 360.973 115.488 360.973 115.071H358.973C358.973 115.115 358.962 115.172 358.921 115.243L360.655 116.24ZM359.846 117.121C360.171 116.886 360.453 116.591 360.655 116.24L358.921 115.243C358.878 115.317 358.802 115.407 358.676 115.498L359.846 117.121ZM358.759 117.647C359.149 117.531 359.52 117.355 359.846 117.121L358.676 115.498C358.55 115.589 358.386 115.671 358.187 115.731L358.759 117.647ZM357.543 117.822C357.955 117.822 358.368 117.764 358.759 117.647L358.187 115.731C357.988 115.79 357.769 115.822 357.543 115.822V117.822ZM356.327 117.647C356.718 117.764 357.131 117.822 357.543 117.822V115.822C357.317 115.822 357.098 115.79 356.899 115.731L356.327 117.647ZM355.24 117.121C355.566 117.355 355.937 117.531 356.327 117.647L356.899 115.731C356.7 115.671 356.535 115.589 356.41 115.498L355.24 117.121ZM354.431 116.24C354.633 116.591 354.915 116.886 355.24 117.121L356.41 115.498C356.284 115.407 356.208 115.317 356.165 115.243L354.431 116.24ZM354.113 115.071C354.113 115.488 354.228 115.886 354.431 116.24L356.165 115.243C356.124 115.172 356.113 115.115 356.113 115.071H354.113ZM357.543 114.071L355.113 114.071L355.113 116.071L357.543 116.071L357.543 114.071ZM359.973 114.071H357.543V116.071H359.973V114.071ZM363.832 115.071C363.832 115.115 363.821 115.172 363.78 115.243L365.514 116.24C365.717 115.886 365.832 115.488 365.832 115.071H363.832ZM362.402 116.071H364.832V114.071H362.402V116.071ZM359.973 116.071L362.402 116.071V114.071L359.973 114.071V116.071ZM361.025 115.243C360.984 115.172 360.973 115.115 360.973 115.071H358.973C358.973 115.488 359.087 115.886 359.291 116.24L361.025 115.243ZM361.269 115.498C361.143 115.407 361.067 115.317 361.025 115.243L359.291 116.24C359.492 116.591 359.774 116.886 360.1 117.121L361.269 115.498ZM361.759 115.731C361.559 115.671 361.395 115.589 361.269 115.498L360.1 117.121C360.425 117.355 360.796 117.531 361.186 117.647L361.759 115.731ZM362.402 115.822C362.176 115.822 361.957 115.79 361.759 115.731L361.186 117.647C361.577 117.764 361.99 117.822 362.402 117.822V115.822ZM363.046 115.731C362.847 115.79 362.628 115.822 362.402 115.822V117.822C362.815 117.822 363.227 117.764 363.618 117.647L363.046 115.731ZM363.536 115.498C363.41 115.589 363.245 115.671 363.046 115.731L363.618 117.647C364.009 117.531 364.38 117.355 364.705 117.121L363.536 115.498ZM363.78 115.243C363.738 115.317 363.661 115.407 363.536 115.498L364.705 117.121C365.03 116.886 365.312 116.591 365.514 116.24L363.78 115.243Z" fill="white" mask="url(#path-191-outside-7_1_1331)"/>
</g>
<g style="mix-blend-mode:multiply">
<mask id="path-193-outside-8_1_1331" maskUnits="userSpaceOnUse" x="347.796" y="122.042" width="20" height="5" fill="black">
<rect fill="white" x="347.796" y="122.042" width="20" height="5"/>
<path fill-rule="evenodd" clip-rule="evenodd" d="M351.793 123.042H354.789H357.786H360.782C360.782 123.634 360.467 124.202 359.905 124.621C359.343 125.04 358.581 125.276 357.786 125.276C356.991 125.276 356.229 125.04 355.667 124.621C355.107 124.204 354.791 123.638 354.789 123.048C354.788 123.339 354.711 123.627 354.561 123.897C354.411 124.168 354.19 124.414 353.912 124.621C353.633 124.829 353.303 124.993 352.939 125.106C352.576 125.218 352.186 125.276 351.793 125.276C351.399 125.276 351.01 125.218 350.646 125.106C350.282 124.993 349.952 124.829 349.674 124.621C349.396 124.414 349.175 124.168 349.024 123.897C348.874 123.626 348.796 123.335 348.796 123.042L351.793 123.042ZM366.548 123.897C366.698 123.626 366.776 123.335 366.776 123.042H363.779L360.783 123.042C360.783 123.335 360.86 123.626 361.011 123.897C361.161 124.168 361.382 124.414 361.66 124.621C361.938 124.829 362.269 124.993 362.632 125.106C362.996 125.218 363.386 125.276 363.779 125.276C364.173 125.276 364.562 125.218 364.926 125.106C365.289 124.993 365.62 124.829 365.898 124.621C366.176 124.414 366.397 124.168 366.548 123.897Z"/>
</mask>
<path fill-rule="evenodd" clip-rule="evenodd" d="M351.793 123.042H354.789H357.786H360.782C360.782 123.634 360.467 124.202 359.905 124.621C359.343 125.04 358.581 125.276 357.786 125.276C356.991 125.276 356.229 125.04 355.667 124.621C355.107 124.204 354.791 123.638 354.789 123.048C354.788 123.339 354.711 123.627 354.561 123.897C354.411 124.168 354.19 124.414 353.912 124.621C353.633 124.829 353.303 124.993 352.939 125.106C352.576 125.218 352.186 125.276 351.793 125.276C351.399 125.276 351.01 125.218 350.646 125.106C350.282 124.993 349.952 124.829 349.674 124.621C349.396 124.414 349.175 124.168 349.024 123.897C348.874 123.626 348.796 123.335 348.796 123.042L351.793 123.042ZM366.548 123.897C366.698 123.626 366.776 123.335 366.776 123.042H363.779L360.783 123.042C360.783 123.335 360.86 123.626 361.011 123.897C361.161 124.168 361.382 124.414 361.66 124.621C361.938 124.829 362.269 124.993 362.632 125.106C362.996 125.218 363.386 125.276 363.779 125.276C364.173 125.276 364.562 125.218 364.926 125.106C365.289 124.993 365.62 124.829 365.898 124.621C366.176 124.414 366.397 124.168 366.548 123.897Z" fill="#4B2807" fill-opacity="0.5"/>
<path d="M351.793 123.042L351.793 124.042H351.793V123.042ZM360.782 123.042H361.782V122.042H360.782V123.042ZM355.667 124.621L356.265 123.82V123.82L355.667 124.621ZM354.789 123.048L355.789 123.044L353.789 123.044L354.789 123.048ZM354.561 123.897L355.435 124.382V124.382L354.561 123.897ZM353.912 124.621L354.509 125.423V125.423L353.912 124.621ZM352.939 125.106L352.644 124.15L352.644 124.15L352.939 125.106ZM350.646 125.106L350.941 124.15L350.941 124.15L350.646 125.106ZM349.674 124.621L349.076 125.423L349.076 125.423L349.674 124.621ZM349.024 123.897L348.15 124.382L348.15 124.382L349.024 123.897ZM348.796 123.042L348.796 122.042L347.796 122.042L347.796 123.042L348.796 123.042ZM366.776 123.042H367.776V122.042H366.776V123.042ZM363.779 123.042V124.042V123.042ZM360.783 123.042V122.042L359.783 122.042V123.042H360.783ZM361.011 123.897L360.136 124.382L360.136 124.382L361.011 123.897ZM361.66 124.621L361.062 125.423L361.66 124.621ZM362.632 125.106L362.927 124.15L362.927 124.15L362.632 125.106ZM364.926 125.106L364.631 124.15L364.631 124.15L364.926 125.106ZM365.898 124.621L366.496 125.423L366.496 125.423L365.898 124.621ZM354.789 122.042H351.793V124.042H354.789V122.042ZM357.786 122.042H354.789V124.042H357.786V122.042ZM360.782 122.042H357.786V124.042H360.782V122.042ZM360.502 125.423C361.265 124.854 361.782 124.01 361.782 123.042H359.782C359.782 123.258 359.668 123.55 359.307 123.82L360.502 125.423ZM357.786 126.276C358.766 126.276 359.745 125.988 360.502 125.423L359.307 123.82C358.94 124.093 358.395 124.276 357.786 124.276V126.276ZM355.069 125.423C355.827 125.988 356.806 126.276 357.786 126.276V124.276C357.176 124.276 356.631 124.093 356.265 123.82L355.069 125.423ZM353.789 123.051C353.793 124.016 354.309 124.856 355.069 125.423L356.265 123.82C355.905 123.551 355.79 123.26 355.789 123.044L353.789 123.051ZM355.435 124.382C355.662 123.974 355.788 123.521 355.789 123.051L353.789 123.044C353.789 123.157 353.759 123.281 353.687 123.411L355.435 124.382ZM354.509 125.423C354.887 125.141 355.208 124.791 355.435 124.382L353.687 123.411C353.613 123.544 353.492 123.687 353.314 123.82L354.509 125.423ZM353.235 126.061C353.697 125.918 354.131 125.705 354.509 125.423L353.314 123.82C353.135 123.953 352.91 124.068 352.644 124.15L353.235 126.061ZM351.793 126.276C352.283 126.276 352.772 126.204 353.235 126.061L352.644 124.15C352.38 124.232 352.09 124.276 351.793 124.276V126.276ZM350.351 126.061C350.813 126.204 351.303 126.276 351.793 126.276V124.276C351.496 124.276 351.206 124.232 350.941 124.15L350.351 126.061ZM349.076 125.423C349.454 125.705 349.889 125.918 350.351 126.061L350.941 124.15C350.676 124.068 350.45 123.953 350.272 123.82L349.076 125.423ZM348.15 124.382C348.377 124.791 348.698 125.141 349.076 125.423L350.272 123.82C350.093 123.687 349.972 123.544 349.898 123.411L348.15 124.382ZM347.796 123.042C347.796 123.515 347.922 123.971 348.15 124.382L349.898 123.411C349.825 123.28 349.796 123.155 349.796 123.042L347.796 123.042ZM351.793 122.042L348.796 122.042L348.796 124.042L351.793 124.042L351.793 122.042ZM365.776 123.042C365.776 123.155 365.746 123.28 365.673 123.411L367.422 124.382C367.65 123.971 367.776 123.515 367.776 123.042H365.776ZM363.779 124.042H366.776V122.042H363.779V124.042ZM360.783 124.042L363.779 124.042V122.042L360.783 122.042V124.042ZM361.885 123.411C361.812 123.28 361.783 123.155 361.783 123.042H359.783C359.783 123.515 359.908 123.971 360.136 124.382L361.885 123.411ZM362.258 123.82C362.08 123.687 361.959 123.544 361.885 123.411L360.136 124.382C360.364 124.791 360.684 125.141 361.062 125.423L362.258 123.82ZM362.927 124.15C362.662 124.068 362.436 123.953 362.258 123.82L361.062 125.423C361.441 125.705 361.875 125.918 362.337 126.061L362.927 124.15ZM363.779 124.276C363.482 124.276 363.192 124.232 362.927 124.15L362.337 126.061C362.8 126.204 363.289 126.276 363.779 126.276V124.276ZM364.631 124.15C364.366 124.232 364.076 124.276 363.779 124.276V126.276C364.269 126.276 364.759 126.204 365.221 126.061L364.631 124.15ZM365.3 123.82C365.122 123.953 364.896 124.068 364.631 124.15L365.221 126.061C365.683 125.918 366.118 125.705 366.496 125.423L365.3 123.82ZM365.673 123.411C365.599 123.544 365.479 123.687 365.3 123.82L366.496 125.423C366.874 125.141 367.195 124.791 367.422 124.382L365.673 123.411Z" fill="white" mask="url(#path-193-outside-8_1_1331)"/>
</g>
<mask id="path-195-outside-9_1_1331" maskUnits="userSpaceOnUse" x="333.241" y="96.931" width="50" height="31" fill="black">
<rect fill="white" x="333.241" y="96.931" width="50" height="31"/>
<path fill-rule="evenodd" clip-rule="evenodd" d="M341.482 97.931H334.241V104.207C334.241 113.582 339.672 121.689 347.559 125.554C349.923 122.525 351.365 118.494 351.365 114.069C351.365 106.574 347.229 100.209 341.482 97.931ZM368.131 125.703C376.185 121.901 381.759 113.705 381.759 104.207V97.931H374.09C368.343 100.209 364.207 106.574 364.207 114.069C364.207 118.567 365.697 122.659 368.131 125.703Z"/>
</mask>
<path fill-rule="evenodd" clip-rule="evenodd" d="M341.482 97.931H334.241V104.207C334.241 113.582 339.672 121.689 347.559 125.554C349.923 122.525 351.365 118.494 351.365 114.069C351.365 106.574 347.229 100.209 341.482 97.931ZM368.131 125.703C376.185 121.901 381.759 113.705 381.759 104.207V97.931H374.09C368.343 100.209 364.207 106.574 364.207 114.069C364.207 118.567 365.697 122.659 368.131 125.703Z" fill="#62401A"/>
<path d="M341.482 97.931L341.85 97.0013L341.673 96.931H341.482V97.931ZM334.241 97.931V96.931H333.241V97.931H334.241ZM347.559 125.554L347.119 126.452L347.848 126.809L348.347 126.169L347.559 125.554ZM368.131 125.703L367.35 126.328L367.843 126.945L368.558 126.608L368.131 125.703ZM381.759 97.931H382.759V96.931H381.759V97.931ZM374.09 97.931V96.931H373.899L373.722 97.0014L374.09 97.931ZM341.482 96.931H334.241V98.931H341.482V96.931ZM333.241 97.931V104.207H335.241V97.931H333.241ZM333.241 104.207C333.241 113.978 338.902 122.426 347.119 126.452L347.999 124.656C340.442 120.953 335.241 113.186 335.241 104.207H333.241ZM348.347 126.169C350.853 122.959 352.365 118.71 352.365 114.069H350.365C350.365 118.279 348.993 122.092 346.771 124.939L348.347 126.169ZM352.365 114.069C352.365 106.229 348.036 99.4533 341.85 97.0013L341.113 98.8606C346.421 100.965 350.365 106.918 350.365 114.069H352.365ZM368.558 126.608C376.949 122.646 382.759 114.106 382.759 104.207H380.759C380.759 113.303 375.422 121.155 367.704 124.799L368.558 126.608ZM382.759 104.207V97.931H380.759V104.207H382.759ZM381.759 96.931H374.09V98.931H381.759V96.931ZM373.722 97.0014C367.536 99.4534 363.207 106.229 363.207 114.069H365.207C365.207 106.918 369.151 100.965 374.459 98.8606L373.722 97.0014ZM363.207 114.069C363.207 118.786 364.769 123.099 367.35 126.328L368.912 125.079C366.625 122.218 365.207 118.348 365.207 114.069H363.207Z" fill="white" mask="url(#path-195-outside-9_1_1331)"/>
<path d="M357.776 73.2498C344.03 73.2498 332.842 83.5317 332.458 96.3518C332.452 96.4534 332.448 96.5557 332.448 96.6589V107.942C332.448 110.62 334.76 112.791 337.612 112.791C340.464 112.791 342.776 110.62 342.776 107.942V103.693L342.776 108.173C342.776 110.723 344.978 112.791 347.694 112.791C350.41 112.791 352.612 110.723 352.612 108.173L352.612 103.693V107.942C352.612 110.62 354.924 112.791 357.776 112.791C360.628 112.791 362.94 110.62 362.94 107.942L362.94 108.173C362.94 110.723 365.142 112.791 367.858 112.791C370.574 112.791 372.776 110.723 372.776 108.173V107.952C372.781 110.625 375.091 112.791 377.94 112.791C380.791 112.791 383.103 110.62 383.103 107.942V96.6589C383.103 96.5557 383.1 96.4534 383.093 96.3518C382.709 83.5317 371.521 73.2498 357.776 73.2498Z" fill="#DBDBDB"/>
<mask id="path-198-outside-10_1_1331" maskUnits="userSpaceOnUse" x="331.448" y="70.1071" width="53" height="42" fill="black">
<rect fill="white" x="331.448" y="70.1071" width="53" height="42"/>
<path fill-rule="evenodd" clip-rule="evenodd" d="M357.776 71.1071C343.788 71.1071 332.448 82.4467 332.448 96.4347V101.55L332.448 105.484C332.448 108.336 334.76 110.648 337.612 110.648C340.464 110.648 342.776 108.336 342.776 105.484V101.55H342.776V105.73C342.776 108.447 344.978 110.648 347.694 110.648C350.41 110.648 352.612 108.447 352.612 105.73V101.55H352.612V105.485C352.612 108.336 354.924 110.648 357.776 110.648C360.616 110.648 362.921 108.355 362.94 105.519V105.73C362.94 108.447 365.142 110.648 367.858 110.648C370.574 110.648 372.776 108.447 372.776 105.73V101.55H372.776V105.485C372.776 108.336 375.088 110.648 377.94 110.648C380.792 110.648 383.104 108.336 383.104 105.485V97.7158C383.104 97.7052 383.103 97.6946 383.103 97.684V96.4347C383.103 82.4467 371.764 71.1071 357.776 71.1071Z"/>
</mask>
<path fill-rule="evenodd" clip-rule="evenodd" d="M357.776 71.1071C343.788 71.1071 332.448 82.4467 332.448 96.4347V101.55L332.448 105.484C332.448 108.336 334.76 110.648 337.612 110.648C340.464 110.648 342.776 108.336 342.776 105.484V101.55H342.776V105.73C342.776 108.447 344.978 110.648 347.694 110.648C350.41 110.648 352.612 108.447 352.612 105.73V101.55H352.612V105.485C352.612 108.336 354.924 110.648 357.776 110.648C360.616 110.648 362.921 108.355 362.94 105.519V105.73C362.94 108.447 365.142 110.648 367.858 110.648C370.574 110.648 372.776 108.447 372.776 105.73V101.55H372.776V105.485C372.776 108.336 375.088 110.648 377.94 110.648C380.792 110.648 383.104 108.336 383.104 105.485V97.7158C383.104 97.7052 383.103 97.6946 383.103 97.684V96.4347C383.103 82.4467 371.764 71.1071 357.776 71.1071Z" fill="#FAFAFA"/>
<path d="M332.448 101.55H331.448V101.55L332.448 101.55ZM332.448 105.484H333.448V105.484L332.448 105.484ZM342.776 101.55V100.55H341.776V101.55H342.776ZM342.776 101.55H343.776V100.55H342.776V101.55ZM352.612 101.55V100.55H351.612V101.55H352.612ZM352.612 101.55H353.612V100.55H352.612V101.55ZM362.94 105.519H363.94L361.94 105.513L362.94 105.519ZM372.776 101.55V100.55H371.776V101.55H372.776ZM372.776 101.55H373.776V100.55H372.776V101.55ZM383.103 97.684H382.103L382.103 97.6902L383.103 97.684ZM333.448 96.4347C333.448 82.999 344.34 72.1071 357.776 72.1071V70.1071C343.236 70.1071 331.448 81.8944 331.448 96.4347H333.448ZM333.448 101.55V96.4347H331.448V101.55H333.448ZM333.448 105.484L333.448 101.55L331.448 101.55L331.448 105.484L333.448 105.484ZM337.612 109.648C335.312 109.648 333.448 107.784 333.448 105.484H331.448C331.448 108.889 334.208 111.648 337.612 111.648V109.648ZM341.776 105.484C341.776 107.784 339.912 109.648 337.612 109.648V111.648C341.016 111.648 343.776 108.889 343.776 105.484H341.776ZM341.776 101.55V105.484H343.776V101.55H341.776ZM342.776 100.55H342.776V102.55H342.776V100.55ZM341.776 101.55V105.73H343.776V101.55H341.776ZM341.776 105.73C341.776 108.999 344.426 111.648 347.694 111.648V109.648C345.53 109.648 343.776 107.894 343.776 105.73H341.776ZM347.694 111.648C350.962 111.648 353.612 108.999 353.612 105.73H351.612C351.612 107.894 349.858 109.648 347.694 109.648V111.648ZM353.612 105.73V101.55H351.612V105.73H353.612ZM352.612 100.55H352.612V102.55H352.612V100.55ZM353.612 105.485V101.55H351.612V105.485H353.612ZM357.776 109.648C355.476 109.648 353.612 107.784 353.612 105.485H351.612C351.612 108.889 354.372 111.648 357.776 111.648V109.648ZM361.94 105.513C361.925 107.799 360.066 109.648 357.776 109.648V111.648C361.166 111.648 363.917 108.911 363.94 105.526L361.94 105.513ZM363.94 105.73V105.519H361.94V105.73H363.94ZM367.858 109.648C365.694 109.648 363.94 107.894 363.94 105.73H361.94C361.94 108.999 364.589 111.648 367.858 111.648V109.648ZM371.776 105.73C371.776 107.894 370.022 109.648 367.858 109.648V111.648C371.126 111.648 373.776 108.999 373.776 105.73H371.776ZM371.776 101.55V105.73H373.776V101.55H371.776ZM372.776 100.55H372.776V102.55H372.776V100.55ZM371.776 101.55V105.485H373.776V101.55H371.776ZM371.776 105.485C371.776 108.889 374.535 111.648 377.94 111.648V109.648C375.64 109.648 373.776 107.784 373.776 105.485H371.776ZM377.94 111.648C381.344 111.648 384.104 108.889 384.104 105.485H382.104C382.104 107.784 380.239 109.648 377.94 109.648V111.648ZM384.104 105.485V97.7158H382.104V105.485H384.104ZM384.104 97.7158C384.104 97.7033 384.103 97.6906 384.103 97.6779L382.103 97.6902C382.103 97.6986 382.104 97.7071 382.104 97.7158H384.104ZM382.103 96.4347V97.684H384.103V96.4347H382.103ZM357.776 72.1071C371.212 72.1071 382.103 82.999 382.103 96.4347H384.103C384.103 81.8944 372.316 70.1071 357.776 70.1071V72.1071Z" fill="white" mask="url(#path-198-outside-10_1_1331)"/>
<path d="M358.915 110.021C358.722 110.106 358.503 110.151 358.28 110.151H357.7C357.477 110.151 357.257 110.106 357.064 110.021L352.313 107.933C351.422 107.542 350.32 108.075 350.385 108.857C350.562 110.987 350.559 112.667 350.382 114.798C350.317 115.579 351.418 116.111 352.308 115.72L357.25 113.548C357.443 113.463 357.662 113.418 357.886 113.418H358.094C358.317 113.418 358.536 113.463 358.73 113.548L363.696 115.731C364.58 116.12 365.677 115.595 365.619 114.818C365.458 112.672 365.451 110.986 365.612 108.841C365.671 108.063 364.572 107.535 363.686 107.924L358.915 110.021Z" fill="#FFCEB9"/>
<path d="M355.01 100.863C352.457 98.7134 352.672 94.7111 355.427 92.8262C357.225 91.5958 359.618 91.6531 361.349 92.9766C363.822 94.8677 363.997 98.5362 361.73 100.67C359.864 102.426 356.97 102.514 355.01 100.863Z" fill="#FFD500"/>
<ellipse cx="355.535" cy="97.1975" rx="0.672414" ry="0.611285" fill="#512E0C"/>
<ellipse cx="360.798" cy="97.1974" rx="0.672414" ry="0.611285" fill="#512E0C"/>
<circle cx="346.345" cy="90.3104" r="5.37931" fill="#FFD500"/>
<circle cx="346.345" cy="90.3103" r="3.58621" fill="#323232"/>
<circle cx="347.69" cy="89.2643" r="1.34483" fill="white"/>
<circle cx="345.448" cy="91.8045" r="0.896552" fill="white"/>
<circle cx="369.655" cy="90.3103" r="5.37931" fill="#FFD500"/>
<circle cx="369.655" cy="90.3103" r="3.58621" fill="#323232"/>
<circle cx="371" cy="89.2643" r="1.34483" fill="white"/>
<circle cx="368.759" cy="91.8045" r="0.896552" fill="white"/>
<ellipse cx="342.759" cy="98.3386" rx="2.68966" ry="1.7931" fill="#FFCEB9"/>
<ellipse cx="373.241" cy="98.3387" rx="2.68966" ry="1.7931" fill="#FFCEB9"/>
<path d="M343.143 82.5596C348.219 82.5596 352.175 86.4743 352.175 91.1104C352.175 95.7466 348.219 99.6621 343.143 99.6621C338.066 99.662 334.111 95.7465 334.111 91.1104C334.112 86.4744 338.066 82.5597 343.143 82.5596Z" stroke="#323232" stroke-width="4.22202"/>
<path d="M372.857 82.5596C377.934 82.5596 381.889 86.4744 381.889 91.1104C381.889 95.7466 377.934 99.6621 372.857 99.6621C367.78 99.662 363.826 95.7465 363.826 91.1104C363.826 86.4745 367.78 82.5597 372.857 82.5596Z" stroke="#323232" stroke-width="4.22202"/>
<path d="M353.791 90.3275C356.962 89.7874 358.823 89.7972 362.21 90.3275V92.2955C358.975 91.8034 357.131 91.7964 353.791 92.2955V90.3275Z" fill="#242424"/>
</g>
<defs>
<clipPath id="clip0_1_1331">
<rect width="533" height="175.965" fill="white" transform="translate(-70)"/>
</clipPath>
<clipPath id="clip1_1_1331">
<rect width="326" height="326" fill="white" transform="translate(34 24)"/>
</clipPath>
<clipPath id="clip2_1_1331">
<rect width="163" height="326" fill="white" transform="translate(34 24)"/>
</clipPath>
</defs>
</svg>
