<svg width="230" height="230" viewBox="0 0 230 230" fill="none" xmlns="http://www.w3.org/2000/svg">
<path d="M106.052 6.85856C105.998 3.15136 107.961 0.081387 110.436 0.00158652C112.91 -0.078214 114.959 2.86238 115.012 6.56958L115.088 11.8306L116.278 6.93167C117.124 3.44723 119.696 1.65064 122.022 2.91887C124.348 4.1871 125.547 8.0399 124.7 11.5243L120.613 28.3487C119.766 31.8331 117.195 33.6297 114.869 32.3615C114.125 31.9554 113.495 31.2845 113.012 30.4455C112.384 30.9838 111.66 31.3015 110.886 31.3265C110.251 31.347 109.645 31.1689 109.093 30.8302C108.68 32.7238 107.711 34.324 106.365 35.0582C104.039 36.3264 101.467 34.5299 100.621 31.0454L96.5334 14.2211C95.6869 10.7366 96.8861 6.88383 99.2118 5.61559C101.538 4.34736 104.109 6.14395 104.956 9.62839L106.163 14.5975L106.052 6.85856Z" fill="#FAFAFA"/>
<path d="M20.2656 140.171C20.2656 189.604 60.3392 229.678 109.772 229.678C159.206 229.678 199.279 189.604 199.279 140.171V116.528H20.2656V140.171Z" fill="#A97337"/>
<g style="mix-blend-mode:multiply">
<path fill-rule="evenodd" clip-rule="evenodd" d="M98.8973 196.114C98.8973 197.011 98.6605 197.898 98.2005 198.726C97.7405 199.554 97.0663 200.306 96.2163 200.94C95.3664 201.574 94.3573 202.076 93.2468 202.419C92.1362 202.762 90.946 202.939 89.7439 202.939C88.5419 202.939 87.3516 202.762 86.2411 202.419C85.1306 202.076 84.1215 201.574 83.2715 200.94C82.4216 200.306 81.7473 199.554 81.2873 198.726C80.8273 197.898 80.5906 197.011 80.5906 196.114L89.7439 196.114H98.8973ZM117.204 196.114C117.204 197.011 116.967 197.898 116.507 198.726C116.047 199.554 115.373 200.306 114.523 200.94C113.673 201.574 112.664 202.076 111.554 202.419C110.443 202.762 109.253 202.939 108.051 202.939C106.849 202.939 105.658 202.762 104.548 202.419C103.437 202.076 102.428 201.574 101.578 200.94C100.728 200.306 100.054 199.554 99.5941 198.726C99.1341 197.898 98.8973 197.011 98.8973 196.114L108.051 196.114H117.204ZM134.814 198.726C135.274 197.898 135.511 197.011 135.511 196.114H126.357L117.204 196.114C117.204 197.011 117.441 197.898 117.901 198.726C118.361 199.554 119.035 200.306 119.885 200.94C120.735 201.574 121.744 202.076 122.855 202.419C123.965 202.762 125.155 202.939 126.357 202.939C127.56 202.939 128.75 202.762 129.86 202.419C130.971 202.076 131.98 201.574 132.83 200.94C133.68 200.306 134.354 199.554 134.814 198.726Z" fill="#4B2807" fill-opacity="0.5"/>
</g>
<g style="mix-blend-mode:multiply">
<path fill-rule="evenodd" clip-rule="evenodd" d="M98.8973 181.101C98.8973 181.967 98.6605 182.825 98.2005 183.625C97.7405 184.426 97.0663 185.153 96.2163 185.765C95.3664 186.378 94.3573 186.864 93.2468 187.195C92.1362 187.527 90.946 187.698 89.7439 187.698C88.5419 187.698 87.3516 187.527 86.2411 187.195C85.1306 186.864 84.1215 186.378 83.2715 185.765C82.4216 185.153 81.7473 184.426 81.2873 183.625C80.8273 182.825 80.5906 181.967 80.5906 181.101L89.7439 181.101H98.8973ZM117.204 181.101C117.204 181.967 116.967 182.825 116.507 183.625C116.047 184.426 115.373 185.153 114.523 185.765C113.673 186.378 112.664 186.864 111.554 187.195C110.443 187.527 109.253 187.698 108.051 187.698C106.849 187.698 105.658 187.527 104.548 187.195C103.437 186.864 102.428 186.378 101.578 185.765C100.728 185.153 100.054 184.426 99.5941 183.625C99.1341 182.825 98.8973 181.967 98.8973 181.101L108.051 181.101H117.204ZM134.814 183.625C135.274 182.825 135.511 181.967 135.511 181.101H126.357L117.204 181.101C117.204 181.967 117.441 182.825 117.901 183.625C118.361 184.426 119.035 185.153 119.885 185.765C120.735 186.378 121.744 186.864 122.855 187.195C123.965 187.527 125.155 187.698 126.357 187.698C127.56 187.698 128.75 187.527 129.86 187.195C130.971 186.864 131.98 186.378 132.83 185.765C133.68 185.153 134.354 184.426 134.814 183.625Z" fill="#4B2807" fill-opacity="0.5"/>
</g>
<g style="mix-blend-mode:multiply">
<path fill-rule="evenodd" clip-rule="evenodd" d="M97.6767 211.128C97.6767 212.233 97.3847 213.328 96.8173 214.349C96.25 215.37 95.4184 216.298 94.3701 217.08C93.3219 217.861 92.0773 218.481 90.7077 218.904C89.338 219.327 87.87 219.545 86.3875 219.545C84.905 219.545 83.437 219.327 82.0674 218.904C80.6977 218.481 79.4532 217.861 78.4049 217.08C77.3566 216.298 76.5251 215.37 75.9577 214.349C75.3904 213.328 75.0984 212.233 75.0984 211.128H86.3875H97.6767ZM116.948 217.08C114.831 218.658 111.96 219.545 108.966 219.545C105.972 219.545 103.1 218.658 100.983 217.08C98.8661 215.501 97.6767 213.36 97.6767 211.128L108.966 211.128H120.255C120.255 213.36 119.066 215.501 116.948 217.08ZM141.974 214.349C142.541 213.328 142.833 212.233 142.833 211.128H131.544H120.255C120.255 212.233 120.547 213.328 121.114 214.349C121.682 215.37 122.513 216.298 123.562 217.08C124.61 217.861 125.854 218.481 127.224 218.904C128.594 219.327 130.062 219.545 131.544 219.545C133.027 219.545 134.495 219.327 135.864 218.904C137.234 218.481 138.479 217.861 139.527 217.08C140.575 216.298 141.407 215.37 141.974 214.349Z" fill="#4B2807" fill-opacity="0.5"/>
</g>
<path fill-rule="evenodd" clip-rule="evenodd" d="M47.5428 116.528H20.2656V140.171C20.2656 175.491 40.7241 206.033 70.4374 220.594C79.3429 209.184 84.7749 193.997 84.7749 177.325C84.7749 149.088 69.1926 125.11 47.5428 116.528ZM147.939 221.156C178.283 206.83 199.279 175.952 199.279 140.171V116.528H170.389C148.74 125.11 133.157 149.088 133.157 177.325C133.157 194.272 138.77 209.685 147.939 221.156Z" fill="#62401A"/>
<path d="M108.928 23.5453C57.1441 23.5453 14.995 62.2808 13.5486 110.578C13.5232 110.961 13.5103 111.347 13.5103 111.735L13.5103 154.242C13.5103 164.331 22.2201 172.51 32.9643 172.51C43.7085 172.51 52.4184 164.331 52.4184 154.242V138.235L52.4184 155.112C52.4184 164.721 60.7135 172.51 70.9461 172.51C81.1786 172.51 89.4738 164.721 89.4738 155.112L89.4738 138.235V154.242C89.4738 164.331 98.1837 172.51 108.928 172.51C119.672 172.51 128.382 164.331 128.382 154.242L128.382 155.112C128.382 164.721 136.677 172.51 146.91 172.51C157.142 172.51 165.437 164.721 165.437 155.112V154.279C165.459 164.351 174.16 172.51 184.891 172.51C195.636 172.51 204.345 164.331 204.345 154.242V111.735C204.345 111.347 204.332 110.961 204.307 110.578C202.861 62.2808 160.712 23.5453 108.928 23.5453Z" fill="#DBDBDB"/>
<path fill-rule="evenodd" clip-rule="evenodd" d="M108.928 15.4729C56.2302 15.4729 13.5103 58.1928 13.5103 110.89V130.163H13.5103L13.5103 144.984C13.5103 155.728 22.2202 164.438 32.9644 164.438C43.7086 164.438 52.4185 155.728 52.4185 144.984V130.163H52.4187V145.911C52.4187 156.143 60.7138 164.438 70.9464 164.438C81.179 164.438 89.4741 156.143 89.4741 145.911V130.163H89.4743V144.984C89.4743 155.728 98.1842 164.438 108.928 164.438C119.648 164.438 128.342 155.768 128.382 145.058V145.911C128.382 156.143 136.677 164.438 146.91 164.438C157.143 164.438 165.438 156.143 165.438 145.911V145.039C165.467 155.758 174.166 164.438 184.892 164.438C195.636 164.438 204.346 155.728 204.346 144.984V115.717C204.346 115.681 204.346 115.645 204.345 115.609V110.89C204.345 58.1928 161.626 15.4729 108.928 15.4729Z" fill="#FAFAFA"/>
<path d="M113.22 162.075C112.492 162.396 111.666 162.564 110.825 162.564H108.641C107.8 162.564 106.974 162.396 106.246 162.075L88.3456 154.208C84.9913 152.734 80.8389 154.745 81.0839 157.688C81.7521 165.714 81.7388 172.044 81.0728 180.072C80.8289 183.012 84.9768 185.018 88.3276 183.545L106.945 175.362C107.674 175.042 108.5 174.873 109.341 174.873H110.126C110.967 174.873 111.793 175.042 112.521 175.362L131.23 183.585C134.563 185.05 138.692 183.073 138.474 180.148C137.869 172.063 137.841 165.709 138.451 157.628C138.672 154.697 134.533 152.708 131.192 154.176L113.22 162.075Z" fill="#FFCEB9"/>
<path d="M86.1712 117.186C82.7543 114.308 83.0212 108.966 86.7079 106.443L107.426 92.2675C109.834 90.6202 113.027 90.7045 115.344 92.4766L133.851 106.629C137.162 109.161 137.413 114.057 134.377 116.914L115.841 134.36C113.344 136.71 109.483 136.817 106.86 134.608L86.1712 117.186Z" fill="#FFD500"/>
<ellipse cx="100.484" cy="113.764" rx="2.53321" ry="2.30292" fill="#512E0C"/>
<ellipse cx="120.313" cy="113.764" rx="2.53321" ry="2.30292" fill="#512E0C"/>
<circle cx="65.8636" cy="87.8179" r="20.2657" fill="#FFD500"/>
<circle cx="65.8632" cy="87.818" r="13.5105" fill="#323232"/>
<circle cx="70.9299" cy="83.8775" r="5.06642" fill="white"/>
<circle cx="62.4858" cy="93.4473" r="3.37761" fill="white"/>
<circle cx="153.681" cy="87.8179" r="20.2657" fill="#FFD500"/>
<circle cx="153.682" cy="87.818" r="13.5105" fill="#323232"/>
<circle cx="158.748" cy="83.8775" r="5.06642" fill="white"/>
<circle cx="150.304" cy="93.4473" r="3.37761" fill="white"/>
<ellipse cx="52.3528" cy="118.063" rx="10.1328" ry="6.75523" fill="#FFCEB9"/>
<ellipse cx="167.192" cy="118.063" rx="10.1328" ry="6.75523" fill="#FFCEB9"/>
<path d="M53.8 52.7755C75.9071 52.7755 93.6682 69.9016 93.6682 90.834C93.668 111.766 75.9069 128.892 53.8 128.892C31.6933 128.891 13.9331 111.766 13.9329 90.834C13.9329 69.9017 31.6932 52.7757 53.8 52.7755Z" stroke="#323232" stroke-width="4.22202"/>
<path d="M165.744 52.7755C187.851 52.7755 205.612 69.9017 205.612 90.8341C205.612 111.766 187.851 128.892 165.744 128.892C143.637 128.892 125.877 111.766 125.877 90.8341C125.877 69.9018 143.637 52.7757 165.744 52.7755Z" stroke="#323232" stroke-width="4.22202"/>
<path d="M93.9141 87.8824C105.861 85.848 112.871 85.8846 125.631 87.8824V95.2969C113.446 93.4426 106.499 93.4165 93.9141 95.2969V87.8824Z" fill="#242424"/>
</svg>
