<svg width="52" height="62" viewBox="0 0 52 62" fill="none" xmlns="http://www.w3.org/2000/svg">
<path d="M25.0121 2.78605C24.998 1.80201 25.519 0.987118 26.1758 0.965936C26.8326 0.944754 27.3765 1.7253 27.3906 2.70934L27.4107 4.10582L27.7266 2.80545C27.9513 1.88055 28.6339 1.40366 29.2513 1.7403C29.8686 2.07694 30.1869 3.09962 29.9622 4.02453L28.8773 8.49037C28.6526 9.41528 27.97 9.89217 27.3527 9.55553C27.155 9.44775 26.988 9.26964 26.8597 9.04694C26.693 9.18984 26.5008 9.27418 26.2953 9.2808C26.1269 9.28623 25.9659 9.23896 25.8193 9.14906C25.7097 9.65169 25.4526 10.0765 25.0952 10.2713C24.4778 10.608 23.7952 10.1311 23.5706 9.20619L22.4856 4.74035C22.2609 3.81544 22.5792 2.79275 23.1966 2.45612C23.8139 2.11948 24.4965 2.59636 24.7212 3.52127L25.0417 4.84027L25.0121 2.78605Z" fill="#FAFAFA"/>
<path d="M2.24121 38.1724C2.24121 51.2939 12.8783 61.931 25.9998 61.931C39.1213 61.931 49.7584 51.2939 49.7584 38.1724V31.8965H2.24121V38.1724Z" fill="#A97337"/>
<g style="mix-blend-mode:multiply">
<path fill-rule="evenodd" clip-rule="evenodd" d="M23.1132 53.0219C23.1132 53.2598 23.0504 53.4954 22.9283 53.7151C22.8062 53.9349 22.6272 54.1346 22.4016 54.3028C22.176 54.471 21.9081 54.6045 21.6134 54.6955C21.3186 54.7865 21.0026 54.8334 20.6836 54.8334C20.3645 54.8334 20.0486 54.7865 19.7538 54.6955C19.459 54.6045 19.1912 54.471 18.9655 54.3028C18.7399 54.1346 18.561 53.9349 18.4389 53.7151C18.3168 53.4954 18.2539 53.2598 18.2539 53.0219L20.6836 53.0219H23.1132ZM27.9726 53.0219C27.9726 53.2598 27.9097 53.4954 27.7876 53.7151C27.6655 53.9349 27.4866 54.1346 27.2609 54.3028C27.0353 54.471 26.7675 54.6045 26.4727 54.6955C26.1779 54.7865 25.862 54.8334 25.5429 54.8334C25.2238 54.8334 24.9079 54.7865 24.6131 54.6955C24.3183 54.6045 24.0505 54.471 23.8249 54.3028C23.5993 54.1346 23.4203 53.9349 23.2982 53.7151C23.1761 53.4954 23.1132 53.2598 23.1132 53.0219L25.5429 53.0219H27.9726ZM32.647 53.7151C32.7691 53.4954 32.8319 53.2598 32.8319 53.0219H30.4023L27.9726 53.0219C27.9726 53.2598 28.0354 53.4954 28.1575 53.7151C28.2796 53.9349 28.4586 54.1346 28.6842 54.3028C28.9098 54.471 29.1777 54.6045 29.4725 54.6955C29.7672 54.7865 30.0832 54.8334 30.4023 54.8334C30.7213 54.8334 31.0373 54.7865 31.332 54.6955C31.6268 54.6045 31.8947 54.471 32.1203 54.3028C32.3459 54.1346 32.5249 53.9349 32.647 53.7151Z" fill="#4B2807" fill-opacity="0.5"/>
</g>
<g style="mix-blend-mode:multiply">
<path fill-rule="evenodd" clip-rule="evenodd" d="M23.1132 49.0366C23.1132 49.2666 23.0504 49.4943 22.9283 49.7067C22.8062 49.9192 22.6272 50.1122 22.4016 50.2748C22.176 50.4374 21.9081 50.5664 21.6134 50.6544C21.3186 50.7424 21.0026 50.7877 20.6836 50.7877C20.3645 50.7877 20.0486 50.7424 19.7538 50.6544C19.459 50.5664 19.1912 50.4374 18.9655 50.2748C18.7399 50.1122 18.561 49.9192 18.4389 49.7067C18.3168 49.4943 18.2539 49.2666 18.2539 49.0366L20.6836 49.0366H23.1132ZM27.9726 49.0366C27.9726 49.2666 27.9097 49.4943 27.7876 49.7067C27.6655 49.9192 27.4866 50.1122 27.2609 50.2748C27.0353 50.4374 26.7675 50.5664 26.4727 50.6544C26.1779 50.7424 25.862 50.7877 25.5429 50.7877C25.2238 50.7877 24.9079 50.7424 24.6131 50.6544C24.3183 50.5664 24.0505 50.4374 23.8249 50.2748C23.5993 50.1122 23.4203 49.9192 23.2982 49.7067C23.1761 49.4943 23.1132 49.2666 23.1132 49.0366L25.5429 49.0366H27.9726ZM32.647 49.7067C32.7691 49.4943 32.8319 49.2666 32.8319 49.0366H30.4023L27.9726 49.0366C27.9726 49.2666 28.0354 49.4943 28.1575 49.7067C28.2796 49.9192 28.4586 50.1122 28.6842 50.2748C28.9098 50.4374 29.1777 50.5664 29.4725 50.6544C29.7672 50.7424 30.0832 50.7877 30.4023 50.7877C30.7213 50.7877 31.0373 50.7424 31.332 50.6544C31.6268 50.5664 31.8947 50.4374 32.1203 50.2748C32.3459 50.1122 32.5249 49.9192 32.647 49.7067Z" fill="#4B2807" fill-opacity="0.5"/>
</g>
<g style="mix-blend-mode:multiply">
<path fill-rule="evenodd" clip-rule="evenodd" d="M19.7925 57.0071H22.7891H25.7856H28.7822C28.7822 57.5996 28.4665 58.1679 27.9045 58.5869C27.3426 59.0058 26.5804 59.2412 25.7856 59.2412C24.9909 59.2412 24.2287 59.0058 23.6667 58.5869C23.1067 58.1693 22.7912 57.6035 22.789 57.0131C22.788 57.3045 22.7105 57.5929 22.561 57.8621C22.4104 58.1331 22.1896 58.3794 21.9114 58.5869C21.6331 58.7943 21.3028 58.9589 20.9392 59.0712C20.5757 59.1834 20.186 59.2412 19.7925 59.2412C19.399 59.2412 19.0093 59.1834 18.6457 59.0712C18.2822 58.9589 17.9518 58.7943 17.6736 58.5869C17.3953 58.3794 17.1746 58.1331 17.024 57.8621C16.8734 57.591 16.7959 57.3005 16.7959 57.0071L19.7925 57.0071ZM34.5473 57.8621C34.6979 57.591 34.7754 57.3005 34.7754 57.0071H31.7789L28.7823 57.0071C28.7823 57.3005 28.8598 57.591 29.0104 57.8621C29.161 58.1331 29.3817 58.3794 29.66 58.5869C29.9382 58.7943 30.2686 58.9589 30.6321 59.0712C30.9957 59.1834 31.3853 59.2412 31.7789 59.2412C32.1724 59.2412 32.562 59.1834 32.9256 59.0712C33.2892 58.9589 33.6195 58.7943 33.8978 58.5869C34.176 58.3794 34.3968 58.1331 34.5473 57.8621Z" fill="#4B2807" fill-opacity="0.5"/>
</g>
<path fill-rule="evenodd" clip-rule="evenodd" d="M9.48164 31.8965H2.24121V38.1724C2.24121 47.5478 7.67168 55.6549 15.5587 59.5197C17.9226 56.491 19.3645 52.4598 19.3645 48.0344C19.3645 40.5392 15.2283 34.1746 9.48164 31.8965ZM36.1307 59.6689C44.1853 55.8663 49.7585 47.6702 49.7585 38.1724V31.8965H42.0898C36.3432 34.1746 32.2071 40.5392 32.2071 48.0344C32.2071 52.5328 33.697 56.624 36.1307 59.6689Z" fill="#62401A"/>
<path d="M25.7758 7.21527C12.0304 7.21527 0.842342 17.4972 0.458428 30.3173C0.451671 30.4188 0.448242 30.5212 0.448242 30.6244L0.448242 41.9074C0.448242 44.5854 2.76019 46.7564 5.61212 46.7564C8.46405 46.7564 10.776 44.5854 10.776 41.9074V37.6584L10.776 42.1383C10.776 44.6888 12.9778 46.7564 15.694 46.7564C18.4101 46.7564 20.612 44.6888 20.612 42.1383L20.612 37.6584V41.9074C20.612 44.5854 22.9239 46.7564 25.7758 46.7564C28.6278 46.7564 30.9397 44.5854 30.9397 41.9074L30.9397 42.1383C30.9397 44.6888 33.1416 46.7564 35.8577 46.7564C38.5738 46.7564 40.7757 44.6888 40.7757 42.1383V41.9173C40.7813 44.5908 43.0911 46.7564 45.9395 46.7564C48.7915 46.7564 51.1034 44.5854 51.1034 41.9074V30.6244C51.1034 30.5212 51.1 30.4188 51.0932 30.3173C50.7093 17.4972 39.5213 7.21527 25.7758 7.21527Z" fill="#DBDBDB"/>
<path fill-rule="evenodd" clip-rule="evenodd" d="M25.7758 5.07263C11.7878 5.07263 0.448242 16.4122 0.448242 30.4002L0.448242 35.5158L0.44825 39.4499C0.44825 42.3018 2.7602 44.6137 5.61213 44.6137C8.46406 44.6137 10.776 42.3018 10.776 39.4499V35.5158H10.7761V39.6959C10.7761 42.412 12.978 44.6139 15.6941 44.6139C18.4102 44.6139 20.6121 42.412 20.6121 39.6959V35.5158H20.6121V39.45C20.6121 42.3019 22.9241 44.6139 25.776 44.6139C28.6163 44.6139 30.9211 42.3207 30.9398 39.4847V39.6959C30.9398 42.412 33.1416 44.6139 35.8577 44.6139C38.5739 44.6139 40.7757 42.412 40.7757 39.6959V35.5158H40.7758V39.45C40.7758 42.3019 43.0877 44.6139 45.9396 44.6139C48.7916 44.6139 51.1035 42.3019 51.1035 39.45V31.6812C51.1035 31.6707 51.1035 31.6601 51.1034 31.6495V30.4002C51.1034 16.4122 39.7639 5.07263 25.7758 5.07263Z" fill="#FAFAFA"/>
<path d="M26.9154 43.9867C26.7221 44.0717 26.5028 44.1164 26.2795 44.1164H25.6999C25.4767 44.1164 25.2574 44.0717 25.0641 43.9867L20.3126 41.8984C19.4223 41.507 18.3201 42.0409 18.3851 42.822C18.5624 44.9526 18.5589 46.6329 18.3821 48.7638C18.3174 49.5441 19.4184 50.0765 20.3078 49.6856L25.2498 47.5135C25.4431 47.4285 25.6624 47.3838 25.8856 47.3838H26.0939C26.3171 47.3838 26.5364 47.4285 26.7297 47.5135L31.6958 49.6962C32.5805 50.085 33.6766 49.5603 33.6186 48.7839C33.458 46.6379 33.4506 44.9512 33.6124 42.8063C33.6712 42.0282 32.5725 41.5003 31.6859 41.89L26.9154 43.9867Z" fill="#FFCEB9"/>
<path d="M23.0104 34.829C20.4572 32.6789 20.6717 28.6766 23.4266 26.7917C25.2248 25.5613 27.6181 25.6186 29.3489 26.9421C31.8218 28.8332 31.9972 32.5017 29.7303 34.6353C27.8645 36.3913 24.9702 36.4793 23.0104 34.829Z" fill="#FFD500"/>
<ellipse cx="23.5347" cy="31.163" rx="0.672414" ry="0.611285" fill="#512E0C"/>
<ellipse cx="28.7979" cy="31.1629" rx="0.672414" ry="0.611285" fill="#512E0C"/>
<circle cx="14.3446" cy="24.2759" r="5.37931" fill="#FFD500"/>
<circle cx="14.3445" cy="24.2758" r="3.58621" fill="#323232"/>
<circle cx="15.6896" cy="23.2298" r="1.34483" fill="white"/>
<circle cx="13.4478" cy="25.7701" r="0.896552" fill="white"/>
<circle cx="37.6552" cy="24.2759" r="5.37931" fill="#FFD500"/>
<circle cx="37.6551" cy="24.2758" r="3.58621" fill="#323232"/>
<circle cx="39.0001" cy="23.2298" r="1.34483" fill="white"/>
<circle cx="36.7589" cy="25.77" r="0.896552" fill="white"/>
<ellipse cx="10.7585" cy="32.3041" rx="2.68966" ry="1.7931" fill="#FFCEB9"/>
<ellipse cx="41.2414" cy="32.3041" rx="2.68966" ry="1.7931" fill="#FFCEB9"/>
<path d="M11.1426 16.5251C16.2192 16.5251 20.1745 20.4399 20.1748 25.0759C20.1748 29.7121 16.2194 33.6276 11.1426 33.6276C6.06594 33.6275 2.11133 29.712 2.11133 25.0759C2.11158 20.4399 6.0661 16.5252 11.1426 16.5251Z" stroke="#323232" stroke-width="4.22202"/>
<path d="M40.8569 16.5251C45.9335 16.5251 49.8889 20.4399 49.8892 25.0759C49.8892 29.7121 45.9337 33.6277 40.8569 33.6277C35.7803 33.6275 31.8257 29.712 31.8257 25.0759C31.8259 20.44 35.7805 16.5253 40.8569 16.5251Z" stroke="#323232" stroke-width="4.22202"/>
<path d="M21.7905 24.293C24.9616 23.753 26.8225 23.7627 30.2096 24.293V26.2611C26.9752 25.7689 25.1309 25.7619 21.7905 26.2611V24.293Z" fill="#242424"/>
</svg>
