<svg width="243" height="135" viewBox="0 0 243 135" fill="none" xmlns="http://www.w3.org/2000/svg">
<path d="M20.8 8.2C26.4 8.2 30.7667 9.53333 33.9 12.2C37.0333 14.8 38.6 18.1 38.6 22.1C38.6 25.5667 36.9333 27.3 33.6 27.3C32.5333 27.3 31.6667 26.8 31 25.8C30.3333 24.7333 29.6333 23.6 28.9 22.4C28.2333 21.1333 27.4 20 26.4 19C25.4 17.9333 24 17.4 22.2 17.4C19.6667 17.4 17.7 18.2667 16.3 20C14.9 21.6667 14.2 23.7333 14.2 26.2C14.2 28 14.8667 29.5667 16.2 30.9C17.5333 32.2333 19.2 33.5333 21.2 34.8C23.2 36 25.3667 37.2667 27.7 38.6C30.0333 39.8667 32.2 41.4 34.2 43.2C36.2 45 37.8667 47.1333 39.2 49.6C40.5333 52 41.2 54.9333 41.2 58.4C41.2 60.7333 40.6333 62.9333 39.5 65C38.3667 67 36.8333 68.7667 34.9 70.3C33.0333 71.8333 30.8667 73.0333 28.4 73.9C25.9333 74.7667 23.3333 75.2 20.6 75.2C17.8 75.2 15.3 74.7667 13.1 73.9C10.9 73.1 9.03333 72.0667 7.5 70.8C6.03333 69.5333 4.9 68.1667 4.1 66.7C3.3 65.2333 2.9 63.8667 2.9 62.6C2.9 60.0667 3.26667 58.3333 4 57.4C4.8 56.4 5.86667 55.9 7.2 55.9C8.06667 55.9 8.93333 56.4 9.8 57.4C10.7333 58.4 11.7333 59.5333 12.8 60.8C13.9333 62 15.1333 63.1 16.4 64.1C17.6667 65.1 19.0667 65.6 20.6 65.6C23.5333 65.6 25.9 64.9333 27.7 63.6C29.5 62.2 30.4 60.4667 30.4 58.4C30.4 56.4 29.7333 54.6667 28.4 53.2C27.0667 51.6667 25.4 50.2333 23.4 48.9C21.4 47.5667 19.2333 46.2667 16.9 45C14.5667 43.6667 12.4 42.1667 10.4 40.5C8.4 38.8333 6.73333 36.9333 5.4 34.8C4.06667 32.6 3.4 29.9667 3.4 26.9C3.4 24.2333 3.76667 21.7667 4.5 19.5C5.3 17.1667 6.43333 15.1667 7.9 13.5C9.36667 11.8333 11.1667 10.5333 13.3 9.6C15.5 8.66667 18 8.2 20.8 8.2ZM70.2781 29.7C70.2781 28.7667 70.2781 27.8 70.2781 26.8C70.2781 25.8 70.4115 24.8667 70.6781 24C70.9448 23.1333 71.4115 22.4333 72.0781 21.9C72.7448 21.3 73.7781 21 75.1781 21C76.5781 21 77.6115 21.4 78.2781 22.2C78.9448 23 79.4115 23.9667 79.6781 25.1C79.9448 26.2333 80.0448 27.4333 79.9781 28.7C79.9781 29.9 79.9781 30.9667 79.9781 31.9C80.0448 34.2333 80.0781 36.8667 80.0781 39.8C80.0781 42.6667 80.0781 45.6 80.0781 48.6C80.0781 51.5333 80.0448 54.4667 79.9781 57.4C79.9781 60.2667 79.9781 62.8667 79.9781 65.2C79.9781 66.0667 79.9781 66.9667 79.9781 67.9C79.9781 68.8333 79.8448 69.7 79.5781 70.5C79.3115 71.2333 78.8781 71.8667 78.2781 72.4C77.6781 72.8667 76.8115 73.1 75.6781 73.1C74.2115 73.1 73.1448 72.8333 72.4781 72.3C71.8781 71.7 71.4781 71.0667 71.2781 70.4C71.0781 69.7333 70.9448 69.1333 70.8781 68.6C70.8781 68 70.6781 67.7 70.2781 67.7C70.0115 67.7 69.5781 68.0333 68.9781 68.7C68.3781 69.3 67.6115 69.9667 66.6781 70.7C65.7448 71.4333 64.6115 72.1333 63.2781 72.8C62.0115 73.4 60.4781 73.7 58.6781 73.7C55.6115 73.7 53.1781 72.8667 51.3781 71.2C49.5781 69.5333 48.2448 67.4667 47.3781 65C46.5115 62.5333 45.9448 59.9333 45.6781 57.2C45.4781 54.4667 45.3781 52 45.3781 49.8V45L45.2781 32.8V28C45.2781 27.1333 45.2781 26.3333 45.2781 25.6C45.2781 24.8 45.3781 24.1 45.5781 23.5C45.8448 22.9 46.2781 22.4333 46.8781 22.1C47.5448 21.7667 48.5115 21.6 49.7781 21.6C51.2448 21.6 52.3448 21.8333 53.0781 22.3C53.8115 22.7 54.3115 23.2667 54.5781 24C54.9115 24.7333 55.0781 25.5667 55.0781 26.5C55.1448 27.4333 55.1781 28.4 55.1781 29.4C55.1781 30.2 55.1781 31.2667 55.1781 32.6C55.1781 33.8667 55.1781 35.2333 55.1781 36.7C55.1781 38.1 55.1781 39.4667 55.1781 40.8C55.1781 42.0667 55.1781 43.1 55.1781 43.9C55.1781 45.0333 55.1448 46.6667 55.0781 48.8C55.0781 50.8667 55.2115 52.9667 55.4781 55.1C55.8115 57.1667 56.3781 59 57.1781 60.6C57.9781 62.1333 59.2115 62.9 60.8781 62.9C62.8781 62.9 64.4448 62.1 65.5781 60.5C66.7781 58.8333 67.6781 56.9 68.2781 54.7C68.8781 52.5 69.2448 50.2667 69.3781 48C69.5781 45.6667 69.7115 43.8333 69.7781 42.5L70.2781 29.7ZM121.734 53.5V62.2C121.734 63.3333 121.734 64.6 121.734 66C121.734 67.3333 121.634 68.6 121.434 69.8C121.234 71 120.834 72 120.234 72.8C119.7 73.6 118.867 74 117.734 74C116.534 74 115.634 73.7 115.034 73.1C114.434 72.5 113.967 71.8333 113.634 71.1C113.3 70.3 113.034 69.6 112.834 69C112.7 68.4 112.467 68.1 112.134 68.1C111.8 68.1 111.367 68.4 110.834 69C110.367 69.6 109.734 70.3 108.934 71.1C108.134 71.8333 107.167 72.5 106.034 73.1C104.9 73.7 103.534 74 101.934 74C96.0669 74 91.7336 71.5 88.9336 66.5C86.2003 61.5 84.8336 54.6 84.8336 45.8C84.8336 37.8667 86.1669 31.7667 88.8336 27.5C91.5003 23.1667 95.4336 21 100.634 21C102.1 21 103.367 21.2333 104.434 21.7C105.567 22.1 106.5 22.5667 107.234 23.1C108.034 23.6333 108.7 24.1333 109.234 24.6C109.767 25 110.2 25.2 110.534 25.2C111.2 25.2 111.534 22.9333 111.534 18.4C111.534 17.3333 111.5 16.2667 111.434 15.2C111.434 14.0667 111.434 13.0333 111.434 12.1C111.434 11.1 111.4 10.2333 111.334 9.49999C111.334 8.76666 111.334 8.26666 111.334 8C111.334 7.13333 111.334 6.23333 111.334 5.3C111.4 4.36666 111.567 3.53333 111.834 2.8C112.167 2.06666 112.667 1.46666 113.334 0.999997C114 0.466663 114.967 0.199996 116.234 0.199996C117.7 0.199996 118.767 0.43333 119.434 0.899998C120.167 1.3 120.634 1.86666 120.834 2.59999C121.1 3.33333 121.234 4.2 121.234 5.2C121.234 6.13333 121.267 7.13333 121.334 8.2C121.467 11.6 121.5 14.9667 121.434 18.3C121.434 21.6333 121.467 25 121.534 28.4L121.734 53.5ZM111.534 46.6C111.534 45.2667 111.4 43.7333 111.134 42C110.867 40.2 110.4 38.5 109.734 36.9C109.067 35.3 108.167 33.9667 107.034 32.9C105.9 31.7667 104.467 31.2 102.734 31.2C101.067 31.2 99.7003 31.8 98.6336 33C97.6336 34.1333 96.8336 35.5333 96.2336 37.2C95.6336 38.8 95.2003 40.5 94.9336 42.3C94.7336 44.0333 94.6336 45.5 94.6336 46.7C94.6336 47.7667 94.7336 49.3 94.9336 51.3C95.1336 53.2333 95.5003 55.1667 96.0336 57.1C96.5669 58.9667 97.3003 60.6333 98.2336 62.1C99.2336 63.5 100.5 64.2 102.034 64.2C103.767 64.2 105.2 63.6333 106.334 62.5C107.534 61.3 108.5 59.9 109.234 58.3C110.034 56.6333 110.6 54.9 110.934 53.1C111.267 51.2333 111.434 49.6333 111.434 48.3L111.534 46.6ZM126.123 47.8C126.123 43.8 126.557 40.1667 127.423 36.9C128.357 33.6333 129.623 30.8333 131.223 28.5C132.89 26.1667 134.857 24.3667 137.123 23.1C139.39 21.8333 141.923 21.2 144.723 21.2C147.523 21.2 150.057 21.8333 152.323 23.1C154.657 24.3667 156.657 26.1667 158.323 28.5C160.057 30.7667 161.39 33.5 162.323 36.7C163.257 39.9 163.723 43.4 163.723 47.2C163.723 51.0667 163.223 54.6333 162.223 57.9C161.29 61.1667 159.957 64 158.223 66.4C156.49 68.7333 154.423 70.5667 152.023 71.9C149.623 73.2333 147.023 73.9 144.223 73.9C141.557 73.9 139.09 73.2667 136.823 72C134.623 70.7333 132.723 68.9667 131.123 66.7C129.523 64.4333 128.29 61.7 127.423 58.5C126.557 55.2333 126.123 51.6667 126.123 47.8ZM136.323 47.2C136.323 52.4 137.023 56.5333 138.423 59.6C139.89 62.6667 141.823 64.2 144.223 64.2C145.557 64.2 146.757 63.7667 147.823 62.9C148.957 61.9667 149.957 60.7333 150.823 59.2C151.69 57.6 152.357 55.7333 152.823 53.6C153.29 51.4667 153.523 49.2 153.523 46.8C153.523 44.4 153.29 42.2 152.823 40.2C152.357 38.1333 151.69 36.3667 150.823 34.9C150.023 33.3667 149.057 32.1667 147.923 31.3C146.857 30.4333 145.69 30 144.423 30C141.957 30 139.99 31.5667 138.523 34.7C137.057 37.7667 136.323 41.9333 136.323 47.2ZM168.241 31.2C168.241 29.8667 168.241 28.2667 168.241 26.4C168.241 24.4667 168.241 22.5 168.241 20.5C168.308 18.5 168.341 16.5333 168.341 14.6C168.408 12.6667 168.441 11.0667 168.441 9.8C168.441 8.8 168.441 7.76666 168.441 6.7C168.441 5.56666 168.575 4.53333 168.841 3.6C169.108 2.6 169.608 1.79999 170.341 1.19999C171.075 0.533329 172.208 0.199996 173.741 0.199996C175.141 0.199996 176.141 0.499996 176.741 1.1C177.408 1.63333 177.841 2.33333 178.041 3.2C178.308 4 178.408 4.9 178.341 5.9C178.341 6.9 178.341 7.83333 178.341 8.7V25.9C178.341 28.9 178.441 31.3 178.641 33.1C178.841 34.8333 179.275 35.7 179.941 35.7C180.875 35.7 181.975 34.9333 183.241 33.4C184.575 31.8 185.941 30.0667 187.341 28.2C188.741 26.3333 190.108 24.6333 191.441 23.1C192.841 21.5 194.075 20.7 195.141 20.7C196.608 20.7 197.808 21.0667 198.741 21.8C199.741 22.4667 200.241 23.2 200.241 24C200.241 25.0667 199.641 26.5667 198.441 28.5C197.241 30.3667 195.908 32.3333 194.441 34.4C193.041 36.4 191.741 38.3333 190.541 40.2C189.341 42.0667 188.741 43.5 188.741 44.5C188.741 45.0333 189.075 45.9333 189.741 47.2C190.408 48.4 191.208 49.8 192.141 51.4C193.141 53 194.208 54.7333 195.341 56.6C196.475 58.4 197.508 60.1333 198.441 61.8C199.441 63.4667 200.275 65 200.941 66.4C201.608 67.8 201.941 68.9 201.941 69.7C201.941 71.2333 201.508 72.2333 200.641 72.7C199.775 73.1667 198.941 73.4 198.141 73.4C196.808 73.4 195.508 72.9 194.241 71.9C193.041 70.8333 191.875 69.5 190.741 67.9C189.608 66.3 188.541 64.6 187.541 62.8C186.541 61 185.575 59.3 184.641 57.7C183.775 56.1 182.975 54.8 182.241 53.8C181.508 52.7333 180.841 52.2 180.241 52.2C179.775 52.2 179.408 52.4667 179.141 53C178.941 53.4667 178.775 54.0333 178.641 54.7C178.575 55.3667 178.541 56 178.541 56.6C178.541 57.1333 178.541 57.5 178.541 57.7C178.541 59.4333 178.575 60.9333 178.641 62.2C178.775 63.4667 178.841 64.9667 178.841 66.7C178.841 67.5 178.808 68.3 178.741 69.1C178.675 69.8333 178.475 70.5 178.141 71.1C177.808 71.7 177.308 72.1667 176.641 72.5C175.975 72.8333 175.008 73 173.741 73C172.341 73 171.308 72.5667 170.641 71.7C169.975 70.8333 169.508 69.7667 169.241 68.5C168.975 67.2333 168.808 65.9333 168.741 64.6C168.741 63.2667 168.741 62.1 168.741 61.1C168.675 59.3667 168.608 57.1667 168.541 54.5C168.541 51.7667 168.508 49 168.441 46.2C168.375 43.3333 168.308 40.5667 168.241 37.9C168.241 35.1667 168.241 32.9333 168.241 31.2ZM229.946 29.7C229.946 28.7667 229.946 27.8 229.946 26.8C229.946 25.8 230.079 24.8667 230.346 24C230.613 23.1333 231.079 22.4333 231.746 21.9C232.413 21.3 233.446 21 234.846 21C236.246 21 237.279 21.4 237.946 22.2C238.613 23 239.079 23.9667 239.346 25.1C239.613 26.2333 239.713 27.4333 239.646 28.7C239.646 29.9 239.646 30.9667 239.646 31.9C239.713 34.2333 239.746 36.8667 239.746 39.8C239.746 42.6667 239.746 45.6 239.746 48.6C239.746 51.5333 239.713 54.4667 239.646 57.4C239.646 60.2667 239.646 62.8667 239.646 65.2C239.646 66.0667 239.646 66.9667 239.646 67.9C239.646 68.8333 239.513 69.7 239.246 70.5C238.979 71.2333 238.546 71.8667 237.946 72.4C237.346 72.8667 236.479 73.1 235.346 73.1C233.879 73.1 232.813 72.8333 232.146 72.3C231.546 71.7 231.146 71.0667 230.946 70.4C230.746 69.7333 230.613 69.1333 230.546 68.6C230.546 68 230.346 67.7 229.946 67.7C229.679 67.7 229.246 68.0333 228.646 68.7C228.046 69.3 227.279 69.9667 226.346 70.7C225.413 71.4333 224.279 72.1333 222.946 72.8C221.679 73.4 220.146 73.7 218.346 73.7C215.279 73.7 212.846 72.8667 211.046 71.2C209.246 69.5333 207.913 67.4667 207.046 65C206.179 62.5333 205.613 59.9333 205.346 57.2C205.146 54.4667 205.046 52 205.046 49.8V45L204.946 32.8V28C204.946 27.1333 204.946 26.3333 204.946 25.6C204.946 24.8 205.046 24.1 205.246 23.5C205.513 22.9 205.946 22.4333 206.546 22.1C207.213 21.7667 208.179 21.6 209.446 21.6C210.913 21.6 212.013 21.8333 212.746 22.3C213.479 22.7 213.979 23.2667 214.246 24C214.579 24.7333 214.746 25.5667 214.746 26.5C214.813 27.4333 214.846 28.4 214.846 29.4C214.846 30.2 214.846 31.2667 214.846 32.6C214.846 33.8667 214.846 35.2333 214.846 36.7C214.846 38.1 214.846 39.4667 214.846 40.8C214.846 42.0667 214.846 43.1 214.846 43.9C214.846 45.0333 214.813 46.6667 214.746 48.8C214.746 50.8667 214.879 52.9667 215.146 55.1C215.479 57.1667 216.046 59 216.846 60.6C217.646 62.1333 218.879 62.9 220.546 62.9C222.546 62.9 224.113 62.1 225.246 60.5C226.446 58.8333 227.346 56.9 227.946 54.7C228.546 52.5 228.913 50.2667 229.046 48C229.246 45.6667 229.379 43.8333 229.446 42.5L229.946 29.7Z" fill="black"/>
<path d="M8.364 113.82C8.364 110.916 8.34933 107.968 8.32 104.976C8.32 101.984 8.37867 99.036 8.496 96.132C8.52533 95.6333 8.54 95.032 8.54 94.328C8.56933 93.5947 8.65733 92.8907 8.804 92.216C8.95067 91.512 9.2 90.9253 9.552 90.456C9.93333 89.9573 10.476 89.708 11.18 89.708C11.708 89.708 12.1187 89.8253 12.412 90.06C12.7053 90.2947 12.9253 90.6027 13.072 90.984C13.2187 91.3653 13.3067 91.776 13.336 92.216C13.3653 92.6267 13.38 93.0373 13.38 93.448C13.38 94.1813 13.3507 94.9147 13.292 95.648C13.2627 96.3813 13.248 97.1293 13.248 97.892C13.248 98.4493 13.2773 99.0507 13.336 99.696C13.424 100.341 13.5853 100.943 13.82 101.5C14.0547 102.057 14.3773 102.512 14.788 102.864C15.228 103.216 15.8147 103.392 16.548 103.392C17.4867 103.392 18.2053 103.025 18.704 102.292C19.232 101.559 19.6133 100.693 19.848 99.696C20.0827 98.6693 20.2147 97.6133 20.244 96.528C20.3027 95.4133 20.332 94.4893 20.332 93.756C20.332 93.2867 20.3467 92.832 20.376 92.392C20.4053 91.9227 20.4933 91.512 20.64 91.16C20.816 90.7787 21.08 90.4853 21.432 90.28C21.784 90.0453 22.268 89.928 22.884 89.928C23.5 89.928 23.94 90.1333 24.204 90.544C24.4973 90.9253 24.7027 91.3947 24.82 91.952C24.9373 92.5093 24.9813 93.0813 24.952 93.668C24.952 94.2547 24.952 94.724 24.952 95.076L24.996 111.62C24.996 112.031 25.0107 112.603 25.04 113.336C25.0693 114.069 25.04 114.788 24.952 115.492C24.864 116.196 24.6733 116.812 24.38 117.34C24.116 117.839 23.6613 118.088 23.016 118.088C22.312 118.088 21.784 117.897 21.432 117.516C21.1093 117.135 20.8747 116.651 20.728 116.064C20.6107 115.448 20.5373 114.773 20.508 114.04C20.508 113.277 20.4933 112.529 20.464 111.796C20.4347 111.239 20.3613 110.711 20.244 110.212C20.156 109.684 19.98 109.229 19.716 108.848C19.452 108.437 19.0853 108.115 18.616 107.88C18.1467 107.645 17.5453 107.528 16.812 107.528C16.02 107.528 15.3747 107.645 14.876 107.88C14.3773 108.115 13.9813 108.437 13.688 108.848C13.424 109.259 13.2333 109.728 13.116 110.256C13.028 110.755 12.9987 111.297 13.028 111.884C13.0573 112.647 13.072 113.395 13.072 114.128C13.072 114.832 12.9987 115.477 12.852 116.064C12.7347 116.621 12.4853 117.076 12.104 117.428C11.752 117.78 11.2093 117.956 10.476 117.956C9.91867 117.956 9.49333 117.824 9.2 117.56C8.90667 117.267 8.70133 116.915 8.584 116.504C8.46667 116.093 8.39333 115.653 8.364 115.184C8.364 114.685 8.364 114.231 8.364 113.82ZM38.8288 112.852C38.8288 111.62 39.0635 110.564 39.5328 109.684C40.0315 108.804 40.6328 108.041 41.3368 107.396C42.0408 106.751 42.8182 106.193 43.6688 105.724C44.5195 105.225 45.2968 104.756 46.0008 104.316C46.7048 103.847 47.2915 103.392 47.7608 102.952C48.2595 102.483 48.5088 101.94 48.5088 101.324C48.5088 100.737 48.3035 100.195 47.8928 99.696C47.4822 99.1973 46.9835 98.948 46.3968 98.948C45.7808 98.948 45.2822 99.124 44.9008 99.476C44.5195 99.7987 44.1822 100.18 43.8888 100.62C43.6248 101.031 43.3608 101.412 43.0968 101.764C42.8328 102.087 42.5102 102.248 42.1288 102.248C41.5422 102.248 41.0288 102.057 40.5888 101.676C40.1488 101.295 39.9288 100.811 39.9288 100.224C39.9288 99.4613 40.1488 98.772 40.5888 98.156C41.0582 97.54 41.6448 96.9973 42.3488 96.528C43.0528 96.0587 43.8155 95.7067 44.6368 95.472C45.4582 95.208 46.2208 95.076 46.9248 95.076C48.3328 95.076 49.4328 95.3547 50.2248 95.912C51.0462 96.44 51.6622 97.144 52.0728 98.024C52.5128 98.904 52.7915 99.9013 52.9088 101.016C53.0262 102.101 53.0848 103.216 53.0848 104.36V106.56L52.9968 110.828V113.028C52.9968 113.556 53.0115 114.128 53.0408 114.744C53.0702 115.36 53.0555 115.932 52.9968 116.46C52.9382 116.959 52.7915 117.384 52.5568 117.736C52.3222 118.088 51.9555 118.264 51.4568 118.264C50.8995 118.264 50.4742 118.161 50.1808 117.956C49.8875 117.751 49.6528 117.531 49.4768 117.296C49.3302 117.032 49.2128 116.797 49.1248 116.592C49.0662 116.387 48.9488 116.284 48.7728 116.284C48.5968 116.284 48.3622 116.387 48.0688 116.592C47.8048 116.797 47.4675 117.032 47.0568 117.296C46.6755 117.56 46.2208 117.795 45.6928 118C45.1942 118.205 44.6368 118.308 44.0208 118.308C43.2288 118.308 42.5102 118.161 41.8648 117.868C41.2195 117.545 40.6622 117.135 40.1928 116.636C39.7528 116.137 39.4155 115.565 39.1808 114.92C38.9462 114.245 38.8288 113.556 38.8288 112.852ZM43.0528 112.06C43.0528 112.793 43.2728 113.336 43.7128 113.688C44.1822 114.011 44.7542 114.172 45.4288 114.172C46.1035 114.172 46.6462 114.04 47.0568 113.776C47.4968 113.483 47.8342 113.101 48.0688 112.632C48.3328 112.163 48.5088 111.649 48.5968 111.092C48.7142 110.505 48.7728 109.933 48.7728 109.376C48.7728 108.965 48.6995 108.599 48.5528 108.276C48.4062 107.953 48.0835 107.792 47.5848 107.792C47.1448 107.792 46.6608 107.924 46.1328 108.188C45.6048 108.452 45.1062 108.804 44.6368 109.244C44.1968 109.655 43.8155 110.109 43.4928 110.608C43.1995 111.107 43.0528 111.591 43.0528 112.06ZM72.4101 89.18C72.7328 89.18 72.9088 89.3267 72.9381 89.62C72.9968 89.884 73.0261 90.1333 73.0261 90.368V90.896L72.9381 91.996V92.524C72.9381 93.052 72.9381 93.5067 72.9381 93.888C72.9381 94.2693 72.9821 94.5773 73.0701 94.812C73.1581 95.0467 73.3048 95.2227 73.5101 95.34C73.7448 95.428 74.0821 95.472 74.5221 95.472C74.9328 95.472 75.3288 95.4573 75.7101 95.428C76.1208 95.3693 76.4875 95.384 76.8101 95.472C77.1328 95.5307 77.3968 95.6773 77.6021 95.912C77.8075 96.1467 77.9101 96.5427 77.9101 97.1C77.9101 97.8627 77.7635 98.3907 77.4701 98.684C77.1768 98.9773 76.6341 99.124 75.8421 99.124H73.7301C73.3195 99.124 73.0848 99.608 73.0261 100.576C72.9675 101.544 72.9381 102.835 72.9381 104.448V105.592L72.8941 107.836V108.98C72.8941 109.361 72.8941 109.86 72.8941 110.476C72.9235 111.063 72.9968 111.649 73.1141 112.236C73.2608 112.793 73.4808 113.277 73.7741 113.688C74.0968 114.069 74.5515 114.26 75.1381 114.26C75.5488 114.26 75.9155 114.187 76.2381 114.04C76.5608 113.864 76.8541 113.688 77.1181 113.512C77.3821 113.336 77.6315 113.175 77.8661 113.028C78.1301 112.852 78.3795 112.764 78.6141 112.764C78.9368 112.764 79.1128 112.925 79.1421 113.248C79.2008 113.541 79.2301 113.805 79.2301 114.04C79.2301 114.685 79.0541 115.287 78.7021 115.844C78.3795 116.401 77.9541 116.885 77.4261 117.296C76.8981 117.677 76.3115 117.971 75.6661 118.176C75.0501 118.411 74.4341 118.528 73.8181 118.528C72.7621 118.528 71.8968 118.22 71.2221 117.604C70.5475 116.988 70.0195 116.196 69.6381 115.228C69.2861 114.231 69.0368 113.116 68.8901 111.884C68.7435 110.652 68.6555 109.42 68.6261 108.188C68.5968 106.956 68.5968 105.783 68.6261 104.668C68.6848 103.553 68.7141 102.615 68.7141 101.852C68.7141 100.855 68.6848 100.18 68.6261 99.828C68.5968 99.476 68.3768 99.3 67.9661 99.3C67.8195 99.3 67.6581 99.2853 67.4821 99.256C67.3355 99.2267 67.1888 99.1387 67.0421 98.992C66.9248 98.8453 66.8221 98.64 66.7341 98.376C66.6461 98.0827 66.6021 97.6867 66.6021 97.188C66.6021 96.7187 66.6461 96.3667 66.7341 96.132C66.8221 95.868 66.9395 95.692 67.0861 95.604C67.2621 95.4867 67.4381 95.428 67.6141 95.428C67.7901 95.3987 67.9661 95.384 68.1421 95.384C68.6115 95.384 68.8755 95.2813 68.9341 95.076C69.0221 94.8413 69.0661 94.3573 69.0661 93.624C69.0661 93.5067 69.0661 93.3453 69.0661 93.14C69.0661 92.9347 69.0515 92.7293 69.0221 92.524C69.0221 92.2893 69.0221 92.0693 69.0221 91.864C69.0221 91.6293 69.0221 91.4533 69.0221 91.336C69.0221 90.984 69.1248 90.676 69.3301 90.412C69.5648 90.1187 69.8435 89.884 70.1661 89.708C70.5181 89.532 70.8848 89.4 71.2661 89.312C71.6768 89.224 72.0581 89.18 72.4101 89.18ZM100.205 94.768C100.968 94.768 101.701 94.9587 102.405 95.34C103.139 95.7213 103.784 96.22 104.341 96.836C104.899 97.4227 105.353 98.0827 105.705 98.816C106.057 99.5493 106.233 100.283 106.233 101.016C106.233 101.603 106.057 102.101 105.705 102.512C105.353 102.893 104.869 103.084 104.253 103.084C103.843 103.084 103.505 102.864 103.241 102.424C103.007 101.984 102.757 101.5 102.493 100.972C102.229 100.444 101.921 99.96 101.569 99.52C101.247 99.08 100.792 98.86 100.205 98.86C99.6774 98.86 99.1787 99.0653 98.7094 99.476C98.2401 99.8867 97.8294 100.459 97.4774 101.192C97.1254 101.925 96.8467 102.791 96.6414 103.788C96.4654 104.785 96.3774 105.871 96.3774 107.044C96.3774 108.217 96.4214 109.288 96.5094 110.256C96.6267 111.224 96.8174 112.06 97.0814 112.764C97.3454 113.439 97.6974 113.967 98.1374 114.348C98.5774 114.729 99.1347 114.92 99.8094 114.92C100.601 114.92 101.232 114.627 101.701 114.04C102.2 113.453 102.611 112.808 102.933 112.104C103.285 111.4 103.593 110.755 103.857 110.168C104.151 109.581 104.488 109.288 104.869 109.288C106.277 109.288 106.981 109.889 106.981 111.092C106.981 111.972 106.776 112.867 106.365 113.776C105.955 114.656 105.412 115.463 104.737 116.196C104.092 116.9 103.329 117.487 102.449 117.956C101.599 118.396 100.719 118.616 99.8094 118.616C96.9934 118.616 94.9841 117.604 93.7814 115.58C92.5787 113.556 91.9774 110.681 91.9774 106.956C91.9774 105.079 92.1534 103.392 92.5054 101.896C92.8574 100.4 93.3707 99.124 94.0454 98.068C94.7494 97.012 95.6147 96.2053 96.6414 95.648C97.6681 95.0613 98.8561 94.768 100.205 94.768ZM128.902 99.828C127.992 99.828 127.274 100.121 126.746 100.708C126.247 101.295 125.866 102.013 125.602 102.864C125.338 103.685 125.176 104.551 125.118 105.46C125.059 106.369 125.03 107.147 125.03 107.792L125.118 111.092V112.676C125.118 113.145 125.132 113.688 125.162 114.304C125.191 114.92 125.147 115.507 125.03 116.064C124.912 116.592 124.692 117.047 124.37 117.428C124.047 117.78 123.534 117.956 122.83 117.956C122.243 117.956 121.803 117.736 121.51 117.296C121.216 116.827 121.011 116.299 120.894 115.712C120.806 115.096 120.762 114.48 120.762 113.864C120.762 113.219 120.762 112.705 120.762 112.324C120.732 111.532 120.703 110.388 120.674 108.892C120.644 107.396 120.615 105.841 120.586 104.228C120.556 102.585 120.527 101.016 120.498 99.52C120.498 98.024 120.498 96.88 120.498 96.088C120.498 95.2373 120.498 94.3867 120.498 93.536C120.527 92.6853 120.556 91.8347 120.586 90.984C120.586 90.5147 120.6 90.0013 120.63 89.444C120.659 88.8573 120.747 88.3147 120.894 87.816C121.04 87.288 121.275 86.848 121.598 86.496C121.92 86.144 122.404 85.968 123.05 85.968C123.607 85.968 124.018 86.1147 124.282 86.408C124.546 86.7013 124.722 87.068 124.81 87.508C124.927 87.948 124.986 88.4173 124.986 88.916C124.986 89.4147 124.986 89.8547 124.986 90.236C124.986 90.4707 124.971 90.9547 124.942 91.688C124.912 92.392 124.898 93.14 124.898 93.932C124.898 94.6947 124.942 95.384 125.03 96C125.118 96.616 125.279 96.924 125.514 96.924C125.719 96.924 125.939 96.836 126.174 96.66C126.438 96.4547 126.746 96.2493 127.098 96.044C127.45 95.8093 127.86 95.604 128.33 95.428C128.799 95.2227 129.356 95.12 130.002 95.12C131.38 95.12 132.466 95.5307 133.258 96.352C134.05 97.1733 134.651 98.2 135.062 99.432C135.472 100.635 135.736 101.94 135.854 103.348C135.971 104.756 136.03 106.032 136.03 107.176V108.672L136.118 111.708V113.248C136.118 113.629 136.103 114.099 136.074 114.656C136.074 115.184 136 115.712 135.854 116.24C135.736 116.739 135.516 117.164 135.194 117.516C134.9 117.868 134.475 118.044 133.918 118.044C133.272 118.044 132.803 117.839 132.51 117.428C132.216 116.988 132.011 116.46 131.894 115.844C131.806 115.228 131.762 114.597 131.762 113.952C131.791 113.307 131.806 112.764 131.806 112.324C131.776 111.473 131.747 110.623 131.718 109.772C131.718 108.892 131.718 108.027 131.718 107.176C131.718 106.677 131.703 106.017 131.674 105.196C131.674 104.345 131.586 103.524 131.41 102.732C131.263 101.94 130.999 101.265 130.618 100.708C130.236 100.121 129.664 99.828 128.902 99.828ZM150.092 99.608C150.092 97.9653 150.077 96.352 150.048 94.768C150.048 93.1547 150.063 91.5267 150.092 89.884C150.092 89.4147 150.107 88.9453 150.136 88.476C150.165 88.0067 150.253 87.596 150.4 87.244C150.547 86.8627 150.781 86.5547 151.104 86.32C151.427 86.0853 151.911 85.968 152.556 85.968C152.967 85.968 153.289 86.0707 153.524 86.276C153.759 86.4813 153.935 86.7453 154.052 87.068C154.169 87.3613 154.243 87.684 154.272 88.036C154.301 88.388 154.316 88.7253 154.316 89.048V94.768L154.272 106.12V111.84C154.272 112.661 154.331 113.219 154.448 113.512C154.565 113.805 154.697 114.04 154.844 114.216C155.02 114.363 155.167 114.539 155.284 114.744C155.401 114.92 155.46 115.301 155.46 115.888C155.46 116.328 155.372 116.797 155.196 117.296C155.02 117.765 154.653 118 154.096 118C152.571 118 151.515 117.589 150.928 116.768C150.371 115.947 150.092 114.847 150.092 113.468V99.608ZM168.974 89.928C168.974 89.1947 169.209 88.5347 169.678 87.948C170.147 87.3613 170.778 87.068 171.57 87.068C172.333 87.068 172.949 87.3613 173.418 87.948C173.917 88.5347 174.166 89.1947 174.166 89.928C174.166 90.6613 173.917 91.3213 173.418 91.908C172.949 92.4653 172.333 92.744 171.57 92.744C170.807 92.744 170.177 92.4653 169.678 91.908C169.209 91.3213 168.974 90.6613 168.974 89.928ZM171.922 117.956C171.277 117.956 170.778 117.795 170.426 117.472C170.074 117.12 169.81 116.709 169.634 116.24C169.487 115.741 169.399 115.228 169.37 114.7C169.341 114.172 169.311 113.717 169.282 113.336C169.253 112.955 169.223 112.221 169.194 111.136C169.194 110.021 169.179 108.789 169.15 107.44C169.15 106.091 169.15 104.727 169.15 103.348C169.15 101.969 169.15 100.825 169.15 99.916C169.15 99.4467 169.165 98.948 169.194 98.42C169.223 97.892 169.311 97.408 169.458 96.968C169.634 96.4987 169.883 96.1173 170.206 95.824C170.529 95.5307 170.983 95.384 171.57 95.384C172.421 95.384 172.993 95.5747 173.286 95.956C173.579 96.3373 173.726 96.9533 173.726 97.804V101.72L173.682 110.476V114.392C173.682 114.715 173.667 115.081 173.638 115.492C173.638 115.903 173.579 116.299 173.462 116.68C173.374 117.032 173.198 117.34 172.934 117.604C172.699 117.839 172.362 117.956 171.922 117.956ZM192.555 115.36C192.555 115.771 192.555 116.137 192.555 116.46C192.555 116.783 192.496 117.061 192.379 117.296C192.291 117.501 192.129 117.663 191.895 117.78C191.66 117.897 191.308 117.956 190.839 117.956C190.193 117.956 189.695 117.839 189.343 117.604C188.991 117.369 188.727 117.076 188.551 116.724C188.404 116.343 188.316 115.932 188.287 115.492C188.257 115.052 188.228 114.641 188.199 114.26C188.199 113.996 188.184 113.483 188.155 112.72C188.155 111.928 188.14 111.019 188.111 109.992C188.111 108.936 188.111 107.821 188.111 106.648C188.111 105.475 188.096 104.375 188.067 103.348C188.067 102.292 188.067 101.383 188.067 100.62C188.067 99.828 188.067 99.3 188.067 99.036C188.067 98.7133 188.067 98.3467 188.067 97.936C188.067 97.496 188.125 97.0853 188.243 96.704C188.389 96.2933 188.609 95.956 188.903 95.692C189.196 95.428 189.636 95.296 190.223 95.296C190.809 95.296 191.22 95.3987 191.455 95.604C191.689 95.78 191.851 96 191.939 96.264C192.056 96.4987 192.144 96.7187 192.203 96.924C192.261 97.1 192.393 97.188 192.599 97.188C192.804 97.188 193.039 97.0853 193.303 96.88C193.567 96.6453 193.889 96.4107 194.271 96.176C194.652 95.912 195.107 95.6773 195.635 95.472C196.192 95.2373 196.867 95.12 197.659 95.12C198.92 95.12 199.947 95.3693 200.739 95.868C201.56 96.3667 202.191 97.0707 202.631 97.98C203.1 98.8893 203.423 99.9893 203.599 101.28C203.775 102.541 203.863 103.949 203.863 105.504C203.863 106.677 203.863 107.909 203.863 109.2C203.863 110.491 203.848 111.84 203.819 113.248C203.819 113.629 203.819 114.099 203.819 114.656C203.819 115.184 203.76 115.697 203.643 116.196C203.525 116.695 203.32 117.12 203.027 117.472C202.763 117.824 202.352 118 201.795 118C201.149 118 200.665 117.795 200.343 117.384C200.049 116.944 199.829 116.431 199.683 115.844C199.565 115.228 199.507 114.597 199.507 113.952C199.507 113.307 199.507 112.764 199.507 112.324C199.477 111.473 199.448 110.623 199.419 109.772C199.419 108.892 199.419 108.027 199.419 107.176C199.419 106.677 199.404 106.017 199.375 105.196C199.375 104.345 199.287 103.524 199.111 102.732C198.964 101.94 198.7 101.265 198.319 100.708C197.937 100.121 197.365 99.828 196.603 99.828C195.107 99.828 194.051 100.444 193.435 101.676C192.848 102.879 192.555 104.536 192.555 106.648V115.36ZM225.435 95.12C226.461 95.12 227.253 95.2373 227.811 95.472C228.397 95.7067 228.852 95.9707 229.175 96.264C229.497 96.5573 229.717 96.8213 229.835 97.056C229.981 97.2907 230.128 97.408 230.275 97.408C230.421 97.408 230.509 97.3053 230.539 97.1C230.597 96.8653 230.671 96.616 230.759 96.352C230.876 96.0587 231.067 95.8093 231.331 95.604C231.624 95.3693 232.064 95.252 232.651 95.252C233.179 95.252 233.575 95.604 233.839 96.308C234.103 96.9827 234.293 97.7747 234.411 98.684C234.528 99.5933 234.587 100.503 234.587 101.412C234.616 102.292 234.631 102.937 234.631 103.348V113.952C234.631 116.064 234.572 118.117 234.455 120.112C234.337 122.136 234.015 123.925 233.487 125.48C232.988 127.064 232.196 128.325 231.111 129.264C230.055 130.203 228.559 130.672 226.623 130.672C225.625 130.672 224.745 130.467 223.983 130.056C223.22 129.645 222.575 129.103 222.047 128.428C221.519 127.753 221.108 126.976 220.815 126.096C220.551 125.245 220.419 124.365 220.419 123.456C220.419 123.192 220.448 122.913 220.507 122.62C220.595 122.356 220.697 122.107 220.815 121.872C220.961 121.637 221.152 121.432 221.387 121.256C221.621 121.109 221.885 121.036 222.179 121.036C222.736 121.036 223.161 121.08 223.455 121.168C223.777 121.285 224.012 121.461 224.159 121.696C224.335 121.96 224.437 122.268 224.467 122.62C224.525 123.001 224.555 123.456 224.555 123.984C224.555 124.6 224.716 125.216 225.039 125.832C225.391 126.477 225.933 126.8 226.667 126.8C227.664 126.8 228.412 126.448 228.911 125.744C229.439 125.04 229.805 124.204 230.011 123.236C230.245 122.297 230.363 121.329 230.363 120.332C230.392 119.364 230.407 118.587 230.407 118C230.407 117.795 230.363 117.531 230.275 117.208C230.216 116.885 230.084 116.724 229.879 116.724C229.761 116.724 229.571 116.841 229.307 117.076C229.072 117.281 228.764 117.516 228.383 117.78C228.031 118.015 227.605 118.235 227.107 118.44C226.608 118.675 226.021 118.792 225.347 118.792C223.733 118.792 222.428 118.44 221.431 117.736C220.433 117.003 219.641 116.064 219.055 114.92C218.497 113.776 218.116 112.485 217.911 111.048C217.705 109.581 217.603 108.1 217.603 106.604C217.603 105.108 217.749 103.671 218.043 102.292C218.336 100.913 218.805 99.696 219.451 98.64C220.096 97.584 220.903 96.7333 221.871 96.088C222.868 95.4427 224.056 95.12 225.435 95.12ZM225.655 114.612C226.388 114.612 227.033 114.333 227.591 113.776C228.148 113.219 228.617 112.544 228.999 111.752C229.38 110.96 229.659 110.139 229.835 109.288C230.04 108.437 230.143 107.719 230.143 107.132L230.187 106.384C230.187 105.768 230.113 105.093 229.967 104.36C229.82 103.597 229.585 102.879 229.263 102.204C228.94 101.529 228.515 100.972 227.987 100.532C227.459 100.063 226.813 99.828 226.051 99.828C225.317 99.828 224.687 100.048 224.159 100.488C223.66 100.899 223.235 101.456 222.883 102.16C222.56 102.835 222.311 103.612 222.135 104.492C221.988 105.372 221.915 106.267 221.915 107.176C221.915 108.085 221.973 108.995 222.091 109.904C222.237 110.784 222.457 111.576 222.751 112.28C223.044 112.984 223.425 113.556 223.895 113.996C224.364 114.407 224.951 114.612 225.655 114.612Z" fill="black"/>
</svg>
