<svg width="89" height="16" viewBox="0 0 89 16" fill="none" xmlns="http://www.w3.org/2000/svg">
<path d="M4.8203 4.62351V3.2463L5.11542 1.96745L6.39426 0.885356L7.6731 0.393494H9.54218L11.2145 1.47559L11.8047 3.2463L11.2145 5.31212L12.4934 4.91863H13.3787L14.6575 5.31212L16.0348 6.39421V8.16492L15.051 10.2307L12.9852 11.2145L11.2145 10.9193V13.2803L10.2308 14.8542L8.7552 15.7396L6.00077 14.8542L4.8203 13.2803L5.11542 10.9193L3.63983 11.2145L1.86913 10.9193L0.688656 9.64051L0.295166 7.8698L0.688656 5.80398L2.26262 4.62351H3.63983H4.8203Z" fill="white"/>
<ellipse cx="8.16488" cy="8.06657" rx="2.45931" ry="2.36094" fill="#F8BA00"/>
<path d="M16.3399 7.7875C16.3182 7.40384 16.2435 6.98674 16.0684 6.52636C15.9621 6.24305 15.8165 5.97548 15.6237 5.75119C15.3463 5.43836 15 5.15505 14.6184 4.97011C14.1481 4.74779 13.6582 4.55694 13.2569 4.55301L12.8713 4.56481C12.6017 4.58055 12.3538 4.64351 12.0823 4.79304C12.0154 4.83042 11.9525 4.86781 11.8895 4.90715L11.919 4.83632C11.9643 4.71631 12.0056 4.59039 12.0174 4.46054C12.0312 4.31692 12.0134 4.21067 12.0115 4.13984L12.0272 3.75423L12.0213 3.36074C12.0213 3.12661 12.0233 2.8433 11.98 2.5777C11.8934 2.0819 11.6593 1.57036 11.2206 1.18277C10.9924 0.982089 10.7464 0.736161 10.4454 0.564992C10.0834 0.356443 9.64662 0.12035 9.12918 0.0377175C8.80061 -0.0173711 8.47795 -0.00753388 8.0943 0.0377175C7.76573 0.0770664 7.47455 0.147893 7.21091 0.232493C6.98859 0.301354 6.7584 0.391855 6.54591 0.513837C6.14062 0.744028 5.78058 1.05489 5.4284 1.36575C5.05459 1.69234 4.77718 2.09173 4.63945 2.58163C4.56076 2.85904 4.56075 3.08923 4.56272 3.28794C4.56469 3.50436 4.59026 3.72865 4.63158 3.91556L4.72995 4.42513C4.72995 4.42513 4.73389 4.4389 4.73586 4.44677C4.72602 4.44087 4.71618 4.43496 4.70634 4.42906C4.52927 4.34052 4.31285 4.29528 4.04528 4.26183L3.62424 4.20871C3.32716 4.18313 3.11468 4.18707 2.88842 4.22248C2.70545 4.25593 2.44575 4.31888 2.15456 4.44874C1.98733 4.52153 1.8201 4.61007 1.67254 4.69073C1.10001 5.00159 0.643563 5.38131 0.358283 5.88498C0.212691 6.14468 0.10645 6.42406 0.051361 6.73098C0.0100445 6.97101 -0.00176209 7.16972 0.000205361 7.37433L0.0041441 8.18689C0.008079 8.40724 0.0415232 8.61579 0.112351 8.8027C0.187114 9.00732 0.318932 9.25325 0.442881 9.48344C0.537319 9.66248 0.627828 9.82184 0.732103 9.96547L1.05869 10.4534C1.20232 10.6797 1.34595 10.8213 1.50531 10.9236C1.67254 11.0279 1.83584 11.1282 2.01684 11.203C2.11128 11.2423 2.20769 11.2718 2.30606 11.2915L2.45755 11.3112L2.55002 11.321C2.68184 11.3545 2.73299 11.3919 2.86481 11.4174L3.4393 11.5138C3.66556 11.5394 3.86428 11.506 4.03348 11.4529L4.42894 11.325L4.67881 11.2718L4.78307 11.2463L4.84406 11.2364L4.88145 11.2325C4.75946 11.5414 4.68076 11.8444 4.66896 12.1729L4.63749 13.1291C4.63749 13.4282 4.68274 13.7076 4.8362 13.981C4.95818 14.1994 5.08016 14.4375 5.26116 14.6618C5.40085 14.831 5.56219 14.9451 5.72155 15.0415C5.95371 15.1753 6.23112 15.3523 6.54197 15.5156C6.70527 15.6042 6.87645 15.6888 7.06532 15.7596C7.44504 15.9052 7.84049 15.9563 8.18086 15.9819C8.33236 15.9937 8.49958 16.0114 8.70223 15.9898C9.03079 15.9426 9.35739 15.8009 9.65251 15.6612C10.048 15.4783 10.3608 15.2736 10.5752 14.9903C10.7208 14.8015 10.8369 14.585 10.9491 14.3607C11.1399 13.9712 11.2973 13.6702 11.4193 13.3534C11.5098 13.1272 11.5413 12.895 11.5531 12.6589C11.5649 12.4051 11.5728 12.1474 11.5295 11.8896C11.496 11.6988 11.4527 11.5552 11.4055 11.4371L11.3347 11.2837L11.3662 11.2974L11.5373 11.3702L11.681 11.4155L11.9544 11.4942C12.1236 11.5394 12.3066 11.5689 12.5289 11.567H12.6745L12.7453 11.563L12.8142 11.5591L12.95 11.5532C13.1034 11.5512 13.2785 11.5296 13.4733 11.4725C13.7468 11.386 14.0655 11.2699 14.339 11.0987C14.6931 10.8941 15.0807 10.658 15.3975 10.3117L15.787 9.85529C15.9621 9.62706 16.1057 9.34178 16.21 8.99354C16.334 8.56464 16.3615 8.13574 16.3418 7.79734L16.3399 7.7875ZM5.17263 2.72328C5.2769 2.33766 5.47759 2.04058 5.78451 1.7671C6.13078 1.46215 6.46721 1.17883 6.81348 0.980121C6.98268 0.883716 7.17943 0.805018 7.37028 0.745994C7.6103 0.673199 7.86804 0.614178 8.15726 0.582699C8.51336 0.54335 8.77306 0.537447 9.0367 0.582699C9.44199 0.653527 9.81384 0.85224 10.1562 1.05685C10.3687 1.18277 10.5949 1.40509 10.829 1.61954C11.1497 1.90876 11.3229 2.29045 11.3898 2.68197C11.4232 2.87281 11.4291 3.13252 11.4311 3.36468L11.4468 3.768L11.4626 4.13984L11.4744 4.41726L11.4114 4.65138L11.3052 4.91699L11.2796 4.98388L11.2402 5.06062L11.1793 5.17866L11.0632 5.35179L10.9943 5.43443L10.9215 5.54461L10.8546 5.65085L10.7641 5.78267L10.7071 5.84366L10.6264 5.92432C10.593 5.96367 10.5379 6.0286 10.4946 6.10533L10.3942 6.26666L10.3824 6.28437C10.3057 6.1978 10.2172 6.11123 10.1031 6.04237L10.044 6.00499L9.80598 5.89088L9.67612 5.8476L9.48725 5.78464C9.17246 5.67446 8.86554 5.65872 8.56255 5.65675L8.08249 5.65085C7.96248 5.64692 7.82475 5.64101 7.68112 5.66069L7.60637 5.66856L7.53947 5.67839L7.48242 5.6902L7.42733 5.702L7.36634 5.71774L7.31518 5.73348L7.27583 5.74725L7.23649 5.76103L7.19123 5.77873L7.1637 5.79054L7.12434 5.80824L7.0968 5.82202L7.06728 5.83579L7.0299 5.85546L6.99056 5.87908L6.93153 5.92039L6.90792 5.94007C6.89611 5.9499 6.88825 5.96367 6.87841 5.97548C6.85284 5.98532 6.82922 5.99515 6.80168 6.00696C6.62658 6.09746 6.45934 6.18993 6.30785 6.30994V6.30601L6.23702 6.186L6.11701 6.00302L5.89861 5.69413L5.79828 5.55444L5.74122 5.47181C5.62711 5.29868 5.57203 5.16292 5.5012 4.97798C5.4225 4.7832 5.33396 4.53137 5.28477 4.29527L5.17656 3.78768C5.14312 3.64405 5.11951 3.44731 5.11557 3.2722C5.10967 3.07939 5.10573 2.92987 5.16082 2.72525L5.17263 2.72328ZM10.2172 9.0388L10.2073 9.06044L10.1345 9.18439L10.0794 9.26702L9.99288 9.39097C9.93385 9.4795 9.86894 9.56017 9.78237 9.64477L9.70564 9.7156L9.60923 9.78643L9.4656 9.88283L9.34756 9.95759L9.17442 10.0619L8.99932 10.1425L8.90291 10.174C8.82422 10.1898 8.74158 10.1878 8.63337 10.1799L8.28907 10.1484C8.11003 10.1366 7.92902 10.113 7.76769 10.0697L7.17943 9.91038L7.08696 9.8789L6.94333 9.8002L6.85873 9.75298L6.78594 9.70379L6.68953 9.61526L6.60493 9.53066L6.45147 9.35555L6.33933 9.25325C6.26457 9.18636 6.22719 9.14701 6.18981 9.08208L6.11701 8.93649C6.04225 8.8086 5.99109 8.65711 5.96354 8.50168L5.95568 8.18296C5.95568 7.99802 5.96945 7.86029 6.03831 7.7206L6.18587 7.39007L6.20948 7.33892L6.29407 7.19529L6.54394 6.83328C6.65609 6.68769 6.82332 6.56965 7.06728 6.42209L7.07713 6.41618C7.10467 6.41618 7.13024 6.42012 7.15582 6.41422L7.21878 6.39848L7.25616 6.38471L7.29157 6.37094L7.31518 6.3611L7.33682 6.35323L7.37028 6.34142L7.38995 6.33356L7.41158 6.32568L7.43913 6.31585L7.45094 6.31191L7.49619 6.30011L7.52767 6.29223L7.56505 6.2824L7.60637 6.27256L7.66145 6.26272L7.72638 6.24895L7.76966 6.23715C7.8582 6.21944 7.96247 6.21747 8.07855 6.21354L8.56058 6.21748C8.84586 6.21748 9.07998 6.23518 9.30821 6.31388L9.53644 6.38274L9.62693 6.40831L9.7981 6.47914L9.84336 6.50078C9.92206 6.54013 10.0204 6.63064 10.0972 6.71524C10.1759 6.81361 10.2427 6.89428 10.3175 7.08118L10.3864 7.26415L10.4218 7.36253C10.4415 7.42745 10.4434 7.53173 10.4454 7.66945V7.99211C10.4375 8.19476 10.41 8.40724 10.3765 8.56661C10.3431 8.71416 10.3057 8.85582 10.2152 9.03683L10.2172 9.0388ZM4.77324 10.7367L4.68864 10.7505L4.56666 10.7721L4.30892 10.8134C4.15743 10.8449 4.02954 10.8961 3.88592 10.9374C3.76197 10.9728 3.64982 10.9866 3.50029 10.9649L2.95924 10.8685C2.9376 10.8646 2.85498 10.8252 2.68184 10.782L2.51264 10.7544L2.39656 10.7426L2.22145 10.6954C2.0857 10.6403 1.94995 10.5577 1.78862 10.4573C1.68041 10.3904 1.62532 10.3412 1.50531 10.1543L1.15117 9.64084C1.06854 9.53263 0.987864 9.39687 0.897362 9.22964C0.77538 9.00142 0.649469 8.75942 0.596348 8.61383C0.549129 8.48594 0.525521 8.33839 0.523554 8.16525V7.36253C0.527489 7.17759 0.539289 7.02413 0.580605 6.81164C0.625857 6.56768 0.708493 6.34929 0.830475 6.13484C1.05083 5.74135 1.4148 5.4305 1.93224 5.14718L2.36901 4.92682C2.61691 4.82058 2.83333 4.7714 2.98482 4.74779C3.16583 4.71631 3.31143 4.71238 3.5849 4.73402L3.99216 4.7773C4.23022 4.79894 4.40139 4.83435 4.5037 4.87764C4.63158 4.92879 4.71815 4.98388 4.88539 5.11373L4.95621 5.17079L4.97982 5.19047C4.97982 5.19047 4.98573 5.1944 4.9877 5.19637C5.06639 5.38131 5.15295 5.56625 5.29658 5.77283L5.36937 5.87711L5.48152 6.01876L5.73336 6.31388L5.84353 6.45357L5.9183 6.55587L5.98912 6.65818C5.9301 6.73688 5.87501 6.81558 5.82779 6.88641L5.71564 7.06938L5.67433 7.15005L5.5189 7.4727C5.40085 7.72257 5.39298 7.97047 5.39495 8.18099C5.39495 8.32068 5.39496 8.44856 5.41463 8.57448C5.44414 8.7968 5.50513 9.01519 5.61727 9.22964L5.694 9.36343C5.77073 9.49328 5.8632 9.59362 5.96157 9.68215L5.97535 9.69396L5.9478 9.70576L5.8337 9.78052L5.69991 9.88677C5.46382 10.1032 5.27691 10.3904 5.12148 10.6836H5.11557C5.1018 10.6836 5.08803 10.6855 5.07425 10.6895L5.03097 10.7013L5.00934 10.7092H4.99162L4.95227 10.717L4.90702 10.721L4.84603 10.7269L4.7693 10.7347L4.77324 10.7367ZM10.9294 12.6196C10.9215 12.8202 10.9018 12.9757 10.8487 13.1134C10.7385 13.3928 10.5831 13.6761 10.3864 14.0715C10.2841 14.2781 10.1837 14.4591 10.0794 14.5949C9.94369 14.77 9.73515 14.9116 9.38888 15.0671C9.11147 15.189 8.81438 15.2992 8.60583 15.3228C8.49368 15.3386 8.36973 15.3346 8.22217 15.3287C7.91328 15.313 7.57489 15.2717 7.28174 15.1654C7.12631 15.1084 6.98072 15.0395 6.83906 14.9628C6.55575 14.8054 6.29604 14.6283 6.04814 14.4729C5.92026 14.3962 5.83959 14.3391 5.75499 14.2348C5.62318 14.0794 5.5071 13.8787 5.37528 13.6603C5.26904 13.4793 5.2474 13.3652 5.24346 13.1173L5.25919 12.1828C5.26706 11.8778 5.34183 11.6083 5.48742 11.2718C5.64285 10.902 5.85337 10.5085 6.08552 10.2803L6.18193 10.1779L6.24883 10.1091L6.31768 10.052L6.42786 10.1465L6.57149 10.2468L6.67379 10.3019L6.85087 10.3983L7.01023 10.4613L7.63588 10.6305C7.84443 10.6777 8.05887 10.6954 8.25955 10.7013L8.62157 10.719C8.73765 10.719 8.87144 10.7131 9.00326 10.6757L9.18623 10.6226C9.29837 10.5754 9.37313 10.5242 9.43019 10.4849L9.61907 10.3452L9.72531 10.2606L9.86106 10.1504L9.8827 10.1347L9.91025 10.176L9.93582 10.2075L9.95157 10.2252L9.96337 10.2389L9.98698 10.2704L10.0047 10.294L10.0303 10.3334L10.1641 10.4967L10.2467 10.5832C10.2978 10.6462 10.3313 10.6974 10.3647 10.7623L10.5025 11.0062L10.5733 11.0948L10.6146 11.1617L10.6284 11.1892L10.6894 11.3506L10.8212 11.6496C10.8527 11.7362 10.8802 11.8286 10.9058 11.9919C10.9373 12.167 10.9373 12.3835 10.9294 12.6235V12.6196ZM15.6454 8.82238C15.5627 9.11159 15.4545 9.32998 15.3286 9.49918L14.9725 9.92218C14.7305 10.1957 14.3941 10.414 14.0655 10.6108C13.8451 10.7347 13.5599 10.8272 13.3002 10.8941C13.1664 10.9315 13.0424 10.9472 12.948 10.9492L12.8122 10.9433L12.7434 10.9394L12.6588 10.9354H12.5329C12.3597 10.9315 12.2594 10.9098 12.1236 10.8705L11.8698 10.7879L11.736 10.7465L11.6082 10.6915L11.5472 10.6698L11.4842 10.6501L11.4291 10.6344L11.3819 10.6226L11.3386 10.6128L11.2914 10.601L11.2678 10.5951L11.2481 10.5911L11.2068 10.5793L11.1733 10.5695L11.1537 10.5636L11.1222 10.5557L11.1025 10.5518L11.0769 10.5459L11.0238 10.536L10.9825 10.5321H10.9648C10.9648 10.5321 10.9471 10.5321 10.9373 10.5321L10.9195 10.5006C10.8743 10.4003 10.8153 10.296 10.7346 10.1917L10.6205 10.0579L10.5379 9.95366L10.5221 9.93202L10.4985 9.89857L10.4769 9.86906L10.4592 9.84348L10.4316 9.80413L10.3883 9.75101L10.3588 9.7215L10.3451 9.70773C10.3569 9.69396 10.3687 9.68215 10.3805 9.66838L10.4749 9.54443L10.5398 9.45196L10.6205 9.33195L10.6638 9.26112C10.7799 9.03879 10.831 8.84402 10.8684 8.68859C10.9195 8.49382 10.9569 8.25772 10.9707 8.01179V7.67535C10.9687 7.54156 10.9805 7.38614 10.9255 7.20316L10.8723 7.06938L10.7936 6.89821C10.7661 6.83132 10.7366 6.77229 10.7051 6.7172C10.7051 6.7172 10.709 6.71524 10.709 6.71327L10.7464 6.67786L10.7838 6.63457L10.8113 6.59522L10.833 6.55981L10.8487 6.53226L10.9333 6.38274L11.0199 6.27847L11.0671 6.23124L11.1891 6.10336L11.3071 5.93219L11.3701 5.83579L11.4173 5.76693L11.4842 5.68429L11.5629 5.56231C11.5885 5.54461 11.616 5.5269 11.6475 5.50919C11.8206 5.40295 12.041 5.27507 12.2732 5.16489C12.4994 5.05668 12.6588 5.02914 12.8831 5.02914L13.2333 5.03897C13.4831 5.05864 13.9474 5.23768 14.3705 5.46197C14.6656 5.61543 14.9528 5.86334 15.183 6.13681C15.3188 6.29421 15.4368 6.50079 15.5254 6.73098C15.6788 7.13431 15.7378 7.48451 15.7575 7.82095C15.7733 8.09639 15.7496 8.47217 15.6473 8.82041L15.6454 8.82238Z" fill="black"/>
<path d="M41.0654 4.62351V3.2463L41.3542 1.96745L42.6059 0.885356L43.8575 0.393494H45.6869L47.3236 1.47559L47.9013 3.2463L47.3236 5.31212L48.5753 4.91863H49.4418L50.6935 5.31212L52.0414 6.39421V8.16492L51.0786 10.2307L49.0567 11.2145L47.3236 10.9193V13.2803L46.3608 14.8542L44.9166 15.7396L42.2208 14.8542L41.0654 13.2803L41.3542 10.9193L39.91 11.2145L38.177 10.9193L37.0216 9.64051L36.6365 7.8698L37.0216 5.80398L38.5621 4.62351H39.91H41.0654Z" fill="#F8BA00"/>
<ellipse cx="44.3389" cy="8.06657" rx="2.40702" ry="2.36094" fill="white"/>
<path d="M52.3401 7.7875C52.3189 7.40384 52.2457 6.98674 52.0744 6.52636C51.9704 6.24305 51.8279 5.97548 51.6392 5.75119C51.3677 5.43836 51.0287 5.15505 50.6552 4.97011C50.195 4.74779 49.7155 4.55694 49.3227 4.55301L48.9452 4.56481C48.6814 4.58055 48.4388 4.64351 48.1731 4.79304C48.1076 4.83042 48.046 4.86781 47.9843 4.90715L48.0132 4.83632C48.0575 4.71631 48.098 4.59039 48.1095 4.46054C48.123 4.31692 48.1057 4.21067 48.1037 4.13984L48.1191 3.75423L48.1134 3.36074C48.1134 3.12661 48.1153 2.8433 48.0729 2.5777C47.9882 2.0819 47.7591 1.57036 47.3296 1.18277C47.1063 0.982089 46.8656 0.736161 46.571 0.564992C46.2166 0.356443 45.7892 0.12035 45.2827 0.0377175C44.9611 -0.0173711 44.6453 -0.00753388 44.2698 0.0377175C43.9483 0.0770664 43.6633 0.147893 43.4052 0.232493C43.1876 0.301354 42.9623 0.391855 42.7544 0.513837C42.3577 0.744028 42.0053 1.05489 41.6606 1.36575C41.2948 1.69234 41.0233 2.09173 40.8885 2.58163C40.8114 2.85904 40.8114 3.08923 40.8134 3.28794C40.8153 3.50436 40.8403 3.72865 40.8808 3.91556L40.977 4.42513C40.977 4.42513 40.9809 4.4389 40.9828 4.44677C40.9732 4.44087 40.9636 4.43496 40.9539 4.42906C40.7806 4.34052 40.5688 4.29528 40.3069 4.26183L39.8948 4.20871C39.6041 4.18313 39.3961 4.18707 39.1747 4.22248C38.9956 4.25593 38.7414 4.31888 38.4564 4.44874C38.2927 4.52153 38.1291 4.61007 37.9846 4.69073C37.4243 5.00159 36.9775 5.38131 36.6983 5.88498C36.5558 6.14468 36.4518 6.42406 36.3979 6.73098C36.3575 6.97101 36.3459 7.16972 36.3479 7.37433L36.3517 8.18689C36.3556 8.40724 36.3883 8.61579 36.4576 8.8027C36.5308 9.00732 36.6598 9.25325 36.7811 9.48344C36.8736 9.66248 36.9621 9.82184 37.0642 9.96547L37.3838 10.4534C37.5244 10.6797 37.665 10.8213 37.821 10.9236C37.9846 11.0279 38.1445 11.1282 38.3216 11.203C38.414 11.2423 38.5084 11.2718 38.6047 11.2915L38.7529 11.3112L38.8435 11.321C38.9725 11.3545 39.0225 11.3919 39.1516 11.4174L39.7138 11.5138C39.9353 11.5394 40.1298 11.506 40.2954 11.4529L40.6824 11.325L40.927 11.2718L41.029 11.2463L41.0887 11.2364L41.1253 11.2325C41.0059 11.5414 40.9289 11.8444 40.9173 12.1729L40.8865 13.1291C40.8865 13.4282 40.9308 13.7076 41.081 13.981C41.2004 14.1994 41.3198 14.4375 41.4969 14.6618C41.6337 14.831 41.7916 14.9451 41.9475 15.0415C42.1748 15.1753 42.4463 15.3523 42.7505 15.5156C42.9104 15.6042 43.0779 15.6888 43.2627 15.7596C43.6344 15.9052 44.0214 15.9563 44.3546 15.9819C44.5028 15.9937 44.6665 16.0114 44.8648 15.9898C45.1864 15.9426 45.5061 15.8009 45.7949 15.6612C46.182 15.4783 46.4881 15.2736 46.698 14.9903C46.8405 14.8015 46.9541 14.585 47.0639 14.3607C47.2507 13.9712 47.4047 13.6702 47.5241 13.3534C47.6127 13.1272 47.6435 12.895 47.6551 12.6589C47.6666 12.4051 47.6743 12.1474 47.632 11.8896C47.5992 11.6988 47.5569 11.5552 47.5107 11.4371L47.4413 11.2837L47.4721 11.2974L47.6397 11.3702L47.7802 11.4155L48.0479 11.4942C48.2135 11.5394 48.3926 11.5689 48.6102 11.567H48.7527L48.822 11.563L48.8894 11.5591L49.0223 11.5532C49.1725 11.5512 49.3438 11.5296 49.5345 11.4725C49.8021 11.386 50.1141 11.2699 50.3817 11.0987C50.7284 10.8941 51.1077 10.658 51.4177 10.3117L51.799 9.85529C51.9704 9.62706 52.1109 9.34178 52.213 8.99354C52.3343 8.56464 52.3613 8.13574 52.342 7.79734L52.3401 7.7875ZM41.4103 2.72328C41.5124 2.33766 41.7088 2.04058 42.0092 1.7671C42.3481 1.46215 42.6774 1.17883 43.0163 0.980121C43.1819 0.883716 43.3744 0.805018 43.5612 0.745994C43.7961 0.673199 44.0484 0.614178 44.3315 0.582699C44.68 0.54335 44.9342 0.537447 45.1922 0.582699C45.5889 0.653527 45.9528 0.85224 46.2879 1.05685C46.4958 1.18277 46.7173 1.40509 46.9464 1.61954C47.2603 1.90876 47.4298 2.29045 47.4952 2.68197C47.528 2.87281 47.5338 3.13252 47.5357 3.36468L47.5511 3.768L47.5665 4.13984L47.578 4.41726L47.5164 4.65138L47.4124 4.91699L47.3874 4.98388L47.3489 5.06062L47.2892 5.17866L47.1756 5.35179L47.1082 5.43443L47.0369 5.54461L46.9715 5.65085L46.8829 5.78267L46.8271 5.84366L46.7481 5.92432C46.7154 5.96367 46.6615 6.0286 46.6191 6.10533L46.5209 6.26666L46.5093 6.28437C46.4342 6.1978 46.3476 6.11123 46.2359 6.04237L46.1781 6.00499L45.9451 5.89088L45.818 5.8476L45.6332 5.78464C45.3251 5.67446 45.0247 5.65872 44.7281 5.65675L44.2583 5.65085C44.1408 5.64692 44.006 5.64101 43.8655 5.66069L43.7923 5.66856L43.7268 5.67839L43.671 5.6902L43.6171 5.702L43.5574 5.71774L43.5073 5.73348L43.4688 5.74725L43.4303 5.76103L43.386 5.77873L43.359 5.79054L43.3205 5.80824L43.2936 5.82202L43.2647 5.83579L43.2281 5.85546L43.1896 5.87908L43.1318 5.92039L43.1087 5.94007C43.0971 5.9499 43.0894 5.96367 43.0798 5.97548C43.0548 5.98532 43.0317 5.99515 43.0047 6.00696C42.8333 6.09746 42.6697 6.18993 42.5214 6.30994V6.30601L42.4521 6.186L42.3346 6.00302L42.1208 5.69413L42.0227 5.55444L41.9668 5.47181C41.8551 5.29868 41.8012 5.16292 41.7319 4.97798C41.6549 4.7832 41.5682 4.53137 41.5201 4.29527L41.4141 3.78768C41.3814 3.64405 41.3583 3.44731 41.3545 3.2722C41.3487 3.07939 41.3448 2.92987 41.3987 2.72525L41.4103 2.72328ZM46.3476 9.0388L46.3379 9.06044L46.2667 9.18439L46.2128 9.26702L46.1281 9.39097C46.0703 9.4795 46.0067 9.56017 45.922 9.64477L45.8469 9.7156L45.7526 9.78643L45.612 9.88283L45.4965 9.95759L45.327 10.0619L45.1556 10.1425L45.0613 10.174C44.9842 10.1898 44.9034 10.1878 44.7975 10.1799L44.4605 10.1484C44.2852 10.1366 44.1081 10.113 43.9502 10.0697L43.3744 9.91038L43.2839 9.8789L43.1433 9.8002L43.0605 9.75298L42.9893 9.70379L42.8949 9.61526L42.8121 9.53066L42.6619 9.35555L42.5522 9.25325C42.479 9.18636 42.4424 9.14701 42.4058 9.08208L42.3346 8.93649C42.2614 8.8086 42.2114 8.65711 42.1844 8.50168L42.1767 8.18296C42.1767 7.99802 42.1902 7.86029 42.2576 7.7206L42.402 7.39007L42.4251 7.33892L42.5079 7.19529L42.7525 6.83328C42.8622 6.68769 43.0259 6.56965 43.2647 6.42209L43.2743 6.41618C43.3013 6.41618 43.3263 6.42012 43.3513 6.41422L43.4129 6.39848L43.4495 6.38471L43.4842 6.37094L43.5073 6.3611L43.5285 6.35323L43.5612 6.34142L43.5805 6.33356L43.6016 6.32568L43.6286 6.31585L43.6402 6.31191L43.6845 6.30011L43.7153 6.29223L43.7518 6.2824L43.7923 6.27256L43.8462 6.26272L43.9098 6.24895L43.9521 6.23715C44.0388 6.21944 44.1408 6.21747 44.2544 6.21354L44.7262 6.21748C45.0054 6.21748 45.2346 6.23518 45.4579 6.31388L45.6813 6.38274L45.7699 6.40831L45.9374 6.47914L45.9817 6.50078C46.0587 6.54013 46.155 6.63064 46.2301 6.71524C46.3071 6.81361 46.3726 6.89428 46.4458 7.08118L46.5132 7.26415L46.5478 7.36253C46.5671 7.42745 46.569 7.53173 46.571 7.66945V7.99211C46.5632 8.19476 46.5363 8.40724 46.5035 8.56661C46.4708 8.71416 46.4342 8.85582 46.3456 9.03683L46.3476 9.0388ZM41.0194 10.7367L40.9366 10.7505L40.8172 10.7721L40.565 10.8134C40.4167 10.8449 40.2915 10.8961 40.1509 10.9374C40.0296 10.9728 39.9199 10.9866 39.7735 10.9649L39.244 10.8685C39.2228 10.8646 39.1419 10.8252 38.9725 10.782L38.8069 10.7544L38.6933 10.7426L38.5219 10.6954C38.389 10.6403 38.2561 10.5577 38.0982 10.4573C37.9923 10.3904 37.9384 10.3412 37.821 10.1543L37.4743 9.64084C37.3935 9.53263 37.3145 9.39687 37.2259 9.22964C37.1065 9.00142 36.9833 8.75942 36.9313 8.61383C36.8851 8.48594 36.862 8.33839 36.8601 8.16525V7.36253C36.8639 7.17759 36.8755 7.02413 36.9159 6.81164C36.9602 6.56768 37.0411 6.34929 37.1605 6.13484C37.3761 5.74135 37.7324 5.4305 38.2388 5.14718L38.6663 4.92682C38.9089 4.82058 39.1207 4.7714 39.269 4.74779C39.4462 4.71631 39.5887 4.71238 39.8563 4.73402L40.2549 4.7773C40.4879 4.79894 40.6555 4.83435 40.7556 4.87764C40.8808 4.92879 40.9655 4.98388 41.1292 5.11373L41.1985 5.17079L41.2216 5.19047C41.2216 5.19047 41.2274 5.1944 41.2293 5.19637C41.3063 5.38131 41.391 5.56625 41.5316 5.77283L41.6029 5.87711L41.7126 6.01876L41.9591 6.31388L42.0669 6.45357L42.1401 6.55587L42.2094 6.65818C42.1517 6.73688 42.0977 6.81558 42.0515 6.88641L41.9418 7.06938L41.9013 7.15005L41.7492 7.4727C41.6337 7.72257 41.626 7.97047 41.6279 8.18099C41.6279 8.32068 41.6279 8.44856 41.6472 8.57448C41.676 8.7968 41.7357 9.01519 41.8455 9.22964L41.9206 9.36343C41.9957 9.49328 42.0862 9.59362 42.1825 9.68215L42.1959 9.69396L42.169 9.70576L42.0573 9.78052L41.9264 9.88677C41.6953 10.1032 41.5124 10.3904 41.3602 10.6836H41.3545C41.341 10.6836 41.3275 10.6855 41.314 10.6895L41.2717 10.7013L41.2505 10.7092H41.2331L41.1946 10.717L41.1503 10.721L41.0906 10.7269L41.0155 10.7347L41.0194 10.7367ZM47.0446 12.6196C47.0369 12.8202 47.0177 12.9757 46.9657 13.1134C46.8579 13.3928 46.7057 13.6761 46.5132 14.0715C46.413 14.2781 46.3148 14.4591 46.2128 14.5949C46.0799 14.77 45.8758 14.9116 45.5369 15.0671C45.2654 15.189 44.9746 15.2992 44.7705 15.3228C44.6607 15.3386 44.5394 15.3346 44.395 15.3287C44.0927 15.313 43.7615 15.2717 43.4746 15.1654C43.3224 15.1084 43.1799 15.0395 43.0413 14.9628C42.764 14.8054 42.5098 14.6283 42.2672 14.4729C42.142 14.3962 42.0631 14.3391 41.9803 14.2348C41.8513 14.0794 41.7377 13.8787 41.6086 13.6603C41.5047 13.4793 41.4835 13.3652 41.4796 13.1173L41.495 12.1828C41.5027 11.8778 41.5759 11.6083 41.7184 11.2718C41.8705 10.902 42.0766 10.5085 42.3038 10.2803L42.3981 10.1779L42.4636 10.1091L42.531 10.052L42.6388 10.1465L42.7794 10.2468L42.8795 10.3019L43.0529 10.3983L43.2088 10.4613L43.8212 10.6305C44.0253 10.6777 44.2352 10.6954 44.4316 10.7013L44.7859 10.719C44.8995 10.719 45.0305 10.7131 45.1595 10.6757L45.3386 10.6226C45.4483 10.5754 45.5215 10.5242 45.5773 10.4849L45.7622 10.3452L45.8662 10.2606L45.999 10.1504L46.0202 10.1347L46.0472 10.176L46.0722 10.2075L46.0876 10.2252L46.0992 10.2389L46.1223 10.2704L46.1396 10.294L46.1646 10.3334L46.2956 10.4967L46.3765 10.5832C46.4265 10.6462 46.4593 10.6974 46.492 10.7623L46.6268 11.0062L46.6961 11.0948L46.7366 11.1617L46.75 11.1892L46.8097 11.3506L46.9387 11.6496C46.9695 11.7362 46.9965 11.8286 47.0215 11.9919C47.0523 12.167 47.0523 12.3835 47.0446 12.6235V12.6196ZM51.6604 8.82238C51.5795 9.11159 51.4736 9.32998 51.3503 9.49918L51.0018 9.92218C50.7649 10.1957 50.4357 10.414 50.1141 10.6108C49.8984 10.7347 49.6192 10.8272 49.365 10.8941C49.2341 10.9315 49.1128 10.9472 49.0203 10.9492L48.8875 10.9433L48.8201 10.9394L48.7373 10.9354H48.614C48.4446 10.9315 48.3464 10.9098 48.2135 10.8705L47.9651 10.7879L47.8342 10.7465L47.709 10.6915L47.6493 10.6698L47.5877 10.6501L47.5338 10.6344L47.4875 10.6226L47.4452 10.6128L47.399 10.601L47.3759 10.5951L47.3566 10.5911L47.3162 10.5793L47.2834 10.5695L47.2642 10.5636L47.2334 10.5557L47.2141 10.5518L47.1891 10.5459L47.1371 10.536L47.0966 10.5321H47.0793C47.0793 10.5321 47.062 10.5321 47.0524 10.5321L47.035 10.5006C46.9907 10.4003 46.933 10.296 46.854 10.1917L46.7423 10.0579L46.6615 9.95366L46.646 9.93202L46.6229 9.89857L46.6018 9.86906L46.5844 9.84348L46.5575 9.80413L46.5151 9.75101L46.4862 9.7215L46.4727 9.70773C46.4843 9.69396 46.4958 9.68215 46.5074 9.66838L46.5998 9.54443L46.6634 9.45196L46.7423 9.33195L46.7847 9.26112C46.8983 9.03879 46.9484 8.84402 46.985 8.68859C47.035 8.49382 47.0716 8.25772 47.0851 8.01179V7.67535C47.0832 7.54156 47.0947 7.38614 47.0408 7.20316L46.9888 7.06938L46.9118 6.89821C46.8848 6.83132 46.8559 6.77229 46.8251 6.7172C46.8251 6.7172 46.829 6.71524 46.829 6.71327L46.8656 6.67786L46.9022 6.63457L46.9291 6.59522L46.9503 6.55981L46.9657 6.53226L47.0485 6.38274L47.1332 6.27847L47.1794 6.23124L47.2988 6.10336L47.4144 5.93219L47.476 5.83579L47.5222 5.76693L47.5877 5.68429L47.6647 5.56231C47.6897 5.54461 47.7167 5.5269 47.7475 5.50919C47.917 5.40295 48.1326 5.27507 48.3598 5.16489C48.5813 5.05668 48.7373 5.02914 48.9568 5.02914L49.2995 5.03897C49.5441 5.05864 49.9985 5.23768 50.4125 5.46197C50.7014 5.61543 50.9825 5.86334 51.2078 6.13681C51.3407 6.29421 51.4562 6.50079 51.5429 6.73098C51.6931 7.13431 51.7509 7.48451 51.7701 7.82095C51.7855 8.09639 51.7624 8.47217 51.6623 8.82041L51.6604 8.82238Z" fill="black"/>
<path d="M77.168 4.62351V3.2463L77.4631 1.96745L78.7419 0.885356L80.0208 0.393494H81.8898L83.5622 1.47559L84.1524 3.2463L83.5622 5.31212L84.841 4.91863H85.7264L87.0052 5.31212L88.3824 6.39421V8.16492L87.3987 10.2307L85.3329 11.2145L83.5622 10.9193V13.2803L82.5784 14.8542L81.1029 15.7396L78.3484 14.8542L77.168 13.2803L77.4631 10.9193L75.9875 11.2145L74.2168 10.9193L73.0363 9.64051L72.6428 7.8698L73.0363 5.80398L74.6103 4.62351H75.9875H77.168Z" fill="white"/>
<ellipse cx="80.5125" cy="8.06657" rx="2.45931" ry="2.36094" fill="#F8BA00"/>
<path d="M88.6875 7.7875C88.6659 7.40384 88.5911 6.98674 88.416 6.52636C88.3098 6.24305 88.1642 5.97548 87.9714 5.75119C87.694 5.43836 87.3477 5.15505 86.966 4.97011C86.4958 4.74779 86.0059 4.55694 85.6045 4.55301L85.2189 4.56481C84.9494 4.58055 84.7015 4.64351 84.43 4.79304C84.3631 4.83042 84.3001 4.86781 84.2372 4.90715L84.2667 4.83632C84.3119 4.71631 84.3532 4.59039 84.365 4.46054C84.3788 4.31692 84.3611 4.21067 84.3591 4.13984L84.3749 3.75423L84.369 3.36074C84.369 3.12661 84.3709 2.8433 84.3277 2.5777C84.2411 2.0819 84.007 1.57036 83.5682 1.18277C83.34 0.982089 83.0941 0.736161 82.7931 0.564992C82.431 0.356443 81.9943 0.12035 81.4768 0.0377175C81.1483 -0.0173711 80.8256 -0.00753388 80.442 0.0377175C80.1134 0.0770664 79.8222 0.147893 79.5586 0.232493C79.3362 0.301354 79.1061 0.391855 78.8936 0.513837C78.4883 0.744028 78.1282 1.05489 77.7761 1.36575C77.4022 1.69234 77.1248 2.09173 76.9871 2.58163C76.9084 2.85904 76.9084 3.08923 76.9104 3.28794C76.9123 3.50436 76.9379 3.72865 76.9792 3.91556L77.0776 4.42513C77.0776 4.42513 77.0815 4.4389 77.0835 4.44677C77.0737 4.44087 77.0638 4.43496 77.054 4.42906C76.8769 4.34052 76.6605 4.29528 76.3929 4.26183L75.9719 4.20871C75.6748 4.18313 75.4623 4.18707 75.2361 4.22248C75.0531 4.25593 74.7934 4.31888 74.5022 4.44874C74.335 4.52153 74.1678 4.61007 74.0202 4.69073C73.4477 5.00159 72.9912 5.38131 72.7059 5.88498C72.5603 6.14468 72.4541 6.42406 72.399 6.73098C72.3577 6.97101 72.3459 7.16972 72.3479 7.37433L72.3518 8.18689C72.3557 8.40724 72.3892 8.61579 72.46 8.8027C72.5348 9.00732 72.6666 9.25325 72.7905 9.48344C72.885 9.66248 72.9755 9.82184 73.0798 9.96547L73.4064 10.4534C73.55 10.6797 73.6936 10.8213 73.853 10.9236C74.0202 11.0279 74.1835 11.1282 74.3645 11.203C74.4589 11.2423 74.5553 11.2718 74.6537 11.2915L74.8052 11.3112L74.8977 11.321C75.0295 11.3545 75.0806 11.3919 75.2125 11.4174L75.787 11.5138C76.0132 11.5394 76.2119 11.506 76.3811 11.4529L76.7766 11.325L77.0265 11.2718L77.1307 11.2463L77.1917 11.2364L77.2291 11.2325C77.1071 11.5414 77.0284 11.8444 77.0166 12.1729L76.9851 13.1291C76.9851 13.4282 77.0304 13.7076 77.1839 13.981C77.3058 14.1994 77.4278 14.4375 77.6088 14.6618C77.7485 14.831 77.9098 14.9451 78.0692 15.0415C78.3014 15.1753 78.5788 15.3523 78.8896 15.5156C79.0529 15.6042 79.2241 15.6888 79.413 15.7596C79.7927 15.9052 80.1882 15.9563 80.5285 15.9819C80.68 15.9937 80.8472 16.0114 81.0499 15.9898C81.3785 15.9426 81.7051 15.8009 82.0002 15.6612C82.3956 15.4783 82.7085 15.2736 82.9229 14.9903C83.0685 14.8015 83.1846 14.585 83.2967 14.3607C83.4876 13.9712 83.645 13.6702 83.7669 13.3534C83.8574 13.1272 83.8889 12.895 83.9007 12.6589C83.9125 12.4051 83.9204 12.1474 83.8771 11.8896C83.8437 11.6988 83.8004 11.5552 83.7532 11.4371L83.6823 11.2837L83.7138 11.2974L83.885 11.3702L84.0286 11.4155L84.3021 11.4942C84.4713 11.5394 84.6543 11.5689 84.8766 11.567H85.0222L85.093 11.563L85.1619 11.5591L85.2976 11.5532C85.4511 11.5512 85.6262 11.5296 85.821 11.4725C86.0944 11.386 86.4132 11.2699 86.6866 11.0987C87.0408 10.8941 87.4284 10.658 87.7451 10.3117L88.1347 9.85529C88.3098 9.62706 88.4534 9.34178 88.5577 8.99354C88.6816 8.56464 88.7092 8.13574 88.6895 7.79734L88.6875 7.7875ZM77.5203 2.72328C77.6246 2.33766 77.8252 2.04058 78.1322 1.7671C78.4784 1.46215 78.8149 1.17883 79.1611 0.980121C79.3303 0.883716 79.5271 0.805018 79.7179 0.745994C79.958 0.673199 80.2157 0.614178 80.5049 0.582699C80.861 0.54335 81.1207 0.537447 81.3844 0.582699C81.7896 0.653527 82.1615 0.85224 82.5038 1.05685C82.7163 1.18277 82.9426 1.40509 83.1767 1.61954C83.4974 1.90876 83.6705 2.29045 83.7374 2.68197C83.7709 2.87281 83.7768 3.13252 83.7787 3.36468L83.7945 3.768L83.8102 4.13984L83.822 4.41726L83.7591 4.65138L83.6528 4.91699L83.6273 4.98388L83.5879 5.06062L83.5269 5.17866L83.4108 5.35179L83.342 5.43443L83.2692 5.54461L83.2023 5.65085L83.1118 5.78267L83.0547 5.84366L82.9741 5.92432C82.9406 5.96367 82.8855 6.0286 82.8422 6.10533L82.7419 6.26666L82.7301 6.28437C82.6534 6.1978 82.5648 6.11123 82.4507 6.04237L82.3917 6.00499L82.1536 5.89088L82.0238 5.8476L81.8349 5.78464C81.5201 5.67446 81.2132 5.65872 80.9102 5.65675L80.4301 5.65085C80.3101 5.64692 80.1724 5.64101 80.0288 5.66069L79.954 5.66856L79.8871 5.67839L79.8301 5.6902L79.775 5.702L79.714 5.71774L79.6628 5.73348L79.6235 5.74725L79.5841 5.76103L79.5389 5.77873L79.5114 5.79054L79.472 5.80824L79.4445 5.82202L79.4149 5.83579L79.3776 5.85546L79.3382 5.87908L79.2792 5.92039L79.2556 5.94007C79.2438 5.9499 79.2359 5.96367 79.2261 5.97548C79.2005 5.98532 79.1769 5.99515 79.1493 6.00696C78.9742 6.09746 78.807 6.18993 78.6555 6.30994V6.30601L78.5847 6.186L78.4647 6.00302L78.2463 5.69413L78.1459 5.55444L78.0889 5.47181C77.9748 5.29868 77.9197 5.16292 77.8489 4.97798C77.7702 4.7832 77.6816 4.53137 77.6324 4.29527L77.5242 3.78768C77.4908 3.64405 77.4672 3.44731 77.4632 3.2722C77.4573 3.07939 77.4534 2.92987 77.5085 2.72525L77.5203 2.72328ZM82.5648 9.0388L82.555 9.06044L82.4822 9.18439L82.4271 9.26702L82.3405 9.39097C82.2815 9.4795 82.2166 9.56017 82.13 9.64477L82.0533 9.7156L81.9569 9.78643L81.8133 9.88283L81.6952 9.95759L81.5221 10.0619L81.347 10.1425L81.2506 10.174C81.1719 10.1898 81.0892 10.1878 80.981 10.1799L80.6367 10.1484C80.4577 10.1366 80.2767 10.113 80.1153 10.0697L79.5271 9.91038L79.4346 9.8789L79.291 9.8002L79.2064 9.75298L79.1336 9.70379L79.0372 9.61526L78.9526 9.53066L78.7991 9.35555L78.687 9.25325C78.6122 9.18636 78.5748 9.14701 78.5375 9.08208L78.4647 8.93649C78.3899 8.8086 78.3387 8.65711 78.3112 8.50168L78.3033 8.18296C78.3033 7.99802 78.3171 7.86029 78.386 7.7206L78.5335 7.39007L78.5571 7.33892L78.6417 7.19529L78.8916 6.83328C79.0037 6.68769 79.171 6.56965 79.4149 6.42209L79.4248 6.41618C79.4523 6.41618 79.4779 6.42012 79.5035 6.41422L79.5664 6.39848L79.6038 6.38471L79.6392 6.37094L79.6628 6.3611L79.6845 6.35323L79.7179 6.34142L79.7376 6.33356L79.7592 6.32568L79.7868 6.31585L79.7986 6.31191L79.8439 6.30011L79.8753 6.29223L79.9127 6.2824L79.954 6.27256L80.0091 6.26272L80.074 6.24895L80.1173 6.23715C80.2059 6.21944 80.3101 6.21747 80.4262 6.21354L80.9082 6.21748C81.1935 6.21748 81.4276 6.23518 81.6559 6.31388L81.8841 6.38274L81.9746 6.40831L82.1458 6.47914L82.191 6.50078C82.2697 6.54013 82.3681 6.63064 82.4448 6.71524C82.5235 6.81361 82.5904 6.89428 82.6652 7.08118L82.734 7.26415L82.7694 7.36253C82.7891 7.42745 82.7911 7.53173 82.7931 7.66945V7.99211C82.7852 8.19476 82.7576 8.40724 82.7242 8.56661C82.6907 8.71416 82.6534 8.85582 82.5629 9.03683L82.5648 9.0388ZM77.1209 10.7367L77.0363 10.7505L76.9143 10.7721L76.6566 10.8134C76.5051 10.8449 76.3772 10.8961 76.2336 10.9374C76.1096 10.9728 75.9975 10.9866 75.8479 10.9649L75.3069 10.8685C75.2853 10.8646 75.2026 10.8252 75.0295 10.782L74.8603 10.7544L74.7442 10.7426L74.5691 10.6954C74.4334 10.6403 74.2976 10.5577 74.1363 10.4573C74.0281 10.3904 73.973 10.3412 73.853 10.1543L73.4988 9.64084C73.4162 9.53263 73.3355 9.39687 73.245 9.22964C73.123 9.00142 72.9971 8.75942 72.944 8.61383C72.8968 8.48594 72.8732 8.33839 72.8712 8.16525V7.36253C72.8751 7.17759 72.8869 7.02413 72.9283 6.81164C72.9735 6.56768 73.0561 6.34929 73.1781 6.13484C73.3985 5.74135 73.7625 5.4305 74.2799 5.14718L74.7167 4.92682C74.9646 4.82058 75.181 4.7714 75.3325 4.74779C75.5135 4.71631 75.6591 4.71238 75.9326 4.73402L76.3398 4.7773C76.5779 4.79894 76.749 4.83435 76.8514 4.87764C76.9792 4.92879 77.0658 4.98388 77.233 5.11373L77.3039 5.17079L77.3275 5.19047C77.3275 5.19047 77.3334 5.1944 77.3354 5.19637C77.4141 5.38131 77.5006 5.56625 77.6442 5.77283L77.717 5.87711L77.8292 6.01876L78.081 6.31388L78.1912 6.45357L78.266 6.55587L78.3368 6.65818C78.2778 6.73688 78.2227 6.81558 78.1754 6.88641L78.0633 7.06938L78.022 7.15005L77.8666 7.4727C77.7485 7.72257 77.7406 7.97047 77.7426 8.18099C77.7426 8.32068 77.7426 8.44856 77.7623 8.57448C77.7918 8.7968 77.8528 9.01519 77.9649 9.22964L78.0417 9.36343C78.1184 9.49328 78.2109 9.59362 78.3092 9.68215L78.323 9.69396L78.2955 9.70576L78.1814 9.78052L78.0476 9.88677C77.8115 10.1032 77.6246 10.3904 77.4691 10.6836H77.4632C77.4495 10.6836 77.4357 10.6855 77.4219 10.6895L77.3786 10.7013L77.357 10.7092H77.3393L77.2999 10.717L77.2547 10.721L77.1937 10.7269L77.117 10.7347L77.1209 10.7367ZM83.277 12.6196C83.2692 12.8202 83.2495 12.9757 83.1964 13.1134C83.0862 13.3928 82.9308 13.6761 82.734 14.0715C82.6317 14.2781 82.5314 14.4591 82.4271 14.5949C82.2913 14.77 82.0828 14.9116 81.7365 15.0671C81.4591 15.189 81.162 15.2992 80.9535 15.3228C80.8413 15.3386 80.7174 15.3346 80.5698 15.3287C80.2609 15.313 79.9225 15.2717 79.6294 15.1654C79.474 15.1084 79.3284 15.0395 79.1867 14.9628C78.9034 14.8054 78.6437 14.6283 78.3958 14.4729C78.2679 14.3962 78.1873 14.3391 78.1027 14.2348C77.9708 14.0794 77.8548 13.8787 77.7229 13.6603C77.6167 13.4793 77.5951 13.3652 77.5911 13.1173L77.6068 12.1828C77.6147 11.8778 77.6895 11.6083 77.8351 11.2718C77.9905 10.902 78.201 10.5085 78.4332 10.2803L78.5296 10.1779L78.5965 10.1091L78.6653 10.052L78.7755 10.1465L78.9191 10.2468L79.0214 10.3019L79.1985 10.3983L79.3579 10.4613L79.9835 10.6305C80.1921 10.6777 80.4065 10.6954 80.6072 10.7013L80.9692 10.719C81.0853 10.719 81.2191 10.7131 81.3509 10.6757L81.5339 10.6226C81.646 10.5754 81.7208 10.5242 81.7778 10.4849L81.9667 10.3452L82.073 10.2606L82.2087 10.1504L82.2304 10.1347L82.2579 10.176L82.2835 10.2075L82.2992 10.2252L82.311 10.2389L82.3346 10.2704L82.3523 10.294L82.3779 10.3334L82.5117 10.4967L82.5943 10.5832C82.6455 10.6462 82.6789 10.6974 82.7124 10.7623L82.8501 11.0062L82.9209 11.0948L82.9623 11.1617L82.976 11.1892L83.037 11.3506L83.1688 11.6496C83.2003 11.7362 83.2279 11.8286 83.2534 11.9919C83.2849 12.167 83.2849 12.3835 83.277 12.6235V12.6196ZM87.993 8.82238C87.9104 9.11159 87.8022 9.32998 87.6763 9.49918L87.3202 9.92218C87.0782 10.1957 86.7417 10.414 86.4132 10.6108C86.1928 10.7347 85.9075 10.8272 85.6478 10.8941C85.514 10.9315 85.3901 10.9472 85.2956 10.9492L85.1599 10.9433L85.091 10.9394L85.0064 10.9354H84.8805C84.7074 10.9315 84.607 10.9098 84.4713 10.8705L84.2175 10.7879L84.0837 10.7465L83.9558 10.6915L83.8948 10.6698L83.8319 10.6501L83.7768 10.6344L83.7296 10.6226L83.6863 10.6128L83.6391 10.601L83.6154 10.5951L83.5958 10.5911L83.5545 10.5793L83.521 10.5695L83.5013 10.5636L83.4699 10.5557L83.4502 10.5518L83.4246 10.5459L83.3715 10.536L83.3302 10.5321H83.3125C83.3125 10.5321 83.2948 10.5321 83.2849 10.5321L83.2672 10.5006C83.222 10.4003 83.1629 10.296 83.0823 10.1917L82.9681 10.0579L82.8855 9.95366L82.8698 9.93202L82.8462 9.89857L82.8245 9.86906L82.8068 9.84348L82.7793 9.80413L82.736 9.75101L82.7065 9.7215L82.6927 9.70773C82.7045 9.69396 82.7163 9.68215 82.7281 9.66838L82.8226 9.54443L82.8875 9.45196L82.9681 9.33195L83.0114 9.26112C83.1275 9.03879 83.1787 8.84402 83.2161 8.68859C83.2672 8.49382 83.3046 8.25772 83.3184 8.01179V7.67535C83.3164 7.54156 83.3282 7.38614 83.2731 7.20316L83.22 7.06938L83.1413 6.89821C83.1137 6.83132 83.0842 6.77229 83.0528 6.7172C83.0528 6.7172 83.0567 6.71524 83.0567 6.71327L83.0941 6.67786L83.1315 6.63457L83.159 6.59522L83.1806 6.55981L83.1964 6.53226L83.281 6.38274L83.3675 6.27847L83.4148 6.23124L83.5367 6.10336L83.6548 5.93219L83.7177 5.83579L83.765 5.76693L83.8319 5.68429L83.9106 5.56231C83.9361 5.54461 83.9637 5.5269 83.9952 5.50919C84.1683 5.40295 84.3887 5.27507 84.6208 5.16489C84.8471 5.05668 85.0064 5.02914 85.2307 5.02914L85.5809 5.03897C85.8308 5.05864 86.2951 5.23768 86.7181 5.46197C87.0132 5.61543 87.3005 5.86334 87.5307 6.13681C87.6664 6.29421 87.7845 6.50079 87.873 6.73098C88.0265 7.13431 88.0855 7.48451 88.1052 7.82095C88.1209 8.09639 88.0973 8.47217 87.995 8.82041L87.993 8.82238Z" fill="black"/>
</svg>
